<?xml version="1.0" standalone="no"?>
<!DOCTYPE svg PUBLIC "-//W3C//DTD SVG 20010904//EN"
 "http://www.w3.org/TR/2001/REC-SVG-20010904/DTD/svg10.dtd">
<svg version="1.0" xmlns="http://www.w3.org/2000/svg"
 width="512.000000pt" height="512.000000pt" viewBox="0 0 512.000000 512.000000"
 preserveAspectRatio="xMidYMid meet">

<g transform="translate(0.000000,512.000000) scale(0.100000,-0.100000)"
fill="#000000" stroke="none">
<path d="M135 4765 c-51 -18 -110 -81 -124 -131 -16 -56 -15 -4093 0 -4149 15
-52 82 -119 134 -134 54 -15 1444 -15 1498 0 49 13 105 63 128 114 17 37 19
75 19 448 l0 407 290 0 290 0 -2 -262 -3 -263 -107 -5 c-98 -5 -110 -7 -149
-35 -27 -19 -54 -50 -71 -84 -26 -50 -28 -62 -28 -171 0 -116 1 -119 26 -139
27 -21 33 -21 824 -21 l797 0 27 21 28 22 -4 132 c-3 124 -5 134 -31 173 -15
23 -46 54 -69 69 -37 25 -53 29 -147 33 l-106 5 -5 118 c-4 103 -8 121 -24
133 -27 19 -69 18 -95 -3 -19 -16 -21 -30 -23 -133 l-3 -115 -342 -3 -343 -2
0 265 0 265 345 0 345 0 0 -38 c0 -48 27 -75 72 -74 41 1 68 32 68 78 l0 34
723 0 c804 0 796 -1 894 66 28 20 68 59 87 87 70 102 67 30 64 1463 l-3 1289
-33 67 c-36 74 -95 132 -170 170 l-47 23 -1439 3 c-1607 3 -1486 8 -1486 -67
0 -77 -129 -71 1428 -71 930 0 1407 -3 1440 -10 60 -13 118 -60 143 -114 18
-39 19 -88 19 -973 l0 -933 -151 0 c-87 0 -159 -4 -170 -11 -48 -25 -44 -105
7 -128 15 -6 83 -11 169 -11 l145 0 0 -273 c0 -267 -1 -275 -23 -318 -13 -24
-43 -57 -66 -74 l-43 -30 -1524 -3 -1524 -2 0 350 0 350 1309 0 1308 0 27 21
c33 26 36 79 6 109 -20 20 -33 20 -1335 20 l-1315 0 0 1148 c0 1088 -1 1149
-19 1187 -23 51 -79 101 -128 114 -25 7 -284 11 -753 11 -590 -1 -722 -3 -755
-15z m249 -239 c130 -158 107 -151 511 -151 396 0 368 -8 506 150 l91 105 59
0 c39 0 63 -5 73 -16 14 -14 16 -120 16 -1022 l0 -1007 -136 -170 c-75 -93
-141 -181 -146 -195 -18 -48 -198 -965 -198 -1010 1 -25 6 -55 13 -67 7 -12
114 -139 240 -282 214 -245 227 -263 227 -300 0 -76 52 -71 -742 -71 -798 0
-748 -5 -748 72 0 36 14 55 221 291 122 138 230 266 240 282 11 17 19 49 19
74 0 61 -78 461 -95 488 -19 29 -50 37 -85 23 -51 -21 -52 -45 -5 -285 33
-170 40 -223 31 -236 -6 -8 -81 -95 -166 -192 l-155 -177 -3 374 c-1 206 -1
546 0 756 l3 382 72 -90 c69 -86 72 -93 89 -178 9 -49 23 -101 31 -116 25 -51
100 -47 125 7 9 19 6 48 -12 137 -12 62 -26 120 -30 128 -4 8 -69 92 -144 185
l-136 170 0 1004 c0 1146 -9 1041 91 1041 l57 0 86 -104z m887 75 c-12 -16
-35 -41 -52 -55 l-31 -26 -293 0 c-161 0 -300 3 -308 6 -8 3 -34 28 -57 55
l-41 49 401 0 401 0 -20 -29z m367 -3390 l-3 -380 -165 189 c-122 141 -164
196 -162 213 1 12 43 226 93 476 l91 453 71 90 72 90 3 -375 c1 -207 1 -547 0
-756z m1903 -588 c16 -16 24 -38 27 -77 l4 -56 -711 0 -711 0 0 35 c0 49 25
104 52 115 14 5 288 8 670 7 l647 -2 22 -22z"/>
<path d="M323 4230 c-51 -31 -63 -65 -63 -185 0 -117 10 -149 57 -181 27 -18
54 -19 578 -19 524 0 551 1 578 19 47 32 57 64 57 181 0 120 -12 154 -63 185
-31 19 -54 20 -572 20 -518 0 -541 -1 -572 -20z m1057 -185 l0 -55 -485 0
-485 0 0 55 0 55 485 0 485 0 0 -55z"/>
<path d="M355 3703 c-33 -9 -65 -35 -81 -64 -9 -19 -14 -61 -14 -134 0 -120
12 -154 63 -185 31 -19 54 -20 572 -20 518 0 541 1 572 20 51 31 63 65 63 185
0 117 -10 149 -57 181 -27 18 -55 19 -563 21 -294 0 -544 -1 -555 -4z m1025
-198 l0 -55 -485 0 -485 0 0 55 0 55 485 0 485 0 0 -55z"/>
<path d="M800 2571 c-50 -16 -87 -41 -124 -81 -52 -57 -69 -103 -69 -180 -1
-113 56 -199 161 -248 97 -44 222 -21 300 56 129 130 92 350 -73 434 -43 23
-152 33 -195 19z m141 -158 c53 -31 73 -106 45 -162 -46 -88 -178 -85 -220 4
-26 53 -16 102 29 143 41 37 98 43 146 15z"/>
<path d="M490 760 c-26 -26 -26 -70 0 -98 19 -20 30 -22 138 -22 140 0 162 9
162 69 0 63 -17 71 -158 71 -109 0 -124 -2 -142 -20z"/>
<path d="M960 760 c-11 -11 -20 -33 -20 -50 0 -17 9 -39 20 -50 18 -18 33 -20
140 -20 107 0 122 2 140 20 11 11 20 33 20 50 0 17 -9 39 -20 50 -18 18 -33
20 -140 20 -107 0 -122 -2 -140 -20z"/>
<path d="M2759 2042 c-149 -78 -158 -288 -16 -376 68 -42 138 -46 210 -13 113
52 158 176 103 292 -27 59 -46 77 -106 104 -64 29 -126 27 -191 -7z m151 -142
c24 -24 26 -77 3 -102 -22 -24 -77 -24 -103 2 -11 11 -20 33 -20 50 0 17 9 39
20 50 11 11 33 20 50 20 17 0 39 -9 50 -20z"/>
<path d="M4090 1897 c-52 -26 -49 -104 5 -129 58 -26 119 33 95 91 -6 16 -23
33 -36 40 -31 14 -33 14 -64 -2z"/>
<path d="M4363 1900 c-46 -19 -57 -83 -20 -118 48 -45 117 -14 117 51 0 51
-50 86 -97 67z"/>
<path d="M4633 1900 c-48 -20 -58 -87 -17 -119 48 -38 106 -17 120 41 5 22 0
33 -24 58 -32 31 -43 34 -79 20z"/>
</g>
</svg>
