<?xml version="1.0" standalone="no"?>
<!DOCTYPE svg PUBLIC "-//W3C//DTD SVG 20010904//EN"
 "http://www.w3.org/TR/2001/REC-SVG-20010904/DTD/svg10.dtd">
<svg version="1.0" xmlns="http://www.w3.org/2000/svg"
 width="512.000000pt" height="512.000000pt" viewBox="0 0 512.000000 512.000000"
 preserveAspectRatio="xMidYMid meet">

<g transform="translate(0.000000,512.000000) scale(0.100000,-0.100000)"
fill="#000000" stroke="none">
<path d="M439 5106 c-86 -31 -148 -91 -169 -167 -6 -22 -10 -883 -10 -2384 1
-1886 3 -2357 14 -2386 20 -56 61 -103 118 -135 l53 -29 212 -3 c314 -5 325 0
484 213 l93 125 1113 0 1112 0 106 -140 c89 -118 114 -144 158 -167 l52 -28
415 0 415 0 59 29 c75 37 131 93 165 165 l26 56 0 2305 0 2305 -26 56 c-34 72
-90 128 -165 165 l-59 29 -2065 2 c-1672 2 -2072 0 -2101 -11z m3831 -2546 l0
-2390 -232 0 -231 0 -36 38 c-20 21 -51 59 -69 85 l-32 46 146 3 c146 3 146 3
170 31 37 43 26 104 -23 126 -17 8 -472 11 -1623 11 l-1599 0 -25 -22 c-28
-25 -34 -49 -23 -90 12 -44 40 -53 190 -58 l139 -5 -51 -67 c-78 -102 -65 -98
-294 -98 -195 0 -198 0 -222 24 -13 13 -26 39 -30 57 -3 19 -4 277 -3 574 l3
540 1782 5 1782 5 28 21 c15 11 38 36 51 54 21 31 22 43 22 215 0 172 -1 184
-23 215 -44 66 -66 75 -198 78 l-119 4 0 927 0 927 -26 52 c-14 29 -42 66 -62
82 -76 63 -3 61 -1508 58 l-1369 -3 -53 -30 c-56 -30 -100 -83 -120 -144 -9
-25 -12 -283 -12 -953 l0 -919 -87 3 -88 3 -3 1435 c-1 789 0 1450 3 1469 4
18 17 44 30 57 l24 24 1896 0 1895 0 0 -2390z m334 2367 c50 -28 76 -64 87
-118 11 -57 11 -4441 0 -4498 -18 -89 -86 -141 -188 -141 l-63 0 0 2390 0
2390 63 0 c46 0 72 -6 101 -23z m-1047 -1111 l28 -24 0 -914 0 -913 -87 -3
-88 -3 0 164 c0 258 -41 377 -175 513 -130 131 -249 174 -477 174 -159 0 -181
-7 -193 -59 -7 -33 15 -85 40 -95 9 -3 65 -6 124 -6 128 0 195 -11 268 -45 76
-34 163 -122 204 -203 l34 -67 3 -187 4 -188 -86 0 -86 0 0 148 c0 211 -29
280 -142 336 -48 24 -62 26 -179 26 -70 0 -135 -3 -144 -6 -25 -10 -47 -62
-40 -94 11 -48 28 -55 163 -60 121 -6 125 -7 148 -34 23 -26 24 -34 24 -172
l0 -144 -1065 0 -1065 0 0 915 0 916 25 24 24 25 1355 0 1355 0 28 -24z m371
-2153 l-3 -128 -1750 0 -1750 0 -3 128 -3 127 1756 0 1756 0 -3 -127z"/>
<path d="M772 4761 c-204 -72 -232 -348 -47 -457 123 -72 289 -23 355 106 101
198 -98 426 -308 351z m139 -180 c58 -58 23 -141 -60 -141 -31 0 -44 6 -60 26
-69 87 42 193 120 115z"/>
<path d="M3789 4773 c-15 -2 -51 -18 -80 -36 -171 -102 -156 -359 25 -443 102
-48 224 -21 297 65 78 90 80 227 5 326 -47 61 -163 103 -247 88z m105 -185
c40 -35 43 -78 11 -116 -21 -26 -34 -32 -65 -32 -51 0 -95 48 -86 94 8 40 49
76 86 76 16 0 40 -10 54 -22z"/>
<path d="M739 1163 c-158 -81 -186 -296 -53 -413 51 -44 95 -61 164 -61 105
-1 198 58 238 150 8 20 15 65 16 101 1 189 -195 308 -365 223z m146 -147 c62
-26 74 -89 26 -137 -31 -31 -59 -36 -94 -17 -33 17 -46 39 -47 79 0 41 29 75
78 88 1 1 18 -5 37 -13z"/>
<path d="M3752 1177 c-46 -14 -117 -80 -141 -130 -27 -56 -28 -155 -2 -212 88
-195 374 -195 462 0 26 57 25 156 -2 212 -26 54 -96 116 -147 131 -47 14 -125
14 -170 -1z m122 -161 c47 -20 65 -66 43 -112 -32 -67 -116 -69 -151 -3 -17
32 -18 40 -6 69 8 19 26 38 44 46 38 16 31 16 70 0z"/>
<path d="M970 3642 c-32 -32 -37 -56 -19 -95 22 -49 83 -60 125 -23 54 46 30
127 -43 142 -27 5 -37 1 -63 -24z"/>
<path d="M1607 3659 c-93 -12 -208 -52 -292 -101 -84 -49 -216 -180 -264 -262
-75 -127 -119 -308 -107 -446 33 -406 359 -710 760 -710 212 0 390 73 536 220
166 167 237 346 227 575 -8 202 -86 373 -233 514 -125 121 -268 190 -438 211
-89 11 -93 11 -189 -1z m48 -214 c13 -27 21 -66 23 -121 l4 -81 -46 -12 -46
-11 -58 58 c-31 32 -78 71 -105 86 -26 15 -44 32 -41 37 8 14 83 50 144 70 80
26 101 22 125 -26z m215 31 c59 -18 95 -34 153 -70 43 -25 48 -32 42 -55 -10
-42 -54 -110 -96 -151 l-40 -39 -42 27 -43 26 4 64 c4 55 -9 157 -25 198 -6
17 -8 17 47 0z m-566 -237 c53 -24 123 -82 131 -109 4 -11 -3 -33 -17 -54
l-23 -35 -90 0 c-52 0 -110 -6 -138 -14 l-48 -15 6 31 c8 40 71 176 92 199 21
23 34 23 87 -3z m930 -56 c25 -52 50 -119 61 -170 6 -30 4 -33 -35 -53 -50
-25 -136 -41 -184 -33 -32 5 -35 9 -41 50 -6 44 -6 45 52 103 33 32 70 79 84
104 13 25 27 46 31 46 4 0 18 -21 32 -47z m-445 -133 c42 -21 77 -69 87 -118
20 -101 -66 -202 -172 -202 -106 0 -191 108 -164 209 30 111 147 164 249 111z
m-433 -178 c6 -4 16 -27 22 -51 10 -42 9 -45 -16 -65 -45 -34 -92 -89 -122
-140 l-28 -49 -21 34 c-30 49 -63 137 -68 186 -5 42 -5 43 33 59 72 31 174 44
200 26z m914 -165 c-29 -81 -81 -167 -100 -167 -32 1 -102 41 -150 86 -27 26
-50 50 -50 55 0 4 10 23 23 43 l22 35 85 1 c47 0 108 6 135 14 28 7 52 9 54 4
2 -5 -7 -37 -19 -71z m-743 -92 l37 -24 1 -93 c1 -51 7 -110 14 -131 7 -21 10
-41 6 -45 -11 -11 -137 37 -192 74 -58 38 -58 36 -13 124 18 35 94 120 107
120 2 0 20 -11 40 -25z m364 -99 c36 -35 85 -74 109 -86 41 -21 42 -22 21 -36
-34 -24 -122 -60 -180 -74 -48 -11 -56 -11 -66 4 -25 33 -46 124 -43 182 3 56
4 59 33 65 55 12 60 9 126 -55z"/>
<path d="M2444 3660 c-29 -11 -54 -49 -54 -78 0 -32 52 -82 85 -82 34 0 85 50
85 84 0 52 -68 96 -116 76z"/>
<path d="M3005 3652 c-94 -45 -104 -79 -105 -362 0 -250 6 -288 54 -336 41
-41 89 -54 207 -54 108 0 151 11 193 49 53 48 56 68 56 338 0 279 -6 305 -77
353 -33 23 -47 25 -162 28 -107 2 -132 0 -166 -16z m235 -367 l0 -215 -85 0
-85 0 0 215 0 215 85 0 85 0 0 -215z"/>
<path d="M994 2210 c-26 -10 -54 -48 -54 -72 0 -30 21 -65 47 -77 39 -18 63
-13 95 19 25 26 29 36 24 63 -11 55 -64 87 -112 67z"/>
<path d="M2444 2210 c-26 -10 -54 -48 -54 -72 0 -30 21 -65 47 -77 39 -18 63
-13 95 19 25 26 29 36 24 63 -11 55 -64 87 -112 67z"/>
</g>
</svg>
