<?xml version="1.0" standalone="no"?>
<!DOCTYPE svg PUBLIC "-//W3C//DTD SVG 20010904//EN"
 "http://www.w3.org/TR/2001/REC-SVG-20010904/DTD/svg10.dtd">
<svg version="1.0" xmlns="http://www.w3.org/2000/svg"
 width="512.000000pt" height="512.000000pt" viewBox="0 0 512.000000 512.000000"
 preserveAspectRatio="xMidYMid meet">

<g transform="translate(0.000000,512.000000) scale(0.100000,-0.100000)"
fill="#000000" stroke="none">
<path d="M1090 4842 c-27 -10 -67 -39 -100 -72 -98 -98 -90 36 -90 -1502 0
-741 -4 -1349 -8 -1352 -4 -3 -21 24 -36 59 -30 70 -77 119 -148 157 -35 19
-59 23 -133 23 -79 0 -97 -4 -148 -29 -224 -109 -220 -454 7 -556 22 -10 49
-21 59 -24 16 -5 17 -28 17 -306 0 -278 -1 -301 -17 -306 -59 -17 -129 -63
-163 -106 -53 -66 -74 -134 -68 -217 9 -120 66 -209 166 -258 50 -24 69 -28
147 -28 78 0 97 4 141 27 65 34 114 90 144 161 l24 57 299 -2 299 -3 19 -51
c25 -67 74 -123 140 -159 49 -27 62 -30 149 -30 84 0 101 3 145 27 104 55 156
139 163 264 4 73 1 88 -22 140 -15 33 -41 74 -59 92 -33 35 -115 82 -142 82
-13 0 -15 38 -15 304 l0 305 59 26 c73 33 122 83 157 159 23 52 26 67 22 140
-8 136 -74 231 -195 276 -157 58 -344 -20 -398 -165 -10 -28 -22 -54 -27 -59
-4 -6 -8 526 -8 1182 l0 1192 990 0 990 0 0 -210 0 -210 -352 0 c-398 0 -408
-2 -464 -76 l-29 -37 -3 -218 -3 -218 65 -87 66 -87 0 -1100 0 -1100 -65 -87
-65 -87 0 -210 0 -209 29 -45 c17 -27 44 -53 67 -65 38 -18 72 -19 1041 -19
l1001 0 43 30 c75 53 84 83 87 294 2 101 1 193 -2 205 -3 12 -35 61 -71 109
l-65 86 0 1097 0 1097 67 90 68 91 0 196 c0 107 -3 207 -8 222 -10 38 -65 98
-104 114 -25 11 -111 14 -382 14 l-350 0 -3 383 -3 382 -25 50 c-29 59 -84
116 -142 147 l-43 23 -1335 2 c-1230 2 -1339 0 -1380 -15z m2698 -126 c37 -19
68 -55 87 -98 13 -31 15 -95 15 -393 l0 -355 -155 0 -155 0 0 218 c0 243 -5
267 -69 309 l-34 23 -1021 0 c-976 0 -1022 -1 -1049 -19 -67 -44 -61 61 -67
-1276 l-5 -1210 -153 -3 -152 -3 2 1359 3 1359 27 35 c56 73 -54 68 1396 68
1100 0 1307 -2 1330 -14z m936 -998 c13 -18 16 -54 16 -183 l0 -161 -56 -75
c-31 -41 -62 -88 -70 -106 -12 -27 -14 -219 -14 -1147 0 -716 4 -1124 10
-1141 5 -14 37 -62 70 -105 l60 -79 0 -159 c0 -146 -2 -162 -21 -186 l-20 -26
-963 0 c-854 0 -964 2 -984 16 -21 15 -22 21 -22 190 l0 174 60 81 c33 44 62
91 65 102 3 12 4 531 3 1153 l-3 1130 -62 84 -63 84 0 172 c0 144 3 175 16
188 14 14 117 16 989 16 l974 0 15 -22z m-4063 -1708 c34 -18 79 -70 79 -92 0
-5 -20 -8 -45 -8 -110 0 -185 -76 -185 -186 0 -24 -4 -44 -10 -44 -18 0 -83
65 -96 97 -28 66 -14 145 34 197 55 58 149 73 223 36z m1223 -4 c109 -64 117
-234 15 -304 l-34 -23 -11 59 c-20 113 -84 172 -183 172 -28 0 -51 4 -51 9 0
16 52 73 85 92 45 28 127 25 179 -5z m-170 -248 c14 -20 16 -86 16 -519 0
-474 -1 -498 -19 -520 l-19 -24 -510 0 c-417 0 -512 2 -525 14 -15 12 -17 62
-17 530 0 389 3 520 12 529 9 9 140 12 529 12 l518 0 15 -22z m-1204 -1002 c0
-56 14 -93 48 -129 39 -42 75 -57 132 -57 27 0 50 -3 50 -7 0 -20 -43 -69 -77
-90 -44 -27 -128 -31 -171 -9 -119 62 -138 216 -38 304 20 17 41 32 46 32 6 0
10 -20 10 -44z m1437 -34 c53 -89 20 -208 -70 -251 -51 -25 -125 -27 -166 -7
-30 16 -91 80 -91 96 0 6 23 10 51 10 100 0 170 67 184 178 l7 52 30 -17 c16
-10 41 -37 55 -61z"/>
<path d="M3530 3517 c-41 -12 -104 -38 -140 -57 -82 -44 -202 -163 -253 -250
-157 -271 -117 -618 96 -833 331 -335 864 -271 1101 132 100 172 120 369 57
571 -61 194 -230 359 -438 428 -65 21 -101 26 -213 29 -118 3 -144 0 -210 -20z
m307 -108 c62 -11 63 -12 63 -43 0 -44 -26 -129 -62 -200 -28 -55 -31 -58 -60
-52 -17 3 -37 6 -44 6 -10 0 -14 15 -14 53 -1 55 -15 177 -26 221 -6 25 -4 26
37 26 23 0 71 -5 106 -11z m-265 -60 c5 -19 11 -88 14 -154 l7 -121 -25 -16
c-25 -16 -28 -16 -89 17 -35 18 -97 43 -138 54 -41 11 -76 23 -79 25 -8 8 36
62 97 119 58 53 174 121 195 114 6 -2 14 -19 18 -38z m574 -112 c47 -51 124
-178 124 -206 0 -13 -137 -31 -234 -31 -69 0 -86 3 -100 19 -16 18 -16 22 17
87 34 69 46 101 67 182 l11 43 30 -18 c17 -10 55 -44 85 -76z m-835 -233 c30
-9 80 -30 112 -47 48 -25 57 -34 53 -51 -3 -12 -6 -31 -6 -43 0 -21 -5 -23
-57 -23 -56 0 -171 -14 -219 -26 -23 -6 -24 -4 -24 49 0 31 5 79 11 107 10 48
12 50 43 50 18 0 57 -7 87 -16z m458 -24 c102 -29 130 -157 50 -224 -58 -49
-129 -44 -184 14 -59 61 -36 162 45 202 41 21 44 21 89 8z m530 -138 c0 -26
-6 -72 -12 -102 l-12 -55 -40 3 c-83 7 -245 78 -245 107 0 7 3 26 6 42 l6 30
106 7 c59 3 123 10 142 15 19 4 38 6 43 4 4 -2 7 -25 6 -51z m-769 -154 c18
-22 18 -24 -1 -57 -28 -48 -64 -139 -79 -199 -6 -29 -15 -52 -19 -52 -15 0
-108 85 -146 135 -47 60 -91 153 -78 165 13 13 121 27 216 29 81 1 90 -1 107
-21z m601 -109 c43 -12 79 -27 79 -32 0 -5 -35 -44 -77 -86 -71 -71 -180 -141
-218 -141 -17 0 -35 120 -35 228 0 81 2 91 22 104 21 14 28 12 86 -17 35 -18
99 -43 143 -56z m-403 11 c21 0 22 -4 22 -67 0 -63 14 -174 26 -215 5 -16 -2
-18 -44 -18 -55 0 -153 16 -163 28 -14 14 13 118 52 201 35 75 41 83 61 77 13
-3 33 -6 46 -6z"/>
<path d="M3573 1915 c-147 -40 -249 -101 -351 -210 -126 -135 -177 -274 -176
-475 1 -107 4 -137 27 -206 73 -221 267 -399 500 -460 78 -20 233 -20 319 0
235 55 427 234 505 471 33 101 37 271 10 375 -65 247 -268 448 -512 505 -76
18 -254 18 -322 0z m291 -126 l39 -11 -6 -46 c-7 -60 -32 -136 -63 -189 -23
-40 -27 -43 -69 -43 l-45 0 0 48 c0 50 -17 205 -26 235 -5 15 3 17 63 17 37 0
85 -5 107 -11z m-285 -102 c6 -43 11 -111 11 -151 0 -60 -3 -76 -20 -91 -19
-17 -22 -17 -107 22 -49 23 -114 47 -145 54 -32 6 -58 16 -58 20 0 15 79 106
119 138 52 41 173 103 182 93 4 -4 12 -42 18 -85z m588 -86 c43 -53 83 -122
97 -168 6 -19 2 -22 -44 -32 -28 -6 -95 -14 -148 -17 -94 -6 -99 -6 -126 18
l-29 24 26 45 c24 42 69 164 82 222 l6 28 46 -33 c25 -18 66 -57 90 -87z
m-833 -220 c31 -11 75 -30 98 -43 41 -23 43 -26 40 -63 -2 -22 -5 -41 -7 -44
-2 -2 -50 -7 -107 -11 -57 -5 -122 -11 -145 -15 l-43 -8 0 50 c0 27 5 76 12
107 l11 58 43 -6 c24 -3 68 -14 98 -25z m472 -30 c21 -13 38 -36 49 -65 17
-44 17 -48 0 -92 -44 -115 -204 -112 -245 4 -13 37 -13 47 0 84 28 79 124 113
196 69z m494 -114 c0 -63 -21 -158 -36 -164 -38 -14 -274 74 -274 102 0 7 3
26 6 43 6 30 6 30 93 37 47 4 104 11 126 15 82 16 85 15 85 -33z m-770 -162
c19 -20 18 -21 -21 -100 -21 -44 -46 -110 -55 -147 -16 -64 -18 -67 -38 -56
-47 25 -152 145 -183 210 -18 37 -33 72 -33 77 0 17 155 40 248 37 47 -1 67
-7 82 -21z m466 -60 c40 -20 104 -44 143 -53 39 -9 71 -20 71 -23 0 -19 -91
-116 -144 -154 -78 -55 -155 -90 -161 -72 -28 84 -34 291 -8 319 9 10 19 18
22 18 3 0 38 -16 77 -35z m-242 -148 c3 -62 10 -129 15 -149 9 -37 8 -38 -18
-39 -52 -2 -97 2 -143 12 -46 10 -47 12 -42 42 12 69 37 144 65 197 l29 55 44
-3 43 -4 7 -111z"/>
<path d="M1105 1719 c-35 -5 -93 -25 -141 -49 -101 -49 -172 -122 -223 -230
-35 -74 -36 -77 -36 -200 0 -123 0 -126 37 -202 86 -180 243 -280 438 -280
206 1 380 116 451 300 33 86 38 238 10 330 -53 175 -202 304 -376 327 -28 3
-61 8 -75 10 -14 1 -52 -1 -85 -6z m207 -149 c105 -39 191 -140 218 -258 37
-158 -63 -344 -215 -401 -82 -31 -188 -31 -270 0 -185 69 -273 306 -180 489
84 165 271 236 447 170z"/>
</g>
</svg>
