<?xml version="1.0" standalone="no"?>
<!DOCTYPE svg PUBLIC "-//W3C//DTD SVG 20010904//EN"
 "http://www.w3.org/TR/2001/REC-SVG-20010904/DTD/svg10.dtd">
<svg version="1.0" xmlns="http://www.w3.org/2000/svg"
 width="512.000000pt" height="512.000000pt" viewBox="0 0 512.000000 512.000000"
 preserveAspectRatio="xMidYMid meet">

<g transform="translate(0.000000,512.000000) scale(0.100000,-0.100000)"
fill="#000000" stroke="none">
<path d="M36 4328 c-28 -25 -34 -49 -23 -90 14 -52 44 -58 282 -58 l215 0 0
-215 0 -215 -141 0 c-77 0 -148 -4 -158 -10 -10 -5 -24 -23 -31 -40 -15 -35 0
-84 31 -100 10 -6 81 -10 158 -10 l141 0 0 -90 0 -90 -143 0 c-130 0 -145 -2
-165 -20 -12 -11 -24 -31 -27 -43 -3 -12 -5 -183 -3 -380 l3 -359 28 -24 c27
-23 35 -24 168 -24 l139 0 0 -84 0 -85 -145 -3 c-161 -3 -178 -10 -191 -75 -5
-27 -1 -37 24 -63 l30 -30 141 0 141 0 0 -84 0 -85 -145 -3 c-209 -4 -189 36
-193 -406 -2 -196 0 -367 3 -380 3 -12 14 -31 25 -42 18 -18 34 -20 164 -20
l145 0 3 -191 3 -191 28 -24 c34 -29 76 -31 108 -5 24 19 24 20 29 298 l5 278
213 3 212 2 0 -264 c0 -281 3 -305 47 -325 17 -8 301 -11 983 -11 l959 0 28
24 28 24 3 276 3 276 170 0 169 0 0 -265 c0 -280 4 -304 47 -324 33 -15 723
-15 756 0 43 20 47 44 47 324 l0 265 163 0 c114 0 180 5 222 15 170 45 302
170 361 345 18 52 19 101 19 915 l0 860 -23 68 c-45 130 -133 232 -252 292
-114 58 11 55 -2157 55 l-2003 0 0 190 c0 189 0 191 -25 215 l-24 25 -285 0
c-281 0 -285 0 -310 -22z m4645 -582 c107 -25 190 -92 241 -195 l23 -46 0
-860 0 -860 -34 -63 c-42 -78 -105 -134 -180 -163 l-56 -22 -1995 0 -1995 0
-3 1099 c-1 604 0 1105 3 1112 7 19 3916 17 3996 -2z m-4171 -761 l0 -255 -85
0 -85 0 0 255 0 255 85 0 85 0 0 -255z m0 -1365 l0 -260 -85 0 -85 0 0 260 0
260 85 0 85 0 0 -260z m2480 -470 l0 -210 -129 0 -129 0 -4 106 c-3 97 -5 107
-27 125 -23 19 -65 25 -96 13 -31 -12 -45 -59 -45 -154 l0 -90 -85 0 -85 0 0
90 c0 95 -14 142 -45 154 -35 13 -76 6 -100 -19 -23 -22 -25 -31 -25 -125 l0
-100 -84 0 -84 0 -4 99 c-3 89 -6 102 -27 125 -33 35 -83 35 -116 1 -23 -22
-25 -31 -25 -125 l0 -100 -90 0 -90 0 0 102 c0 91 -2 104 -22 125 -30 32 -81
31 -113 -2 -23 -22 -25 -31 -25 -125 l0 -100 -130 0 -130 0 0 210 0 210 855 0
855 0 0 -210z m1190 0 l0 -210 -84 0 -84 0 -4 106 c-3 97 -5 107 -27 125 -23
19 -65 25 -96 13 -31 -12 -45 -59 -45 -154 l0 -90 -85 0 -85 0 0 210 0 210
255 0 255 0 0 -210z"/>
<path d="M1632 3569 c-71 -12 -188 -52 -265 -90 -246 -123 -430 -364 -492
-642 -23 -106 -17 -341 13 -437 82 -273 252 -476 497 -596 147 -71 223 -88
405 -88 131 0 167 3 233 22 345 99 589 344 678 682 32 121 32 319 1 443 -91
363 -365 625 -733 702 -76 16 -251 18 -337 4z m256 -178 c32 -39 81 -158 93
-223 13 -72 2 -189 -19 -210 -5 -5 -25 -4 -50 4 -37 11 -43 18 -57 63 -39 121
-152 242 -295 315 l-45 24 60 18 c118 37 286 42 313 9z m357 -126 c66 -47 145
-127 145 -147 0 -29 -29 -116 -55 -169 -37 -76 -102 -149 -163 -182 l-51 -28
-19 43 c-18 41 -18 44 -1 78 9 20 25 62 34 94 23 78 16 255 -12 338 l-20 57
41 -21 c23 -11 68 -40 101 -63z m-833 -45 c111 -34 220 -118 264 -201 20 -40
14 -52 -34 -68 -33 -11 -43 -11 -63 2 -105 66 -318 71 -475 10 -42 -16 80 168
159 239 48 44 62 45 149 18z m1124 -377 c13 -46 19 -102 19 -172 l0 -105 -42
-32 c-66 -51 -162 -79 -268 -79 -52 0 -103 6 -121 13 l-31 13 16 44 c14 39 20
45 59 56 101 28 239 151 304 269 18 33 36 60 39 60 4 0 15 -30 25 -67z m-1100
-14 c24 -6 46 -15 49 -19 2 -4 -2 -25 -11 -47 -13 -33 -23 -41 -67 -57 -116
-41 -235 -149 -300 -274 l-35 -66 -16 54 c-21 74 -36 173 -36 238 0 62 18 85
99 126 102 52 221 69 317 45z m403 -19 c70 -20 121 -90 121 -165 0 -85 -55
-151 -138 -164 -67 -10 -117 7 -159 55 -76 86 -45 217 61 265 47 21 67 23 115
9z m-356 -304 c18 -43 18 -45 -3 -85 -55 -110 -64 -274 -21 -411 11 -35 19
-65 17 -67 -8 -8 -165 101 -216 151 -69 67 -73 86 -41 179 27 77 65 139 118
193 38 37 103 82 123 84 3 0 13 -20 23 -44z m548 -180 c112 -51 260 -57 392
-16 33 11 63 17 65 15 11 -10 -84 -150 -142 -211 l-64 -67 -49 7 c-112 15
-277 126 -324 218 -10 20 -19 40 -19 43 0 6 60 33 76 34 7 1 36 -10 65 -23z
m-339 -5 c17 -6 29 -25 41 -64 33 -105 133 -216 262 -292 l68 -40 -59 -19
c-38 -12 -101 -20 -176 -23 l-117 -5 -34 53 c-18 30 -42 74 -52 99 -22 57 -31
210 -16 268 13 47 18 48 83 23z"/>
<path d="M3687 3570 c-120 -21 -259 -77 -380 -154 -78 -50 -224 -209 -276
-300 -206 -363 -155 -811 124 -1105 139 -145 283 -229 475 -277 94 -23 118
-26 235 -21 265 10 474 103 650 288 85 90 139 169 182 270 94 216 104 449 29
671 -52 154 -105 238 -226 358 -145 145 -266 213 -461 260 -89 21 -256 26
-352 10z m246 -178 c29 -26 76 -133 93 -212 15 -75 13 -132 -8 -198 -9 -29
-14 -33 -34 -28 -51 13 -74 26 -74 43 0 10 -14 47 -31 83 -38 81 -157 201
-247 248 -35 19 -61 36 -59 39 11 11 118 35 187 42 93 9 150 3 173 -17z m400
-157 c35 -29 74 -67 86 -84 22 -30 22 -32 6 -92 -32 -126 -122 -252 -213 -298
l-42 -21 -20 40 -21 41 25 52 c14 29 31 76 37 106 16 74 6 231 -19 309 l-20
62 58 -31 c32 -17 88 -55 123 -84z m-882 -11 c105 -31 207 -103 259 -184 18
-27 30 -56 27 -63 -2 -6 -21 -18 -42 -26 -34 -12 -41 -11 -95 13 -116 52 -258
58 -392 16 -34 -10 -64 -17 -66 -15 -9 9 93 158 147 215 63 67 74 70 162 44z
m1129 -371 c12 -40 24 -111 27 -171 7 -120 4 -126 -89 -173 -73 -37 -157 -59
-226 -59 -55 0 -139 17 -147 30 -2 4 2 25 11 47 13 33 23 41 67 57 117 42 235
148 298 270 19 36 35 66 36 66 1 0 12 -30 23 -67z m-1094 -24 c24 -6 46 -15
49 -19 2 -4 -3 -25 -11 -47 -13 -34 -23 -42 -58 -53 -120 -35 -241 -146 -319
-294 l-26 -48 -21 68 c-12 41 -24 111 -27 172 -7 119 -2 129 90 175 104 52
227 70 323 46z m405 -20 c69 -23 119 -90 119 -158 0 -101 -71 -174 -170 -174
-99 0 -170 73 -170 174 0 47 17 84 57 120 48 45 104 58 164 38z m-358 -303
c17 -42 17 -44 -2 -77 -53 -89 -66 -258 -31 -394 11 -43 18 -80 15 -83 -14
-15 -216 134 -255 188 -21 29 -21 32 -5 91 31 124 121 250 211 297 21 12 41
21 44 22 3 0 13 -20 23 -44z m549 -181 c82 -38 190 -51 288 -36 44 7 99 19
122 27 23 8 43 12 45 10 10 -10 -88 -155 -145 -214 -62 -65 -62 -65 -107 -59
-106 15 -243 98 -306 186 -21 30 -39 60 -39 68 0 12 51 40 76 42 7 1 36 -10
66 -24z m-354 1 c28 -10 37 -21 51 -62 38 -113 143 -230 268 -301 l68 -37 -60
-20 c-44 -14 -91 -19 -180 -20 l-120 -1 -33 49 c-66 98 -96 273 -63 369 14 40
19 42 69 23z"/>
</g>
</svg>
