<?xml version="1.0" standalone="no"?>
<!DOCTYPE svg PUBLIC "-//W3C//DTD SVG 20010904//EN"
 "http://www.w3.org/TR/2001/REC-SVG-20010904/DTD/svg10.dtd">
<svg version="1.0" xmlns="http://www.w3.org/2000/svg"
 width="512.000000pt" height="512.000000pt" viewBox="0 0 512.000000 512.000000"
 preserveAspectRatio="xMidYMid meet">

<g transform="translate(0.000000,512.000000) scale(0.100000,-0.100000)"
fill="#000000" stroke="none">
<path d="M299 5095 c-20 -11 -52 -76 -162 -334 l-137 -320 0 -1641 0 -1642 29
-29 29 -29 2502 0 2502 0 29 29 29 29 0 1639 1 1638 -138 323 c-116 272 -142
326 -165 338 -40 21 -4480 20 -4519 -1z m4514 -363 c48 -114 87 -210 87 -214
0 -13 -4680 -10 -4680 3 0 5 39 102 87 215 l88 204 2165 0 2165 0 88 -208z
m137 -1927 l0 -1535 -2390 0 -2390 0 0 1535 0 1535 2390 0 2390 0 0 -1535z"/>
<path d="M373 4146 l-28 -24 -3 -186 -3 -186 85 0 86 0 0 125 0 125 130 0 130
0 0 85 0 85 -184 0 c-181 0 -185 -1 -213 -24z"/>
<path d="M2650 4085 l0 -85 125 0 125 0 0 -125 0 -125 85 0 85 0 0 175 c0 186
-6 215 -47 234 -14 7 -92 11 -198 11 l-175 0 0 -85z"/>
<path d="M1485 4065 c-270 -51 -516 -183 -700 -376 -231 -243 -355 -552 -355
-884 0 -550 349 -1035 870 -1209 158 -53 276 -69 455 -63 187 7 334 41 489
115 150 72 247 141 366 261 249 250 370 544 370 896 0 153 -18 272 -61 399
-141 421 -473 729 -909 843 -123 32 -398 41 -525 18z m455 -175 c155 -34 297
-98 424 -191 l69 -51 -59 -59 c-32 -32 -62 -59 -67 -59 -5 0 -26 14 -47 30
-63 50 -200 117 -295 145 -69 21 -120 28 -220 32 -214 8 -381 -38 -556 -153
l-83 -54 -58 57 c-32 32 -58 60 -58 63 0 9 119 93 180 127 230 129 511 170
770 113z m-45 -341 c91 -21 203 -74 255 -118 l35 -30 -60 -60 -60 -60 -55 35
c-115 73 -296 102 -433 70 -62 -15 -147 -50 -204 -87 -21 -13 -26 -10 -83 46
l-61 60 28 23 c41 34 170 98 238 117 122 36 262 37 400 4z m-944 -193 c-83
-112 -137 -238 -165 -386 -47 -244 16 -514 165 -716 l37 -51 -57 -57 c-31 -31
-61 -56 -66 -56 -17 0 -93 111 -144 210 -95 184 -126 331 -118 552 8 244 76
434 225 631 l36 47 62 -61 62 -62 -37 -51z m1669 78 c105 -151 170 -331 191
-523 30 -276 -62 -582 -240 -801 l-20 -25 -61 61 -62 61 45 64 c61 88 102 172
134 276 25 81 27 102 27 258 0 157 -2 177 -28 260 -29 97 -97 233 -146 295
-16 21 -30 42 -30 46 0 5 26 34 57 66 41 42 60 55 69 47 7 -5 35 -44 64 -85z
m-1445 -214 c55 -56 58 -60 42 -77 -29 -32 -77 -148 -93 -224 -29 -135 -2
-292 71 -413 l36 -60 -61 -60 -61 -61 -25 30 c-40 49 -103 184 -124 269 -39
156 -22 346 45 493 34 74 90 163 103 163 4 0 34 -27 67 -60z m1166 18 c47 -65
76 -127 105 -225 35 -120 37 -281 5 -398 -25 -91 -79 -207 -119 -254 l-27 -32
-60 61 c-57 57 -59 61 -45 83 125 191 133 448 20 630 -17 27 -30 54 -30 60 0
13 100 117 112 117 4 0 22 -19 39 -42z m-463 -42 c34 -16 62 -32 62 -35 0 -4
-26 -33 -58 -65 l-59 -57 -61 12 c-48 10 -72 10 -113 1 l-53 -13 -63 63 -63
63 37 19 c73 37 115 46 213 43 79 -3 105 -8 158 -31z m-417 -333 c-13 -50 -13
-61 0 -114 l15 -58 -62 -62 -62 -61 -16 24 c-28 39 -56 147 -56 213 0 66 28
174 56 213 l16 24 63 -62 62 -61 -16 -56z m626 135 c38 -78 45 -117 41 -212
-3 -73 -10 -104 -33 -154 l-28 -63 -65 64 c-63 64 -64 66 -53 97 14 42 14 102
-1 152 l-11 39 58 59 c33 33 62 60 65 60 4 0 16 -19 27 -42z m-322 -133 c53
-52 16 -145 -57 -145 -37 1 -59 14 -76 47 -46 85 65 167 133 98z m175 -416 c0
-3 -28 -19 -62 -35 -58 -27 -73 -29 -173 -29 -93 1 -118 4 -162 24 -80 35 -80
39 -13 106 l59 59 51 -12 c64 -15 95 -14 140 2 l35 13 63 -61 c34 -33 62 -63
62 -67z m-575 -129 c4 -6 30 -22 58 -37 206 -104 414 -95 609 25 l34 21 59
-59 c57 -58 58 -60 41 -79 -25 -27 -166 -100 -240 -123 -90 -29 -281 -36 -382
-14 -83 18 -238 88 -289 130 l-30 25 60 60 c61 63 69 68 80 51z m-175 -295
c83 -55 182 -99 300 -131 102 -28 338 -26 449 4 106 29 213 78 297 137 36 25
68 45 72 45 4 0 34 -26 66 -59 l58 -58 -79 -58 c-309 -226 -723 -271 -1085
-119 -100 42 -277 156 -278 179 0 11 101 115 112 115 3 0 43 -25 88 -55z"/>
<path d="M3463 3820 c-40 -16 -43 -39 -43 -296 l0 -248 148 -148 148 -148 379
0 378 0 143 141 c79 78 148 154 154 169 7 18 10 104 8 258 -3 226 -4 232 -26
254 l-23 23 -622 2 c-347 1 -632 -2 -644 -7z m1147 -312 l0 -153 -107 -107
-108 -108 -300 0 -300 0 -107 107 -108 108 0 152 0 153 515 0 515 0 0 -152z"/>
<path d="M3785 3545 c-53 -52 -18 -135 56 -135 45 0 79 34 79 79 0 42 -38 81
-80 81 -19 0 -40 -9 -55 -25z"/>
<path d="M4295 3545 c-52 -51 -17 -135 56 -135 26 0 46 7 59 20 13 13 20 33
20 59 0 73 -84 108 -135 56z"/>
<path d="M4042 3380 c-47 -44 -36 -111 22 -135 65 -27 125 21 112 90 -12 61
-88 87 -134 45z"/>
<path d="M3529 2271 l-24 -19 -3 -290 -3 -290 25 -28 24 -29 540 -3 540 -3 31
27 31 26 0 289 0 290 -25 24 -24 25 -544 0 c-521 0 -546 -1 -568 -19z m481
-321 l0 -170 -170 0 -170 0 0 170 0 170 170 0 170 0 0 -170z m510 0 l0 -170
-170 0 -170 0 0 170 0 170 170 0 170 0 0 -170z"/>
<path d="M342 1675 c4 -246 -14 -229 238 -233 l190 -3 0 85 0 86 -130 0 -130
0 0 125 0 125 -86 0 -85 0 3 -185z"/>
<path d="M2900 1735 l0 -125 -125 0 -125 0 0 -85 0 -85 181 0 181 0 29 29 29
29 0 181 0 181 -85 0 -85 0 0 -125z"/>
</g>
</svg>
