<?xml version="1.0" standalone="no"?>
<!DOCTYPE svg PUBLIC "-//W3C//DTD SVG 20010904//EN"
 "http://www.w3.org/TR/2001/REC-SVG-20010904/DTD/svg10.dtd">
<svg version="1.0" xmlns="http://www.w3.org/2000/svg"
 width="512.000000pt" height="512.000000pt" viewBox="0 0 512.000000 512.000000"
 preserveAspectRatio="xMidYMid meet">

<g transform="translate(0.000000,512.000000) scale(0.100000,-0.100000)"
fill="#000000" stroke="none">
<path d="M29 3601 c-24 -19 -24 -23 -27 -212 -4 -243 1 -257 90 -273 77 -14
105 -102 47 -150 -17 -14 -41 -26 -54 -26 -37 0 -55 -10 -70 -41 -13 -24 -15
-113 -15 -559 l0 -532 29 -29 c25 -25 37 -29 84 -29 l55 0 4 -106 c3 -97 5
-107 27 -125 22 -18 51 -19 823 -19 502 0 806 4 818 10 27 15 40 64 40 156 l0
84 85 0 85 0 0 -99 c0 -84 3 -102 21 -125 l20 -26 1399 0 c769 0 1406 3 1415
6 31 12 45 59 45 154 l0 90 56 0 c48 0 59 4 85 29 l29 29 0 532 c0 446 -2 535
-15 559 -15 31 -33 41 -70 41 -13 0 -37 12 -54 26 -58 48 -30 136 47 150 89
16 94 30 90 273 -3 189 -3 193 -27 212 -23 19 -78 19 -2531 19 -2453 0 -2508
0 -2531 -19z m4921 -236 l0 -95 -39 -20 c-170 -86 -170 -354 0 -441 l39 -19 0
-435 0 -435 -2390 0 -2390 0 0 435 0 435 39 20 c49 25 96 81 116 139 38 113
-8 237 -110 297 l-45 26 0 94 0 94 2390 0 2390 0 0 -95z m-3240 -1660 l0 -45
-685 0 -685 0 0 45 0 45 685 0 685 0 0 -45z m3070 0 l0 -45 -1280 0 -1280 0 0
45 0 45 1280 0 1280 0 0 -45z"/>
<path d="M547 3268 c-34 -27 -37 -65 -37 -494 0 -463 2 -484 55 -504 36 -14
535 -13 571 0 55 21 53 10 54 501 0 447 0 457 -21 483 l-20 26 -293 0 c-218 0
-296 -3 -309 -12z m481 -495 l2 -343 -175 0 -175 0 0 345 0 345 173 -2 172 -3
3 -342z"/>
<path d="M1391 3254 c-21 -26 -21 -36 -21 -483 1 -491 -1 -480 54 -501 16 -6
132 -10 287 -10 289 0 308 4 328 61 15 43 15 866 1 905 -21 53 -23 53 -337 54
l-292 0 -20 -26z m489 -479 l0 -345 -175 0 -175 0 0 338 c0 186 3 342 7 345 3
4 82 7 175 7 l168 0 0 -345z"/>
<path d="M2245 3255 l-25 -24 0 -455 0 -455 24 -28 24 -28 292 0 292 0 24 28
24 28 0 455 0 455 -25 24 -24 25 -291 0 -291 0 -24 -25z m485 -480 l0 -345
-170 0 -170 0 0 345 0 345 170 0 170 0 0 -345z"/>
<path d="M3107 3268 c-34 -27 -37 -65 -37 -494 0 -463 2 -484 55 -504 36 -14
535 -13 571 0 55 21 53 10 54 501 0 447 0 457 -21 483 l-20 26 -293 0 c-218 0
-296 -3 -309 -12z m481 -495 l2 -343 -175 0 -175 0 0 345 0 345 173 -2 172 -3
3 -342z"/>
<path d="M3951 3254 c-21 -26 -21 -36 -21 -483 1 -491 -1 -480 54 -501 16 -6
132 -10 287 -10 289 0 308 4 328 61 15 43 15 866 1 905 -21 53 -23 53 -337 54
l-292 0 -20 -26z m489 -479 l0 -345 -175 0 -175 0 0 338 c0 186 3 342 7 345 3
4 82 7 175 7 l168 0 0 -345z"/>
</g>
</svg>
