<?xml version="1.0" standalone="no"?>
<!DOCTYPE svg PUBLIC "-//W3C//DTD SVG 20010904//EN"
 "http://www.w3.org/TR/2001/REC-SVG-20010904/DTD/svg10.dtd">
<svg version="1.0" xmlns="http://www.w3.org/2000/svg"
 width="512.000000pt" height="512.000000pt" viewBox="0 0 512.000000 512.000000"
 preserveAspectRatio="xMidYMid meet">

<g transform="translate(0.000000,512.000000) scale(0.100000,-0.100000)"
fill="#000000" stroke="none">
<path d="M740 5111 c-69 -21 -121 -65 -156 -131 -18 -34 -19 -112 -19 -2420
l0 -2385 22 -40 c25 -47 64 -85 113 -111 34 -18 99 -19 1860 -19 l1825 0 40
22 c47 25 85 64 111 113 18 34 19 112 19 2420 0 2308 -1 2386 -19 2420 -26 49
-64 88 -111 113 l-40 22 -1810 2 c-995 1 -1821 -2 -1835 -6z m3644 -167 l26
-27 0 -2357 0 -2357 -26 -27 -27 -26 -218 0 -219 0 0 119 c0 125 -11 175 -40
191 -25 14 -2615 14 -2640 0 -29 -16 -40 -66 -40 -191 l0 -119 -219 0 -218 0
-27 26 -26 27 0 2357 0 2357 26 27 27 26 1797 0 1797 0 27 -26z m-2864 -4709
l0 -85 -85 0 -85 0 0 85 0 85 85 0 85 0 0 -85z m330 0 l0 -85 -90 0 -90 0 0
85 0 85 90 0 90 0 0 -85z m320 0 l0 -85 -90 0 -90 0 0 85 0 85 90 0 90 0 0
-85z m320 0 l0 -85 -90 0 -90 0 0 85 0 85 90 0 90 0 0 -85z m320 0 l0 -85 -90
0 -90 0 0 85 0 85 90 0 90 0 0 -85z m320 0 l0 -85 -90 0 -90 0 0 85 0 85 90 0
90 0 0 -85z m320 0 l0 -85 -90 0 -90 0 0 85 0 85 90 0 90 0 0 -85z m320 0 l0
-85 -90 0 -90 0 0 85 0 85 90 0 90 0 0 -85z"/>
<path d="M923 4788 c-68 -33 -39 -138 38 -138 28 0 69 44 69 75 0 30 -41 75
-67 74 -10 0 -28 -5 -40 -11z"/>
<path d="M4130 4787 c-52 -26 -49 -104 5 -129 58 -26 119 33 95 91 -6 16 -23
33 -36 40 -31 14 -33 14 -64 -2z"/>
<path d="M1169 3407 c-57 -30 -104 -93 -118 -157 -15 -70 -15 -1310 0 -1380
14 -64 61 -127 118 -157 37 -19 59 -23 133 -23 99 0 128 15 128 68 0 50 -36
72 -114 72 -61 0 -70 3 -97 29 l-29 29 0 672 0 672 29 29 29 29 1109 0 c1239
0 1153 -5 1153 69 0 77 98 71 -1167 71 l-1130 0 -44 -23z"/>
<path d="M3710 3410 c-27 -27 -26 -71 3 -98 19 -18 35 -22 91 -22 61 0 70 -3
97 -29 l29 -29 0 -672 0 -672 -29 -29 -29 -29 -1109 0 c-1239 0 -1153 5 -1153
-69 0 -77 -98 -71 1167 -71 l1130 0 44 23 c57 30 104 93 118 157 15 70 15
1310 0 1380 -14 64 -60 125 -119 156 -37 20 -59 24 -132 24 -75 0 -91 -3 -108
-20z"/>
<path d="M1616 3005 c-108 -44 -168 -124 -167 -225 0 -68 17 -113 60 -163 40
-45 93 -74 218 -123 127 -49 171 -77 189 -120 12 -29 12 -39 2 -62 -27 -55
-125 -93 -201 -77 -76 16 -118 54 -131 117 -12 55 -80 73 -120 32 -22 -22 -20
-96 3 -143 63 -122 246 -184 408 -136 160 48 236 201 169 340 -42 85 -88 116
-288 194 -80 32 -115 51 -137 77 -50 57 -36 110 39 149 102 53 249 8 266 -81
7 -36 44 -74 74 -74 10 0 30 10 45 22 25 19 27 26 23 74 -8 93 -85 177 -191
209 -79 23 -191 19 -261 -10z"/>
<path d="M2443 3016 c-121 -39 -193 -126 -193 -232 0 -143 75 -216 312 -304
100 -37 155 -80 164 -127 6 -28 1 -38 -28 -67 -33 -33 -89 -56 -138 -56 -78 0
-170 61 -170 113 0 28 -41 67 -70 67 -10 0 -29 -9 -44 -21 -51 -40 -26 -152
49 -218 70 -61 117 -76 235 -76 118 0 165 15 235 76 76 67 97 177 51 274 -37
81 -104 126 -288 195 -100 37 -155 80 -164 127 -6 28 -1 38 28 67 33 33 89 56
138 56 78 0 170 -61 170 -113 0 -28 41 -67 70 -67 10 0 29 9 44 21 21 16 26
29 26 62 -1 85 -62 167 -159 210 -58 26 -206 33 -268 13z"/>
<path d="M3071 3011 c-21 -21 -21 -28 -21 -451 0 -523 -18 -474 168 -468 113
3 133 6 186 31 169 79 266 238 266 437 0 199 -97 358 -266 437 -53 25 -73 28
-186 31 -117 4 -127 3 -147 -17z m246 -136 c72 -21 142 -87 179 -167 24 -53
28 -76 29 -148 0 -77 -3 -92 -33 -152 -55 -113 -165 -186 -264 -176 l-33 3 -3
315 c-1 173 0 320 3 327 6 17 60 16 122 -2z"/>
<path d="M922 463 c-7 -3 -19 -18 -28 -35 -12 -24 -13 -36 -4 -58 11 -27 46
-50 76 -50 24 0 64 47 64 75 0 49 -60 87 -108 68z"/>
<path d="M4115 445 c-40 -39 -29 -97 22 -116 58 -22 116 36 94 94 -19 51 -77
62 -116 22z"/>
</g>
</svg>
