<?xml version="1.0" encoding="UTF-8"?>
<svg version="1.1" xmlns="http://www.w3.org/2000/svg" width="512" height="512">
<path d="M0 0 C1.19431641 -0.01611328 2.38863281 -0.03222656 3.61914062 -0.04882812 C18.04942915 -0.05668348 31.62388032 3.39068366 42.40332031 13.49511719 C49.34232855 20.56325858 54.33779362 28.64406963 59.125 37.25 C67.38419588 51.66312797 75.89999943 61.45864695 89.1875 71.3125 C112.98388349 89.1776723 112.98388349 89.1776723 116.8125 104.875 C119.05992339 125.47638107 111.74884279 143.7435136 102.5390625 161.703125 C99.60123974 167.43432972 96.7592457 173.21091167 93.9375 179 C93.43009277 180.02085693 92.92268555 181.04171387 92.39990234 182.09350586 C87.28455246 192.6258541 83.77400999 202.66150125 83.65625 214.4375 C83.06425331 218.06841304 81.74443246 219.71380276 79.1875 222.3125 C75.4977058 223.56860015 73.92363171 223.65602813 70.375 222 C68.1875 220.3125 68.1875 220.3125 67.1875 218.3125 C65.5895022 197.0669883 73.92213299 180.90304567 83.1875 162.3125 C85.36969432 157.90328928 87.53229996 153.48495438 89.6875 149.0625 C90.17927734 148.07652832 90.67105469 147.09055664 91.17773438 146.07470703 C97.29946198 133.52516544 103.44656043 118.21744974 98.8125 104.25 C95.50466497 96.70623234 88.60930804 92.11103653 82.1875 87.3125 C82.11756836 87.98079834 82.04763672 88.64909668 81.97558594 89.33764648 C79.56899412 111.88880467 79.56899412 111.88880467 77.1875 122.1875 C76.95691895 123.21895142 76.95691895 123.21895142 76.72167969 124.27124023 C75.8761178 127.69243964 75.19885441 130.30251163 72.1875 132.3125 C65.4375 133.0625 65.4375 133.0625 61.6875 130.8125 C58.44055285 125.40092142 60.38472937 118.27221721 61.625 112.375 C62.74731605 106.70001573 63.82415206 101.09303541 64.1875 95.3125 C64.24035156 94.56355469 64.29320312 93.81460938 64.34765625 93.04296875 C64.74790206 82.27113588 62.78861471 71.88707047 55.7265625 63.59765625 C51.53207542 58.46777885 48.32729679 53.12334353 45.1875 47.3125 C38.6840212 35.3470724 30.81142049 22.76647401 17.1875 18.3125 C11.63269632 17.01276878 6.1792911 17.09018698 0.5 17.0625 C-0.53833984 17.041875 -1.57667969 17.02125 -2.64648438 17 C-13.33373621 16.94639623 -21.85167537 18.95882255 -29.8125 26.3125 C-36.12268527 32.61040864 -40.52606798 39.47472548 -44.8125 47.25 C-48.76074125 54.38477842 -52.79501305 60.89118777 -58.11938477 67.09130859 C-64.74348105 75.7814352 -64.73248208 88.94070333 -63.4362793 99.32714844 C-62.93137771 102.39264004 -62.38562827 105.44654298 -61.8125 108.5 C-58.51959659 126.24385454 -58.51959659 126.24385454 -61.375 130.8125 C-64.7363388 132.88101618 -66.93209911 132.79755011 -70.8125 132.3125 C-73.96770152 130.6788723 -74.72469404 129.54960564 -75.97265625 126.1796875 C-76.29359941 124.85367658 -76.59286844 123.52230757 -76.875 122.1875 C-77.03709961 121.46699463 -77.19919922 120.74648926 -77.36621094 120.00415039 C-79.64088086 109.24192278 -80.66893362 98.24093679 -81.8125 87.3125 C-83.5678265 88.70162907 -85.31653907 90.09911773 -87.0625 91.5 C-88.03703125 92.27730469 -89.0115625 93.05460937 -90.015625 93.85546875 C-95.7195507 98.86631968 -99.03446272 104.00684822 -100.13671875 111.5234375 C-100.95113695 128.4296359 -91.53242474 145.02054044 -84.1328125 159.6015625 C-83.80543594 160.24860641 -83.47805939 160.89565033 -83.14076233 161.56230164 C-81.50294073 164.79675071 -79.85376883 168.02426027 -78.18041992 171.24047852 C-64.36661131 198.09247844 -64.0782785 224.63204215 -72.8125 253.3125 C-70.1725 253.9725 -67.5325 254.6325 -64.8125 255.3125 C-56.78481743 226.67473879 -55.91571149 195.82971785 -64.26171875 167.28515625 C-64.49866455 166.47038818 -64.73561035 165.65562012 -64.97973633 164.81616211 C-65.43732396 163.27829516 -65.91382643 161.74587508 -66.4128418 160.22094727 C-67.84963221 155.54659641 -67.91540902 152.75050041 -65.8125 148.3125 C-64.125 146.375 -64.125 146.375 -61.8125 145.3125 C-55.84404627 145.52191943 -55.84404627 145.52191943 -53.20507812 147.54443359 C-51.44902606 149.77397936 -50.8584723 151.74425357 -50.09375 154.4765625 C-49.80250244 155.50700684 -49.51125488 156.53745117 -49.21118164 157.59912109 C-48.9146167 158.70078613 -48.61805176 159.80245117 -48.3125 160.9375 C-47.85121704 162.64220459 -47.85121704 162.64220459 -47.38061523 164.38134766 C-46.50246929 167.68651011 -45.64980876 170.99677827 -44.8125 174.3125 C-44.50916748 175.50262695 -44.50916748 175.50262695 -44.19970703 176.71679688 C-37.56817772 203.85446726 -42.77137818 233.42651698 -47.8125 260.3125 C-16.1325 260.3125 15.5475 260.3125 48.1875 260.3125 C46.2075 248.9275 46.2075 248.9275 44.1875 237.3125 C41.2124987 216.63624097 39.95148031 194.71837434 45.1875 174.3125 C45.44515137 173.29365723 45.70280273 172.27481445 45.96826172 171.22509766 C46.85087837 167.78907351 47.7614257 164.36205821 48.6875 160.9375 C48.98406494 159.83575439 49.28062988 158.73400879 49.58618164 157.59887695 C49.8774292 156.56851318 50.16867676 155.53814941 50.46875 154.4765625 C50.72720703 153.55311035 50.98566406 152.6296582 51.25195312 151.67822266 C52.23949854 149.18101099 53.08705724 147.95828171 55.1875 146.3125 C58.87746009 145.18946867 60.49738722 144.97511153 64 146.6875 C66.1875 148.3125 66.1875 148.3125 67.1875 149.3125 C67.6333109 156.46704586 66.36826138 162.30274073 64.3125 169.125 C60.86494052 180.74607967 58.80901917 191.84770965 58.875 204 C58.87846436 205.06508789 58.88192871 206.13017578 58.88549805 207.22753906 C59.09918527 223.33554156 60.82905478 239.76428763 65.1875 255.3125 C67.8275 254.6525 70.4675 253.9925 73.1875 253.3125 C73.00832031 252.64863281 72.82914063 251.98476562 72.64453125 251.30078125 C70.88843458 244.01031931 70.88843458 244.01031931 72.5 240.25 C75.04854784 237.32388952 75.04854784 237.32388952 79 237 C81.94633123 237.0579779 83.00654525 237.19821279 85.5625 238.8125 C87.78373761 242.22978863 88.38898802 245.31994011 89.1875 249.3125 C89.87714844 249.27769531 90.56679688 249.24289063 91.27734375 249.20703125 C100.53677245 248.94029874 106.91046049 250.13731905 114.25 256 C123.07049063 264.40895919 127.5205818 276.92575402 131.1875 288.3125 C136.13492188 280.27293944 134.18621232 271.97770083 132.4375 263.16796875 C132.25993164 262.23576004 132.08236328 261.30355133 131.89941406 260.34309387 C131.33653598 257.39384208 130.76273338 254.44686461 130.1875 251.5 C129.61389417 248.53500645 129.04268797 245.56959228 128.47558594 242.60334778 C128.12361914 240.76505387 127.76765998 238.92751872 127.40722656 237.09086609 C127.24706055 236.2593251 127.08689453 235.42778412 126.921875 234.57104492 C126.77975586 233.84318283 126.63763672 233.11532074 126.49121094 232.36540222 C126.1875 230.3125 126.1875 230.3125 126.1875 226.3125 C125.0325 226.374375 123.8775 226.43625 122.6875 226.5 C115.51558744 226.46205337 109.98597972 223.8737223 104.7265625 219.05859375 C99.66602011 213.3173185 97.79048529 206.32599433 97.9140625 198.8125 C98.7140139 191.49865861 101.92296952 185.63032753 107.32421875 180.71484375 C114.66134359 175.19277285 123.0712146 175.10967367 131.875 175.0625 C133.28942383 175.0315625 133.28942383 175.0315625 134.73242188 175 C144.33976046 174.94717615 152.44727325 176.56044771 159.49609375 183.3671875 C164.54632843 189.17554055 166.48891506 195.63800889 166.1875 203.3125 C164.82323536 210.89423302 162.06402672 217.31189049 155.8125 222.0625 C151.37789185 225.01574012 147.5511897 226.3125 142.1875 226.3125 C142.36708252 227.0660376 142.54666504 227.8195752 142.73168945 228.59594727 C144.65068313 236.76420978 146.39615675 244.95665637 147.97729492 253.19604492 C148.24229375 254.56463615 148.51280031 255.93217249 148.78881836 257.29858398 C151.5933513 271.19505303 153.95796563 285.04641352 145.75 297.4921875 C142.51715539 301.61095587 139.30747483 303.92784876 134.625 306.25 C129.54422567 308.78693086 127.52549424 311.32540979 124.6953125 316.13671875 C118.90138639 324.49738415 106.87402944 328.01899478 97.3469696 329.88415527 C90.7588085 330.77734445 84.09632582 330.55369625 77.4609375 330.5078125 C75.8609739 330.50407503 74.26100798 330.50123153 72.66104126 330.49923706 C68.48209132 330.49165834 64.30328389 330.47206046 60.12438965 330.4498291 C55.84726895 330.42924545 51.57012487 330.42020876 47.29296875 330.41015625 C38.9244143 330.38880821 30.55597496 330.35474325 22.1875 330.3125 C22.1875 332.2925 22.1875 334.2725 22.1875 336.3125 C22.94893311 336.28631592 23.71036621 336.26013184 24.49487305 336.2331543 C27.95470435 336.12902985 31.41420585 336.06412271 34.875 336 C36.07318359 335.95810547 37.27136719 335.91621094 38.50585938 335.87304688 C48.42572434 335.7348872 48.42572434 335.7348872 51.48046875 338.64453125 C53.5951 341.94954988 53.98920248 343.46432809 53.1875 347.3125 C51.52964208 349.90361432 50.82539047 350.90192419 48.1875 352.3125 C43.73720187 352.93899087 39.35778461 352.78174072 34.875 352.625 C33.65748047 352.60244141 32.43996094 352.57988281 31.18554688 352.55664062 C28.18494518 352.4978053 25.18685203 352.4156414 22.1875 352.3125 C22.17838461 358.59364151 22.21587783 364.87329033 22.28515625 371.15405273 C22.30327848 373.28875457 22.31089164 375.42357337 22.30761719 377.55834961 C22.30474931 380.63486563 22.34017673 383.70897462 22.3828125 386.78515625 C22.37371857 387.73334732 22.36462463 388.68153839 22.35525513 389.65846252 C22.46188306 394.56496633 22.85566504 397.48322684 26.17529297 401.22045898 C26.71330536 401.72874741 27.25131775 402.23703583 27.80563354 402.76072693 C30.5380065 405.82905727 30.34318871 409.56656551 30.50390625 413.515625 C30.56674805 414.98515625 30.56674805 414.98515625 30.63085938 416.484375 C30.67017578 417.50015625 30.70949219 418.5159375 30.75 419.5625 C30.79318359 420.59375 30.83636719 421.625 30.88085938 422.6875 C30.98675682 425.2290387 31.08883443 427.77067196 31.1875 430.3125 C31.85433807 430.50184616 32.52117615 430.69119232 33.20822144 430.88627625 C39.53590602 432.68491344 45.86075853 434.49315895 52.18270683 436.31186199 C55.43187265 437.2462281 58.68196662 438.17703115 61.93457031 439.09936523 C65.68566669 440.16505028 69.43291716 441.24343585 73.1796875 442.32421875 C74.90685501 442.81047981 74.90685501 442.81047981 76.66891479 443.30656433 C94.59909603 448.5200437 94.59909603 448.5200437 99.1875 455.0625 C101.13644202 458.65017182 101.82314639 462.10394997 102.52734375 466.08984375 C103.30525378 468.70896097 104.47064003 470.26098688 106.1875 472.375 C110.6633313 477.93422322 111.44205191 482.75672736 111.0625 489.8125 C110.2144227 496.780226 108.0843813 501.84875827 102.875 506.625 C95.04220261 512.66415261 87.97785558 513.32997344 78.1875 512.3125 C70.25250927 510.01357745 65.3802036 504.20051305 61.1875 497.3125 C59.39244506 491.92733519 60.1875 485.98896212 60.1875 480.3125 C46.6575 476.3525 33.1275 472.3925 19.1875 468.3125 C21.1675 472.2725 23.1475 476.2325 25.1875 480.3125 C26.70098144 488.0273746 25.76532452 495.35989401 21.8125 502.1875 C18.01739029 507.15033578 13.09986449 510.38210867 7.1875 512.3125 C-1.68472827 513.34163515 -9.55653202 512.8611814 -16.8125 507.3125 C-22.36545175 501.57444985 -25.09342689 495.77355274 -25.3125 487.75 C-25.3640625 486.63496094 -25.415625 485.51992188 -25.46875 484.37109375 C-24.8125 480.3125 -24.8125 480.3125 -18.8125 468.3125 C-32.3425 472.2725 -45.8725 476.2325 -59.8125 480.3125 C-59.8125 484.9325 -59.8125 489.5525 -59.8125 494.3125 C-62.77171386 502.31333747 -67.52074403 506.87403984 -74.8125 511.3125 C-81.96078982 513.69526327 -90.47102012 513.42602947 -97.3125 510.25 C-103.52416316 506.59848044 -107.33086002 502.37713092 -109.75 495.5625 C-111.77444366 487.63342902 -110.89550418 480.14940752 -106.92578125 473.00390625 C-105.8125 471.3125 -105.8125 471.3125 -103.6875 468.875 C-101.77931155 466.26714245 -101.39982267 464.96617193 -100.8125 461.875 C-99.94327688 457.50715382 -98.8809744 454.68782184 -95.8125 451.3125 C-88.6711886 446.89210607 -80.82769402 444.58298963 -72.8046875 442.32421875 C-71.5980545 441.97615677 -70.39142151 441.62809479 -69.14822388 441.26948547 C-65.97740718 440.35671121 -62.80435866 439.45234729 -59.62994385 438.55218506 C-56.3762375 437.62724299 -53.12577396 436.69104458 -49.875 435.75585938 C-43.52373437 433.93115116 -37.1693888 432.11751465 -30.8125 430.3125 C-30.79791748 429.6827124 -30.78333496 429.0529248 -30.76831055 428.40405273 C-30.69331006 425.51878679 -30.59682361 422.63461277 -30.5 419.75 C-30.47744141 418.75935547 -30.45488281 417.76871094 -30.43164062 416.74804688 C-30.21724673 410.88145023 -29.70812656 406.46101678 -26.8125 401.3125 C-25.78657745 400.43292633 -25.78657745 400.43292633 -24.7399292 399.5355835 C-22.13085031 396.52628997 -22.29628792 394.65629395 -22.26660156 390.70800781 C-22.25109505 389.72689781 -22.25109505 389.72689781 -22.23527527 388.72596741 C-22.20586725 386.57226805 -22.20434866 384.41950927 -22.203125 382.265625 C-22.18814183 380.76916717 -22.17141438 379.27272588 -22.15301514 377.77630615 C-22.10934398 373.84392534 -22.08934332 369.91176759 -22.07427979 365.97918701 C-22.05470764 361.9638551 -22.01273783 357.94876405 -21.97265625 353.93359375 C-21.89735684 346.05995887 -21.84706404 338.18641857 -21.8125 330.3125 C-22.6789917 330.32138245 -23.5454834 330.33026489 -24.43823242 330.3394165 C-32.67423391 330.4201484 -40.91009919 330.48075852 -49.14640808 330.51974869 C-53.37902955 330.54046901 -57.61131934 330.56849512 -61.84375 330.61425781 C-65.94165217 330.65827979 -70.03923891 330.68175343 -74.13735962 330.69200897 C-75.68719436 330.69930082 -77.23701529 330.71353386 -78.78671265 330.73542023 C-93.93292381 330.94048016 -111.11216125 329.34655285 -122.74609375 318.51171875 C-124.80306164 316.20811202 -126.47317291 314.14801294 -127.640625 311.2734375 C-129.26729798 308.55147138 -131.1518903 307.89816524 -134 306.5625 C-141.93211332 302.40956109 -147.19080064 296.80211081 -150.08007812 288.22265625 C-153.28538305 275.48691134 -149.33478819 261.61755998 -146.875 249.0625 C-146.49694344 247.07182382 -146.11998236 245.08093927 -145.74414062 243.08984375 C-145.3837937 241.20033345 -145.0225012 239.31100317 -144.66015625 237.421875 C-144.4903273 236.53554382 -144.32049835 235.64921265 -144.14552307 234.73602295 C-143.98543259 233.92046936 -143.8253421 233.10491577 -143.66040039 232.26464844 C-143.52050186 231.54742615 -143.38060333 230.83020386 -143.23646545 230.09124756 C-142.8125 228.3125 -142.8125 228.3125 -141.8125 226.3125 C-143.359375 226.1578125 -143.359375 226.1578125 -144.9375 226 C-152.8579081 224.5947663 -157.16209817 220.72015949 -162 214.5 C-165.98159079 207.49789206 -166.48630372 201.08638841 -164.8125 193.3125 C-162.77427368 186.84841083 -158.63164908 181.78465089 -152.8125 178.3125 C-145.83603538 175.50517321 -139.27439096 174.84344255 -131.8125 174.9375 C-130.89210937 174.92589844 -129.97171875 174.91429687 -129.0234375 174.90234375 C-119.46721907 174.94272214 -111.51838126 176.70743568 -104.50390625 183.41015625 C-99.31894682 189.24173879 -97.47545032 195.1986747 -97.6015625 202.87890625 C-98.25204697 210.38356964 -101.20776434 216.29430645 -106.8125 221.3125 C-113.1914335 225.85507386 -118.22875136 226.43889581 -125.8125 226.3125 C-125.94978516 228.21322266 -125.94978516 228.21322266 -126.08984375 230.15234375 C-126.5926281 235.18816798 -127.47231669 240.10449469 -128.44140625 245.06640625 C-128.59572113 245.85711517 -128.75003601 246.6478241 -128.9090271 247.4624939 C-129.55831321 250.76791664 -130.21384126 254.07202954 -130.87670898 257.37475586 C-131.36401445 259.81224198 -131.84075973 262.25162214 -132.31640625 264.69140625 C-132.46638565 265.42291397 -132.61636505 266.15442169 -132.77088928 266.90809631 C-134.2590373 274.60124856 -135.06912755 281.39548023 -130.8125 288.3125 C-130.44898438 287.28511719 -130.08546875 286.25773437 -129.7109375 285.19921875 C-120.07455865 258.42790071 -120.07455865 258.42790071 -107.625 251.9375 C-103.04112537 249.79026748 -99.13048367 249.18966686 -94.0625 249.25 C-93.07765625 249.25902344 -92.0928125 249.26804688 -91.078125 249.27734375 C-89.95664063 249.29474609 -89.95664063 249.29474609 -88.8125 249.3125 C-84.70032533 231.61961138 -84.70032533 231.61961138 -83.25 213.5625 C-83.23582031 212.81581055 -83.22164063 212.06912109 -83.20703125 211.29980469 C-83.40990968 199.76109375 -88.52066789 189.14449598 -93.5625 179 C-94.09254639 177.91187012 -94.62259277 176.82374023 -95.16870117 175.70263672 C-97.44314098 171.04743937 -99.74781586 166.41019184 -102.12890625 161.80859375 C-111.60043142 143.48766167 -121.02297207 122.35830232 -115.48828125 101.38671875 C-110.17937848 85.09176285 -95.14793783 75.80378495 -82.06494141 66.00341797 C-70.70558135 57.45069916 -64.05283821 47.07728538 -57.4152832 34.76513672 C-54.3656947 29.15216938 -50.98547358 24.16020811 -46.8125 19.3125 C-46.19503906 18.49523437 -45.57757813 17.67796875 -44.94140625 16.8359375 C-33.24674019 2.97400305 -17.11918011 -0.04574874 0 0 Z M-147.8125 195.3125 C-149.54583202 198.66995814 -149.54583202 198.66995814 -149.8125 202.3125 C-148.26897299 206.08556603 -146.22978876 208.16589166 -142.8125 210.3125 C-139.02343422 210.95250718 -135.21250539 210.82200466 -131.375 210.8125 C-130.33794922 210.84085938 -129.30089844 210.86921875 -128.23242188 210.8984375 C-122.01224209 210.93317554 -122.01224209 210.93317554 -116.66015625 207.99609375 C-114.29240462 204.5570972 -113.66568467 202.49673685 -113.8125 198.3125 C-115.75441928 194.78389057 -117.93082869 192.60639044 -121.8125 191.3125 C-125.07846968 191.03474891 -128.34850475 191.0351304 -131.625 191 C-132.51509766 190.97099609 -133.40519531 190.94199219 -134.32226562 190.91210938 C-139.97850688 190.85760149 -143.41101592 191.38609674 -147.8125 195.3125 Z M115.3125 196.0625 C113.58749838 199.51250325 114.16083827 201.65501757 115.1875 205.3125 C117.29849465 208.37857468 118.92992757 210.06832446 122.65576172 210.79174805 C125.66100379 210.98729285 128.61415497 210.99413031 131.625 210.9375 C132.64916016 210.95683594 133.67332031 210.97617188 134.72851562 210.99609375 C141.25526005 210.96118959 141.25526005 210.96118959 146.84375 207.92578125 C149.33907876 205.14348969 150.2781748 204.03016678 150.1875 200.3125 C148.9952745 197.0007625 147.91276579 194.91546607 145.1953125 192.65625 C140.85272446 190.71618469 136.88907998 190.87617504 132.1875 190.9375 C131.29804688 190.92589844 130.40859375 190.91429687 129.4921875 190.90234375 C123.39814033 190.92963053 119.86478017 191.81370518 115.3125 196.0625 Z M-105.81640625 271.58984375 C-111.42055599 279.23386012 -115.83587584 290.76099217 -114.8125 300.3125 C-112.85174013 305.48177602 -110.95413572 307.55877264 -106.0625 310.125 C-99.62690289 313.00209047 -93.90843716 314.42274761 -86.8125 314.3125 C-86.83570313 313.54808594 -86.85890625 312.78367187 -86.8828125 311.99609375 C-87.12726727 297.48595725 -84.78843237 284.8359399 -79.8125 271.3125 C-79.4825 270.3225 -79.1525 269.3325 -78.8125 268.3125 C-88.70656433 264.07218672 -98.17460699 262.90530385 -105.81640625 271.58984375 Z M80.1875 267.3125 C79.8575 267.9725 79.5275 268.6325 79.1875 269.3125 C79.88378232 271.36021637 80.67062083 273.37748115 81.5 275.375 C86.49734637 288.08293343 87.3506229 300.71892524 87.1875 314.3125 C96.16361536 313.97120284 104.12671401 312.69648832 111.1875 306.8125 C114.96740823 302.08761471 115.46868876 299.43616627 115.1875 293.3125 C112.74193506 283.20560773 109.18439289 273.86522463 101.375 266.75 C94.79672174 263.78332549 86.8836247 264.89113348 80.1875 267.3125 Z M-63.8125 273.3125 C-69.85902612 287.15950639 -73.43347732 300.00047462 -70.8125 315.3125 C-68.1725 315.3125 -65.5325 315.3125 -62.8125 315.3125 C-62.83570313 314.77625 -62.85890625 314.24 -62.8828125 313.6875 C-63.15273945 301.96495836 -61.76808255 290.65117646 -57.6171875 279.66796875 C-56.65085952 277.25420305 -56.65085952 277.25420305 -56.8125 274.3125 C-59.1225 273.9825 -61.4325 273.6525 -63.8125 273.3125 Z M57.1875 274.3125 C57.82946179 277.80985435 58.70115954 281.20374112 59.64746094 284.62988281 C62.41906562 294.86928311 63.1875 304.70034601 63.1875 315.3125 C65.8275 315.3125 68.4675 315.3125 71.1875 315.3125 C72.96673429 300.62179523 71.16217267 286.54569592 64.1875 273.3125 C61.56636292 273.3125 59.67814888 273.62542445 57.1875 274.3125 Z M-39.8125 277.3125 C-40.46032543 278.5839868 -41.10537999 279.85688562 -41.74926758 281.13037109 C-42.2885363 282.19340958 -42.2885363 282.19340958 -42.83869934 283.27792358 C-47.23985553 292.47332564 -49.28197882 305.43458472 -46.8125 315.3125 C-15.7925 315.3125 15.2275 315.3125 47.1875 315.3125 C47.88726407 308.31485926 48.30300892 303.40328294 47 296.8125 C46.86416504 296.08417969 46.72833008 295.35585938 46.58837891 294.60546875 C44.90778025 285.25009884 44.90778025 285.25009884 40.1875 277.3125 C37.69257612 277.21747584 35.22543986 277.18692434 32.73022461 277.19897461 C31.94979294 277.19882858 31.16936127 277.19868256 30.36528015 277.1985321 C27.7734402 277.19923142 25.18167122 277.20702464 22.58984375 277.21484375 C20.7976536 277.21670787 19.00546294 277.2181318 17.21327209 277.21913147 C12.48679203 277.22295716 7.76034248 277.23278788 3.03387451 277.24383545 C-1.7853555 277.25404847 -6.60459042 277.25862885 -11.42382812 277.26367188 C-20.88673219 277.27441011 -30.34961356 277.29148714 -39.8125 277.3125 Z M-5.8125 330.3125 C-5.8125 352.0925 -5.8125 373.8725 -5.8125 396.3125 C-1.8525 396.3125 2.1075 396.3125 6.1875 396.3125 C6.1875 374.5325 6.1875 352.7525 6.1875 330.3125 C2.2275 330.3125 -1.7325 330.3125 -5.8125 330.3125 Z M-13.8125 412.3125 C-14.02241305 421.39189322 -14.02241305 421.39189322 -14.20043945 430.47192383 C-14.25010864 432.1661145 -14.25010864 432.1661145 -14.30078125 433.89453125 C-14.32696533 435.05186768 -14.35314941 436.2092041 -14.38012695 437.40161133 C-14.87567111 440.73779031 -15.22063734 441.2913431 -17.8125 443.3125 C-20.52702332 444.35661316 -20.52702332 444.35661316 -23.84448242 445.30541992 C-25.08554245 445.66556686 -26.32660248 446.02571381 -27.60527039 446.39677429 C-28.95944373 446.77904975 -30.31367798 447.16110952 -31.66796875 447.54296875 C-33.0539832 447.9413878 -34.4397479 448.34067662 -35.82527161 448.74079895 C-39.46751167 449.79010581 -43.1130214 450.82757331 -46.75933838 451.86260986 C-50.4815801 452.9214579 -54.20060775 453.99147014 -57.91992188 455.06054688 C-65.21434847 457.15546985 -72.51226541 459.23789546 -79.8125 461.3125 C-77.42817602 463.69682398 -76.07453756 464.41023429 -72.8125 465.3125 C-65.69468364 464.86167873 -59.27248889 463.19615099 -52.4609375 461.15234375 C-50.28908082 460.51751544 -48.11720526 459.88275174 -45.9453125 459.24804688 C-42.55647081 458.24778246 -39.16858016 457.24438453 -35.78125 456.23901367 C-32.48922481 455.26478949 -29.19403575 454.30189905 -25.8984375 453.33984375 C-24.8909848 453.03674789 -23.8835321 452.73365204 -22.84555054 452.42137146 C-17.68214817 450.91776792 -13.19652702 449.74758538 -7.8125 450.3125 C-4.8125 452.3125 -4.8125 452.3125 -4.08203125 454.6953125 C-3.93121094 455.60023438 -3.78039062 456.50515625 -3.625 457.4375 C-3.46644531 458.34757812 -3.30789062 459.25765625 -3.14453125 460.1953125 C-3.03496094 460.89398438 -2.92539063 461.59265625 -2.8125 462.3125 C-0.8325 462.3125 1.1475 462.3125 3.1875 462.3125 C3.29707031 461.61382812 3.40664063 460.91515625 3.51953125 460.1953125 C3.67808594 459.28523438 3.83664062 458.37515625 4 457.4375 C4.22623047 456.08011719 4.22623047 456.08011719 4.45703125 454.6953125 C5.1875 452.3125 5.1875 452.3125 8.1875 450.3125 C14.83474104 449.56798257 20.72060769 451.67977868 27.03515625 453.59375 C28.73024574 454.09316101 28.73024574 454.09316101 30.45957947 454.60266113 C34.05910273 455.6636799 37.65484796 456.73677006 41.25 457.8125 C44.84885042 458.88775308 48.44842398 459.96007862 52.0511322 461.02233887 C54.28939624 461.68233993 56.52548579 462.34977228 58.75904846 463.0255127 C59.77708054 463.32582397 60.79511261 463.62613525 61.84399414 463.93554688 C62.73333145 464.20202026 63.62266876 464.46849365 64.53895569 464.74304199 C68.99402429 465.70091703 72.92112247 465.80036121 77.0625 463.8125 C78.09375 463.3175 79.125 462.8225 80.1875 462.3125 C77.16693645 460.29879097 74.94778272 459.54201012 71.47851562 458.57250977 C70.30720093 458.24199112 69.13588623 457.91147247 67.92907715 457.57093811 C66.66341919 457.2188176 65.39776123 456.86669708 64.09375 456.50390625 C62.78221952 456.13355202 61.4709022 455.76244218 60.15979004 455.39060974 C54.59504835 453.8137123 49.02693384 452.24895725 43.45654297 450.69213867 C40.04664343 449.73858083 36.63957687 448.77541658 33.23405457 447.8063488 C31.30676759 447.2611251 29.37635504 446.72698929 27.44592285 446.19300842 C26.27460815 445.85933762 25.10329346 445.52566681 23.89648438 445.18188477 C22.34785706 444.74792137 22.34785706 444.74792137 20.76794434 444.30519104 C18.14948261 443.2978748 16.85600449 442.54403311 15.1875 440.3125 C14.75512695 437.40161133 14.75512695 437.40161133 14.67578125 433.89453125 C14.64266846 432.7650708 14.60955566 431.63561035 14.57543945 430.47192383 C14.55054443 429.03743896 14.52564941 427.6029541 14.5 426.125 C14.396875 421.566875 14.29375 417.00875 14.1875 412.3125 C4.9475 412.3125 -4.2925 412.3125 -13.8125 412.3125 Z M-93.8125 483.3125 C-95.05927006 486.20956707 -95.05927006 486.20956707 -94.8125 489.3125 C-92.56528859 493.5545814 -92.56528859 493.5545814 -88.8125 496.3125 C-82.93685706 496.90670843 -82.93685706 496.90670843 -77.8125 494.3125 C-75.59324914 490.98362371 -75.05359067 489.17313492 -75.3359375 485.25 C-76.20973159 481.69752568 -77.8286717 480.30171886 -80.8125 478.3125 C-86.70400478 476.86337987 -90.23297493 478.32285899 -93.8125 483.3125 Z M-8.8125 483.3125 C-9.51097125 486.1521864 -9.51097125 488.4728136 -8.8125 491.3125 C-6.82328114 494.2963283 -5.42747432 495.91526841 -1.875 496.7890625 C2.04813492 497.07140933 3.85862371 496.53175086 7.1875 494.3125 C9.40675086 490.98362371 9.94640933 489.17313492 9.6640625 485.25 C8.79026841 481.69752568 7.1713283 480.30171886 4.1875 478.3125 C-1.62913203 476.88179615 -5.42064906 478.22472359 -8.8125 483.3125 Z M78.1875 480.3125 C75.72530228 484.00579658 75.39551317 487.0274344 76.1875 491.3125 C78.17671886 494.2963283 79.57252568 495.91526841 83.125 496.7890625 C87.11161357 497.07597787 88.82120314 496.57748071 92.125 494.1875 C94.44872067 490.94837421 95.26883993 489.29815637 95.1875 485.3125 C93.39362721 481.58124459 92.00252651 479.76529251 88.375 477.75 C84.13233772 477.1676738 81.88666631 478.2495034 78.1875 480.3125 Z " fill="#FFFFFF" transform="translate(255.8125,-0.3125)"/>
<path d="M0 0 C8.14384337 0.68801435 16.2676397 0.74949727 24.4375 0.75 C26.4023938 0.75108765 26.4023938 0.75108765 28.40698242 0.75219727 C35.2443529 0.72768748 42.0023751 0.53296659 48.8125 -0.0625 C57.05455505 -0.6588474 61.39862201 0.77629014 67.75 5.9375 C71.80842462 9.4690703 74.15258512 12.95465345 74.73510742 18.41430664 C74.87807926 21.78171694 74.89571119 25.12972389 74.875 28.5 C74.89498047 29.64597656 74.91496094 30.79195312 74.93554688 31.97265625 C74.93098119 39.90782307 73.8856039 45.44622647 68.796875 51.61328125 C62.15955128 57.07457431 57.35185485 58.9556895 48.65625 58.19921875 C41.25490183 57.61861145 33.88113615 57.47128574 26.45800781 57.49462891 C24.43807479 57.49999847 22.41836398 57.49463322 20.3984375 57.48828125 C12.44659514 57.48605489 4.60759351 57.82670279 -3.30664062 58.55102539 C-9.4516078 58.69064185 -14.13907015 56.83592761 -18.65625 52.71484375 C-25.57882747 45.12554263 -25.9518858 39.47898163 -26 29.375 C-26.03287109 28.17230469 -26.06574219 26.96960938 -26.09960938 25.73046875 C-26.15305734 16.87754137 -24.5389645 12.16202338 -18.7890625 5.6015625 C-18.26054687 5.15554687 -17.73203125 4.70953125 -17.1875 4.25 C-16.66414062 3.78851563 -16.14078125 3.32703125 -15.6015625 2.8515625 C-10.54754273 -0.18859499 -5.74035238 -0.58774939 0 0 Z M-9.5625 19.625 C-10.31648145 21.75031897 -10.31648145 21.75031897 -10.2265625 24.03125 C-10.23300781 24.85753906 -10.23945313 25.68382812 -10.24609375 26.53515625 C-10.22675781 27.38980469 -10.20742187 28.24445313 -10.1875 29.125 C-10.20683594 29.97964844 -10.22617188 30.83429688 -10.24609375 31.71484375 C-10.21532674 35.65917449 -10.00666544 37.96554039 -7.7734375 41.28125 C-3.57035049 43.04020612 -0.59001833 42.53722491 3.87890625 41.99707031 C7.802735 41.5868127 11.68481273 41.49657749 15.625 41.4921875 C16.34099365 41.49091858 17.0569873 41.48964966 17.79467773 41.48834229 C19.26644029 41.48830141 20.73820441 41.49041648 22.20996094 41.49462891 C24.43431409 41.49999232 26.6584654 41.49464772 28.8828125 41.48828125 C30.33854225 41.48832168 31.79427254 41.48960758 33.25 41.4921875 C33.95503662 41.49297302 34.66007324 41.49375854 35.38647461 41.49456787 C39.70605484 41.52805789 43.9020003 41.8648283 48.1875 42.3828125 C51.80738416 42.70387617 53.22266136 42.71490814 56.6484375 41.28125 C59.32678466 37.3046647 59.16867588 33.81797389 59.0625 29.125 C59.09150391 27.84302734 59.09150391 27.84302734 59.12109375 26.53515625 C59.11464844 25.70886719 59.10820312 24.88257813 59.1015625 24.03125 C59.09592285 23.28166016 59.0902832 22.53207031 59.08447266 21.75976562 C58.08612163 18.46558398 56.32953133 17.37703352 53.4375 15.625 C50.61527837 15.35320243 50.61527837 15.35320243 47.625 15.8671875 C40.56590542 16.6521938 33.59225243 16.77727418 26.49902344 16.75537109 C24.43937831 16.75000489 22.37995114 16.75535882 20.3203125 16.76171875 C12.8653495 16.76149619 5.60153207 16.46559298 -1.79296875 15.44873047 C-5.54387814 15.68746077 -7.00323319 16.93378265 -9.5625 19.625 Z " fill="#FFFFFF" transform="translate(231.5625,71.375)"/>
</svg>
