<?xml version="1.0" encoding="UTF-8"?>
<svg version="1.1" xmlns="http://www.w3.org/2000/svg" width="512" height="512">
<path d="M0 0 C17.55799685 14.7704783 29.92698571 33.58573831 33.18310547 56.54492188 C33.26044396 58.63489061 33.29111505 60.72698582 33.28076172 62.81835938 C33.27753906 63.97207031 33.27431641 65.12578125 33.27099609 66.31445312 C33.26261719 67.50425781 33.25423828 68.6940625 33.24560547 69.91992188 C33.24109375 71.13292969 33.23658203 72.3459375 33.23193359 73.59570312 C33.22018901 76.57882694 33.20376387 79.56184867 33.18310547 82.54492188 C33.93541946 82.53603943 34.68773346 82.52715698 35.46284485 82.51800537 C42.59671202 82.43743508 49.73035465 82.37674415 56.86456013 82.33767319 C60.53124413 82.31691018 64.19754823 82.28880343 67.86401367 82.24316406 C71.41077019 82.19929747 74.95716424 82.1757002 78.50417137 82.1654129 C80.49755701 82.15456266 82.4907994 82.12340364 84.48396301 82.09173584 C94.49789795 82.08929686 102.98117864 83.37654517 110.62060547 90.23242188 C117.4084339 97.07889246 118.64249208 104.892265 118.72274119 114.21321958 C118.71478605 115.61439279 118.70644848 117.01556388 118.69776917 118.41673279 C118.70309997 119.9229324 118.71016873 121.42912668 118.71881622 122.9353109 C118.73739978 127.05736023 118.73115348 131.17904923 118.72066319 135.30111325 C118.71365897 139.75316226 118.72967837 144.20513816 118.74266052 148.65716553 C118.76428527 157.37230585 118.76417755 166.08731551 118.75603498 174.80247384 C118.74973118 181.88695015 118.7508755 188.97138841 118.75730705 196.05586433 C118.75820871 197.06476455 118.75911036 198.07366476 118.76003934 199.11313771 C118.76189057 201.1628116 118.76375313 203.21248548 118.7656269 205.26215935 C118.78220005 224.47607032 118.77349027 243.68990783 118.75664132 262.90381438 C118.74194474 280.47580307 118.75657305 298.04762075 118.78541148 315.61958741 C118.81481534 333.67075738 118.82577488 351.72184845 118.81622928 369.77304131 C118.81520675 371.81541541 118.81421214 373.85778952 118.81324577 375.90016365 C118.81276938 376.90500189 118.81229299 377.90984012 118.81180217 378.945128 C118.80963935 386.01884808 118.81943508 393.09249334 118.8340168 400.16619682 C118.85154627 408.79004028 118.8514139 417.41366575 118.82866514 426.03750067 C118.81752858 430.43578933 118.81434709 434.83369402 118.83296585 439.23196602 C118.84980597 443.26198916 118.84337242 447.29129449 118.81874906 451.32127143 C118.8138769 452.77540716 118.81735114 454.22960118 118.8302365 455.68368798 C118.91008311 465.39891792 118.02600501 473.3395036 111.19337183 480.68359846 C102.74869638 488.74106993 94.83026671 488.99116745 83.59399414 488.96484375 C82.11166242 488.9721908 80.62933642 488.98077888 79.14701843 488.99050903 C75.13444182 489.01266912 71.12207091 489.01565842 67.10944152 489.01376152 C63.752336 489.01364154 60.39527363 489.02221698 57.03818017 489.03053904 C49.11307046 489.04975403 41.18806607 489.05266419 33.26293945 489.04589844 C25.10522821 489.03926183 16.94796961 489.06211084 8.79035014 489.09921217 C1.77097613 489.12997054 -5.24825275 489.14126248 -12.26769274 489.13737535 C-16.4531908 489.13531385 -20.63833668 489.14069365 -24.82377052 489.16526794 C-28.76304038 489.18763397 -32.7015779 489.18557653 -36.64085197 489.16534042 C-38.07990215 489.16194745 -39.51900258 489.16694512 -40.95798492 489.18132401 C-50.67448499 489.27165352 -58.61121806 488.38799462 -65.9556551 481.55513763 C-74.03473207 473.08765038 -74.25527745 465.17058142 -74.20457458 453.90689087 C-74.20874953 452.40170754 -74.21422793 450.89652736 -74.2208944 449.39135301 C-74.23534678 445.26290666 -74.23110495 441.13465997 -74.22372758 437.0062027 C-74.21899768 432.55074184 -74.23150422 428.0953243 -74.241745 423.63987732 C-74.25894203 414.91412129 -74.2597711 406.18843725 -74.25453209 397.46266867 C-74.25049071 390.37003681 -74.25193358 383.27742622 -74.25728035 376.18479538 C-74.25802877 375.17533546 -74.25877719 374.16587555 -74.2595483 373.12582593 C-74.26107977 371.07510325 -74.26261812 369.02438057 -74.26416326 366.97365789 C-74.27789168 347.74167622 -74.2724483 328.50973522 -74.26097805 309.27775447 C-74.25104616 291.68558736 -74.26398498 274.09352544 -74.28791224 256.50137456 C-74.31229847 238.43559029 -74.32191223 220.36985502 -74.31525952 202.30405462 C-74.31176613 192.16235443 -74.31400722 182.02073514 -74.33151054 171.87904739 C-74.34622658 163.2452741 -74.34687581 154.61163866 -74.32943963 145.9778681 C-74.32092218 141.57368861 -74.31879821 137.16975545 -74.33409119 132.76558876 C-74.3479262 128.73131378 -74.3431906 124.69749641 -74.32385195 120.66324799 C-74.32008796 119.20637671 -74.3230255 117.74946889 -74.3334636 116.29263015 C-74.39736301 106.6888588 -73.82619125 99.17103348 -67.37939453 91.73242188 C-66.53376953 91.01054688 -65.68814453 90.28867188 -64.81689453 89.54492188 C-63.70314453 88.49304688 -63.70314453 88.49304688 -62.56689453 87.41992188 C-54.4805879 81.90653099 -45.87083409 82.13969687 -36.37548828 82.25195312 C-34.99830084 82.25756002 -33.62110735 82.26182494 -32.24391174 82.26481628 C-28.64845776 82.27617927 -25.05337705 82.30557062 -21.45806885 82.33892822 C-17.77759854 82.36981543 -14.09706693 82.38336114 -10.41650391 82.3984375 C-3.21646538 82.43045038 3.98326741 82.48154057 11.18310547 82.54492188 C11.04667685 79.02379096 10.90085644 75.5031076 10.75341797 71.98242188 C10.71514893 70.99177734 10.67687988 70.00113281 10.63745117 68.98046875 C9.75238607 48.28884976 1.92362907 33.53045148 -12.92626953 19.56054688 C-32.91391694 2.67175953 -58.44467072 -1.73331042 -83.81689453 -0.45507812 C-102.84365443 1.35834654 -120.61367797 10.82000743 -132.81689453 25.54492188 C-153.78749978 53.90855406 -157.29596306 87.19155529 -157.22031629 121.47252631 C-157.21550813 125.17673466 -157.22820045 128.88089205 -157.23867798 132.58508301 C-157.25454129 138.98317047 -157.2599399 145.38119483 -157.2581501 151.77930069 C-157.25574876 161.04909188 -157.27186034 170.31878364 -157.29260265 179.58854865 C-157.32601661 194.65977384 -157.34775068 209.73099005 -157.3605957 224.80224609 C-157.36174994 226.15089085 -157.36174994 226.15089085 -157.36292749 227.52678095 C-157.36602957 231.16941855 -157.36911238 234.81205616 -157.37216753 238.4546938 C-157.38070195 248.48591137 -157.39160463 258.51712581 -157.40356445 268.54833984 C-157.40463247 269.44692876 -157.40570049 270.34551768 -157.40680087 271.27133657 C-157.42494024 286.2944555 -157.45095475 301.3175532 -157.48169559 316.34065139 C-157.50015809 325.57934403 -157.51115964 334.81798885 -157.51221751 344.05670021 C-157.51332732 350.39118807 -157.52134034 356.72564316 -157.53460116 363.06011714 C-157.54196136 366.70393741 -157.54616462 370.34768596 -157.54148293 373.9915123 C-157.49644296 413.27699734 -157.49644296 413.27699734 -162.50439453 426.91992188 C-162.76494629 427.66048828 -163.02549805 428.40105469 -163.29394531 429.1640625 C-171.36465798 451.18988414 -188.87159259 469.48383681 -209.92626953 479.58789062 C-214.14118705 481.48748841 -218.43116571 483.08699296 -222.81689453 484.54492188 C-223.48962402 484.76937988 -224.16235352 484.99383789 -224.85546875 485.22509766 C-249.78113833 493.07574969 -278.72553263 490.28135202 -301.92626953 478.54541016 C-323.98651215 466.87148528 -340.25740298 449.01493061 -348.06689453 425.04492188 C-351.910744 412.50183414 -352.09738737 400.16708769 -352.04394531 387.19042969 C-352.04338024 385.2576498 -352.04369963 383.32486948 -352.04483032 381.39208984 C-352.04540109 376.1780525 -352.03369165 370.96410832 -352.01968241 365.75009251 C-352.00712885 360.28886457 -352.00600091 354.82763419 -352.00363159 349.36639404 C-351.99743037 339.03947715 -351.981038 328.71260292 -351.96093261 318.38570476 C-351.93853124 306.62265747 -351.92756954 294.85960807 -351.91754174 283.09654474 C-351.89667052 258.91264686 -351.86152107 234.72878677 -351.81689453 210.54492188 C-353.70239014 210.08678101 -353.70239014 210.08678101 -355.62597656 209.61938477 C-368.27227121 206.54656699 -378.52799544 198.87608548 -385.69189453 188.10742188 C-390.94577111 179.28487441 -393.94957411 171.08202556 -394.00976562 160.82641602 C-394.01794312 160.05357773 -394.02612061 159.28073944 -394.0345459 158.48448181 C-394.05931183 155.93302169 -394.07588978 153.3816167 -394.09033203 150.83007812 C-394.09831755 149.52103421 -394.09831755 149.52103421 -394.10646439 148.18554497 C-394.13315269 143.56975051 -394.15254473 138.95398275 -394.16699219 134.33813477 C-394.18035163 130.51920732 -394.20824681 126.70081164 -394.24902344 122.88208008 C-394.29829502 118.26734764 -394.3231056 113.65309881 -394.33021927 109.03811455 C-394.3369359 107.2810176 -394.35216878 105.52393162 -394.37611008 103.76698494 C-394.40771235 101.3083566 -394.40780713 98.85160017 -394.40039062 96.39282227 C-394.42499863 95.30712448 -394.42499863 95.30712448 -394.45010376 94.19949341 C-394.40211429 90.30987748 -393.92314221 88.6772298 -391.45620728 85.60520935 C-388.76185611 83.50195805 -387.18218611 82.83337544 -383.81689453 82.54492188 C-383.82577698 81.99448212 -383.83465942 81.44404236 -383.84381104 80.87692261 C-383.93248744 75.13420015 -383.99271257 69.39167304 -384.03662109 63.6484375 C-384.05670341 61.50675554 -384.08397491 59.36512818 -384.11865234 57.22363281 C-384.16731852 54.14048772 -384.18989743 51.05806925 -384.20751953 47.97460938 C-384.23848724 46.54458084 -384.23848724 46.54458084 -384.27008057 45.08566284 C-384.27198984 39.39508544 -383.7187674 36.00609254 -379.81689453 31.54492188 C-376.14802503 29.09900887 -374.33876178 29.28099511 -369.9621582 29.25439453 C-369.2691008 29.24767731 -368.5760434 29.24096008 -367.86198425 29.23403931 C-365.56953773 29.21503378 -363.2773837 29.21113358 -360.98486328 29.20898438 C-359.38926574 29.20255714 -357.79366939 29.19582883 -356.19807434 29.18881226 C-352.8515042 29.17683236 -349.50503734 29.17313205 -346.15844727 29.17431641 C-341.87774025 29.17451939 -337.59769864 29.14724196 -333.31714916 29.11277199 C-330.02021772 29.0904906 -326.72344593 29.08647927 -323.42644691 29.08753586 C-321.84883651 29.08518081 -320.27122164 29.07636262 -318.69368553 29.06087112 C-316.48192742 29.0411892 -314.27159746 29.0470567 -312.05981445 29.05908203 C-310.17476448 29.05480698 -310.17476448 29.05480698 -308.25163269 29.05044556 C-304.17804249 29.63689314 -302.00309224 30.98768511 -298.81689453 33.54492188 C-297.6189828 35.94074533 -297.69622013 37.41269725 -297.70336914 40.08642578 C-297.70348244 41.4976622 -297.70348244 41.4976622 -297.70359802 42.93740845 C-297.70875931 43.9551535 -297.71392059 44.97289856 -297.71923828 46.02148438 C-297.72065323 47.06186859 -297.72206818 48.10225281 -297.723526 49.17416382 C-297.72913587 52.50611208 -297.74169006 55.83799383 -297.75439453 59.16992188 C-297.75940826 61.42512924 -297.76397139 63.68033765 -297.76806641 65.93554688 C-297.7791085 71.47202801 -297.79585626 77.00847019 -297.81689453 82.54492188 C-297.04861328 82.66996094 -296.28033203 82.795 -295.48876953 82.92382812 C-292.11572352 83.70791338 -290.34726202 85.22541834 -287.81689453 87.54492188 C-286.35326177 90.4721874 -286.652358 93.42418759 -286.63989258 96.6340332 C-286.63332138 97.36446838 -286.62675018 98.09490356 -286.61997986 98.84747314 C-286.60021571 101.27396754 -286.58856992 103.70039958 -286.57861328 106.12695312 C-286.57453775 106.95840033 -286.57046223 107.78984753 -286.5662632 108.6464901 C-286.54537719 113.0575371 -286.53109328 117.46855288 -286.52172852 121.87963867 C-286.51073151 126.40737726 -286.47641787 130.93461517 -286.43655682 135.46217823 C-286.41021485 138.9652539 -286.40202064 142.46821427 -286.39844704 145.97138023 C-286.39361674 147.63811261 -286.38210611 149.3048411 -286.36340904 150.9714756 C-286.18129415 168.29910908 -289.7359649 183.40741282 -302.00439453 196.35742188 C-309.012152 203.03193 -319.69158257 210.54492188 -329.81689453 210.54492188 C-329.73281545 234.78080005 -329.6376168 259.01661282 -329.52936745 283.25239563 C-329.4793557 294.50679175 -329.43291193 305.76118101 -329.39501953 317.015625 C-329.36196345 326.83089221 -329.32205815 336.64610425 -329.27410448 346.46131039 C-329.24897417 351.65300671 -329.22715396 356.84466708 -329.21355057 362.03640747 C-329.20060691 366.93491192 -329.17842337 371.8332922 -329.14951134 376.7317276 C-329.14053075 378.51815691 -329.13476796 380.30460616 -329.13268089 382.09105682 C-329.10405777 402.89203226 -327.40564101 421.10169146 -314.81689453 438.54492188 C-314.31802734 439.24101562 -313.81916016 439.93710937 -313.30517578 440.65429688 C-304.53595129 451.69866022 -291.96032302 458.25809859 -278.81689453 462.54492188 C-277.79466797 462.88394531 -276.77244141 463.22296875 -275.71923828 463.57226562 C-255.35556396 469.27409443 -233.64668394 465.60591351 -215.35205078 455.62304688 C-210.80145449 453.01444015 -206.70832274 450.06419687 -202.81689453 446.54492188 C-202.20716797 446.01511719 -201.59744141 445.4853125 -200.96923828 444.93945312 C-190.14518236 434.92422776 -182.61419289 419.50039709 -181.62992573 404.74132788 C-181.55542213 401.5033022 -181.54255224 398.27057155 -181.55187988 395.0316925 C-181.54749861 393.79404166 -181.54311734 392.55639081 -181.53860331 391.2812354 C-181.52845256 387.86649449 -181.52711328 384.45195955 -181.52953839 381.03721845 C-181.52995955 377.34569884 -181.51884322 373.65421172 -181.50907898 369.96270752 C-181.49364903 363.56881356 -181.48521949 357.1749416 -181.48136902 350.78103065 C-181.47560356 341.51266002 -181.45698588 332.24434814 -181.43492848 322.97600355 C-181.39922796 307.90548011 -181.37091208 292.83495332 -181.34863281 277.7644043 C-181.34729782 276.86312713 -181.34596283 275.96184997 -181.34458739 275.03326138 C-181.33516687 268.64131515 -181.32600675 262.24936855 -181.31689453 255.85742188 C-181.3065079 248.57836885 -181.2959855 241.29931605 -181.28515625 234.02026367 C-181.28316014 232.67591827 -181.28316014 232.67591827 -181.2811237 231.30441437 C-181.25861078 216.30422182 -181.22837293 201.30405409 -181.19276381 186.30388707 C-181.17122102 177.07285082 -181.15651259 167.84185322 -181.15092504 158.61079326 C-181.14664314 152.26869215 -181.13531558 145.92662776 -181.1187011 139.58454708 C-181.10939555 135.93828566 -181.10314386 132.29209269 -181.10576439 128.64581871 C-181.13155189 83.69670608 -176.75005753 38.06252312 -144.86767578 3.56054688 C-134.00374314 -7.11714693 -121.23117724 -14.68531184 -106.81689453 -19.45507812 C-106.18025879 -19.66825684 -105.54362305 -19.88143555 -104.88769531 -20.10107422 C-70.52853565 -30.99544192 -27.95101933 -22.38485289 0 0 Z M-361.81689453 51.54492188 C-361.81689453 61.77492188 -361.81689453 72.00492188 -361.81689453 82.54492188 C-347.95689453 82.54492188 -334.09689453 82.54492188 -319.81689453 82.54492188 C-319.81689453 72.31492187 -319.81689453 62.08492187 -319.81689453 51.54492188 C-333.67689453 51.54492188 -347.53689453 51.54492188 -361.81689453 51.54492188 Z M-371.81689453 104.54492188 C-371.89939453 114.07367188 -371.98189453 123.60242188 -372.06689453 133.41992188 C-372.10331055 136.40909668 -372.13972656 139.39827148 -372.17724609 142.47802734 C-372.18893905 144.87271407 -372.19912944 147.2674088 -372.20751953 149.66210938 C-372.2279834 150.88486572 -372.24844727 152.10762207 -372.26953125 153.36743164 C-372.27398951 164.40386486 -369.74295489 172.48410895 -362.10595703 180.56445312 C-354.95763412 186.74909428 -347.0143397 188.93319019 -337.75830078 188.82226562 C-329.88273241 188.07968215 -322.37054558 184.13432604 -316.81689453 178.54492188 C-309.52690061 168.74393005 -308.51951864 160.31189504 -308.62158203 148.39257812 C-308.62359619 147.27911011 -308.62561035 146.16564209 -308.62768555 145.01843262 C-308.63810525 140.88138679 -308.66602769 136.74439995 -308.69189453 132.60742188 C-308.75376953 118.71648437 -308.75376953 118.71648437 -308.81689453 104.54492188 C-329.60689453 104.54492188 -350.39689453 104.54492188 -371.81689453 104.54492188 Z M-51.81689453 108.54492188 C-51.91723111 110.42903893 -51.94613735 112.31697077 -51.9483223 114.20375633 C-51.95216344 115.44050271 -51.95600459 116.6772491 -51.95996213 117.95147264 C-51.95918175 119.34170244 -51.95830293 120.73193218 -51.95733643 122.12216187 C-51.95991782 123.58519177 -51.96293034 125.04822097 -51.96633983 126.51124918 C-51.97443964 130.55076022 -51.97620105 134.59025352 -51.97693729 138.62977171 C-51.97878268 142.97886861 -51.98632738 147.32795619 -51.99307251 151.67704773 C-52.00667738 161.19548016 -52.01268386 170.71390838 -52.01708317 180.23234892 C-52.01984189 186.17076552 -52.02407855 192.10918048 -52.02858734 198.04759598 C-52.04078269 214.47518754 -52.05108156 230.90277778 -52.05446243 247.33037376 C-52.054682 248.38258595 -52.05490157 249.43479814 -52.05512778 250.51889554 C-52.05534606 251.5736876 -52.05556434 252.62847966 -52.05578923 253.71523511 C-52.05623271 255.85279997 -52.05667927 257.99036483 -52.05712891 260.12792969 C-52.05735034 261.1882455 -52.05757177 262.24856131 -52.05779991 263.3410079 C-52.06174972 280.53019779 -52.07920813 297.71934532 -52.10248843 314.90851884 C-52.12617306 332.53789014 -52.13866296 350.16724016 -52.13983035 367.79662764 C-52.14074873 377.70235665 -52.14654181 387.60803049 -52.16464996 397.51374435 C-52.18001203 405.94725214 -52.18519454 414.38068772 -52.17691186 422.81420682 C-52.17299151 427.12035646 -52.174002 431.42636051 -52.18796921 435.73249245 C-52.20062571 439.67039511 -52.19958405 443.60804156 -52.1873785 447.54594345 C-52.18540707 448.97462746 -52.18856592 450.40332912 -52.19722286 451.83198826 C-52.20820553 453.76609806 -52.19909373 455.70029138 -52.18883133 457.63440514 C-52.18942842 458.71112964 -52.19002551 459.78785414 -52.19064069 460.89720666 C-52.02807548 463.56490403 -52.02807548 463.56490403 -50.45480037 465.39073396 C-48.01095775 467.11284371 -46.05199874 466.922648 -43.08544922 466.9258728 C-41.89085083 466.93433228 -40.69625244 466.94279175 -39.4654541 466.95150757 C-38.15314819 466.94543488 -36.84084229 466.93936218 -35.48876953 466.93310547 C-34.09419341 466.9371701 -32.6996205 466.94251137 -31.30505371 466.94903564 C-27.51581447 466.96272811 -23.72681989 466.95740276 -19.93757629 466.94789839 C-15.97514173 466.94031173 -12.01272834 466.94734463 -8.05029297 466.95205688 C-1.39563225 466.95751735 5.25892865 466.95031524 11.91357422 466.93603516 C19.61113103 466.91970803 27.30844948 466.92499634 35.00600052 466.94151437 C41.61074491 466.955121 48.21541748 466.95705295 54.82017136 466.94919837 C58.76675067 466.94451729 62.71321789 466.94390884 66.65979004 466.95380783 C70.3698596 466.96246331 74.07962135 466.95648191 77.78965759 466.93912506 C79.80365575 466.93325506 81.81767989 466.94218786 83.83166504 466.95150757 C85.02626343 466.9430481 86.22086182 466.93458862 87.45166016 466.9258728 C88.49215515 466.92474173 89.53265015 466.92361065 90.60467529 466.9224453 C93.15855443 466.7468084 93.15855443 466.7468084 94.82066214 465.39038479 C96.75590254 462.76905419 96.55916119 460.8813244 96.56062889 457.63999176 C96.56845213 456.39926328 96.57627537 455.1585348 96.58433568 453.88020849 C96.57784892 452.49586197 96.57107892 451.11151676 96.5640564 449.72717285 C96.56751096 448.26241408 96.57227417 446.7976579 96.57823813 445.3329072 C96.59080555 441.29784811 96.58455182 437.26300083 96.57527947 433.2279408 C96.56851272 428.88023239 96.57895838 424.5325613 96.58721924 420.18486023 C96.60058421 411.66376645 96.59766656 403.14275179 96.58898132 394.62165487 C96.58221603 387.69859438 96.58128304 380.77555613 96.58455276 373.85249329 C96.58524231 372.37652238 96.58524231 372.37652238 96.58594579 370.87073389 C96.58690493 368.87202068 96.58787757 366.87330747 96.58886357 364.87459427 C96.59742556 346.11684054 96.58757065 327.35913075 96.57146247 308.60138422 C96.55805855 292.49383701 96.56038642 276.38635464 96.57421875 260.27880859 C96.59026029 241.58982 96.59660151 222.90086995 96.58738196 204.21187544 C96.58642628 202.22036712 96.58548316 200.22885879 96.58455276 198.23735046 C96.58408994 197.25739842 96.58362711 196.27744637 96.58315026 195.26779881 C96.58055609 188.35017945 96.58494055 181.43258446 96.59199142 174.51496887 C96.60039081 166.08881825 96.59815929 157.6627515 96.58214919 149.23661053 C96.57424535 144.93450497 96.57121065 140.63253944 96.58109665 136.3304348 C96.59000059 132.39630002 96.58518234 128.46243578 96.56916399 124.52832574 C96.56579784 123.10105254 96.56755113 121.67375673 96.57479136 120.24649793 C96.58384526 118.31429806 96.572812 116.38203466 96.56062889 114.44985199 C96.56014183 113.37421163 96.55965478 112.29857127 96.55915296 111.19033575 C96.39520809 108.53220724 96.39520809 108.53220724 94.84701025 106.73836374 C91.57594981 104.39218353 88.57695206 104.41610754 84.69290161 104.40447998 C82.98106689 104.39591476 82.98106689 104.39591476 81.23464966 104.38717651 C79.98159027 104.38605865 78.72853088 104.3849408 77.4375 104.38378906 C76.11860779 104.37882416 74.79971558 104.37385925 73.44085693 104.3687439 C69.8209801 104.35562686 66.2011218 104.34917642 62.58122492 104.34473324 C60.31961855 104.34180167 58.05801724 104.33769673 55.79641342 104.33322906 C48.72016013 104.31955659 41.64391841 104.30988845 34.56765282 104.30602717 C26.39934688 104.30154547 18.2312082 104.28399143 10.06295311 104.25502658 C3.7486382 104.233413 -2.56562964 104.22332309 -8.87998116 104.22198606 C-12.65115102 104.22093788 -16.42216361 104.2150275 -20.19329453 104.19716644 C-23.74082666 104.18069101 -27.2880832 104.1785275 -30.83563995 104.18730545 C-32.75624087 104.18844323 -34.67683261 104.17472214 -36.59738159 104.16055298 C-37.74424438 104.16612213 -38.89110718 104.17169128 -40.07272339 104.1774292 C-41.06712873 104.17596264 -42.06153408 104.17449608 -43.08607292 104.17298508 C-46.59989828 104.65156667 -49.29293373 106.02096107 -51.81689453 108.54492188 Z " fill="#FFFFFF" transform="translate(393.81689453125,23.455078125)"/>
<path d="M0 0 C1.36145393 -0.01248528 1.36145393 -0.01248528 2.75041199 -0.02522278 C5.75707261 -0.04935827 8.76351639 -0.05809964 11.77026367 -0.06469727 C13.8591061 -0.07366154 15.94794786 -0.08278335 18.03678894 -0.09205627 C22.41907309 -0.10855893 26.80128074 -0.1162486 31.18359375 -0.11914062 C36.79608582 -0.1245229 42.40785763 -0.16219145 48.02014637 -0.20788479 C52.33618283 -0.23764526 56.65204574 -0.24486398 60.96817589 -0.24586678 C63.03702782 -0.25007178 65.10588015 -0.26251724 67.17463112 -0.28338432 C70.0713842 -0.31027464 72.96646661 -0.30547988 75.86328125 -0.29296875 C76.71596588 -0.30780304 77.56865051 -0.32263733 78.44717407 -0.33792114 C82.60854697 -0.28680394 85.31917226 0.0283731 88.64213562 2.65635681 C92.40075389 6.6668659 92.25983562 9.6663663 92.30273438 14.97753906 C92.30930557 15.65108932 92.31587677 16.32463959 92.32264709 17.01860046 C92.34234581 19.24604408 92.35403492 21.47342038 92.36401367 23.70092773 C92.3680892 24.46296698 92.37216473 25.22500622 92.37636375 26.01013756 C92.39720981 30.04353946 92.41151788 34.07690748 92.42089844 38.11035156 C92.43196041 42.26995743 92.46636148 46.42902799 92.50607014 50.58844471 C92.53225086 53.7927091 92.54059152 56.99684618 92.54417992 60.20120811 C92.54904208 61.73417463 92.56064565 63.26713561 92.57921791 64.79999733 C92.60364228 66.94944993 92.60263937 69.0975206 92.59570312 71.24707031 C92.60156937 72.46824051 92.60743561 73.68941071 92.61347961 74.94758606 C92.02501967 78.99994234 90.6749491 81.13625489 88.12573242 84.30639648 C84.18638835 86.93262586 80.80829014 86.60174125 76.2355957 86.59692383 C74.87173233 86.60699966 74.87173233 86.60699966 73.48031616 86.61727905 C70.46883711 86.63630653 67.45758037 86.64018568 64.44604492 86.64233398 C62.35480659 86.64875873 60.26356918 86.65548684 58.17233276 86.6625061 C53.78584713 86.67449084 49.39944031 86.67818571 45.01293945 86.67700195 C39.39148029 86.67679873 33.77052647 86.70409964 28.14918709 86.73854637 C23.82890501 86.76078186 19.50874516 86.76484052 15.18841171 86.7637825 C13.11595798 86.76614356 11.04350114 86.77499538 8.97110367 86.79044724 C6.07192846 86.8100387 3.17385101 86.80429591 0.2746582 86.79223633 C-0.5816217 86.80347534 -1.43790161 86.81471436 -2.32012939 86.82629395 C-6.26803095 86.78455459 -8.37521701 86.60790652 -11.82107544 84.52603149 C-15.77555153 80.25098416 -16.1283785 77.33301051 -16.16479492 71.52172852 C-16.17151215 70.84803223 -16.17822937 70.17433594 -16.18515015 69.48022461 C-16.20411231 67.2581439 -16.20805341 65.03636552 -16.21020508 62.81420898 C-16.21663438 61.26488115 -16.22336284 59.71555454 -16.2303772 58.16622925 C-16.24234557 54.91979153 -16.24605849 51.67346018 -16.24487305 48.42700195 C-16.24466991 44.27523095 -16.27196815 40.12414485 -16.30641747 35.97253609 C-16.32869967 32.77254122 -16.33271019 29.57271082 -16.33165359 26.37264633 C-16.33400772 24.84248368 -16.3428207 23.31231636 -16.35831833 21.78223038 C-16.37800604 19.63762266 -16.3721312 17.49448702 -16.36010742 15.34985352 C-16.36295746 14.13169952 -16.3658075 12.91354553 -16.3687439 11.65847778 C-15.77218461 7.61437061 -14.41803206 5.47238192 -11.87426758 2.30639648 C-7.94037957 -0.31619552 -4.56704485 0.00353486 0 0 Z M6.12573242 22.30639648 C6.12573242 25.60639648 6.12573242 28.90639648 6.12573242 32.30639648 C27.24573242 32.30639648 48.36573242 32.30639648 70.12573242 32.30639648 C70.12573242 29.00639648 70.12573242 25.70639648 70.12573242 22.30639648 C49.00573242 22.30639648 27.88573242 22.30639648 6.12573242 22.30639648 Z M6.12573242 54.30639648 C6.12573242 57.60639648 6.12573242 60.90639648 6.12573242 64.30639648 C27.24573242 64.30639648 48.36573242 64.30639648 70.12573242 64.30639648 C70.12573242 61.00639648 70.12573242 57.70639648 70.12573242 54.30639648 C49.00573242 54.30639648 27.88573242 54.30639648 6.12573242 54.30639648 Z " fill="#FFFFFF" transform="translate(377.874267578125,372.693603515625)"/>
<path d="M0 0 C1.33241226 -0.01007584 1.33241226 -0.01007584 2.69174194 -0.02035522 C5.62804763 -0.03935224 8.56412496 -0.04326028 11.50048828 -0.04541016 C13.54306126 -0.05183686 15.58563331 -0.05856513 17.62820435 -0.06558228 C21.91036107 -0.07755928 26.19243709 -0.08126266 30.47460938 -0.08007812 C35.95806313 -0.07987491 41.44099879 -0.10717841 46.92432976 -0.14162254 C51.14342621 -0.16387476 55.36239765 -0.16791618 59.58154678 -0.16685867 C61.60293488 -0.1692171 63.6243263 -0.17805423 65.64565659 -0.19352341 C68.47507621 -0.21314933 71.30337429 -0.20735865 74.1328125 -0.1953125 C75.38143066 -0.21217102 75.38143066 -0.21217102 76.65527344 -0.22937012 C81.94352204 -0.17224323 85.05506209 0.69830478 89.19580078 4.29052734 C91.69629505 7.6512611 91.45498677 10.99556169 91.47045898 15.09106445 C91.47556992 15.76636703 91.48068085 16.44166962 91.48594666 17.13743591 C91.49981898 19.36433841 91.49888773 21.59093059 91.49658203 23.81787109 C91.50047025 25.36959447 91.50480519 26.92131678 91.50956726 28.47303772 C91.51702437 31.7236781 91.5167419 34.97420986 91.51147461 38.22485352 C91.50568043 42.38558166 91.52261186 46.54586458 91.54581928 50.70651913 C91.56056813 53.91075734 91.56142678 57.1148886 91.55830956 60.31915474 C91.55882218 61.85291997 91.56404901 63.38669127 91.57412148 64.92042351 C91.58649143 67.06743988 91.57969183 69.21359263 91.56811523 71.3605957 C91.56874466 72.58097031 91.56937408 73.80134491 91.57002258 75.05870056 C91.01373963 79.86283046 88.86680742 83.20104915 85.19580078 86.29052734 C82.10529399 86.59743367 79.21487807 86.72076035 76.12207031 86.71044922 C75.19332092 86.71891876 74.26457153 86.72738831 73.30767822 86.7361145 C70.23118471 86.7595527 67.15518941 86.76050494 64.07861328 86.75927734 C61.94253335 86.76637541 59.80645534 86.77407388 57.67037964 86.78234863 C53.18970442 86.79580958 48.70920543 86.79735522 44.22851562 86.79150391 C38.48585994 86.78561004 32.74405034 86.81617942 27.0015583 86.85662079 C22.5886072 86.88246976 18.17586046 86.88537766 13.76284409 86.88172913 C11.64572907 86.88342337 9.52860492 86.89309504 7.41156387 86.91087341 C4.44990714 86.93300456 1.48997107 86.92339021 -1.47167969 86.90576172 C-2.34666107 86.91902496 -3.22164246 86.93228821 -4.12313843 86.94595337 C-8.49904262 86.88542166 -10.26342858 86.71138714 -13.82498169 83.9395752 C-16.92390774 79.79187376 -16.94038435 76.6728 -16.98120117 71.61938477 C-16.98777237 70.9458345 -16.99434357 70.27228424 -17.00111389 69.57832336 C-17.02081261 67.35087975 -17.03250172 65.12350345 -17.04248047 62.89599609 C-17.046556 62.13395685 -17.05063152 61.37191761 -17.05483055 60.58678627 C-17.07567661 56.55338437 -17.08998468 52.52001635 -17.09936523 48.48657227 C-17.11042721 44.3269664 -17.14482828 40.16789584 -17.18453693 36.00847912 C-17.21071766 32.80421473 -17.21905832 29.60007765 -17.22264671 26.39571571 C-17.22750888 24.86274919 -17.23911245 23.32978822 -17.25768471 21.7969265 C-17.28210907 19.6474739 -17.28110616 17.49940323 -17.27416992 15.34985352 C-17.28003616 14.12868332 -17.2859024 12.90751312 -17.29194641 11.64933777 C-16.6176391 7.00580426 -14.78812933 3.87423054 -11.10446167 0.9336853 C-7.44106511 -0.09060767 -3.77363812 -0.00408904 0 0 Z M5.19580078 22.29052734 C5.19580078 25.59052734 5.19580078 28.89052734 5.19580078 32.29052734 C26.31580078 32.29052734 47.43580078 32.29052734 69.19580078 32.29052734 C69.19580078 28.99052734 69.19580078 25.69052734 69.19580078 22.29052734 C48.07580078 22.29052734 26.95580078 22.29052734 5.19580078 22.29052734 Z M5.19580078 54.29052734 C5.19580078 57.59052734 5.19580078 60.89052734 5.19580078 64.29052734 C26.31580078 64.29052734 47.43580078 64.29052734 69.19580078 64.29052734 C69.19580078 60.99052734 69.19580078 57.69052734 69.19580078 54.29052734 C48.07580078 54.29052734 26.95580078 54.29052734 5.19580078 54.29052734 Z " fill="#FFFFFF" transform="translate(378.80419921875,265.70947265625)"/>
<path d="M0 0 C0.92874939 -0.00846954 1.85749878 -0.01693909 2.81439209 -0.02566528 C5.89088561 -0.04910348 8.96688091 -0.05005572 12.04345703 -0.04882812 C14.17953696 -0.05592619 16.31561498 -0.06362466 18.45169067 -0.07189941 C22.93236589 -0.08536036 27.41286488 -0.086906 31.89355469 -0.08105469 C37.63621037 -0.07516082 43.37801997 -0.1057302 49.12051201 -0.14617157 C53.53346311 -0.17202054 57.94620985 -0.17492844 62.35922623 -0.17127991 C64.47634124 -0.17297415 66.59346539 -0.18264583 68.71050644 -0.20042419 C71.67216317 -0.22255534 74.63209924 -0.21294099 77.59375 -0.1953125 C78.90622208 -0.21520737 78.90622208 -0.21520737 80.24520874 -0.23550415 C84.62111293 -0.17497244 86.38549889 -0.00093792 89.947052 2.77087402 C93.04597805 6.91857546 93.06245466 10.03764922 93.10327148 15.09106445 C93.10984268 15.76461472 93.11641388 16.43816498 93.1231842 17.13212585 C93.14288292 19.35956947 93.15457203 21.58694577 93.16455078 23.81445312 C93.16862631 24.57649237 93.17270184 25.33853161 93.17690086 26.12366295 C93.19774692 30.15706485 93.21205499 34.19043287 93.22143555 38.22387695 C93.23249752 42.38348282 93.26689859 46.54255338 93.30660725 50.7019701 C93.33278797 53.90623449 93.34112863 57.11037157 93.34471703 60.31473351 C93.34957919 61.84770002 93.36118276 63.380661 93.37975502 64.91352272 C93.40417939 67.06297532 93.40317648 69.21104599 93.39624023 71.3605957 C93.40210648 72.5817659 93.40797272 73.8029361 93.41401672 75.06111145 C92.73970941 79.70464496 90.91019964 82.83621868 87.22653198 85.77676392 C83.56313542 86.80105688 79.89570843 86.71453826 76.12207031 86.71044922 C74.78965805 86.72052505 74.78965805 86.72052505 73.43032837 86.73080444 C70.49402268 86.74980146 67.55794535 86.75370949 64.62158203 86.75585938 C62.57900905 86.76228608 60.536437 86.76901435 58.49386597 86.77603149 C54.21170925 86.7880085 49.92963323 86.79171188 45.64746094 86.79052734 C40.16400718 86.79032412 34.68107153 86.81762763 29.19774055 86.85207176 C24.9786441 86.87432398 20.75967266 86.8783654 16.54052353 86.87730789 C14.51913543 86.87966632 12.49774401 86.88850345 10.47641373 86.90397263 C7.6469941 86.92359855 4.81869602 86.91780786 1.98925781 86.90576172 C1.1568457 86.91700073 0.32443359 86.92823975 -0.53320312 86.93981934 C-5.82145173 86.88269245 -8.93299177 86.01214444 -13.07373047 82.41992188 C-15.57422474 79.05918812 -15.33291646 75.71488753 -15.34838867 71.61938477 C-15.3534996 70.94408218 -15.35861053 70.2687796 -15.36387634 69.57301331 C-15.37774866 67.34611081 -15.37681742 65.11951863 -15.37451172 62.89257812 C-15.37839994 61.34085475 -15.38273487 59.78913244 -15.38749695 58.2374115 C-15.39495406 54.98677112 -15.39467159 51.73623936 -15.3894043 48.4855957 C-15.38361012 44.32486756 -15.40054155 40.16458464 -15.42374897 36.00393009 C-15.43849782 32.79969188 -15.43935646 29.59556062 -15.43623924 26.39129448 C-15.43675187 24.85752925 -15.44197869 23.32375795 -15.45205116 21.79002571 C-15.46442112 19.64300934 -15.45762152 17.49685659 -15.44604492 15.34985352 C-15.44667435 14.12947891 -15.44730377 12.90910431 -15.44795227 11.65174866 C-14.32899641 1.98830445 -8.67867614 -0.02893389 0 0 Z M6.92626953 22.41992188 C6.92626953 25.71992188 6.92626953 29.01992187 6.92626953 32.41992188 C28.04626953 32.41992188 49.16626953 32.41992188 70.92626953 32.41992188 C70.92626953 29.11992187 70.92626953 25.81992188 70.92626953 22.41992188 C49.80626953 22.41992188 28.68626953 22.41992188 6.92626953 22.41992188 Z M6.92626953 54.41992188 C6.92626953 57.71992188 6.92626953 61.01992187 6.92626953 64.41992188 C28.04626953 64.41992188 49.16626953 64.41992188 70.92626953 64.41992188 C70.92626953 61.11992187 70.92626953 57.81992188 70.92626953 54.41992188 C49.80626953 54.41992188 28.68626953 54.41992188 6.92626953 54.41992188 Z " fill="#FFFFFF" transform="translate(377.07373046875,159.580078125)"/>
</svg>
