<svg width="512" height="512" version="1.1" xmlns="http://www.w3.org/2000/svg" desc="Created with imagetracer.js version 1.2.6" ><path fill="rgb(0,0,0)" stroke="rgb(0,0,0)" stroke-width="1" opacity="0" d="M 0 0 L 512 0 L 512 512 L 0 512 L 0 0 Z M 251 31 L 250 32 L 241 32 L 230 34 L 217 38 Q 197 45 183 58 Q 163 75 152 100 L 145 123 L 144 142 L 143 143 L 144 145 L 145 165 L 151 186 Q 159 206 173 221 Q 187 236 207 245 L 208 246 L 208 320 L 183 320 Q 170 322 163 329 Q 153 337 147 349 L 144 359 L 144 384 L 119 384 Q 106 386 99 393 Q 84 403 80 423 L 80 456 L 87 470 Q 93 477 105 480 L 408 480 L 422 473 Q 429 467 432 456 L 432 423 Q 430 410 423 403 Q 415 393 404 387 L 394 384 L 368 384 L 368 359 Q 366 346 359 339 Q 349 324 330 320 L 304 320 L 304 245 Q 321 239 333 227 Q 360 203 368 159 L 368 130 L 364 111 Q 356 86 341 70 Q 325 51 301 40 Q 280 31 251 31 Z " /><path fill="rgb(0,0,0)" stroke="rgb(0,0,0)" stroke-width="1" opacity="0" d="M 254.5 64 L 255.5 65 L 267.5 65 L 285.5 70 Q 303.3 77.2 315 90.5 Q 327.3 103.7 333 123.5 L 335 132.5 L 335 155.5 Q 329 186 309.5 203 Q 299.4 212.4 285.5 218 L 272.5 222 L 256.5 223 L 255.5 224 L 254.5 223 L 239.5 222 L 226.5 218 Q 208.7 210.8 197 197.5 Q 186 185.5 180 168.5 L 177 155.5 L 177 132.5 Q 183 102 202.5 85 Q 212.6 75.6 226.5 70 L 239.5 66 L 253.5 65 L 254.5 64 Z M 245 80 Q 226 84 215 94 Q 197 107 192 133 L 192 150 L 194 154 L 203 160 Q 213 162 218 158 L 224 150 L 226 134 L 231 125 Q 236 117 246 114 L 262 112 L 266 110 L 272 102 Q 274 91 270 87 L 262 80 L 245 80 Z " /><path fill="rgb(0,0,0)" stroke="rgb(0,0,0)" stroke-width="1" opacity="0" d="M 240 255 L 242.5 256 L 269.5 256 L 272 255 L 272 320 L 240 320 L 240 255 Z " /><path fill="rgb(0,0,0)" stroke="rgb(0,0,0)" stroke-width="1" opacity="0" d="M 192.5 352 L 319.5 352 L 328.5 355 L 333 359.5 Q 338 368.7 336 384 L 176.5 384 L 176 383.5 L 176 368.5 L 179 359.5 L 183.5 355 L 192.5 352 Z " /><path fill="rgb(0,0,0)" stroke="rgb(0,0,0)" stroke-width="1" opacity="0" d="M 128.5 416 L 383.5 416 L 392.5 419 L 397 423.5 Q 402 432.7 400 448 L 112.5 448 L 112 447.5 L 112 432.5 L 115 423.5 L 119.5 419 L 128.5 416 Z " /><path fill="rgb(254,254,254)" stroke="rgb(254,254,254)" stroke-width="1" opacity="0.23137254901960785" d="M 250.5 31 L 262 31.5 L 250.5 32 L 250.5 31 Z " /><path fill="rgb(254,254,254)" stroke="rgb(254,254,254)" stroke-width="1" opacity="0.23137254901960785" d="M 240.5 32 L 244 32.5 L 240.5 33 L 240.5 32 Z " /><path fill="rgb(254,254,254)" stroke="rgb(254,254,254)" stroke-width="1" opacity="0.23137254901960785" d="M 268.5 32 L 272 32.5 L 268.5 33 L 268.5 32 Z " /><path fill="rgb(254,254,254)" stroke="rgb(254,254,254)" stroke-width="1" opacity="0.23137254901960785" d="M 234.5 33 L 237 33.5 L 234.5 34 L 234.5 33 Z " /><path fill="rgb(254,254,254)" stroke="rgb(254,254,254)" stroke-width="1" opacity="0.23137254901960785" d="M 275.5 33 L 278 33.5 L 275.5 34 L 275.5 33 Z " /><path fill="rgb(254,254,254)" stroke="rgb(254,254,254)" stroke-width="1" opacity="0.23137254901960785" d="M 229.5 34 L 232 34.5 L 229.5 35 L 229.5 34 Z " /><path fill="rgb(254,254,254)" stroke="rgb(254,254,254)" stroke-width="1" opacity="0.23137254901960785" d="M 280.5 34 L 283 34.5 L 280.5 35 L 280.5 34 Z " /><path fill="rgb(254,254,254)" stroke="rgb(254,254,254)" stroke-width="1" opacity="0.23137254901960785" d="M 225.5 35 L 228 35.5 L 225.5 36 L 225.5 35 Z " /><path fill="rgb(254,254,254)" stroke="rgb(254,254,254)" stroke-width="1" opacity="0.23137254901960785" d="M 284.5 35 L 287 35.5 L 284.5 36 L 284.5 35 Z " /><path fill="rgb(254,254,254)" stroke="rgb(254,254,254)" stroke-width="1" opacity="0.23137254901960785" d="M 299.5 40 L 303 41.5 L 301.5 42 L 299.5 40 Z " /><path fill="rgb(254,254,254)" stroke="rgb(254,254,254)" stroke-width="1" opacity="0.23137254901960785" d="M 201.5 45 L 200.5 47 L 198.5 48 L 199.5 46 L 201.5 45 Z " /><path fill="rgb(254,254,254)" stroke="rgb(254,254,254)" stroke-width="1" opacity="0.23137254901960785" d="M 310.5 45 L 314 47.5 L 312.5 47 L 310.5 45 Z " /><path fill="rgb(254,254,254)" stroke="rgb(254,254,254)" stroke-width="1" opacity="0.23137254901960785" d="M 196.5 48 L 195.5 50 L 192.5 52 L 194.5 49 L 196.5 48 Z " /><path fill="rgb(254,254,254)" stroke="rgb(254,254,254)" stroke-width="1" opacity="0.23137254901960785" d="M 315.5 48 L 320 51.5 L 317.5 50 L 315.5 48 Z " /><path fill="rgb(254,254,254)" stroke="rgb(254,254,254)" stroke-width="1" opacity="0.23137254901960785" d="M 190.5 52 L 188.5 55 L 171 70.5 L 166.5 76 L 170 71.5 L 182.5 58 L 190.5 52 Z " /><path fill="rgb(254,254,254)" stroke="rgb(254,254,254)" stroke-width="1" opacity="0.23137254901960785" d="M 321.5 52 L 322.5 54 L 321.5 52 Z " /><path fill="rgb(254,254,254)" stroke="rgb(254,254,254)" stroke-width="1" opacity="0.23137254901960785" d="M 324.5 54 L 327.5 58 L 324.5 54 Z " /><path fill="rgb(254,254,254)" stroke="rgb(254,254,254)" stroke-width="1" opacity="0.23137254901960785" d="M 329.5 58 L 340.5 70 L 329.5 58 Z " /><path fill="rgb(254,254,254)" stroke="rgb(254,254,254)" stroke-width="1" opacity="0.23137254901960785" d="M 247.5 64 L 254 64.5 L 247.5 65 L 247.5 64 Z " /><path fill="rgb(254,254,254)" stroke="rgb(254,254,254)" stroke-width="1" opacity="0.23137254901960785" d="M 255.5 64 L 265 64.5 L 255.5 65 L 255.5 64 Z " /><path fill="rgb(254,254,254)" stroke="rgb(254,254,254)" stroke-width="1" opacity="0.23137254901960785" d="M 241.5 65 L 244 65.5 L 241.5 66 L 241.5 65 Z " /><path fill="rgb(254,254,254)" stroke="rgb(254,254,254)" stroke-width="1" opacity="0.23137254901960785" d="M 268.5 65 L 271 65.5 L 268.5 66 L 268.5 65 Z " /><path fill="rgb(254,254,254)" stroke="rgb(254,254,254)" stroke-width="1" opacity="0.23137254901960785" d="M 236.5 66 L 239 66.5 L 236.5 67 L 236.5 66 Z " /><path fill="rgb(254,254,254)" stroke="rgb(254,254,254)" stroke-width="1" opacity="0.23137254901960785" d="M 273.5 66 L 276 66.5 L 273.5 67 L 273.5 66 Z " /><path fill="rgb(254,254,254)" stroke="rgb(254,254,254)" stroke-width="1" opacity="0.23137254901960785" d="M 224.5 70 L 226 70.5 L 217.5 75 L 218.5 73 L 224.5 70 Z " /><path fill="rgb(254,254,254)" stroke="rgb(254,254,254)" stroke-width="1" opacity="0.23137254901960785" d="M 286.5 70 L 297 75.5 L 295.5 75 L 286.5 71 L 286.5 70 Z " /><path fill="rgb(254,254,254)" stroke="rgb(254,254,254)" stroke-width="1" opacity="0.23137254901960785" d="M 341.5 71 L 348 78.5 L 345 76.5 L 341.5 71 Z " /><path fill="rgb(254,254,254)" stroke="rgb(254,254,254)" stroke-width="1" opacity="0.23137254901960785" d="M 213.5 76 L 212.5 78 L 213.5 76 Z " /><path fill="rgb(254,254,254)" stroke="rgb(254,254,254)" stroke-width="1" opacity="0.23137254901960785" d="M 298.5 76 L 299.5 78 L 298.5 76 Z " /><path fill="rgb(254,254,254)" stroke="rgb(254,254,254)" stroke-width="1" opacity="0.23137254901960785" d="M 165.5 77 L 164.5 79 L 165.5 77 Z " /><path fill="rgb(254,254,254)" stroke="rgb(254,254,254)" stroke-width="1" opacity="0.23137254901960785" d="M 210.5 78 L 209.5 80 L 210.5 78 Z " /><path fill="rgb(254,254,254)" stroke="rgb(254,254,254)" stroke-width="1" opacity="0.23137254901960785" d="M 301.5 78 L 302.5 80 L 301.5 78 Z " /><path fill="rgb(254,254,254)" stroke="rgb(254,254,254)" stroke-width="1" opacity="0.23137254901960785" d="M 163.5 80 L 162.5 82 L 163.5 80 Z " /><path fill="rgb(254,254,254)" stroke="rgb(254,254,254)" stroke-width="1" opacity="0.23137254901960785" d="M 207.5 80 L 203.5 85 L 207.5 80 Z " /><path fill="rgb(254,254,254)" stroke="rgb(254,254,254)" stroke-width="1" opacity="0.23137254901960785" d="M 244.5 80 L 248 80.5 L 244.5 81 L 244.5 80 Z " /><path fill="rgb(254,254,254)" stroke="rgb(254,254,254)" stroke-width="1" opacity="0.23137254901960785" d="M 304.5 80 L 308.5 85 L 304.5 80 Z " /><path fill="rgb(254,254,254)" stroke="rgb(254,254,254)" stroke-width="1" opacity="0.23137254901960785" d="M 348.5 80 L 349.5 82 L 348.5 80 Z " /><path fill="rgb(254,254,254)" stroke="rgb(254,254,254)" stroke-width="1" opacity="0.23137254901960785" d="M 265.5 82 L 269.5 87 L 265.5 82 Z " /><path fill="rgb(254,254,254)" stroke="rgb(254,254,254)" stroke-width="1" opacity="0.23137254901960785" d="M 161.5 83 L 160.5 85 L 161.5 83 Z " /><path fill="rgb(254,254,254)" stroke="rgb(254,254,254)" stroke-width="1" opacity="0.23137254901960785" d="M 350.5 83 L 351.5 85 L 350.5 83 Z " /><path fill="rgb(254,254,254)" stroke="rgb(254,254,254)" stroke-width="1" opacity="0.23137254901960785" d="M 201.5 85 L 197.5 90 L 201.5 85 Z " /><path fill="rgb(254,254,254)" stroke="rgb(254,254,254)" stroke-width="1" opacity="0.23137254901960785" d="M 310.5 85 L 313.5 89 L 310.5 85 Z " /><path fill="rgb(254,254,254)" stroke="rgb(254,254,254)" stroke-width="1" opacity="0.23137254901960785" d="M 159.5 86 L 159 87.5 L 156.5 92 L 157 90.5 L 159.5 86 Z " /><path fill="rgb(254,254,254)" stroke="rgb(254,254,254)" stroke-width="1" opacity="0.23137254901960785" d="M 226.5 86 L 228 86.5 L 225.5 88 L 226.5 86 Z " /><path fill="rgb(254,254,254)" stroke="rgb(254,254,254)" stroke-width="1" opacity="0.23137254901960785" d="M 352.5 86 L 356 91.5 L 354 90.5 L 352.5 86 Z " /><path fill="rgb(254,254,254)" stroke="rgb(254,254,254)" stroke-width="1" opacity="0.23137254901960785" d="M 221.5 89 L 220.5 91 L 221.5 89 Z " /><path fill="rgb(254,254,254)" stroke="rgb(254,254,254)" stroke-width="1" opacity="0.23137254901960785" d="M 196.5 91 L 192.5 96 L 196.5 91 Z " /><path fill="rgb(254,254,254)" stroke="rgb(254,254,254)" stroke-width="1" opacity="0.23137254901960785" d="M 218.5 91 L 216.5 94 L 218.5 91 Z " /><path fill="rgb(254,254,254)" stroke="rgb(254,254,254)" stroke-width="1" opacity="0.23137254901960785" d="M 315.5 91 L 319.5 96 L 315.5 91 Z " /><path fill="rgb(254,254,254)" stroke="rgb(254,254,254)" stroke-width="1" opacity="0.23137254901960785" d="M 214.5 94 L 206.5 103 L 214.5 94 Z " /><path fill="rgb(254,254,254)" stroke="rgb(254,254,254)" stroke-width="1" opacity="0.23137254901960785" d="M 357.5 95 L 360 100.5 L 359 100.5 L 357.5 95 Z " /><path fill="rgb(254,254,254)" stroke="rgb(254,254,254)" stroke-width="1" opacity="0.23137254901960785" d="M 153.5 97 L 154 98.5 L 152.5 101 L 152 99.5 L 153.5 97 Z " /><path fill="rgb(254,254,254)" stroke="rgb(254,254,254)" stroke-width="1" opacity="0.23137254901960785" d="M 191.5 97 L 190.5 99 L 191.5 97 Z " /><path fill="rgb(254,254,254)" stroke="rgb(254,254,254)" stroke-width="1" opacity="0.23137254901960785" d="M 320.5 97 L 321.5 99 L 320.5 97 Z " /><path fill="rgb(254,254,254)" stroke="rgb(254,254,254)" stroke-width="1" opacity="0.23137254901960785" d="M 189.5 100 L 188.5 102 L 189.5 100 Z " /><path fill="rgb(254,254,254)" stroke="rgb(254,254,254)" stroke-width="1" opacity="0.23137254901960785" d="M 322.5 100 L 323.5 102 L 322.5 100 Z " /><path fill="rgb(254,254,254)" stroke="rgb(254,254,254)" stroke-width="1" opacity="0.23137254901960785" d="M 151.5 102 L 152 103.5 L 150.5 106 L 150 104.5 L 151.5 102 Z " /><path fill="rgb(254,254,254)" stroke="rgb(254,254,254)" stroke-width="1" opacity="0.23137254901960785" d="M 360.5 102 L 362 105.5 L 361 105.5 L 360.5 102 Z " /><path fill="rgb(254,254,254)" stroke="rgb(254,254,254)" stroke-width="1" opacity="0.23137254901960785" d="M 187.5 103 L 187 104.5 L 182.5 114 L 182 112.5 L 187.5 103 Z " /><path fill="rgb(254,254,254)" stroke="rgb(254,254,254)" stroke-width="1" opacity="0.23137254901960785" d="M 324.5 103 L 330 113.5 L 329 113.5 L 324.5 103 Z " /><path fill="rgb(254,254,254)" stroke="rgb(254,254,254)" stroke-width="1" opacity="0.23137254901960785" d="M 205.5 104 L 203.5 107 L 205.5 104 Z " /><path fill="rgb(254,254,254)" stroke="rgb(254,254,254)" stroke-width="1" opacity="0.23137254901960785" d="M 269.5 105 L 265.5 110 L 269.5 105 Z " /><path fill="rgb(254,254,254)" stroke="rgb(254,254,254)" stroke-width="1" opacity="0.23137254901960785" d="M 202.5 108 L 201.5 110 L 202.5 108 Z " /><path fill="rgb(254,254,254)" stroke="rgb(254,254,254)" stroke-width="1" opacity="0.23137254901960785" d="M 363.5 110 L 364 112.5 L 363 112.5 L 363.5 110 Z " /><path fill="rgb(254,254,254)" stroke="rgb(254,254,254)" stroke-width="1" opacity="0.23137254901960785" d="M 250.5 112 L 256 112.5 L 250.5 113 L 250.5 112 Z " /><path fill="rgb(254,254,254)" stroke="rgb(254,254,254)" stroke-width="1" opacity="0.23137254901960785" d="M 199.5 113 L 199 114.5 L 198.5 116 L 198 114.5 L 199.5 113 Z " /><path fill="rgb(254,254,254)" stroke="rgb(254,254,254)" stroke-width="1" opacity="0.23137254901960785" d="M 246.5 113 L 249 113.5 L 246.5 114 L 246.5 113 Z " /><path fill="rgb(254,254,254)" stroke="rgb(254,254,254)" stroke-width="1" opacity="0.23137254901960785" d="M 241.5 115 L 243 115.5 L 240.5 117 L 241.5 115 Z " /><path fill="rgb(254,254,254)" stroke="rgb(254,254,254)" stroke-width="1" opacity="0.23137254901960785" d="M 238.5 117 L 237.5 119 L 238.5 117 Z " /><path fill="rgb(254,254,254)" stroke="rgb(254,254,254)" stroke-width="1" opacity="0.23137254901960785" d="M 235.5 119 L 231.5 124 L 235.5 119 Z " /><path fill="rgb(254,254,254)" stroke="rgb(254,254,254)" stroke-width="1" opacity="0.23137254901960785" d="M 145.5 122 L 146 125.5 L 145 125.5 L 145.5 122 Z " /><path fill="rgb(254,254,254)" stroke="rgb(254,254,254)" stroke-width="1" opacity="0.23137254901960785" d="M 366.5 123 L 367 125.5 L 366 125.5 L 366.5 123 Z " /><path fill="rgb(254,254,254)" stroke="rgb(254,254,254)" stroke-width="1" opacity="0.23137254901960785" d="M 178.5 124 L 179 126.5 L 178 126.5 L 178.5 124 Z " /><path fill="rgb(254,254,254)" stroke="rgb(254,254,254)" stroke-width="1" opacity="0.23137254901960785" d="M 333.5 124 L 334 126.5 L 333 126.5 L 333.5 124 Z " /><path fill="rgb(254,254,254)" stroke="rgb(254,254,254)" stroke-width="1" opacity="0.23137254901960785" d="M 230.5 125 L 229.5 127 L 230.5 125 Z " /><path fill="rgb(254,254,254)" stroke="rgb(254,254,254)" stroke-width="1" opacity="0.23137254901960785" d="M 228.5 128 L 228 129.5 L 227.5 131 L 227 129.5 L 228.5 128 Z " /><path fill="rgb(254,254,254)" stroke="rgb(254,254,254)" stroke-width="1" opacity="0.23137254901960785" d="M 144.5 129 L 145 132.5 L 144 132.5 L 144.5 129 Z " /><path fill="rgb(254,254,254)" stroke="rgb(254,254,254)" stroke-width="1" opacity="0.23137254901960785" d="M 177.5 129 L 178 131.5 L 177 131.5 L 177.5 129 Z " /><path fill="rgb(254,254,254)" stroke="rgb(254,254,254)" stroke-width="1" opacity="0.23137254901960785" d="M 334.5 129 L 335 131.5 L 334 131.5 L 334.5 129 Z " /><path fill="rgb(254,254,254)" stroke="rgb(254,254,254)" stroke-width="1" opacity="0.23137254901960785" d="M 367.5 129 L 368 132.5 L 367 132.5 L 367.5 129 Z " /><path fill="rgb(254,254,254)" stroke="rgb(254,254,254)" stroke-width="1" opacity="0.23137254901960785" d="M 192.5 132 L 193 135.5 L 192 135.5 L 192.5 132 Z " /><path fill="rgb(254,254,254)" stroke="rgb(254,254,254)" stroke-width="1" opacity="0.23137254901960785" d="M 225.5 134 L 226 136.5 L 225 136.5 L 225.5 134 Z " /><path fill="rgb(254,254,254)" stroke="rgb(254,254,254)" stroke-width="1" opacity="0.23137254901960785" d="M 176.5 135 L 177 152.5 L 176 152.5 L 176.5 135 Z " /><path fill="rgb(254,254,254)" stroke="rgb(254,254,254)" stroke-width="1" opacity="0.23137254901960785" d="M 335.5 135 L 336 152.5 L 335 152.5 L 335.5 135 Z " /><path fill="rgb(254,254,254)" stroke="rgb(254,254,254)" stroke-width="1" opacity="0.23137254901960785" d="M 224.5 138 L 225 143.5 L 224 143.5 L 224.5 138 Z " /><path fill="rgb(254,254,254)" stroke="rgb(254,254,254)" stroke-width="1" opacity="0.23137254901960785" d="M 194.5 153 L 198.5 158 L 194.5 153 Z " /><path fill="rgb(254,254,254)" stroke="rgb(254,254,254)" stroke-width="1" opacity="0.23137254901960785" d="M 221.5 153 L 217.5 158 L 221.5 153 Z " /><path fill="rgb(254,254,254)" stroke="rgb(254,254,254)" stroke-width="1" opacity="0.23137254901960785" d="M 144.5 154 L 145 158.5 L 144 158.5 L 144.5 154 Z " /><path fill="rgb(254,254,254)" stroke="rgb(254,254,254)" stroke-width="1" opacity="0.23137254901960785" d="M 367.5 154 L 368 158.5 L 367 158.5 L 367.5 154 Z " /><path fill="rgb(254,254,254)" stroke="rgb(254,254,254)" stroke-width="1" opacity="0.23137254901960785" d="M 177.5 156 L 178 158.5 L 177 158.5 L 177.5 156 Z " /><path fill="rgb(254,254,254)" stroke="rgb(254,254,254)" stroke-width="1" opacity="0.23137254901960785" d="M 334.5 156 L 335 158.5 L 334 158.5 L 334.5 156 Z " /><path fill="rgb(254,254,254)" stroke="rgb(254,254,254)" stroke-width="1" opacity="0.23137254901960785" d="M 178.5 161 L 179 163.5 L 178 163.5 L 178.5 161 Z " /><path fill="rgb(254,254,254)" stroke="rgb(254,254,254)" stroke-width="1" opacity="0.23137254901960785" d="M 333.5 161 L 334 163.5 L 333 163.5 L 333.5 161 Z " /><path fill="rgb(254,254,254)" stroke="rgb(254,254,254)" stroke-width="1" opacity="0.23137254901960785" d="M 145.5 162 L 146 164.5 L 145 164.5 L 145.5 162 Z " /><path fill="rgb(254,254,254)" stroke="rgb(254,254,254)" stroke-width="1" opacity="0.23137254901960785" d="M 366.5 162 L 367 164.5 L 366 164.5 L 366.5 162 Z " /><path fill="rgb(254,254,254)" stroke="rgb(254,254,254)" stroke-width="1" opacity="0.23137254901960785" d="M 146.5 167 L 147 169.5 L 146 169.5 L 146.5 167 Z " /><path fill="rgb(254,254,254)" stroke="rgb(254,254,254)" stroke-width="1" opacity="0.23137254901960785" d="M 365.5 167 L 366 169.5 L 365 169.5 L 365.5 167 Z " /><path fill="rgb(254,254,254)" stroke="rgb(254,254,254)" stroke-width="1" opacity="0.23137254901960785" d="M 182.5 174 L 188 184.5 L 186 183.5 L 182 175.5 L 182.5 174 Z " /><path fill="rgb(254,254,254)" stroke="rgb(254,254,254)" stroke-width="1" opacity="0.23137254901960785" d="M 329.5 174 L 330 175.5 L 324.5 185 L 325 183.5 L 329.5 174 Z " /><path fill="rgb(254,254,254)" stroke="rgb(254,254,254)" stroke-width="1" opacity="0.23137254901960785" d="M 188.5 186 L 189.5 188 L 188.5 186 Z " /><path fill="rgb(254,254,254)" stroke="rgb(254,254,254)" stroke-width="1" opacity="0.23137254901960785" d="M 323.5 186 L 322.5 188 L 323.5 186 Z " /><path fill="rgb(254,254,254)" stroke="rgb(254,254,254)" stroke-width="1" opacity="0.23137254901960785" d="M 190.5 189 L 191.5 191 L 190.5 189 Z " /><path fill="rgb(254,254,254)" stroke="rgb(254,254,254)" stroke-width="1" opacity="0.23137254901960785" d="M 321.5 189 L 320 191.5 L 315.5 197 L 319 192.5 L 321.5 189 Z " /><path fill="rgb(254,254,254)" stroke="rgb(254,254,254)" stroke-width="1" opacity="0.23137254901960785" d="M 154.5 191 L 158 197.5 L 156 196.5 L 154.5 191 Z " /><path fill="rgb(254,254,254)" stroke="rgb(254,254,254)" stroke-width="1" opacity="0.23137254901960785" d="M 357.5 191 L 358 192.5 L 354.5 198 L 355 196.5 L 357.5 191 Z " /><path fill="rgb(254,254,254)" stroke="rgb(254,254,254)" stroke-width="1" opacity="0.23137254901960785" d="M 192.5 192 L 196.5 197 L 192.5 192 Z " /><path fill="rgb(254,254,254)" stroke="rgb(254,254,254)" stroke-width="1" opacity="0.23137254901960785" d="M 314.5 198 L 310.5 203 L 314.5 198 Z " /><path fill="rgb(254,254,254)" stroke="rgb(254,254,254)" stroke-width="1" opacity="0.23137254901960785" d="M 198.5 199 L 200.5 202 L 198.5 199 Z " /><path fill="rgb(254,254,254)" stroke="rgb(254,254,254)" stroke-width="1" opacity="0.23137254901960785" d="M 159.5 201 L 173 218.5 L 167 213.5 L 159.5 201 Z " /><path fill="rgb(254,254,254)" stroke="rgb(254,254,254)" stroke-width="1" opacity="0.23137254901960785" d="M 352.5 201 L 352 202.5 Q 347.4 212.4 339.5 219 L 344 213.5 L 352.5 201 Z " /><path fill="rgb(254,254,254)" stroke="rgb(254,254,254)" stroke-width="1" opacity="0.23137254901960785" d="M 203.5 203 L 207.5 208 L 203.5 203 Z " /><path fill="rgb(254,254,254)" stroke="rgb(254,254,254)" stroke-width="1" opacity="0.23137254901960785" d="M 308.5 203 L 304.5 208 L 301.5 210 L 303.5 207 L 308.5 203 Z " /><path fill="rgb(254,254,254)" stroke="rgb(254,254,254)" stroke-width="1" opacity="0.23137254901960785" d="M 209.5 208 L 210.5 210 L 209.5 208 Z " /><path fill="rgb(254,254,254)" stroke="rgb(254,254,254)" stroke-width="1" opacity="0.23137254901960785" d="M 212.5 210 L 213.5 212 L 212.5 210 Z " /><path fill="rgb(254,254,254)" stroke="rgb(254,254,254)" stroke-width="1" opacity="0.23137254901960785" d="M 299.5 210 L 298.5 212 L 299.5 210 Z " /><path fill="rgb(254,254,254)" stroke="rgb(254,254,254)" stroke-width="1" opacity="0.23137254901960785" d="M 215.5 212 L 226 217.5 L 224.5 218 L 216.5 214 L 215.5 212 Z " /><path fill="rgb(254,254,254)" stroke="rgb(254,254,254)" stroke-width="1" opacity="0.23137254901960785" d="M 296.5 212 L 295.5 214 L 288.5 217 L 288.5 216 L 296.5 212 Z " /><path fill="rgb(254,254,254)" stroke="rgb(254,254,254)" stroke-width="1" opacity="0.23137254901960785" d="M 173.5 220 L 179.5 227 L 173.5 220 Z " /><path fill="rgb(254,254,254)" stroke="rgb(254,254,254)" stroke-width="1" opacity="0.23137254901960785" d="M 338.5 220 L 332.5 227 L 338.5 220 Z " /><path fill="rgb(254,254,254)" stroke="rgb(254,254,254)" stroke-width="1" opacity="0.23137254901960785" d="M 236.5 221 L 239 221.5 L 236.5 222 L 236.5 221 Z " /><path fill="rgb(254,254,254)" stroke="rgb(254,254,254)" stroke-width="1" opacity="0.23137254901960785" d="M 273.5 221 L 276 221.5 L 273.5 222 L 273.5 221 Z " /><path fill="rgb(254,254,254)" stroke="rgb(254,254,254)" stroke-width="1" opacity="0.23137254901960785" d="M 241.5 222 L 244 222.5 L 241.5 223 L 241.5 222 Z " /><path fill="rgb(254,254,254)" stroke="rgb(254,254,254)" stroke-width="1" opacity="0.23137254901960785" d="M 268.5 222 L 271 222.5 L 268.5 223 L 268.5 222 Z " /><path fill="rgb(254,254,254)" stroke="rgb(254,254,254)" stroke-width="1" opacity="0.23137254901960785" d="M 247.5 223 L 255 223.5 L 247.5 224 L 247.5 223 Z " /><path fill="rgb(254,254,254)" stroke="rgb(254,254,254)" stroke-width="1" opacity="0.23137254901960785" d="M 256.5 223 L 264 223.5 L 256.5 224 L 256.5 223 Z " /><path fill="rgb(254,254,254)" stroke="rgb(254,254,254)" stroke-width="1" opacity="0.23137254901960785" d="M 181.5 227 L 190 234.5 L 187.5 233 L 181.5 227 Z " /><path fill="rgb(254,254,254)" stroke="rgb(254,254,254)" stroke-width="1" opacity="0.23137254901960785" d="M 330.5 227 L 326.5 232 L 330.5 227 Z " /><path fill="rgb(254,254,254)" stroke="rgb(254,254,254)" stroke-width="1" opacity="0.23137254901960785" d="M 324.5 232 L 322.5 235 L 324.5 232 Z " /><path fill="rgb(254,254,254)" stroke="rgb(254,254,254)" stroke-width="1" opacity="0.23137254901960785" d="M 191.5 235 L 196 238.5 L 194.5 238 L 191.5 235 Z " /><path fill="rgb(254,254,254)" stroke="rgb(254,254,254)" stroke-width="1" opacity="0.23137254901960785" d="M 320.5 235 L 318.5 238 L 316.5 239 L 317.5 237 L 320.5 235 Z " /><path fill="rgb(254,254,254)" stroke="rgb(254,254,254)" stroke-width="1" opacity="0.23137254901960785" d="M 197.5 239 L 198.5 241 L 197.5 239 Z " /><path fill="rgb(254,254,254)" stroke="rgb(254,254,254)" stroke-width="1" opacity="0.23137254901960785" d="M 314.5 239 L 313.5 241 L 314.5 239 Z " /><path fill="rgb(254,254,254)" stroke="rgb(254,254,254)" stroke-width="1" opacity="0.23137254901960785" d="M 242.5 255 L 246 255.5 L 242.5 256 L 242.5 255 Z " /><path fill="rgb(254,254,254)" stroke="rgb(254,254,254)" stroke-width="1" opacity="0.23137254901960785" d="M 266.5 255 L 270 255.5 L 266.5 256 L 266.5 255 Z " /><path fill="rgb(254,254,254)" stroke="rgb(254,254,254)" stroke-width="1" opacity="0.23137254901960785" d="M 182.5 320 L 185 320.5 L 182.5 321 L 182.5 320 Z " /><path fill="rgb(254,254,254)" stroke="rgb(254,254,254)" stroke-width="1" opacity="0.23137254901960785" d="M 327.5 320 L 330 320.5 L 327.5 321 L 327.5 320 Z " /><path fill="rgb(254,254,254)" stroke="rgb(254,254,254)" stroke-width="1" opacity="0.23137254901960785" d="M 172.5 323 L 174 323.5 L 167.5 327 L 168.5 325 L 172.5 323 Z " /><path fill="rgb(254,254,254)" stroke="rgb(254,254,254)" stroke-width="1" opacity="0.23137254901960785" d="M 338.5 323 L 345 326.5 L 343.5 326 L 338.5 324 L 338.5 323 Z " /><path fill="rgb(254,254,254)" stroke="rgb(254,254,254)" stroke-width="1" opacity="0.23137254901960785" d="M 165.5 327 L 164.5 329 L 165.5 327 Z " /><path fill="rgb(254,254,254)" stroke="rgb(254,254,254)" stroke-width="1" opacity="0.23137254901960785" d="M 346.5 327 L 347.5 329 L 346.5 327 Z " /><path fill="rgb(254,254,254)" stroke="rgb(254,254,254)" stroke-width="1" opacity="0.23137254901960785" d="M 162.5 329 L 153.5 339 L 162.5 329 Z " /><path fill="rgb(254,254,254)" stroke="rgb(254,254,254)" stroke-width="1" opacity="0.23137254901960785" d="M 349.5 329 L 358.5 339 L 349.5 329 Z " /><path fill="rgb(254,254,254)" stroke="rgb(254,254,254)" stroke-width="1" opacity="0.23137254901960785" d="M 152.5 340 L 151.5 342 L 152.5 340 Z " /><path fill="rgb(254,254,254)" stroke="rgb(254,254,254)" stroke-width="1" opacity="0.23137254901960785" d="M 359.5 340 L 360.5 342 L 359.5 340 Z " /><path fill="rgb(254,254,254)" stroke="rgb(254,254,254)" stroke-width="1" opacity="0.23137254901960785" d="M 150.5 343 L 150 344.5 L 147.5 350 L 147 348.5 L 150.5 343 Z " /><path fill="rgb(254,254,254)" stroke="rgb(254,254,254)" stroke-width="1" opacity="0.23137254901960785" d="M 361.5 343 L 365 349.5 L 364 349.5 L 361.5 343 Z " /><path fill="rgb(254,254,254)" stroke="rgb(254,254,254)" stroke-width="1" opacity="0.23137254901960785" d="M 188.5 352 L 192 352.5 L 188.5 353 L 188.5 352 Z " /><path fill="rgb(254,254,254)" stroke="rgb(254,254,254)" stroke-width="1" opacity="0.23137254901960785" d="M 320.5 352 L 324 352.5 L 320.5 353 L 320.5 352 Z " /><path fill="rgb(254,254,254)" stroke="rgb(254,254,254)" stroke-width="1" opacity="0.23137254901960785" d="M 185.5 353 L 187 353.5 L 179 359.5 L 177.5 363 L 177 361.5 L 183.5 354 L 185.5 353 Z " /><path fill="rgb(254,254,254)" stroke="rgb(254,254,254)" stroke-width="1" opacity="0.23137254901960785" d="M 325.5 353 Q 331.6 354.4 334 359.5 L 335 362.5 L 334 362.5 L 328.5 355 Q 324.8 354.7 325.5 353 Z " /><path fill="rgb(254,254,254)" stroke="rgb(254,254,254)" stroke-width="1" opacity="0.23137254901960785" d="M 144.5 358 L 145 360.5 L 144 360.5 L 144.5 358 Z " /><path fill="rgb(254,254,254)" stroke="rgb(254,254,254)" stroke-width="1" opacity="0.23137254901960785" d="M 367.5 358 L 368 360.5 L 367 360.5 L 367.5 358 Z " /><path fill="rgb(254,254,254)" stroke="rgb(254,254,254)" stroke-width="1" opacity="0.23137254901960785" d="M 176.5 364 L 177 367.5 L 176 367.5 L 176.5 364 Z " /><path fill="rgb(254,254,254)" stroke="rgb(254,254,254)" stroke-width="1" opacity="0.23137254901960785" d="M 335.5 364 L 336 367.5 L 335 367.5 L 335.5 364 Z " /><path fill="rgb(254,254,254)" stroke="rgb(254,254,254)" stroke-width="1" opacity="0.23137254901960785" d="M 118.5 384 L 121 384.5 L 118.5 385 L 118.5 384 Z " /><path fill="rgb(254,254,254)" stroke="rgb(254,254,254)" stroke-width="1" opacity="0.23137254901960785" d="M 391.5 384 L 394 384.5 L 391.5 385 L 391.5 384 Z " /><path fill="rgb(254,254,254)" stroke="rgb(254,254,254)" stroke-width="1" opacity="0.23137254901960785" d="M 108.5 387 L 110 387.5 L 103.5 391 L 104.5 389 L 108.5 387 Z " /><path fill="rgb(254,254,254)" stroke="rgb(254,254,254)" stroke-width="1" opacity="0.23137254901960785" d="M 402.5 387 L 409 390.5 L 407.5 390 L 402.5 388 L 402.5 387 Z " /><path fill="rgb(254,254,254)" stroke="rgb(254,254,254)" stroke-width="1" opacity="0.23137254901960785" d="M 101.5 391 L 100.5 393 L 101.5 391 Z " /><path fill="rgb(254,254,254)" stroke="rgb(254,254,254)" stroke-width="1" opacity="0.23137254901960785" d="M 410.5 391 L 411.5 393 L 410.5 391 Z " /><path fill="rgb(254,254,254)" stroke="rgb(254,254,254)" stroke-width="1" opacity="0.23137254901960785" d="M 98.5 393 L 89.5 403 L 98.5 393 Z " /><path fill="rgb(254,254,254)" stroke="rgb(254,254,254)" stroke-width="1" opacity="0.23137254901960785" d="M 413.5 393 L 422.5 403 L 413.5 393 Z " /><path fill="rgb(254,254,254)" stroke="rgb(254,254,254)" stroke-width="1" opacity="0.23137254901960785" d="M 88.5 404 L 87.5 406 L 88.5 404 Z " /><path fill="rgb(254,254,254)" stroke="rgb(254,254,254)" stroke-width="1" opacity="0.23137254901960785" d="M 423.5 404 L 424.5 406 L 423.5 404 Z " /><path fill="rgb(254,254,254)" stroke="rgb(254,254,254)" stroke-width="1" opacity="0.23137254901960785" d="M 86.5 407 L 86 408.5 L 83.5 414 L 83 412.5 L 86.5 407 Z " /><path fill="rgb(254,254,254)" stroke="rgb(254,254,254)" stroke-width="1" opacity="0.23137254901960785" d="M 425.5 407 L 429 413.5 L 428 413.5 L 425.5 407 Z " /><path fill="rgb(254,254,254)" stroke="rgb(254,254,254)" stroke-width="1" opacity="0.23137254901960785" d="M 124.5 416 L 128 416.5 L 124.5 417 L 124.5 416 Z " /><path fill="rgb(254,254,254)" stroke="rgb(254,254,254)" stroke-width="1" opacity="0.23137254901960785" d="M 384.5 416 L 388 416.5 L 384.5 417 L 384.5 416 Z " /><path fill="rgb(254,254,254)" stroke="rgb(254,254,254)" stroke-width="1" opacity="0.23137254901960785" d="M 121.5 417 L 123 417.5 L 115 423.5 L 113.5 427 L 113 425.5 L 119.5 418 L 121.5 417 Z " /><path fill="rgb(254,254,254)" stroke="rgb(254,254,254)" stroke-width="1" opacity="0.23137254901960785" d="M 389.5 417 Q 395.6 418.4 398 423.5 L 399 426.5 L 398 426.5 L 392.5 419 Q 388.7 418.8 389.5 417 Z " /><path fill="rgb(254,254,254)" stroke="rgb(254,254,254)" stroke-width="1" opacity="0.23137254901960785" d="M 80.5 422 L 81 424.5 L 80 424.5 L 80.5 422 Z " /><path fill="rgb(254,254,254)" stroke="rgb(254,254,254)" stroke-width="1" opacity="0.23137254901960785" d="M 431.5 422 L 432 424.5 L 431 424.5 L 431.5 422 Z " /><path fill="rgb(254,254,254)" stroke="rgb(254,254,254)" stroke-width="1" opacity="0.23137254901960785" d="M 112.5 428 L 113 431.5 L 112 431.5 L 112.5 428 Z " /><path fill="rgb(254,254,254)" stroke="rgb(254,254,254)" stroke-width="1" opacity="0.23137254901960785" d="M 399.5 428 L 400 431.5 L 399 431.5 L 399.5 428 Z " /><path fill="rgb(254,254,254)" stroke="rgb(254,254,254)" stroke-width="1" opacity="0.23137254901960785" d="M 80.5 453 L 81 455.5 L 80 455.5 L 80.5 453 Z " /><path fill="rgb(254,254,254)" stroke="rgb(254,254,254)" stroke-width="1" opacity="0.23137254901960785" d="M 431.5 453 L 432 455.5 L 431 455.5 L 431.5 453 Z " /><path fill="rgb(254,254,254)" stroke="rgb(254,254,254)" stroke-width="1" opacity="0.23137254901960785" d="M 429.5 460 L 430 461.5 L 425.5 468 L 427 465.5 L 429.5 460 Z " /><path fill="rgb(254,254,254)" stroke="rgb(254,254,254)" stroke-width="1" opacity="0.23137254901960785" d="M 83.5 463 L 87 467.5 L 84 465.5 L 83.5 463 Z " /><path fill="rgb(254,254,254)" stroke="rgb(254,254,254)" stroke-width="1" opacity="0.23137254901960785" d="M 87.5 469 L 90.5 473 L 87.5 469 Z " /><path fill="rgb(254,254,254)" stroke="rgb(254,254,254)" stroke-width="1" opacity="0.23137254901960785" d="M 424.5 469 L 421.5 473 L 424.5 469 Z " /><path fill="rgb(254,254,254)" stroke="rgb(254,254,254)" stroke-width="1" opacity="0.23137254901960785" d="M 92.5 473 L 100 477.5 L 98.5 478 Q 93.5 476.5 92.5 473 Z " /><path fill="rgb(254,254,254)" stroke="rgb(254,254,254)" stroke-width="1" opacity="0.23137254901960785" d="M 419.5 473 L 417.5 476 L 412.5 478 L 412.5 477 L 419.5 473 Z " /><path fill="rgb(254,254,254)" stroke="rgb(254,254,254)" stroke-width="1" opacity="0.23137254901960785" d="M 104.5 479 L 107 479.5 L 104.5 480 L 104.5 479 Z " /><path fill="rgb(254,254,254)" stroke="rgb(254,254,254)" stroke-width="1" opacity="0.23137254901960785" d="M 405.5 479 L 408 479.5 L 405.5 480 L 405.5 479 Z " /><path fill="rgb(255,255,255)" stroke="rgb(255,255,255)" stroke-width="1" opacity="0.7843137254901961" d="M 244.5 32 L 249 32.5 L 244.5 33 L 244.5 32 Z " /><path fill="rgb(255,255,255)" stroke="rgb(255,255,255)" stroke-width="1" opacity="0.7843137254901961" d="M 263.5 32 L 268 32.5 L 263.5 33 L 263.5 32 Z " /><path fill="rgb(255,255,255)" stroke="rgb(255,255,255)" stroke-width="1" opacity="0.7843137254901961" d="M 323.5 54 L 325.5 57 L 323.5 54 Z " /><path fill="rgb(255,255,255)" stroke="rgb(255,255,255)" stroke-width="1" opacity="0.7843137254901961" d="M 187.5 55 L 186.5 57 L 187.5 55 Z " /><path fill="rgb(255,255,255)" stroke="rgb(255,255,255)" stroke-width="1" opacity="0.7843137254901961" d="M 328.5 58 L 340.5 71 L 328.5 58 Z " /><path fill="rgb(255,255,255)" stroke="rgb(255,255,255)" stroke-width="1" opacity="0.7843137254901961" d="M 182.5 59 L 177.5 65 L 182.5 59 Z " /><path fill="rgb(255,255,255)" stroke="rgb(255,255,255)" stroke-width="1" opacity="0.7843137254901961" d="M 244.5 64 L 247 64.5 L 244.5 65 L 244.5 64 Z " /><path fill="rgb(255,255,255)" stroke="rgb(255,255,255)" stroke-width="1" opacity="0.7843137254901961" d="M 265.5 64 L 268 64.5 L 265.5 65 L 265.5 64 Z " /><path fill="rgb(255,255,255)" stroke="rgb(255,255,255)" stroke-width="1" opacity="0.7843137254901961" d="M 175.5 66 L 171.5 71 L 175.5 66 Z " /><path fill="rgb(255,255,255)" stroke="rgb(255,255,255)" stroke-width="1" opacity="0.7843137254901961" d="M 217.5 73 L 216.5 75 L 217.5 73 Z " /><path fill="rgb(255,255,255)" stroke="rgb(255,255,255)" stroke-width="1" opacity="0.7843137254901961" d="M 168.5 74 L 166.5 77 L 168.5 74 Z " /><path fill="rgb(255,255,255)" stroke="rgb(255,255,255)" stroke-width="1" opacity="0.7843137254901961" d="M 343.5 74 L 344.5 76 L 343.5 74 Z " /><path fill="rgb(255,255,255)" stroke="rgb(255,255,255)" stroke-width="1" opacity="0.7843137254901961" d="M 212.5 76 L 211.5 78 L 212.5 76 Z " /><path fill="rgb(255,255,255)" stroke="rgb(255,255,255)" stroke-width="1" opacity="0.7843137254901961" d="M 299.5 76 L 300.5 78 L 299.5 76 Z " /><path fill="rgb(255,255,255)" stroke="rgb(255,255,255)" stroke-width="1" opacity="0.7843137254901961" d="M 165.5 78 L 164.5 80 L 165.5 78 Z " /><path fill="rgb(255,255,255)" stroke="rgb(255,255,255)" stroke-width="1" opacity="0.7843137254901961" d="M 209.5 78 L 208.5 80 L 209.5 78 Z " /><path fill="rgb(255,255,255)" stroke="rgb(255,255,255)" stroke-width="1" opacity="0.7843137254901961" d="M 302.5 78 L 303.5 80 L 302.5 78 Z " /><path fill="rgb(255,255,255)" stroke="rgb(255,255,255)" stroke-width="1" opacity="0.7843137254901961" d="M 346.5 78 L 347.5 80 L 346.5 78 Z " /><path fill="rgb(255,255,255)" stroke="rgb(255,255,255)" stroke-width="1" opacity="0.7843137254901961" d="M 248.5 80 L 252 80.5 L 248.5 81 L 248.5 80 Z " /><path fill="rgb(255,255,255)" stroke="rgb(255,255,255)" stroke-width="1" opacity="0.7843137254901961" d="M 205.5 81 L 202.5 85 L 205.5 81 Z " /><path fill="rgb(255,255,255)" stroke="rgb(255,255,255)" stroke-width="1" opacity="0.7843137254901961" d="M 264.5 82 L 266.5 85 L 264.5 82 Z " /><path fill="rgb(255,255,255)" stroke="rgb(255,255,255)" stroke-width="1" opacity="0.7843137254901961" d="M 307.5 82 L 309.5 85 L 307.5 82 Z " /><path fill="rgb(255,255,255)" stroke="rgb(255,255,255)" stroke-width="1" opacity="0.7843137254901961" d="M 268.5 86 L 269.5 88 L 268.5 86 Z " /><path fill="rgb(255,255,255)" stroke="rgb(255,255,255)" stroke-width="1" opacity="0.7843137254901961" d="M 222.5 89 L 221.5 91 L 222.5 89 Z " /><path fill="rgb(255,255,255)" stroke="rgb(255,255,255)" stroke-width="1" opacity="0.7843137254901961" d="M 314.5 89 L 317.5 93 L 314.5 89 Z " /><path fill="rgb(255,255,255)" stroke="rgb(255,255,255)" stroke-width="1" opacity="0.7843137254901961" d="M 196.5 90 L 194.5 93 L 196.5 90 Z " /><path fill="rgb(255,255,255)" stroke="rgb(255,255,255)" stroke-width="1" opacity="0.7843137254901961" d="M 219.5 91 L 218.5 93 L 219.5 91 Z " /><path fill="rgb(255,255,255)" stroke="rgb(255,255,255)" stroke-width="1" opacity="0.7843137254901961" d="M 215.5 94 L 206.5 104 L 215.5 94 Z " /><path fill="rgb(255,255,255)" stroke="rgb(255,255,255)" stroke-width="1" opacity="0.7843137254901961" d="M 191.5 96 L 190.5 98 L 191.5 96 Z " /><path fill="rgb(255,255,255)" stroke="rgb(255,255,255)" stroke-width="1" opacity="0.7843137254901961" d="M 320.5 96 L 321.5 98 L 320.5 96 Z " /><path fill="rgb(255,255,255)" stroke="rgb(255,255,255)" stroke-width="1" opacity="0.7843137254901961" d="M 189.5 99 L 188.5 101 L 189.5 99 Z " /><path fill="rgb(255,255,255)" stroke="rgb(255,255,255)" stroke-width="1" opacity="0.7843137254901961" d="M 322.5 99 L 323.5 101 L 322.5 99 Z " /><path fill="rgb(255,255,255)" stroke="rgb(255,255,255)" stroke-width="1" opacity="0.7843137254901961" d="M 269.5 104 L 268.5 106 L 269.5 104 Z " /><path fill="rgb(255,255,255)" stroke="rgb(255,255,255)" stroke-width="1" opacity="0.7843137254901961" d="M 204.5 106 L 203.5 108 L 204.5 106 Z " /><path fill="rgb(255,255,255)" stroke="rgb(255,255,255)" stroke-width="1" opacity="0.7843137254901961" d="M 266.5 107 L 264.5 110 L 266.5 107 Z " /><path fill="rgb(255,255,255)" stroke="rgb(255,255,255)" stroke-width="1" opacity="0.7843137254901961" d="M 202.5 109 L 201.5 111 L 202.5 109 Z " /><path fill="rgb(255,255,255)" stroke="rgb(255,255,255)" stroke-width="1" opacity="0.7843137254901961" d="M 237.5 117 L 236.5 119 L 237.5 117 Z " /><path fill="rgb(255,255,255)" stroke="rgb(255,255,255)" stroke-width="1" opacity="0.7843137254901961" d="M 230.5 124 L 229.5 126 L 230.5 124 Z " /><path fill="rgb(255,255,255)" stroke="rgb(255,255,255)" stroke-width="1" opacity="0.7843137254901961" d="M 176.5 132 L 177 134.5 L 176 134.5 L 176.5 132 Z " /><path fill="rgb(255,255,255)" stroke="rgb(255,255,255)" stroke-width="1" opacity="0.7843137254901961" d="M 335.5 132 L 336 134.5 L 335 134.5 L 335.5 132 Z " /><path fill="rgb(255,255,255)" stroke="rgb(255,255,255)" stroke-width="1" opacity="0.7843137254901961" d="M 144.5 133 L 145 138.5 L 144 138.5 L 144.5 133 Z " /><path fill="rgb(255,255,255)" stroke="rgb(255,255,255)" stroke-width="1" opacity="0.7843137254901961" d="M 367.5 133 L 368 138.5 L 367 138.5 L 367.5 133 Z " /><path fill="rgb(255,255,255)" stroke="rgb(255,255,255)" stroke-width="1" opacity="0.7843137254901961" d="M 192.5 136 L 193 139.5 L 192 139.5 L 192.5 136 Z " /><path fill="rgb(255,255,255)" stroke="rgb(255,255,255)" stroke-width="1" opacity="0.7843137254901961" d="M 144.5 149 L 145 153.5 L 144 153.5 L 144.5 149 Z " /><path fill="rgb(255,255,255)" stroke="rgb(255,255,255)" stroke-width="1" opacity="0.7843137254901961" d="M 367.5 149 L 368 153.5 L 367 153.5 L 367.5 149 Z " /><path fill="rgb(255,255,255)" stroke="rgb(255,255,255)" stroke-width="1" opacity="0.7843137254901961" d="M 194.5 152 L 199.5 158 L 194.5 152 Z " /><path fill="rgb(255,255,255)" stroke="rgb(255,255,255)" stroke-width="1" opacity="0.7843137254901961" d="M 221.5 152 L 220.5 154 L 221.5 152 Z " /><path fill="rgb(255,255,255)" stroke="rgb(255,255,255)" stroke-width="1" opacity="0.7843137254901961" d="M 176.5 153 L 177 155.5 L 176 155.5 L 176.5 153 Z " /><path fill="rgb(255,255,255)" stroke="rgb(255,255,255)" stroke-width="1" opacity="0.7843137254901961" d="M 335.5 153 L 336 155.5 L 335 155.5 L 335.5 153 Z " /><path fill="rgb(255,255,255)" stroke="rgb(255,255,255)" stroke-width="1" opacity="0.7843137254901961" d="M 218.5 155 L 216.5 158 L 218.5 155 Z " /><path fill="rgb(255,255,255)" stroke="rgb(255,255,255)" stroke-width="1" opacity="0.7843137254901961" d="M 366.5 159 L 367 161.5 L 366 161.5 L 366.5 159 Z " /><path fill="rgb(255,255,255)" stroke="rgb(255,255,255)" stroke-width="1" opacity="0.7843137254901961" d="M 188.5 187 L 189.5 189 L 188.5 187 Z " /><path fill="rgb(255,255,255)" stroke="rgb(255,255,255)" stroke-width="1" opacity="0.7843137254901961" d="M 323.5 187 L 322.5 189 L 323.5 187 Z " /><path fill="rgb(255,255,255)" stroke="rgb(255,255,255)" stroke-width="1" opacity="0.7843137254901961" d="M 321.5 190 L 320.5 192 L 321.5 190 Z " /><path fill="rgb(255,255,255)" stroke="rgb(255,255,255)" stroke-width="1" opacity="0.7843137254901961" d="M 194.5 195 L 197.5 199 L 194.5 195 Z " /><path fill="rgb(255,255,255)" stroke="rgb(255,255,255)" stroke-width="1" opacity="0.7843137254901961" d="M 317.5 195 L 315.5 198 L 317.5 195 Z " /><path fill="rgb(255,255,255)" stroke="rgb(255,255,255)" stroke-width="1" opacity="0.7843137254901961" d="M 201.5 202 L 204.5 206 L 201.5 202 Z " /><path fill="rgb(255,255,255)" stroke="rgb(255,255,255)" stroke-width="1" opacity="0.7843137254901961" d="M 309.5 203 L 307.5 206 L 309.5 203 Z " /><path fill="rgb(255,255,255)" stroke="rgb(255,255,255)" stroke-width="1" opacity="0.7843137254901961" d="M 346.5 209 L 345.5 211 L 346.5 209 Z " /><path fill="rgb(255,255,255)" stroke="rgb(255,255,255)" stroke-width="1" opacity="0.7843137254901961" d="M 211.5 210 L 212.5 212 L 211.5 210 Z " /><path fill="rgb(255,255,255)" stroke="rgb(255,255,255)" stroke-width="1" opacity="0.7843137254901961" d="M 300.5 210 L 299.5 212 L 300.5 210 Z " /><path fill="rgb(255,255,255)" stroke="rgb(255,255,255)" stroke-width="1" opacity="0.7843137254901961" d="M 168.5 213 L 169.5 215 L 168.5 213 Z " /><path fill="rgb(255,255,255)" stroke="rgb(255,255,255)" stroke-width="1" opacity="0.7843137254901961" d="M 343.5 213 L 342.5 215 L 343.5 213 Z " /><path fill="rgb(255,255,255)" stroke="rgb(255,255,255)" stroke-width="1" opacity="0.7843137254901961" d="M 173.5 219 L 180.5 227 L 173.5 219 Z " /><path fill="rgb(255,255,255)" stroke="rgb(255,255,255)" stroke-width="1" opacity="0.7843137254901961" d="M 338.5 219 L 331.5 227 L 338.5 219 Z " /><path fill="rgb(255,255,255)" stroke="rgb(255,255,255)" stroke-width="1" opacity="0.7843137254901961" d="M 244.5 223 L 247 223.5 L 244.5 224 L 244.5 223 Z " /><path fill="rgb(255,255,255)" stroke="rgb(255,255,255)" stroke-width="1" opacity="0.7843137254901961" d="M 264.5 223 L 268 223.5 L 264.5 224 L 264.5 223 Z " /><path fill="rgb(255,255,255)" stroke="rgb(255,255,255)" stroke-width="1" opacity="0.7843137254901961" d="M 185.5 230 L 186.5 232 L 185.5 230 Z " /><path fill="rgb(255,255,255)" stroke="rgb(255,255,255)" stroke-width="1" opacity="0.7843137254901961" d="M 326.5 230 L 325.5 232 L 326.5 230 Z " /><path fill="rgb(255,255,255)" stroke="rgb(255,255,255)" stroke-width="1" opacity="0.7843137254901961" d="M 189.5 233 L 190.5 235 L 189.5 233 Z " /><path fill="rgb(255,255,255)" stroke="rgb(255,255,255)" stroke-width="1" opacity="0.7843137254901961" d="M 322.5 233 L 321.5 235 L 322.5 233 Z " /><path fill="rgb(255,255,255)" stroke="rgb(255,255,255)" stroke-width="1" opacity="0.7843137254901961" d="M 198.5 239 L 199.5 241 L 198.5 239 Z " /><path fill="rgb(255,255,255)" stroke="rgb(255,255,255)" stroke-width="1" opacity="0.7843137254901961" d="M 246.5 255 L 252 255.5 L 246.5 256 L 246.5 255 Z " /><path fill="rgb(255,255,255)" stroke="rgb(255,255,255)" stroke-width="1" opacity="0.7843137254901961" d="M 260.5 255 L 266 255.5 L 260.5 256 L 260.5 255 Z " /><path fill="rgb(255,255,255)" stroke="rgb(255,255,255)" stroke-width="1" opacity="0.7843137254901961" d="M 185.5 320 L 190 320.5 L 185.5 321 L 185.5 320 Z " /><path fill="rgb(255,255,255)" stroke="rgb(255,255,255)" stroke-width="1" opacity="0.7843137254901961" d="M 322.5 320 L 327 320.5 L 322.5 321 L 322.5 320 Z " /><path fill="rgb(255,255,255)" stroke="rgb(255,255,255)" stroke-width="1" opacity="0.7843137254901961" d="M 163.5 329 L 162.5 331 L 163.5 329 Z " /><path fill="rgb(255,255,255)" stroke="rgb(255,255,255)" stroke-width="1" opacity="0.7843137254901961" d="M 348.5 329 L 349.5 331 L 348.5 329 Z " /><path fill="rgb(255,255,255)" stroke="rgb(255,255,255)" stroke-width="1" opacity="0.7843137254901961" d="M 154.5 338 L 153.5 340 L 154.5 338 Z " /><path fill="rgb(255,255,255)" stroke="rgb(255,255,255)" stroke-width="1" opacity="0.7843137254901961" d="M 357.5 338 L 358.5 340 L 357.5 338 Z " /><path fill="rgb(255,255,255)" stroke="rgb(255,255,255)" stroke-width="1" opacity="0.7843137254901961" d="M 181.5 355 L 179.5 358 L 181.5 355 Z " /><path fill="rgb(255,255,255)" stroke="rgb(255,255,255)" stroke-width="1" opacity="0.7843137254901961" d="M 144.5 361 L 145 365.5 L 144 365.5 L 144.5 361 Z " /><path fill="rgb(255,255,255)" stroke="rgb(255,255,255)" stroke-width="1" opacity="0.7843137254901961" d="M 367.5 361 L 368 365.5 L 367 365.5 L 367.5 361 Z " /><path fill="rgb(255,255,255)" stroke="rgb(255,255,255)" stroke-width="1" opacity="0.7843137254901961" d="M 121.5 384 L 126 384.5 L 121.5 385 L 121.5 384 Z " /><path fill="rgb(255,255,255)" stroke="rgb(255,255,255)" stroke-width="1" opacity="0.7843137254901961" d="M 386.5 384 L 391 384.5 L 386.5 385 L 386.5 384 Z " /><path fill="rgb(255,255,255)" stroke="rgb(255,255,255)" stroke-width="1" opacity="0.7843137254901961" d="M 99.5 393 L 98.5 395 L 99.5 393 Z " /><path fill="rgb(255,255,255)" stroke="rgb(255,255,255)" stroke-width="1" opacity="0.7843137254901961" d="M 412.5 393 L 413.5 395 L 412.5 393 Z " /><path fill="rgb(255,255,255)" stroke="rgb(255,255,255)" stroke-width="1" opacity="0.7843137254901961" d="M 90.5 402 L 89.5 404 L 90.5 402 Z " /><path fill="rgb(255,255,255)" stroke="rgb(255,255,255)" stroke-width="1" opacity="0.7843137254901961" d="M 421.5 402 L 422.5 404 L 421.5 402 Z " /><path fill="rgb(255,255,255)" stroke="rgb(255,255,255)" stroke-width="1" opacity="0.7843137254901961" d="M 117.5 419 L 115.5 422 L 117.5 419 Z " /><path fill="rgb(255,255,255)" stroke="rgb(255,255,255)" stroke-width="1" opacity="0.7843137254901961" d="M 80.5 425 L 81 429.5 L 80 429.5 L 80.5 425 Z " /><path fill="rgb(255,255,255)" stroke="rgb(255,255,255)" stroke-width="1" opacity="0.7843137254901961" d="M 431.5 425 L 432 429.5 L 431 429.5 L 431.5 425 Z " /><path fill="rgb(255,255,255)" stroke="rgb(255,255,255)" stroke-width="1" opacity="0.7843137254901961" d="M 80.5 450 L 81 452.5 L 80 452.5 L 80.5 450 Z " /><path fill="rgb(255,255,255)" stroke="rgb(255,255,255)" stroke-width="1" opacity="0.7843137254901961" d="M 431.5 450 L 432 452.5 L 431 452.5 L 431.5 450 Z " /><path fill="rgb(255,255,255)" stroke="rgb(255,255,255)" stroke-width="1" opacity="0.7843137254901961" d="M 87.5 468 L 91.5 473 L 87.5 468 Z " /><path fill="rgb(255,255,255)" stroke="rgb(255,255,255)" stroke-width="1" opacity="0.7843137254901961" d="M 424.5 468 L 420.5 473 L 424.5 468 Z " /><path fill="rgb(255,255,255)" stroke="rgb(255,255,255)" stroke-width="1" opacity="0.7843137254901961" d="M 107.5 479 L 110 479.5 L 107.5 480 L 107.5 479 Z " /><path fill="rgb(255,255,255)" stroke="rgb(255,255,255)" stroke-width="1" opacity="0.7843137254901961" d="M 402.5 479 L 405 479.5 L 402.5 480 L 402.5 479 Z " /><path fill="rgb(255,255,255)" stroke="rgb(255,255,255)" stroke-width="1" opacity="1" d="M 249.5 32 L 272.5 33 L 286.5 36 L 300.5 41 Q 326.4 52.6 343 73.5 Q 355.1 87.9 362 107.5 L 367 128.5 L 368 148.5 L 367 149.5 L 367 158.5 L 365 169.5 L 360 185.5 Q 348.5 212.5 327.5 230 L 313.5 240 L 304 244 L 304 319.5 L 304.5 320 L 321.5 320 L 336.5 323 Q 349.2 327.8 357 337.5 Q 364.2 345.8 367 358.5 L 368 384 L 385.5 384 L 386.5 385 L 397.5 386 Q 412.4 390.6 421 401.5 Q 428.2 409.8 431 422.5 L 432 449.5 L 428 463.5 L 418.5 474 L 413.5 477 L 401.5 480 L 110.5 480 L 96.5 476 L 86 466.5 L 81 455.5 Q 82.3 450.8 80 449.5 L 80 430.5 L 83 415.5 Q 87.8 402.8 97.5 395 Q 105.8 387.8 118.5 385 L 144 384 L 144 366.5 L 145 365.5 L 146 354.5 Q 150.6 339.6 161.5 331 Q 169.8 323.8 182.5 321 L 208 320 L 208 244.5 L 206.5 244 Q 184.6 233.4 170 215.5 Q 159 202.5 152 185.5 L 145 159.5 L 144 139.5 L 145 138.5 L 146 122.5 L 154 97.5 L 163 81.5 L 176 65 L 190.5 53 L 211.5 41 L 229.5 35 L 239.5 33 L 248.5 33 L 249.5 32 Z M 245 64 Q 221 68 206 81 Q 193 91 185 106 L 179 120 L 176 133 L 176 156 L 179 169 Q 184 184 194 196 Q 211 218 245 224 L 268 224 L 281 221 Q 296 216 308 206 Q 330 189 336 156 L 336 133 L 332 117 Q 327 103 318 93 Q 305 76 284 68 L 268 64 L 245 64 Z M 241 254 L 240 320 L 272 320 L 272 254 L 271 255 L 261 255 L 260 256 L 242 255 L 241 254 Z M 188 352 L 182 355 L 176 364 L 176 384 L 177 384 L 336 384 L 336 364 L 332 356 L 325 352 L 188 352 Z M 124 416 L 118 419 L 112 428 L 112 448 L 113 448 L 400 448 L 400 428 L 396 420 L 389 416 L 124 416 Z " /><path fill="rgb(255,255,255)" stroke="rgb(255,255,255)" stroke-width="1" opacity="1" d="M 252.5 80 L 261.5 81 L 268 85 Q 271.8 89 272 97.5 L 268 107 L 261.5 111 L 245.5 113 Q 234.8 116.8 229 125.5 L 225 133.5 L 224 145.5 L 220 155 L 213.5 159 L 206.5 160 Q 197.6 158.4 194 151.5 L 192 145.5 L 192 140.5 L 195 124.5 L 201 111.5 Q 207.5 100.5 217.5 93 L 233.5 84 L 252.5 80 Z " /></svg>