<?xml version="1.0" encoding="UTF-8"?>
<svg version="1.1" xmlns="http://www.w3.org/2000/svg" width="512" height="512">
<path d="M0 0 C0.77980953 -0.00465992 1.55961907 -0.00931984 2.36305919 -0.01412097 C4.96785512 -0.02604181 7.57212662 -0.01668692 10.17692661 -0.00736332 C12.06657861 -0.0115375 13.9562281 -0.01701549 15.84587294 -0.02368313 C21.03239342 -0.0381452 26.21875509 -0.0338906 31.40528429 -0.02651632 C37.00115699 -0.02178888 42.59699513 -0.03429072 48.19285679 -0.04453373 C59.15303207 -0.06173511 70.11315006 -0.06255899 81.07333534 -0.05732083 C89.98087342 -0.05328055 98.88839455 -0.054721 107.79593182 -0.06006908 C109.69708135 -0.06119172 109.69708135 -0.06119172 111.63663794 -0.06233703 C114.2113601 -0.06386849 116.78608224 -0.06540684 119.36080439 -0.066952 C136.64923839 -0.07678154 153.9376625 -0.08094365 171.22609711 -0.07332611 C172.23993946 -0.07288035 172.23993946 -0.07288035 173.27426349 -0.07242559 C178.76286894 -0.06997669 184.25147432 -0.06736509 189.7400797 -0.06474145 C211.15001244 -0.0546386 232.55986675 -0.06299576 253.96978855 -0.086236 C278.02969697 -0.11231058 302.08954666 -0.12510655 326.1494742 -0.11804825 C338.88674769 -0.1145531 351.62395677 -0.11680772 364.36122036 -0.13429928 C375.20363723 -0.14900397 386.04594433 -0.14967929 396.888359 -0.13222837 C402.42060128 -0.12370196 407.95264733 -0.12160901 413.48487949 -0.13687992 C418.54976753 -0.15068779 423.6142905 -0.14601398 428.6791572 -0.12664068 C430.51082813 -0.12286841 432.34252803 -0.12583788 434.17417323 -0.13625234 C451.85114732 -0.22960939 451.85114732 -0.22960939 458.88800144 4.38031673 C459.50194529 4.76445581 460.11588914 5.14859488 460.74843735 5.54437453 C467.03312204 10.1397117 471.01736861 17.74711385 472.44027925 25.31934571 C472.64779652 28.36933546 472.67931558 31.36723366 472.63644505 34.42392635 C472.64439386 35.57460201 472.65234267 36.72527766 472.66053236 37.91082227 C472.67965172 41.73401464 472.65622184 45.55570309 472.63263035 49.37885189 C472.63417489 52.13285775 472.64470169 54.88681334 472.65475559 57.64079952 C472.67365641 64.32428889 472.66059941 71.00734399 472.63622971 77.69080092 C472.60888216 85.48339325 472.61227477 93.27588411 472.61649637 101.06851225 C472.62286494 114.9765723 472.59960392 128.88442696 472.56036472 142.79242611 C472.52234645 156.27133085 472.50819482 169.74999502 472.5193491 183.22894955 C472.53147807 197.92907626 472.53108722 212.62909743 472.50837743 227.32921541 C472.505963 228.89803115 472.50355103 230.4668469 472.50114155 232.03566265 C472.49993447 232.80743066 472.49872739 233.57919867 472.49748374 234.3743536 C472.48974208 239.79949625 472.49050613 245.22459948 472.49431324 250.64974499 C472.49856733 257.26431059 472.48803203 263.87866612 472.45908614 270.49317266 C472.44464777 273.86470423 472.43855631 277.23567589 472.44557285 280.60727024 C472.45203587 284.26874105 472.43380575 287.92929757 472.40939426 291.5906744 C472.41695291 292.64671702 472.42451156 293.70275964 472.43229926 294.79080355 C472.32000817 304.33430716 469.80806321 312.6175291 462.88800144 319.38031673 C456.5092159 324.12148446 450.47770449 326.61863768 442.4339304 326.65878963 C441.15514515 326.66995312 439.8763599 326.6811166 438.55882359 326.69261837 C437.15438968 326.69498295 435.74995544 326.69715867 434.34552097 326.69916439 C432.85696465 326.70846905 431.36841351 326.71863852 429.87986851 326.72960567 C425.84937161 326.75685916 421.81890957 326.77204126 417.78834486 326.7850337 C413.57224539 326.80068463 409.3562169 326.82746859 405.14016819 326.85306454 C397.16117731 326.89981761 389.18217303 326.93657851 381.20311534 326.96973741 C372.11725269 327.00798334 363.03146139 327.05738703 353.94565892 327.10772157 C335.25982534 327.21098978 316.57394819 327.30026679 297.88800144 327.38031673 C298.30952488 327.92301205 298.73104832 328.46570736 299.16534519 329.02484798 C299.71319675 329.74027767 300.26104832 330.45570736 300.82550144 331.19281673 C301.6434116 332.2543597 301.6434116 332.2543597 302.47784519 333.33734798 C305.97721435 338.40707116 305.39797345 344.47814065 304.88800144 350.38031673 C303.39718393 356.4543908 299.80806056 359.82375819 294.65661716 363.12034512 C289.30424174 365.55616208 283.76034048 365.21153262 277.97393894 365.15668392 C276.58820034 365.16482892 275.20247475 365.17552028 273.81677341 365.18854427 C270.07682383 365.21574482 266.33787457 365.2053571 262.59790897 365.18626976 C258.67032925 365.17099949 254.7428309 365.185189 250.81524754 365.19458675 C244.22150507 365.20547974 237.62816681 365.19117774 231.03448582 365.1625433 C223.42869707 365.12989343 215.82387356 365.1404721 208.21810818 365.17350173 C201.6691367 365.20079555 195.12045453 365.2045399 188.57144451 365.18886971 C184.66823746 365.17955137 180.76548299 365.17816834 176.86230564 365.19808865 C173.19119293 365.21551839 169.52131542 365.20322607 165.85033512 365.16872311 C163.87334449 365.15710289 161.89624845 365.17474895 159.91931248 365.19348812 C152.07441042 365.08234242 146.69264514 363.88088048 140.88800144 358.38031673 C136.21258716 352.36688008 136.02214073 345.77664499 136.88800144 338.38031673 C138.48141646 333.99842545 140.97969531 330.97964601 143.88800144 327.38031673 C142.73450797 327.37811689 142.73450797 327.37811689 141.5577116 327.37587261 C122.81911599 327.33877011 104.08070627 327.27970979 85.3422575 327.19641399 C76.28035415 327.15665795 67.2185372 327.12424804 58.15655613 327.10932064 C50.25522574 327.09628628 42.35408576 327.06927622 34.45286262 327.02570367 C30.27181449 327.00312884 26.09100084 326.98740365 21.90988636 326.98843288 C17.96827245 326.98918186 14.02717612 326.97113655 10.08569622 326.9391489 C8.64506932 326.93068378 7.20438414 326.9288768 5.7637434 326.93451405 C-4.2834809 326.96856895 -11.8920322 325.79337166 -20.36199856 320.25531673 C-26.34930427 313.99586076 -30.22217229 307.25596092 -30.25180626 298.53316402 C-30.2574975 297.55376606 -30.26318874 296.5743681 -30.26905245 295.5652914 C-30.27023232 294.49177174 -30.2714122 293.41825207 -30.27262783 292.3122015 C-30.27771565 291.16977238 -30.28280347 290.02734325 -30.28804547 288.85029507 C-30.30103968 285.67865548 -30.30953042 282.50704113 -30.31601846 279.3353827 C-30.32239553 276.61497195 -30.3324648 273.89457996 -30.34257912 271.17418092 C-30.37588368 262.21135916 -30.39742194 253.24852599 -30.41577896 244.28566265 C-30.4205758 241.95085017 -30.42555891 239.61603816 -30.43058419 237.28122616 C-30.46155926 222.77415536 -30.48823729 208.26708052 -30.50500298 193.75998592 C-30.50895231 190.4005193 -30.51295532 187.04105274 -30.51702785 183.68158627 C-30.51803622 182.84663325 -30.51904458 182.01168023 -30.52008349 181.1514256 C-30.53707926 167.63495562 -30.57817695 154.11866909 -30.62905084 140.6022886 C-30.68088388 126.71651222 -30.70995277 112.83083003 -30.71719986 98.94495773 C-30.72185515 91.15212995 -30.73653282 83.35960248 -30.77694416 75.56687069 C-30.81133045 68.9280133 -30.82514898 62.28951044 -30.81252002 55.65056914 C-30.80671257 52.26640427 -30.81372491 48.88359211 -30.84068966 45.49944019 C-30.86842986 41.82044642 -30.85883323 38.14331192 -30.84025478 34.46430111 C-30.85704971 33.40862721 -30.87384464 32.35295332 -30.89114851 31.26528931 C-30.7806856 22.47027878 -27.98905371 14.74469911 -22.08749956 8.10134792 C-15.76948748 2.01198531 -8.64007948 -0.08185281 0 0 Z M-12.17059231 17.13422298 C-12.62563137 17.73105892 -13.08067043 18.32789486 -13.54949856 18.94281673 C-14.25912746 19.84193783 -14.25912746 19.84193783 -14.98309231 20.75922298 C-17.00093553 23.65681793 -17.23878701 25.45853762 -17.24621964 28.95128155 C-17.25067748 29.91994742 -17.25513532 30.8886133 -17.25972825 31.88663268 C-17.25954389 32.95839791 -17.25935953 34.03016313 -17.25916958 35.13440609 C-17.26284627 36.2671091 -17.26652295 37.39981211 -17.27031106 38.56683946 C-17.28138464 42.38845877 -17.28519794 46.21005093 -17.28900051 50.03168392 C-17.29472809 52.76112763 -17.30189577 55.49056724 -17.30891323 58.2200079 C-17.328689 66.42987436 -17.33874539 74.63974209 -17.34764102 82.84962642 C-17.35202222 86.71409776 -17.35738947 90.57856773 -17.36262989 94.44303799 C-17.3796435 107.28662361 -17.3941381 120.13020836 -17.40137863 132.97380352 C-17.40328858 136.30787564 -17.40520891 139.64194776 -17.40716457 142.97601986 C-17.40764831 143.8047059 -17.40813205 144.63339194 -17.40863045 145.48718968 C-17.41693232 158.91402723 -17.44227126 172.34077574 -17.47474525 185.7675744 C-17.50780096 199.5470397 -17.52582605 213.32645973 -17.52902287 227.1059649 C-17.53118939 234.84489953 -17.53995855 242.58370433 -17.56548405 250.32260036 C-17.5871708 256.91295576 -17.59525153 263.50314979 -17.58551726 270.09353682 C-17.58096645 273.45643775 -17.58507616 276.81873511 -17.60227871 280.18163586 C-17.61988781 283.82747163 -17.61294461 287.47245747 -17.59974575 291.11829281 C-17.610715 292.18113515 -17.62168424 293.24397748 -17.63298589 294.33902717 C-17.58027232 300.3537497 -17.11206891 303.7961411 -13.11199856 308.38031673 C-8.06817395 312.93206089 -4.29580083 313.52821172 2.29664326 313.51453781 C3.06115252 313.51689004 3.82566178 313.51924227 4.61333799 313.52166578 C7.19601576 313.52836593 9.77864334 313.52789725 12.36132908 313.52748775 C14.22333994 313.53078574 16.08535009 313.53451117 17.94735932 313.53862923 C23.08057942 313.54866465 28.21378782 313.5523685 33.34701633 313.55501854 C38.87680657 313.55891699 44.4065875 313.56849558 49.9363718 313.57723141 C63.298265 313.59700798 76.66015896 313.60706316 90.02206314 313.6159592 C96.3101528 313.62033981 102.59824161 313.62570717 108.8863306 313.63094807 C129.78160383 313.6479609 150.67687691 313.66248111 171.57215595 313.66969681 C172.92366503 313.67017157 174.27517411 313.67064745 175.62668319 313.67112447 C176.29691576 313.67136085 176.96714834 313.67159722 177.65769099 313.67184076 C181.05347156 313.67304197 184.44925213 313.67425742 187.84503269 313.67548275 C188.51893762 313.6757229 189.19284254 313.67596305 189.88716883 313.67621048 C211.74103507 313.68410493 233.59484706 313.70753978 255.44868961 313.74003869 C278.54862432 313.77432803 301.64853364 313.79404594 324.74849725 313.79734105 C337.34270921 313.79950882 349.93684143 313.80829665 362.5310297 313.83380222 C373.25430537 313.85546837 383.97748195 313.86357977 394.70077702 313.85383544 C400.17401273 313.849279 405.64704379 313.85125497 411.12025166 313.87059689 C416.12909353 313.88814527 421.13758019 313.88729874 426.1464254 313.87169959 C427.9600461 313.86931084 429.77369086 313.87371232 431.58727464 313.88552824 C434.05061491 313.9005855 436.51268652 313.89101827 438.97599506 313.87530136 C440.03487132 313.89063467 440.03487132 313.89063467 441.11513901 313.90627775 C446.51987304 313.83089472 449.51885407 312.33533498 453.88800144 309.38031673 C457.45063907 305.44266462 459.01102215 303.07263707 459.02222252 297.80935192 C459.02890928 296.35635311 459.02890928 296.35635311 459.03573114 294.87400079 C459.03554677 293.80223556 459.03536241 292.73047034 459.03517246 291.62622738 C459.04068749 289.92717286 459.04068749 289.92717286 459.04631394 288.19379401 C459.05738752 284.3721747 459.06120083 280.55058253 459.0650034 276.72894955 C459.07073098 273.99950583 459.07789866 271.27006623 459.08491611 268.54062557 C459.10469189 260.33075911 459.11474827 252.12089138 459.1236439 243.91100705 C459.1280251 240.0465357 459.13339236 236.18206574 459.13863277 232.31759548 C459.15564638 219.47400986 459.17014098 206.63042511 459.17738152 193.78682995 C459.17929147 190.45275782 459.18121179 187.11868571 459.18316746 183.78461361 C459.1836512 182.95592757 459.18413494 182.12724153 459.18463334 181.27344379 C459.1929352 167.84660623 459.21827414 154.41985773 459.25074814 140.99305907 C459.28380385 127.21359377 459.30182894 113.43417374 459.30502576 99.65466857 C459.30719227 91.91573393 459.31596143 84.17692914 459.34148693 76.4380331 C459.36317368 69.84767771 459.37125442 63.25748368 459.36152015 56.66709664 C459.35696934 53.30419572 459.36107905 49.94189836 459.37828159 46.57899761 C459.3958907 42.93316184 459.38894749 39.28817599 459.37574863 35.64234066 C459.38671788 34.57949832 459.39768713 33.51665598 459.40898877 32.4216063 C459.35625472 26.4045461 458.87921236 22.97228637 454.88800144 18.38031673 C449.32041714 13.10576318 443.67888895 12.07874177 436.20671368 12.12584114 C435.44917272 12.12263466 434.69163176 12.11942818 433.91113502 12.11612454 C431.37015377 12.10781652 428.82940774 12.11375163 426.28842258 12.11962032 C424.44928325 12.11660001 422.61014518 12.11271113 420.77100933 12.10802776 C415.71488682 12.09772357 410.65883504 12.09993574 405.60270667 12.10420835 C400.15065761 12.10667118 394.69862577 12.09766692 389.24658298 12.09017086 C378.56454538 12.07740949 367.88253289 12.07563196 357.20048894 12.07797112 C348.51934681 12.07975284 339.83821233 12.07800778 331.15707111 12.07374668 C329.92238272 12.07315149 328.68769433 12.0725563 327.41559114 12.07194308 C324.9074642 12.07073135 322.39933725 12.06951722 319.8912103 12.0683007 C299.0419306 12.05865973 278.1926614 12.05822348 257.3433807 12.06360462 C256.68027323 12.0637757 256.01716576 12.06394679 255.33396412 12.06412306 C253.99299968 12.06446972 252.65203523 12.06481825 251.31107079 12.06516865 C230.44525883 12.07052596 209.57948912 12.06259531 188.71368504 12.04413509 C165.27091451 12.0234193 141.8281661 12.01272267 118.38538539 12.01671058 C105.97285243 12.0186247 93.56035797 12.01611456 81.14783192 12.00199604 C70.58093629 11.99009863 60.01410285 11.98865892 49.44720639 12.00078621 C44.05487363 12.00668641 38.66265474 12.00774278 33.27032948 11.99578381 C28.33438242 11.9849641 23.39864484 11.98798168 18.46270774 12.00204549 C16.67675399 12.00470322 14.89078403 12.00229226 13.10484613 11.99430963 C10.67663524 11.98420928 8.24915326 11.99262034 5.82097149 12.00558662 C5.12816462 11.99827728 4.43535774 11.99096793 3.72155672 11.98343709 C-2.078552 12.04760212 -7.66984534 13.29962073 -12.17059231 17.13422298 Z M150.88800144 339.38031673 C149.36308146 342.43015669 149.65237596 345.02265363 149.88800144 348.38031673 C151.71915351 350.99624826 152.79768511 351.35021129 155.88800144 352.38031673 C157.64010893 352.47685073 159.39566592 352.51526065 161.1504221 352.52075863 C162.78652943 352.52932384 162.78652943 352.52932384 164.45568943 352.5380621 C165.65264439 352.53917995 166.84959934 352.54029781 168.08282566 352.54144955 C169.34319645 352.54641445 170.60356724 352.55137936 171.90213108 352.55649471 C175.36085601 352.56960968 178.81956153 352.57606179 182.27830744 352.58050537 C184.43940809 352.58343728 186.60050346 352.5875423 188.76160145 352.59200954 C195.52390038 352.6056815 202.2861872 352.61534988 209.04849899 352.61921144 C216.85344506 352.62369296 224.65821606 352.64124635 232.4631089 352.67021203 C238.49717152 352.69182823 244.53118487 352.70191566 250.5652858 352.70325255 C254.16878466 352.70430054 257.77211889 352.71020699 261.37557697 352.72807217 C265.39528881 352.74761371 269.4146341 352.74326417 273.43438816 352.73676205 C275.2237479 352.75058422 275.2237479 352.75058422 277.04925632 352.76468563 C278.14563419 352.75911648 279.24201206 352.75354733 280.3716135 352.74780941 C281.32177279 352.74927597 282.27193207 352.75074253 283.25088406 352.75225353 C286.70784507 352.26468669 289.40418834 350.86412983 291.88800144 348.38031673 C292.31271562 344.22924121 292.28474802 342.0203673 290.05987644 338.43109798 C288.86104832 337.07564877 288.86104832 337.07564877 287.63800144 335.69281673 C286.45464207 334.32576595 286.45464207 334.32576595 285.24737644 332.93109798 C284.07948582 331.66846127 284.07948582 331.66846127 282.88800144 330.38031673 C282.40440159 329.68132763 281.92080173 328.98233852 281.42254734 328.26216793 C277.31374634 325.21146284 272.96434945 325.74858399 267.97589207 325.71991634 C266.86316929 325.69845043 265.75044651 325.67698452 264.60400486 325.65486813 C260.91734146 325.59127872 257.23135799 325.55920033 253.54425144 325.53266048 C252.28312031 325.52010283 251.02198917 325.50754517 249.72264194 325.49460697 C243.73182206 325.43554435 237.74137532 325.3913183 231.75032377 325.37138933 C224.85970135 325.34823072 217.97272155 325.26951022 211.08325911 325.14188665 C205.09657722 325.03487035 199.1116111 325.00038033 193.12388706 324.99115849 C190.58811857 324.97725479 188.05236853 324.94168793 185.51722813 324.88356495 C169.62057964 324.54416356 159.51873723 325.00072352 150.88800144 339.38031673 Z " fill="#FFFFFF" transform="translate(35.111998558044434,73.61968326568604)"/>
<path d="M0 0 C2.61299133 1.97807312 2.61299133 1.97807312 5.25512695 4.6081543 C5.74207535 5.08634109 6.22902374 5.56452789 6.73072815 6.0572052 C8.32934868 7.63390392 9.9090785 9.22808925 11.48828125 10.82421875 C12.59759302 11.93016033 13.70764596 13.03535895 14.81840515 14.1398468 C17.1404944 16.45457447 19.45332501 18.77807833 21.76000977 21.1081543 C24.71337151 24.09000277 27.68861519 27.04883873 30.67117023 30.00145245 C32.9665269 32.27871719 35.2498113 34.5677874 37.52965355 36.86057472 C38.62199418 37.95624409 39.71804291 39.0482298 40.81786537 40.13638878 C42.35497085 41.66075487 43.87507287 43.20030908 45.3918457 44.74487305 C46.25977249 45.6167778 47.12769928 46.48868256 48.02192688 47.38700867 C50.27973292 50.36952107 50.80346903 52.29263192 51 56 C50 58.375 50 58.375 48 60 C44.8125 60.6875 44.8125 60.6875 41 60 C34.38877623 55.32490367 28.76600496 48.91201394 23.06640625 43.19921875 C22.14786362 42.28163284 21.22932098 41.36404694 20.28294373 40.4186554 C18.35603051 38.49320392 16.43090625 36.56598693 14.50708008 34.63745117 C12.04017661 32.16480285 9.56874464 29.69673681 7.095994 27.22993755 C4.72953879 24.86795286 2.36688732 22.50217911 0.00390625 20.13671875 C-0.88453476 19.25030197 -1.77297577 18.36388519 -2.68833923 17.4506073 C-3.50331375 16.63248062 -4.31828827 15.81435394 -5.15795898 14.97143555 C-5.87773422 14.25086472 -6.59750946 13.53029388 -7.33909607 12.78788757 C-9.73637798 10.20732259 -9.98483113 9.16685752 -10.3125 5.5625 C-10 2 -10 2 -8.375 0 C-5.1215621 -1.36986859 -3.39585889 -0.9082401 0 0 Z " fill="#FFFFFF" transform="translate(424,111)"/>
<path d="M0 0 C5.57531156 0.78200636 8.00907165 3.6493422 11.80859375 7.60546875 C12.49244141 8.26224609 13.17628906 8.91902344 13.88085938 9.59570312 C17.18319244 12.94422266 18.74571124 14.64905458 19.4140625 19.4140625 C18.87109375 22.54296875 18.87109375 22.54296875 17.24609375 24.54296875 C13.89902872 25.95225929 12.36793729 25.57922345 8.87109375 24.54296875 C6.16657832 22.56682007 3.88603667 20.25633258 1.55859375 17.85546875 C0.92630859 17.24251953 0.29402344 16.62957031 -0.35742188 15.99804688 C-3.93097262 12.3861944 -6.09021237 9.87498607 -6.12890625 4.54296875 C-4.6697952 1.07758 -3.71039582 0.64387643 0 0 Z " fill="#FFFFFF" transform="translate(453.12890625,112.45703125)"/>
<path d="M0 0 C2.59847505 -0.30395006 4.90639107 -0.4186308 7.5 -0.375 C8.18964844 -0.38660156 8.87929688 -0.39820313 9.58984375 -0.41015625 C11.59375 -0.3984375 11.59375 -0.3984375 15 0 C17.31282587 3.46923881 17.42478586 4.92205575 17 9 C15.88671875 10.6640625 15.88671875 10.6640625 14 12 C10.96875 12.3984375 10.96875 12.3984375 7.5 12.375 C5.78296875 12.38660156 5.78296875 12.38660156 4.03125 12.3984375 C1 12 1 12 -0.88671875 10.6640625 C-2.61015395 8.08798042 -2.31407224 6.01509354 -2 3 C-1.34 2.01 -0.68 1.02 0 0 Z " fill="#FFFFFF" transform="translate(272,407)"/>
<path d="M0 0 C2.59847505 -0.30395006 4.90639107 -0.4186308 7.5 -0.375 C8.18964844 -0.38660156 8.87929687 -0.39820313 9.58984375 -0.41015625 C11.59375 -0.3984375 11.59375 -0.3984375 15 0 C17.31282587 3.46923881 17.42478586 4.92205575 17 9 C15.88671875 10.6640625 15.88671875 10.6640625 14 12 C10.96875 12.3984375 10.96875 12.3984375 7.5 12.375 C5.78296875 12.38660156 5.78296875 12.38660156 4.03125 12.3984375 C1 12 1 12 -0.88671875 10.6640625 C-2.61015395 8.08798042 -2.31407224 6.01509354 -2 3 C-1.34 2.01 -0.68 1.02 0 0 Z " fill="#FFFFFF" transform="translate(225,407)"/>
</svg>
