<?xml version="1.0" encoding="UTF-8"?>
<svg version="1.1" xmlns="http://www.w3.org/2000/svg" width="512" height="512">
<path d="M0 0 C2.38063737 1.78003781 4.63099867 3.66120732 6.88671875 5.59765625 C7.98302839 6.5326043 9.07938596 7.46749614 10.17578125 8.40234375 C12.59286785 10.46879947 15.0026597 12.54347985 17.41015625 14.62109375 C20.36396927 17.16192145 23.36070796 19.64292773 26.38671875 22.09765625 C31.79034777 26.48711443 37.0671033 31.01448434 42.34375 35.5546875 C47.29230591 39.8111755 52.28150415 44.01932631 57.26904297 48.22998047 C58.91580854 49.62225042 60.55981942 51.01771098 62.203125 52.4140625 C67.18698123 56.64619258 72.18231147 60.85503023 77.26171875 64.97265625 C82.38405399 69.13922048 87.36089253 73.45966906 92.3371582 77.7980957 C96.83647649 81.71176483 101.41168895 85.51422377 106.05078125 89.26171875 C108.23915429 91.06426293 110.39380914 92.88892749 112.53515625 94.74609375 C113.16349365 95.29064209 113.79183105 95.83519043 114.43920898 96.39624023 C115.66846842 97.46501611 116.89469952 98.53728806 118.11743164 99.61352539 C120.89414972 102.02718012 123.46146616 104.19220863 126.88671875 105.59765625 C127.23863281 105.13875 127.59054687 104.67984375 127.953125 104.20703125 C131.30967278 100.03544706 134.58077375 96.09832756 139.88671875 94.59765625 C147.61562518 93.85351646 154.04008981 93.62049275 160.88671875 97.59765625 C161.05171875 96.44265625 161.21671875 95.28765625 161.38671875 94.09765625 C164.50089446 80.03937734 173.9960223 63.71054008 185.72265625 55.27734375 C191.23315521 52.0610117 196.65095069 51.35204998 202.88671875 52.59765625 C208.46209469 54.82904285 213.6353142 57.69961012 218.88671875 60.59765625 C237.78331479 72.32088133 237.78331479 72.32088133 258.88671875 75.59765625 C260.71245715 74.36950717 262.39775935 73.02624366 264.109375 71.64453125 C265.88671875 70.59765625 265.88671875 70.59765625 269.82421875 70.78515625 C270.83484375 71.05328125 271.84546875 71.32140625 272.88671875 71.59765625 C274.19921875 74.09765625 274.19921875 74.09765625 274.88671875 77.59765625 C273.07111427 82.08177709 270.18304788 86.24160479 265.88671875 88.59765625 C249.70121453 93.59717866 234.31439688 85.07705787 220.3828125 77.78393555 C215.31238637 75.06091095 210.51209444 72.10719199 205.79248047 68.81225586 C201.88278712 66.32048998 198.42080238 66.136563 193.88671875 66.59765625 C182.72101043 74.55852824 176.05005976 91.26885994 173.0234375 104.3203125 C172.56448175 107.53990578 172.56448175 107.53990578 174.21484375 109.56640625 C175.16617188 110.324375 175.16617188 110.324375 176.13671875 111.09765625 C181.22288398 115.68637219 183.01216044 120.0816702 183.38671875 126.91015625 C183.21634661 133.41119843 180.89062488 139.61485485 176.21875 144.25390625 C174.65205101 145.51904164 174.65205101 145.51904164 174.88671875 147.59765625 C176.3741011 148.95147774 177.93102426 150.22905511 179.51171875 151.47265625 C183.99991858 155.06321612 188.4092386 158.71884663 192.76171875 162.47265625 C193.9529942 163.49754789 195.14440105 164.52228682 196.3359375 165.546875 C197.22031494 166.30750244 197.22031494 166.30750244 198.12255859 167.08349609 C204.77191712 172.79057077 211.45547032 178.45326129 218.26171875 183.97265625 C223.38405399 188.13922048 228.36089253 192.45966906 233.3371582 196.7980957 C237.84887238 200.72254722 242.4399743 204.53192408 247.0859375 208.296875 C251.56669495 211.97772038 255.94831061 215.77278818 260.34375 219.5546875 C265.29074764 223.80983516 270.27856523 228.01639701 275.26464844 232.22558594 C276.92526909 233.63026506 278.58219842 235.0391935 280.23828125 236.44921875 C281.06755127 237.15413452 281.06755127 237.15413452 281.91357422 237.87329102 C283.01248911 238.8075787 284.110486 239.74294732 285.20751953 240.67944336 C288.50088308 243.47614077 291.87655466 246.11626349 295.32421875 248.72265625 C301.84395872 253.90881305 307.32683162 261.26121029 308.88671875 269.59765625 C310.10042429 282.92144594 308.59401636 293.1915929 299.80102539 303.75195312 C297.72776556 306.15371202 295.60380891 308.5058957 293.46533203 310.84960938 C290.97666856 313.60538272 288.58848724 316.44326894 286.19921875 319.28515625 C285.74393799 319.82333984 285.28865723 320.36152344 284.81958008 320.91601562 C281.99383054 324.26067646 279.21112636 327.63741379 276.44921875 331.03515625 C272.0375882 336.45336204 267.49348233 341.75036475 262.9375 347.046875 C256.69244554 354.30796628 250.49040725 361.60319054 244.44921875 369.03515625 C240.0375882 374.45336204 235.49348233 379.75036475 230.9375 385.046875 C228.0117264 388.44865626 225.09996837 391.86201612 222.19921875 395.28515625 C221.52016479 396.08578491 221.52016479 396.08578491 220.82739258 396.90258789 C217.90041994 400.3654029 215.04129976 403.8770213 212.19921875 407.41015625 C204.77641567 416.45176213 198.1831599 422.83217587 186.88671875 426.59765625 C171.97565386 427.56838726 162.41854447 425.49224746 150.88671875 415.59765625 C149.81392538 414.6860528 148.74099951 413.77460527 147.66796875 412.86328125 C145.27152158 410.8206674 142.88335375 408.76880981 140.5 406.7109375 C137.12533544 403.79838267 133.72983311 400.91142193 130.32421875 398.03515625 C129.7921582 397.5855957 129.26009766 397.13603516 128.71191406 396.67285156 C127.6399233 395.76728265 126.56782074 394.86184605 125.49560547 393.95654297 C122.79099586 391.67219439 120.08899748 389.38476117 117.38671875 387.09765625 C116.30339776 386.18097499 115.22006443 385.26430832 114.13671875 384.34765625 C98.97005208 371.51432292 83.80338542 358.68098958 68.63671875 345.84765625 C68.10054932 345.39398682 67.56437988 344.94031738 67.01196289 344.47290039 C65.92776637 343.55547828 64.8436193 342.63799773 63.75952148 341.72045898 C61.06479564 339.43987081 58.36924063 337.1602781 55.671875 334.8828125 C50.01401049 330.10357299 44.37589132 325.30317115 38.76171875 320.47265625 C34.7004313 316.97950519 30.61153288 313.53317229 26.44921875 310.16015625 C21.3436441 306.01704634 16.38871822 301.71535175 11.43383789 297.39477539 C7.79934024 294.23299787 4.13151032 291.12915419 0.38671875 288.09765625 C-4.70137331 283.97872459 -9.63331948 279.69618291 -14.56640625 275.39453125 C-18.20084624 272.23286394 -21.86857943 269.12908153 -25.61328125 266.09765625 C-30.70137331 261.97872459 -35.63331948 257.69618291 -40.56640625 253.39453125 C-44.20084624 250.23286394 -47.86857943 247.12908153 -51.61328125 244.09765625 C-56.64676666 240.02008498 -61.53661434 235.7925971 -66.42138672 231.53955078 C-72.07593004 226.61887975 -77.78800211 221.76984526 -83.52050781 216.94042969 C-86.22142937 214.66344186 -88.91705369 212.38019831 -91.61328125 210.09765625 C-92.6965899 209.18096041 -93.77992321 208.26429372 -94.86328125 207.34765625 C-101.36328125 201.84765625 -107.86328125 196.34765625 -114.36328125 190.84765625 C-114.90001465 190.39350342 -115.43674805 189.93935059 -115.98974609 189.47143555 C-117.06822133 188.5588671 -118.14667203 187.64626966 -119.22509766 186.73364258 C-122.58058322 183.89411238 -125.93650992 181.055108 -129.29467773 178.21875 C-130.4133323 177.27183641 -131.53007314 176.32265682 -132.64477539 175.37109375 C-134.81963357 173.5165687 -136.99489733 171.68735401 -139.2734375 169.9609375 C-145.23831658 165.3856786 -149.85243914 158.0804801 -151.11328125 150.59765625 C-152.16556514 137.24868348 -150.46164107 127.47223371 -141.5690918 116.98266602 C-139.30684195 114.39987411 -136.99764137 111.8625322 -134.67773438 109.33154297 C-132.56586226 106.99095062 -130.58590583 104.55613096 -128.61328125 102.09765625 C-124.53506409 97.06337353 -120.30711067 92.17254917 -116.05297852 87.28735352 C-112.06611792 82.70649536 -108.12509045 78.09015338 -104.21191406 73.44628906 C-100.82846177 69.43381441 -97.41227941 65.45055237 -93.98828125 61.47265625 C-90.49504269 57.41144749 -87.04879418 53.32246654 -83.67578125 49.16015625 C-78.52273477 42.8165142 -73.14256158 36.67548063 -67.77734375 30.51171875 C-65.1099157 27.44355033 -62.45221248 24.36715456 -59.80078125 21.28515625 C-59.30102783 20.70652832 -58.80127441 20.12790039 -58.28637695 19.53173828 C-55.39186343 16.1605097 -52.66393408 12.70981992 -49.98828125 9.16015625 C-46.04807728 4.18994045 -41.57559 0.77958368 -36.11328125 -2.40234375 C-35.50226563 -2.76328125 -34.89125 -3.12421875 -34.26171875 -3.49609375 C-23.69592577 -8.52299085 -9.39858082 -6.2367662 0 0 Z M-39.11328125 16.59765625 C-39.76941406 17.30921875 -40.42554688 18.02078125 -41.1015625 18.75390625 C-45.83230392 23.91768617 -50.32466634 29.23767721 -54.73046875 34.6796875 C-57.32083973 37.85183032 -59.96010992 40.97808919 -62.61328125 44.09765625 C-65.98625062 48.06657513 -69.32505103 52.05783056 -72.61328125 56.09765625 C-76.36115923 60.70219205 -80.18311569 65.23784816 -84.02734375 69.76171875 C-86.92572948 73.17825165 -89.78483225 76.62270463 -92.61328125 80.09765625 C-96.36115923 84.70219205 -100.18311569 89.23784816 -104.02734375 93.76171875 C-107.67372474 98.05996673 -111.24564206 102.4149716 -114.80078125 106.7890625 C-116.90669386 109.34675028 -119.04638357 111.8693873 -121.20166016 114.38525391 C-133.99097003 128.19115592 -133.99097003 128.19115592 -138.42578125 145.63671875 C-137.42821618 155.08864775 -131.73042042 160.32603795 -124.76000977 166.05957031 C-123.50092574 167.07649144 -122.23894173 168.0898322 -120.97412109 169.09960938 C-118.07338376 171.43481329 -115.25524021 173.86458602 -112.42578125 176.28515625 C-108.5647677 179.55852377 -104.67003661 182.78427561 -100.73828125 185.97265625 C-95.61594601 190.13922048 -90.63910747 194.45966906 -85.6628418 198.7980957 C-81.15112762 202.72254722 -76.5600257 206.53192408 -71.9140625 210.296875 C-67.43330505 213.97772038 -63.05168939 217.77278818 -58.65625 221.5546875 C-53.70769409 225.8111755 -48.71849585 230.01932631 -43.73095703 234.22998047 C-42.08419146 235.62225042 -40.44018058 237.01771098 -38.796875 238.4140625 C-33.81301877 242.64619258 -28.81768853 246.85503023 -23.73828125 250.97265625 C-18.61594601 255.13922048 -13.63910747 259.45966906 -8.6628418 263.7980957 C-4.15112762 267.72254722 0.4399743 271.53192408 5.0859375 275.296875 C9.56669495 278.97772038 13.94831061 282.77278818 18.34375 286.5546875 C23.29230591 290.8111755 28.28150415 295.01932631 33.26904297 299.22998047 C34.91580854 300.62225042 36.55981942 302.01771098 38.203125 303.4140625 C43.18698123 307.64619258 48.18231147 311.85503023 53.26171875 315.97265625 C58.38405399 320.13922048 63.36089253 324.45966906 68.3371582 328.7980957 C72.84887238 332.72254722 77.4399743 336.53192408 82.0859375 340.296875 C86.56669495 343.97772038 90.94831061 347.77278818 95.34375 351.5546875 C100.29230591 355.8111755 105.28150415 360.01932631 110.26904297 364.22998047 C111.91580854 365.62225042 113.55981942 367.01771098 115.203125 368.4140625 C120.18698123 372.64619258 125.18231147 376.85503023 130.26171875 380.97265625 C134.71490724 384.5949291 139.05975896 388.32682609 143.38671875 392.09765625 C159.87899497 407.90200596 159.87899497 407.90200596 180.7734375 413.87890625 C193.26548494 412.75039004 201.6785138 399.83836499 209.11328125 390.9296875 C210.56915156 389.13764349 212.0221923 387.34329767 213.47265625 385.546875 C216.22533748 382.18397155 219.04853644 378.88836056 221.88671875 375.59765625 C225.4414342 371.47313919 228.95464661 367.3255712 232.38671875 363.09765625 C236.32050445 358.25168836 240.37119634 353.51667097 244.4453125 348.7890625 C247.47630159 345.26447722 250.45664456 341.70716793 253.38671875 338.09765625 C257.77384777 332.69689453 262.29895287 327.42297925 266.8359375 322.1484375 C271.55513174 316.6614557 276.23291962 311.14016493 280.88671875 305.59765625 C281.70398438 304.62699219 282.52125 303.65632813 283.36328125 302.65625 C294.19773194 290.21751525 294.19773194 290.21751525 296.88671875 274.59765625 C294.55000745 265.08521732 288.43115279 260.0557906 281.046875 254.15234375 C277.58972656 251.38182189 274.23882016 248.49369255 270.88671875 245.59765625 C266.78482119 242.06109851 262.65867957 238.5690064 258.44921875 235.16015625 C253.34444032 231.01769246 248.39049193 226.71646526 243.43603516 222.39697266 C238.92437142 218.47263967 234.33337369 214.66331588 229.6875 210.8984375 C225.20959139 207.21993238 220.8307258 203.42725969 216.4375 199.6484375 C209.19855751 193.42243258 201.92805966 187.23679385 194.51171875 181.22265625 C190.0585459 177.60039612 185.71340168 173.86878767 181.38671875 170.09765625 C174.04757141 163.705615 166.68643773 157.34553348 158.82421875 151.59765625 C154.81420518 148.63904867 151.19446757 145.30948163 147.51953125 141.94921875 C144.89005843 139.60063917 142.19360842 137.37286929 139.44921875 135.16015625 C135.64584372 132.08429037 131.98589223 128.91012459 128.38671875 125.59765625 C123.993757 121.55886539 119.46870965 117.75334022 114.828125 114.00390625 C111.51283644 111.29179768 108.25808491 108.51652836 105.01171875 105.72265625 C96.58163257 98.47167564 88.1489276 91.226833 79.51171875 84.22265625 C74.38938351 80.05609202 69.41254497 75.73564344 64.4362793 71.3972168 C59.92456512 67.47276528 55.3334632 63.66338842 50.6875 59.8984375 C46.20959139 56.21993238 41.8307258 52.42725969 37.4375 48.6484375 C29.32767255 41.67340963 21.15234746 34.79123564 12.83984375 28.05859375 C10.58443577 26.1790871 8.37670289 24.27427136 6.18359375 22.32421875 C-6.59936145 10.36340356 -6.59936145 10.36340356 -23.24609375 7.17578125 C-30.12464771 8.18788456 -34.54282416 11.46982634 -39.11328125 16.59765625 Z M141.01171875 108.78515625 C139.29862198 111.05249021 137.5909796 113.32368535 135.88671875 115.59765625 C143.1143416 121.74515741 150.36751945 127.8493148 157.7421875 133.8203125 C159.88671875 135.59765625 159.88671875 135.59765625 161.88671875 137.59765625 C163.8703857 137.73071782 163.8703857 137.73071782 165.88671875 136.59765625 C168.45548646 133.52940594 169.78199677 131.47033943 170.26171875 127.47265625 C169.52060008 121.79074644 166.95829146 119.57861934 162.51171875 116.09765625 C157.1459539 111.87446666 157.1459539 111.87446666 154.8125 109.3828125 C152.02605827 106.79984319 149.75863475 106.62976102 146.0703125 106.36328125 C143.57935095 106.44027833 143.57935095 106.44027833 141.01171875 108.78515625 Z " fill="#464646" transform="translate(196.11328125,5.40234375)"/>
<path d="M0 0 C3.82826206 2.33430613 5.18442631 5.36900695 6.5625 9.5625 C7.54097443 15.19416391 6.41350278 20.61410345 3.5625 25.5625 C0.80564792 29.15106062 -2.24244862 32.36244854 -5.4375 35.5625 C-6.16839844 36.305 -6.89929687 37.0475 -7.65234375 37.8125 C-14.54738972 44.41288589 -22.45997035 49.3150809 -30.51269531 54.35693359 C-32.98154549 55.903253 -35.43485516 57.47127286 -37.875 59.0625 C-38.86306641 59.69671875 -38.86306641 59.69671875 -39.87109375 60.34375 C-42.58037533 62.45171971 -43.39681018 64.27767127 -43.875 67.625 C-42.76899753 77.57902225 -35.97833531 85.48481233 -29.75048828 92.9609375 C-28.47780721 94.51333389 -27.26683915 96.11569207 -26.05859375 97.71875 C-23.65383339 100.60287775 -21.69508352 102.68635591 -18.4375 104.5625 C-14.83243372 104.49762734 -11.92736094 103.64638353 -8.48046875 102.59765625 C6.10358593 98.37257522 21.8843434 101.74286496 34.875 108.8125 C47.76978561 116.86115068 55.5136918 129.04112967 59.5625 143.5625 C60.11145231 146.53343424 60.4237396 149.50009992 60.6953125 152.5078125 C60.77748016 153.32192596 60.85964783 154.13603943 60.94430542 154.974823 C61.20175668 157.54486651 61.44510622 160.11599708 61.6875 162.6875 C61.94015671 165.26575785 62.19571832 167.84371225 62.45211792 170.42160034 C62.60969284 172.01631227 62.7645872 173.61129227 62.91629028 175.20657349 C63.34667049 179.68152917 63.89239484 184.11690638 64.5625 188.5625 C65.29726562 188.82675781 66.03203125 189.09101563 66.7890625 189.36328125 C80.39185914 195.24505388 90.03527033 208.83048242 95.375 222.125 C101.86023122 240.19404883 100.24070139 256.81421317 92.28515625 274.30859375 C83.47207383 290.95552722 68.1223614 301.01278692 50.5625 306.5625 C35.84615441 310.75861848 18.86446486 307.83783906 5.48828125 300.98828125 C-10.61702544 291.35205172 -21.48963834 277.60894186 -26.4375 259.5625 C-27.49211355 254.65654458 -27.58626584 249.9293831 -27.5625 244.9375 C-27.56854248 244.13989258 -27.57458496 243.34228516 -27.58081055 242.52050781 C-27.58312099 237.94213103 -27.14218499 233.81590993 -26.25 229.3125 C-25.72712403 223.88952927 -27.82673117 220.77208872 -31.125 216.6875 C-32.65340405 214.88588124 -34.21203219 213.1206104 -35.79980469 211.37109375 C-37.98499894 208.95786789 -40.09022316 206.48020358 -42.20214844 204.00292969 C-43.72094034 202.22158322 -45.24642959 200.44617979 -46.7734375 198.671875 C-47.66172379 197.63564416 -48.54977366 196.59921058 -49.4375 195.5625 C-50.06914063 194.82515625 -50.70078125 194.0878125 -51.3515625 193.328125 C-61.55353934 180.66721015 -62.5188332 166.13007343 -61.4375 150.5625 C-58.61949652 134.63908274 -47.43071761 122.01266576 -34.59765625 113.03125 C-33.88480469 112.5465625 -33.17195313 112.061875 -32.4375 111.5625 C-33.241875 110.634375 -34.04625 109.70625 -34.875 108.75 C-36.06303366 107.35462085 -37.25046342 105.95872745 -38.4375 104.5625 C-39.50484375 103.32886719 -39.50484375 103.32886719 -40.59375 102.0703125 C-49.84151734 91.14401205 -58.25747915 79.2068902 -57.375 64.25 C-56.11817969 55.9814453 -51.84799245 51.55147257 -45.4375 46.5625 C-42.95254564 44.87975444 -40.39271328 43.34389524 -37.8125 41.8125 C-19.56904642 31.1009867 -19.56904642 31.1009867 -7.4375 14.5625 C-7.57465213 11.6989297 -8.00713432 8.9534691 -8.44140625 6.12109375 C-8.4375 3.5625 -8.4375 3.5625 -7.15234375 1.78515625 C-4.6615531 0.00926223 -3.02502315 -0.54295287 0 0 Z M-10.4375 116.5625 C-8.59817698 123.08373616 -6.95031062 126.72667643 -1.61328125 131.03515625 C6.91980365 138.17044058 12.29218262 146.5790727 14.5625 157.5625 C14.65478896 159.31056146 14.6925014 161.06201118 14.6875 162.8125 C14.69136719 164.15054688 14.69136719 164.15054688 14.6953125 165.515625 C14.5625 168.5625 14.5625 168.5625 13.77734375 172.265625 C13.03873271 177.8236731 15.59499132 182.18872689 18 187.0625 C18.43376953 187.9803125 18.86753906 188.898125 19.31445312 189.84375 C20.38012009 192.0921902 21.46279358 194.33056468 22.5625 196.5625 C23.30411377 196.26480713 24.04572754 195.96711426 24.80981445 195.66040039 C28.16451596 194.31436682 31.51975087 192.96966791 34.875 191.625 C36.04224609 191.15642578 37.20949219 190.68785156 38.41210938 190.20507812 C40.08950195 189.5331543 40.08950195 189.5331543 41.80078125 188.84765625 C43.3482605 188.22709351 43.3482605 188.22709351 44.92700195 187.59399414 C46.7864804 186.86622236 48.66814505 186.19395165 50.5625 185.5625 C50.50715088 184.88372803 50.45180176 184.20495605 50.39477539 183.50561523 C50.23018686 181.48208406 50.06653045 179.45847695 49.90356445 177.43481445 C49.71682818 175.1322793 49.5265222 172.83003104 49.33276367 170.52807617 C48.51832914 160.67766088 48.51832914 160.67766088 48.453125 156.0546875 C48.19506527 143.90007426 43.69686738 134.56885163 35.5625 125.5625 C25.65498589 116.87410807 15.09233699 113.94094572 2.078125 114.2890625 C-2.28521568 114.62843344 -6.22804051 115.38089734 -10.4375 116.5625 Z M-36.4375 131.5625 C-38.83213736 134.04813358 -40.67355442 136.60218754 -42.4375 139.5625 C-42.89769531 140.31015625 -43.35789062 141.0578125 -43.83203125 141.828125 C-49.58839776 152.11327553 -50.3254221 162.09741161 -47.39453125 173.421875 C-44.95686372 181.42140436 -41.06252986 186.32029221 -35.29321289 192.3371582 C-30.83996134 197.00250151 -26.8925234 201.94858802 -23.09155273 207.15673828 C-20.81718407 210.27068728 -20.81718407 210.27068728 -17.66894531 212.37573242 C-14.435772 212.64634266 -12.3200504 211.54557346 -9.359375 210.25390625 C-8.19921875 209.75439453 -7.0390625 209.25488281 -5.84375 208.74023438 C-4.6371875 208.20720703 -3.430625 207.67417969 -2.1875 207.125 C-0.95357865 206.58944835 0.2807921 206.05493088 1.515625 205.52148438 C4.53583102 204.21194192 7.55102421 202.89196719 10.5625 201.5625 C9.29806196 198.00183525 7.96779063 194.46928431 6.625 190.9375 C6.27115234 189.93847656 5.91730469 188.93945312 5.55273438 187.91015625 C3.07896163 181.52486249 0.72522026 178.14798718 -5.3293457 174.82910156 C-12.55043547 170.49059389 -16.01959785 161.22404537 -18.4375 153.5625 C-19.53154054 148.03193644 -19.57064967 143.04998957 -18.6875 137.5 C-17.90331465 131.61388588 -20.41996309 127.46991297 -23.4375 122.5625 C-27.31537421 122.5625 -33.42232897 129.06678201 -36.4375 131.5625 Z M-7.4375 142.5625 C-7.08775665 149.79052931 -5.43071263 155.45727028 -1.4375 161.5625 C-0.4475 162.2225 0.5425 162.8825 1.5625 163.5625 C1.12329205 155.65675682 -1.41361065 148.00513687 -7.4375 142.5625 Z M42.06640625 202 C41.2042601 202.35835937 40.34211395 202.71671875 39.45384216 203.0859375 C36.67617479 204.24149361 33.90059186 205.40196875 31.125 206.5625 C29.31979239 207.31411662 27.51445516 208.06542203 25.70898438 208.81640625 C13.97980273 213.69922172 2.2683883 218.62414408 -9.4375 223.5625 C-8.64662667 224.99572657 -7.85456651 226.42829827 -7.06201172 227.8605957 C-6.62106171 228.65842972 -6.18011169 229.45626373 -5.72579956 230.27827454 C-4.09822231 233.16405786 -2.3417603 235.95560156 -0.5625 238.75 C14.46071733 263.05978078 14.46071733 263.05978078 13.1875 272.27734375 C12.5625 274.5625 12.5625 274.5625 11.5625 275.5625 C9.22952567 275.60342937 6.89544775 275.60491723 4.5625 275.5625 C4.30597656 274.89347656 4.04945312 274.22445312 3.78515625 273.53515625 C1.19848961 267.04671637 -1.73482782 260.85862841 -5 254.6875 C-5.37568115 253.974729 -5.7513623 253.26195801 -6.13842773 252.52758789 C-8.36285068 248.37523436 -10.69267633 244.39444202 -13.4375 240.5625 C-13.7675 240.5625 -14.0975 240.5625 -14.4375 240.5625 C-15.26480857 254.60376498 -12.26554151 266.43001771 -3.4375 277.5625 C6.68023276 288.66219643 19.48414619 294.50460742 34.37890625 295.52734375 C48.30969955 295.68118073 60.13460345 290.60105105 70.5625 281.5625 C81.18526051 270.6687507 85.94824621 257.73522373 85.86303711 242.7019043 C85.46070151 227.1804102 79.06471689 216.59782435 68.5625 205.5625 C67.25634291 208.17481418 67.78805827 209.07902758 68.56640625 211.859375 C68.8099585 212.72957275 69.05351074 213.59977051 69.30444336 214.49633789 C69.57522705 215.42567139 69.84601074 216.35500488 70.125 217.3125 C70.39513916 218.25665771 70.66527832 219.20081543 70.94360352 220.17358398 C72.96216806 227.02434605 75.45205324 233.4243582 78.55859375 239.84765625 C79.5625 242.5625 79.5625 242.5625 79.41015625 244.80859375 C78.5625 246.5625 78.5625 246.5625 75.5625 248.5625 C73.23050612 248.64155064 70.89417378 248.65048769 68.5625 248.5625 C68.29050781 247.86382812 68.01851563 247.16515625 67.73828125 246.4453125 C66.94678919 244.5047107 66.10954993 242.58221511 65.23046875 240.6796875 C60.7693486 230.90995208 58.09191541 220.9773334 55.5625 210.5625 C54.95926058 208.16643303 54.3552534 205.77055902 53.75 203.375 C53.35287757 201.77115197 52.95645107 200.16712995 52.5625 198.5625 C48.8671435 198.5625 45.44154102 200.58464543 42.06640625 202 Z " fill="#464646" transform="translate(68.4375,204.4375)"/>
<path d="M0 0 C6.38487165 1.80306278 10.83472081 6.85792189 15.53466797 11.34667969 C17.84491949 13.51088473 20.28735522 15.48703952 22.7578125 17.46484375 C29.54567104 22.98059995 36.19730275 28.65432843 42.86132812 34.31835938 C49.31938176 39.80504889 55.81028866 45.24011504 62.3828125 50.58984375 C66.07545614 53.62601741 69.71653038 56.72084345 73.359375 59.81640625 C76.7759079 62.71479198 80.22036088 65.57389475 83.6953125 68.40234375 C88.79796855 72.55842012 93.82764357 76.79438297 98.83984375 81.05859375 C101.13712993 83.01165895 103.44811139 84.94678379 105.76953125 86.87109375 C106.3536377 87.35787598 106.93774414 87.8446582 107.53955078 88.34619141 C108.65060717 89.27159814 109.76467484 90.19340659 110.88232422 91.11083984 C118.53279603 97.50609911 118.53279603 97.50609911 119.796875 102.078125 C119.87066538 108.80534827 117.54778202 111.98504994 113.1953125 116.90234375 C112.30124876 117.98284087 111.41090048 119.06641859 110.5234375 120.15234375 C109.56097186 121.31989827 108.59742416 122.48656161 107.6328125 123.65234375 C107.17414795 124.20760742 106.7154834 124.76287109 106.24291992 125.33496094 C99.39055298 133.44447414 99.39055298 133.44447414 95.12231445 134.3347168 C90.89213681 134.62310751 88.02974884 134.21705282 84.640625 131.59375 C83.51402706 130.57223026 82.40769777 129.52800825 81.3203125 128.46484375 C80.10519457 127.35044066 78.88903848 126.23716855 77.671875 125.125 C77.08180664 124.57344238 76.49173828 124.02188477 75.88378906 123.45361328 C73.57143606 121.32916404 71.14571964 119.36483797 68.6953125 117.40234375 C64.4673877 113.97026362 60.3200336 110.45683204 56.1953125 106.90234375 C51.17939561 102.58061512 46.10355951 98.34755179 40.96484375 94.171875 C35.08731839 89.35545436 29.31919336 84.40740075 23.52929688 79.48632812 C17.95245612 74.74830713 12.36948466 70.02391586 6.6953125 65.40234375 C1.03238089 60.78992699 -4.53839092 56.07409932 -10.10351562 51.34472656 C-11.87023833 49.84676478 -13.64154043 48.3543749 -15.4140625 46.86328125 C-16.29698975 46.11957275 -16.29698975 46.11957275 -17.19775391 45.36083984 C-18.32418906 44.41224616 -19.45142537 43.46460275 -20.57958984 42.51806641 C-28.38875529 35.93270698 -28.38875529 35.93270698 -29.2421875 29.71484375 C-28.6284615 24.36666004 -26.24891618 21.90420946 -22.8046875 17.90234375 C-21.90093959 16.81757455 -20.9987065 15.73154227 -20.09765625 14.64453125 C-17.36530464 11.36754465 -14.61564995 8.11244589 -11.8046875 4.90234375 C-11.134375 4.1340625 -10.4640625 3.36578125 -9.7734375 2.57421875 C-6.60016647 -0.12054315 -4.06303923 -0.13543464 0 0 Z M-1.8046875 13.90234375 C-3.2263322 15.43942114 -4.64176512 16.98224476 -6.0546875 18.52734375 C-6.84359375 19.38585937 -7.6325 20.244375 -8.4453125 21.12890625 C-10.84558684 23.95042079 -12.8128248 26.78663192 -14.8046875 29.90234375 C-8.5846088 35.66524065 -2.28598124 41.22514496 4.3125 46.5546875 C7.47547297 49.13049611 10.58848922 51.75939597 13.6953125 54.40234375 C17.66418746 57.77536325 21.6554884 61.11411483 25.6953125 64.40234375 C30.300645 68.15087021 34.83735694 71.97318621 39.36157227 75.81860352 C42.75485359 78.69779695 46.17799036 81.53438612 49.6328125 84.33984375 C53.8792382 87.79508679 58.04823609 91.32936579 62.1953125 94.90234375 C67.21823302 99.22916593 72.29500734 103.47623896 77.44140625 107.65625 C82.39442844 111.69594895 87.29158101 115.80306385 92.1953125 119.90234375 C97.42966255 115.62940493 101.86638065 111.08653569 106.1953125 105.90234375 C102.51743079 100.95622697 98.22531582 97.36230597 93.421875 93.5234375 C89.76100899 90.58081376 86.23147078 87.49273773 82.6953125 84.40234375 C77.53735869 79.90424094 72.31371499 75.51236769 66.99609375 71.203125 C62.51818514 67.52461988 58.13931955 63.73194719 53.74609375 59.953125 C46.50715126 53.72712008 39.23665341 47.54148135 31.8203125 41.52734375 C27.36714305 37.90508638 23.02193224 34.17354474 18.6953125 30.40234375 C9.03740565 21.2690071 9.03740565 21.2690071 -1.8046875 13.90234375 Z " fill="#464646" transform="translate(150.8046875,152.09765625)"/>
<path d="M0 0 C0.84046875 -0.03738281 1.6809375 -0.07476562 2.546875 -0.11328125 C8.80486722 0.87244296 13.63551785 6.23373609 18.25 10.3125 C19.57784323 11.47428046 20.90597501 12.63573119 22.234375 13.796875 C23.23694336 14.67569336 23.23694336 14.67569336 24.25976562 15.57226562 C27.32526188 18.25269464 30.40948897 20.91097958 33.5 23.5625 C34.08144775 24.06144775 34.66289551 24.56039551 35.26196289 25.07446289 C38.69957488 28.01425072 42.17402517 30.90081583 45.6875 33.75 C77.70067943 59.76661042 77.70067943 59.76661042 78.65625 64.1953125 C78.94625924 71.13136674 76.73214712 74.24980811 72.25 79.3125 C71.34427046 80.40475332 70.44220225 81.50004866 69.54296875 82.59765625 C68.57138551 83.77432432 67.59872329 84.95010227 66.625 86.125 C65.92443481 86.97046387 65.92443481 86.97046387 65.2097168 87.83300781 C59.41463399 94.68370816 59.41463399 94.68370816 54.91015625 95.9921875 C49.22925275 96.4193231 45.86166166 95.49254164 41.39428711 91.82861328 C39.1584064 89.85200842 36.97430342 87.82724052 34.8125 85.77001953 C32.55386602 83.66313752 30.16010728 81.74268766 27.75 79.8125 C23.1446675 76.06397354 18.60795556 72.24165754 14.08374023 68.39624023 C10.69045891 65.5170468 7.26732214 62.68045763 3.8125 59.875 C-1.70691182 55.38039125 -7.11692889 50.76626303 -12.49609375 46.10546875 C-14.42081291 44.44034992 -16.35768528 42.82726559 -18.34765625 41.23828125 C-22.76513109 37.67062915 -25.01222188 35.21472498 -25.75 29.3125 C-25.51843267 22.82861465 -23.28707348 19.85657904 -19.0625 15.3125 C-18.54494141 14.735 -18.02738281 14.1575 -17.49414062 13.5625 C-16.45076951 12.39829013 -15.40145042 11.23938291 -14.34619141 10.0859375 C-12.17762369 7.67656524 -10.10478996 5.19044172 -8.03588867 2.6953125 C-5.61910034 0.0963588 -3.40742519 0.09809254 0 0 Z M0.25 13.3125 C-1.00484335 14.68308133 -2.25362692 16.05921152 -3.5 17.4375 C-4.19609375 18.20320313 -4.8921875 18.96890625 -5.609375 19.7578125 C-7.90831328 22.50143592 -9.81470662 25.30494947 -11.75 28.3125 C-5.21691935 34.41232225 1.38134084 40.32946438 8.34375 45.94140625 C11.64998463 48.63883154 14.89134112 51.40388414 18.125 54.1875 C24.25113368 59.45899918 30.4087703 64.69140221 36.58398438 69.90527344 C39.57861232 72.4347335 42.5703487 74.96761128 45.5625 77.5 C46.66274862 78.43100353 47.76300789 79.36199447 48.86328125 80.29296875 C49.65089844 80.95941406 50.43851563 81.62585938 51.25 82.3125 C54.93000434 79.55410796 57.74505889 76.69174618 60.5625 73.0625 C61.25988281 72.17046875 61.95726562 71.2784375 62.67578125 70.359375 C63.19527344 69.68390625 63.71476562 69.0084375 64.25 68.3125 C60.57211829 63.36638322 56.28000332 59.77246222 51.4765625 55.93359375 C47.81569814 52.99097133 44.28612924 49.90292496 40.75 46.8125 C35.62378768 42.34133934 30.43106714 37.97982972 25.140625 33.703125 C20.8979841 30.19434631 16.76228593 26.56366164 12.63867188 22.91601562 C8.67171297 19.4369028 4.58913313 16.31651524 0.25 13.3125 Z " fill="#464646" transform="translate(392.75,218.6875)"/>
<path d="M0 0 C5.813767 1.67779853 10.01950046 6.3367783 14.33935547 10.39892578 C16.61697201 12.48821593 19.03550804 14.37859353 21.47265625 16.27734375 C30.41915558 23.26255318 30.41915558 23.26255318 31.34765625 30.02734375 C30.73435898 35.37179142 28.35718295 37.84261856 24.91015625 41.83984375 C24.07484375 42.83371094 23.23953125 43.82757813 22.37890625 44.8515625 C20.49561435 47.09080767 18.60245525 49.32122246 16.703125 51.546875 C14.23378432 54.44727685 11.81341514 57.38430993 9.41015625 60.33984375 C4.79184264 66.01001527 0.07014995 71.58819546 -4.66503906 77.16064453 C-6.10903749 78.86246447 -7.54924091 80.56742369 -8.98828125 82.2734375 C-11.68261964 85.46752482 -14.38423648 88.65529358 -17.08984375 91.83984375 C-17.79625 92.67257812 -18.50265625 93.5053125 -19.23046875 94.36328125 C-20.15085937 95.43449219 -20.15085937 95.43449219 -21.08984375 96.52734375 C-21.60546875 97.12933594 -22.12109375 97.73132813 -22.65234375 98.3515625 C-25.29366871 101.08619513 -27.23585073 101.87045812 -30.96484375 102.65234375 C-37.93635782 102.52765 -42.69535879 96.74881616 -47.50732422 92.27636719 C-49.7749526 90.21793994 -52.17344543 88.3446648 -54.58984375 86.46484375 C-64.58507942 78.51741246 -64.58507942 78.51741246 -65.52734375 71.65234375 C-64.61665856 63.71637285 -57.63653605 58.1542865 -52.44140625 52.47265625 C-50.09282667 49.84318343 -47.86505679 47.14673342 -45.65234375 44.40234375 C-41.790427 39.62699973 -37.71310151 35.1031669 -33.5546875 30.5859375 C-31.16277078 27.92109209 -28.89729491 25.1915255 -26.65234375 22.40234375 C-21.72526547 16.30048167 -16.47105359 10.54307875 -11.08984375 4.83984375 C-10.07664062 3.70675781 -10.07664062 3.70675781 -9.04296875 2.55078125 C-6.05544815 -0.0662868 -3.87951783 -0.14283939 0 0 Z M-2.08984375 13.83984375 C-3.79475794 15.5843363 -5.45019418 17.34785152 -7.08984375 19.15234375 C-7.83741943 19.97158325 -7.83741943 19.97158325 -8.60009766 20.80737305 C-12.43263958 25.04079568 -16.06301572 29.41136378 -19.64453125 33.859375 C-22.5598794 37.41274662 -25.56790506 40.87713322 -28.58984375 44.33984375 C-33.18845788 49.61230104 -37.67478137 54.94968817 -42.078125 60.38671875 C-44.99720351 63.9462941 -48.02750279 67.40332608 -51.08984375 70.83984375 C-45.72327531 77.5480543 -39.47316748 83.1279052 -33.08984375 88.83984375 C-29.26128957 85.77917881 -26.06423767 82.84095885 -23.02734375 78.96484375 C-19.35462448 74.37240151 -15.58049426 69.89601936 -11.71484375 65.46484375 C-6.24701746 59.18641043 -0.84498371 52.85694608 4.51904297 46.48974609 C7.04097124 43.49866304 9.56982681 40.51343945 12.09765625 37.52734375 C13.02867372 36.42710693 13.95966602 35.32684881 14.890625 34.2265625 C15.89029297 33.04513672 15.89029297 33.04513672 16.91015625 31.83984375 C13.13588911 27.12200983 9.04173234 22.97827542 4.59765625 18.90234375 C4.05786133 18.40565186 3.51806641 17.90895996 2.96191406 17.3972168 C0.75227256 14.93536696 0.75227256 14.93536696 -2.08984375 13.83984375 Z " fill="#464646" transform="translate(406.08984375,296.16015625)"/>
<path d="M0 0 C1.09441406 -0.01546875 1.09441406 -0.01546875 2.2109375 -0.03125 C7.75925735 1.18973948 11.84835815 5.46447443 15.875 9.25 C20.32921785 13.37472776 24.91705682 17.2042961 29.7265625 20.90625 C31.87360985 22.70870951 32.52511403 23.68126253 32.86328125 26.453125 C33.16526157 35.7986211 27.98987576 40.35780073 21.9453125 46.9609375 C19.25877426 49.90075207 16.64345814 52.89714522 14.03515625 55.90625 C10.89674856 59.45325925 10.89674856 59.45325925 8.671875 59.8359375 C7.53492188 59.85527344 7.53492188 59.85527344 6.375 59.875 C5.62734375 59.90335938 4.8796875 59.93171875 4.109375 59.9609375 C-1.71403346 58.88049379 -6.35881179 53.97101142 -10.75 50.1875 C-11.31436768 49.704021 -11.87873535 49.22054199 -12.46020508 48.72241211 C-13.58319067 47.75932554 -14.70505104 46.79492508 -15.82568359 45.82910156 C-17.18329716 44.66445482 -18.55354566 43.51456979 -19.92578125 42.3671875 C-20.63089844 41.77164063 -21.33601562 41.17609375 -22.0625 40.5625 C-22.66449219 40.05847656 -23.26648438 39.55445313 -23.88671875 39.03515625 C-25.67336706 37.19223556 -26.57570738 35.95771796 -27.375 33.5 C-27.17729347 28.0877837 -25.92845881 25.27231796 -22.375 21.25 C-21.56675781 20.31542969 -20.75851563 19.38085938 -19.92578125 18.41796875 C-19.08402344 17.45503906 -18.24226562 16.49210938 -17.375 15.5 C-15.76453047 13.52595865 -14.16012729 11.54694915 -12.5625 9.5625 C-4.77661258 -0.06704018 -4.77661258 -0.06704018 0 0 Z M0.625 14.5 C-0.7966447 16.03707739 -2.21207762 17.57990101 -3.625 19.125 C-4.41390625 19.98351562 -5.2028125 20.84203125 -6.015625 21.7265625 C-8.41589934 24.54807704 -10.3831373 27.38428817 -12.375 30.5 C-6.60668342 35.87194039 -0.94865823 41.11756118 5.625 45.5 C7.0466447 43.96292261 8.46207762 42.42009899 9.875 40.875 C10.66390625 40.01648438 11.4528125 39.15796875 12.265625 38.2734375 C14.66589934 35.45192296 16.6331373 32.61571183 18.625 29.5 C16.75471875 27.74471987 14.8790838 25.99581545 13 24.25 C12.47792969 23.75886719 11.95585937 23.26773438 11.41796875 22.76171875 C8.01145667 19.6075409 4.5530064 16.97712115 0.625 14.5 Z " fill="#464646" transform="translate(271.375,185.5)"/>
<path d="M0 0 C1.09441406 -0.01546875 1.09441406 -0.01546875 2.2109375 -0.03125 C8.87667923 1.43564462 13.85218513 7.3456657 18.65625 11.859375 C21.58003837 14.46000782 24.63461575 16.66056231 27.8125 18.9375 C31.4341242 21.93109688 33.47914732 23.93734245 34.0625 28.6875 C33.27062982 36.3279771 27.31860694 41.56083097 22.22460938 46.83398438 C19.89039134 49.26510523 17.67207612 51.78959148 15.4375 54.3125 C10.75606249 59.48316882 10.75606249 59.48316882 8.76953125 59.73828125 C7.99996094 59.76277344 7.23039062 59.78726563 6.4375 59.8125 C5.68082031 59.84988281 4.92414063 59.88726562 4.14453125 59.92578125 C-1.69995946 58.93810763 -6.35991519 53.96865453 -10.75 50.1875 C-11.31364258 49.70619629 -11.87728516 49.22489258 -12.45800781 48.72900391 C-26.6174817 36.61604814 -26.6174817 36.61604814 -27 32.125 C-26.92625097 24.71849065 -22.14270549 20.68541987 -17.375 15.5 C-15.75922772 13.53029664 -14.15464084 11.55135367 -12.5625 9.5625 C-4.77661258 -0.06704018 -4.77661258 -0.06704018 0 0 Z M0.2421875 15.75 C-4.16047222 20.17240259 -8.32123459 24.75623197 -12.375 29.5 C-7.95712227 35.44128384 -2.44529182 40.27146855 3.625 44.5 C6.57366082 44.83265234 6.57366082 44.83265234 8.06713867 43.21484375 C8.5541626 42.62832031 9.04118652 42.04179687 9.54296875 41.4375 C10.34057617 40.49003906 10.34057617 40.49003906 11.15429688 39.5234375 C11.70150391 38.85570312 12.24871094 38.18796875 12.8125 37.5 C13.37130859 36.83226562 13.93011719 36.16453125 14.50585938 35.4765625 C15.88674149 33.82422493 17.25689731 32.16293412 18.625 30.5 C15.07997977 26.22460258 11.47607708 22.25854339 7.3125 18.5625 C6.45011719 17.79035156 5.58773437 17.01820313 4.69921875 16.22265625 C2.37355834 14.02233274 2.37355834 14.02233274 0.2421875 15.75 Z " fill="#464646" transform="translate(183.375,111.5)"/>
<path d="M0 0 C1.09441406 -0.01546875 1.09441406 -0.01546875 2.2109375 -0.03125 C8.87667923 1.43564462 13.85218513 7.3456657 18.65625 11.859375 C21.58003837 14.46000782 24.63461575 16.66056231 27.8125 18.9375 C31.4341242 21.93109688 33.47914732 23.93734245 34.0625 28.6875 C33.27062982 36.3279771 27.31860694 41.56083097 22.22460938 46.83398438 C19.89039134 49.26510523 17.67207612 51.78959148 15.4375 54.3125 C10.75606249 59.48316882 10.75606249 59.48316882 8.76953125 59.73828125 C7.99996094 59.76277344 7.23039062 59.78726563 6.4375 59.8125 C5.68082031 59.84988281 4.92414063 59.88726562 4.14453125 59.92578125 C-1.69995946 58.93810763 -6.35991519 53.96865453 -10.75 50.1875 C-11.31364258 49.70619629 -11.87728516 49.22489258 -12.45800781 48.72900391 C-26.32833089 36.86340697 -26.32833089 36.86340697 -26.61328125 34.64453125 C-26.63777344 33.87496094 -26.66226563 33.10539062 -26.6875 32.3125 C-26.72488281 31.55582031 -26.76226562 30.79914063 -26.80078125 30.01953125 C-25.69655418 23.48534356 -19.48351885 17.82585116 -15.375 12.875 C-14.75882813 12.12476563 -14.14265625 11.37453125 -13.5078125 10.6015625 C-4.6939329 -0.06587976 -4.6939329 -0.06587976 0 0 Z M0.625 14.5 C-0.7966447 16.03707739 -2.21207762 17.57990101 -3.625 19.125 C-4.41390625 19.98351562 -5.2028125 20.84203125 -6.015625 21.7265625 C-8.41589934 24.54807704 -10.3831373 27.38428817 -12.375 30.5 C-6.60668342 35.87194039 -0.94865823 41.11756118 5.625 45.5 C7.0466447 43.96292261 8.46207762 42.42009899 9.875 40.875 C10.66390625 40.01648438 11.4528125 39.15796875 12.265625 38.2734375 C14.66589934 35.45192296 16.6331373 32.61571183 18.625 29.5 C16.75471875 27.74471987 14.8790838 25.99581545 13 24.25 C12.47792969 23.75886719 11.95585937 23.26773438 11.41796875 22.76171875 C8.01145667 19.6075409 4.5530064 16.97712115 0.625 14.5 Z " fill="#464646" transform="translate(227.375,148.5)"/>
<path d="M0 0 C0.66 0.33 1.32 0.66 2 1 C2 1.66 2 2.32 2 3 C2.53109375 3.22300781 3.0621875 3.44601563 3.609375 3.67578125 C6.82432976 5.45661403 9.48488454 7.79307467 12.25 10.1875 C12.82339111 10.68072754 13.39678223 11.17395508 13.98754883 11.68212891 C15.13241687 12.66767875 16.2760806 13.65462955 17.41845703 14.64306641 C18.78382586 15.81452673 20.16943056 16.9623253 21.55859375 18.10546875 C26.0373447 21.82817367 28.33500167 24.3586499 29.40234375 30.203125 C28.77323417 34.57635273 25.99914654 36.95959222 23.0625 40.125 C21.86842441 41.45189588 20.675725 42.78003142 19.484375 44.109375 C18.89333984 44.76357422 18.30230469 45.41777344 17.69335938 46.09179688 C14.55919059 49.62361107 11.64502646 53.32777748 8.70703125 57.0234375 C6.18984369 59.93807573 5.21521595 59.97859108 1.26953125 60.37109375 C-3.41788319 60.30239433 -6.02666393 58.21694417 -9.3125 55.0625 C-10.43125182 54.04963151 -11.55106222 53.03793117 -12.671875 52.02734375 C-13.22552734 51.51800293 -13.77917969 51.00866211 -14.34960938 50.48388672 C-17.65102425 47.51554358 -21.17927799 44.82360869 -24.66015625 42.0703125 C-28.57403609 38.60728026 -30.83055146 36.33440728 -31.5 31.0625 C-31.04151842 23.6017543 -25.10441343 18.76054869 -20.3125 13.53515625 C-17.67490241 10.64360078 -15.13222905 7.67984621 -12.60546875 4.69140625 C-8.5154221 0.38242766 -6.01157149 -0.44530159 0 0 Z M-4.3828125 16.25 C-8.78547222 20.67240259 -12.94623459 25.25623197 -17 30 C-13.89343328 34.26768447 -10.44094906 37.20382899 -6.25 40.3125 C-5.64800781 40.76689453 -5.04601562 41.22128906 -4.42578125 41.68945312 C-2.95473262 42.79857709 -1.47794588 43.90008363 0 45 C3.86779381 42.11461208 6.80698215 39.01811193 9.8125 35.25 C10.99779297 33.77273437 10.99779297 33.77273437 12.20703125 32.265625 C12.79871094 31.51796875 13.39039063 30.7703125 14 30 C9.54476058 24.00847112 3.94069529 19.48542429 -2 15 C-3.18703553 14.888236 -3.18703553 14.888236 -4.3828125 16.25 Z " fill="#474747" transform="translate(223,70)"/>
<path d="M0 0 C4.24441091 2.4900544 7.78230449 5.46739494 11.375 8.8125 C15.31250812 12.44959878 19.2844139 16.02702639 23.34375 19.52734375 C27.87098152 23.55273592 27.87098152 23.55273592 28.9375 27.25 C29.09112911 36.46774678 20.87112974 42.70499453 15 49 C13.11032515 51.13495258 11.24003386 53.28496084 9.375 55.44140625 C6.28677465 58.94197987 6.28677465 58.94197987 3.91601562 59.42163086 C-2.34864221 59.68550215 -5.66563415 58.54587663 -10.41796875 54.47875977 C-11.10503906 53.84639404 -11.79210937 53.21402832 -12.5 52.5625 C-13.22832031 51.92304443 -13.95664062 51.28358887 -14.70703125 50.62475586 C-16.15462576 49.34959351 -17.59372621 48.06471251 -19.0234375 46.76953125 C-20.74135911 45.23155005 -22.48698433 43.75963387 -24.28125 42.3125 C-28.10522 39.14783518 -30.59690627 37.06270166 -32.375 32.375 C-31.48328705 24.34958348 -25.90444655 19.52650127 -20.609375 13.86328125 C-17.40823248 10.35065031 -14.49116783 6.66270575 -11.59375 2.8984375 C-8.55631856 -0.71967936 -4.44730817 -0.83578722 0 0 Z M-4 14 C-11.05534364 21.56989451 -11.05534364 21.56989451 -17 30 C-11.86877855 35.25404324 -6.5930976 40.23991693 -1 45 C4.59753384 40.45200375 9.3143947 35.47668152 14 30 C9.3532398 23.7509087 3.00630687 17.50315344 -4 14 Z " fill="#474747" transform="translate(320,223)"/>
<path d="M0 0 C6.25226047 0.13586988 9.44474562 2.85856469 13.90625 6.96484375 C14.63457031 7.60429932 15.36289062 8.24375488 16.11328125 8.90258789 C17.56087576 10.17775024 18.99997621 11.46263124 20.4296875 12.7578125 C22.14760911 14.2957937 23.89323433 15.76770988 25.6875 17.21484375 C29.51147 20.37950857 32.00315627 22.46464209 33.78125 27.15234375 C32.88953705 35.17776027 27.31069655 40.00084248 22.015625 45.6640625 C18.81448248 49.17669344 15.89741783 52.864638 13 56.62890625 C11.40625 58.52734375 11.40625 58.52734375 9.40625 59.52734375 C3.06816725 60.05551731 0.64833988 59.42222987 -4.59375 55.52734375 C-6.41688224 53.9590297 -8.20868141 52.35361729 -9.96875 50.71484375 C-13.90625812 47.07774497 -17.8781639 43.50031736 -21.9375 40 C-26.46473152 35.97460783 -26.46473152 35.97460783 -27.53125 32.27734375 C-27.68487911 23.05959697 -19.46487974 16.82234922 -13.59375 10.52734375 C-11.70407515 8.39239117 -9.83378386 6.24238291 -7.96875 4.0859375 C-5.2594421 1.01487542 -4.1050875 0.17290884 0 0 Z M0.40625 14.52734375 C-1.0153947 16.06442114 -2.43082762 17.60724476 -3.84375 19.15234375 C-4.63265625 20.01085937 -5.4215625 20.869375 -6.234375 21.75390625 C-8.63464934 24.57542079 -10.6018873 27.41163192 -12.59375 30.52734375 C-10.72346875 32.28262388 -8.8478338 34.0315283 -6.96875 35.77734375 C-6.44667969 36.26847656 -5.92460937 36.75960937 -5.38671875 37.265625 C-1.98020667 40.41980285 1.4782436 43.0502226 5.40625 45.52734375 C6.8278947 43.99026636 8.24332762 42.44744274 9.65625 40.90234375 C10.44515625 40.04382813 11.2340625 39.1853125 12.046875 38.30078125 C14.44714934 35.47926671 16.4143873 32.64305558 18.40625 29.52734375 C16.53596875 27.77206362 14.6603338 26.0231592 12.78125 24.27734375 C12.25917969 23.78621094 11.73710937 23.29507813 11.19921875 22.7890625 C7.79270667 19.63488465 4.3342564 17.0044649 0.40625 14.52734375 Z " fill="#474747" transform="translate(350.59375,181.47265625)"/>
<path d="M0 0 C2.70346471 1.43588553 4.75040793 3.31352471 6.9375 5.4375 C7.53087158 5.98011475 8.12424316 6.52272949 8.7355957 7.08178711 C9.93562128 8.18185099 11.12744623 9.29093339 12.31054688 10.40917969 C13.85690475 11.86525886 15.42558872 13.28726832 17.015625 14.6953125 C27.75445053 24.20953512 27.75445053 24.20953512 28.375 28.734375 C27.88189968 33.02845698 25.83418908 35.20189239 23 38.25 C21.98705567 39.38823342 20.97534773 40.52756828 19.96484375 41.66796875 C19.46194824 42.22790527 18.95905273 42.7878418 18.44091797 43.36474609 C15.74282172 46.42673333 13.26451099 49.66338009 10.75390625 52.87890625 C5.87042166 58.78476846 5.87042166 58.78476846 2.8515625 59.53125 C1.74941406 59.51578125 1.74941406 59.51578125 0.625 59.5 C-0.10460937 59.5103125 -0.83421875 59.520625 -1.5859375 59.53125 C-7.36770463 58.25888701 -11.97600237 53.47699002 -16.375 49.6875 C-16.93864258 49.20547119 -17.50228516 48.72344238 -18.08300781 48.22680664 C-19.20548155 47.26544355 -20.32661481 46.30251275 -21.44628906 45.33789062 C-22.822288 44.15302668 -24.20371779 42.97447608 -25.5859375 41.796875 C-31.76366034 36.48893985 -31.76366034 36.48893985 -32.625 31.0625 C-32.54665916 24.06778173 -27.44635842 19.90377502 -23 15 C-21.40761468 13.028109 -19.82396027 11.04912885 -18.25 9.0625 C-12.96677717 2.41933648 -8.86855419 -1.86716483 0 0 Z M-7.6875 17.5 C-11.54622318 21.39348645 -14.85365815 25.51884646 -18 30 C-16.12971875 31.75528013 -14.2540838 33.50418455 -12.375 35.25 C-11.85292969 35.74113281 -11.33085937 36.23226562 -10.79296875 36.73828125 C-7.38645667 39.8924591 -3.9280064 42.52287885 0 45 C7.05534364 37.43010549 7.05534364 37.43010549 13 29 C7.88926294 23.76693147 2.72535552 18.56886226 -3 14 C-4.9594489 14 -6.3909363 16.21578453 -7.6875 17.5 Z " fill="#464646" transform="translate(145,75)"/>
<path d="M0 0 C0.74765625 -0.02835937 1.4953125 -0.05671875 2.265625 -0.0859375 C8.08903346 0.99450621 12.73381179 5.90398858 17.125 9.6875 C17.97155151 10.41271851 17.97155151 10.41271851 18.83520508 11.15258789 C19.95819067 12.11567446 21.08005104 13.08007492 22.20068359 14.04589844 C23.55829716 15.21054518 24.92854566 16.36043021 26.30078125 17.5078125 C27.00589844 18.10335938 27.71101563 18.69890625 28.4375 19.3125 C29.03949219 19.81652344 29.64148438 20.32054687 30.26171875 20.83984375 C33.10942762 23.77724424 33.75772484 25.55230425 33.71875 29.703125 C32.50060894 34.32027256 30.4540426 36.69572659 27.25 40.125 C26.1576285 41.34134829 25.06649666 42.55881095 23.9765625 43.77734375 C23.43290039 44.37788574 22.88923828 44.97842773 22.32910156 45.59716797 C19.24347135 49.07112579 16.38773074 52.73059422 13.4921875 56.36328125 C10.93102231 59.32068052 10.01549483 59.35287543 6 59.6875 C0.58095275 59.99685506 -2.99659419 56.46524056 -6.890625 53.078125 C-8.18226563 51.86382812 -8.18226563 51.86382812 -9.5 50.625 C-13.95421785 46.50027224 -18.54205682 42.6707039 -23.3515625 38.96875 C-25.49860985 37.16629049 -26.15011403 36.19373747 -26.48828125 33.421875 C-26.79026157 24.0763789 -21.61487576 19.51719927 -15.5703125 12.9140625 C-12.88377426 9.97424793 -10.26845814 6.97785478 -7.66015625 3.96875 C-5.02775929 0.993631 -3.98479739 0.06776866 0 0 Z M0.3671875 15.625 C-4.03547222 20.04740259 -8.19623459 24.63123197 -12.25 29.375 C-7.83212227 35.31628384 -2.32029182 40.14646855 3.75 44.375 C6.69866082 44.70765234 6.69866082 44.70765234 8.19213867 43.08984375 C8.6791626 42.50332031 9.16618652 41.91679687 9.66796875 41.3125 C10.46557617 40.36503906 10.46557617 40.36503906 11.27929688 39.3984375 C11.82650391 38.73070312 12.37371094 38.06296875 12.9375 37.375 C13.49630859 36.70726562 14.05511719 36.03953125 14.63085938 35.3515625 C16.01174149 33.69922493 17.38189731 32.03793412 18.75 30.375 C15.20497977 26.09960258 11.60107708 22.13354339 7.4375 18.4375 C6.57511719 17.66535156 5.71273438 16.89320313 4.82421875 16.09765625 C2.49855834 13.89733274 2.49855834 13.89733274 0.3671875 15.625 Z " fill="#474747" transform="translate(324.25,300.625)"/>
<path d="M0 0 C1.09441406 -0.01546875 1.09441406 -0.01546875 2.2109375 -0.03125 C7.78684724 1.19581104 11.93359029 5.52632674 16 9.3125 C19.92149686 12.94015173 23.88492566 16.48612376 27.96875 19.9296875 C31.04143916 22.84294468 32.49215913 24.86900585 33.375 29.0625 C33.1227478 35.54898505 27.71336912 39.93537609 23.625 44.5 C22.03386738 46.47290196 20.45024859 48.45189253 18.875 50.4375 C12.07858301 58.98336506 12.07858301 58.98336506 7.54956055 59.93701172 C3.310888 60.21824214 0.4434478 59.80025793 -2.96484375 57.19140625 C-4.10122267 56.17080495 -5.21676231 55.12661606 -6.3125 54.0625 C-6.90587158 53.51988525 -7.49924316 52.97727051 -8.1105957 52.41821289 C-9.31062128 51.31814901 -10.50244623 50.20906661 -11.68554688 49.09082031 C-13.23190475 47.63474114 -14.80058872 46.21273168 -16.390625 44.8046875 C-27.06743139 35.34541166 -27.06743139 35.34541166 -27.8125 30.875 C-27.16078592 25.84749139 -24.62140974 23.29231764 -21.375 19.5 C-20.8814502 18.91911621 -20.38790039 18.33823242 -19.87939453 17.73974609 C-16.0896059 13.28649314 -12.27204362 8.85980926 -8.375 4.5 C-7.67375 3.70078125 -6.9725 2.9015625 -6.25 2.078125 C-4.00714964 0.19039261 -2.90201689 -0.04073006 0 0 Z M0.625 14.5 C-6.43034364 22.06989451 -6.43034364 22.06989451 -12.375 30.5 C-7.24377855 35.75404324 -1.9680976 40.73991693 3.625 45.5 C9.22253384 40.95200375 13.9393947 35.97668152 18.625 30.5 C13.9782398 24.2509087 7.63130687 18.00315344 0.625 14.5 Z " fill="#464646" transform="translate(281.375,263.5)"/>
<path d="M0 0 C6.25226047 0.13586988 9.44474562 2.85856469 13.90625 6.96484375 C14.63457031 7.60429932 15.36289062 8.24375488 16.11328125 8.90258789 C17.56087576 10.17775024 18.99997621 11.46263124 20.4296875 12.7578125 C22.14760911 14.2957937 23.89323433 15.76770988 25.6875 17.21484375 C29.51147 20.37950857 32.00315627 22.46464209 33.78125 27.15234375 C32.88750691 35.19603153 27.24921323 40.11746651 21.9453125 45.8046875 C19.18284921 48.76689814 16.52353868 51.80409988 13.87890625 54.87109375 C13.39292969 55.41765625 12.90695312 55.96421875 12.40625 56.52734375 C12.01308594 57.09453125 11.61992187 57.66171875 11.21484375 58.24609375 C8.73690697 60.00152196 6.45492218 60.05745678 3.47509766 59.93701172 C-0.07623511 59.23378581 -2.3797307 57.0149349 -4.90625 54.58984375 C-6.0250898 53.57837317 -7.14489867 52.56797362 -8.265625 51.55859375 C-8.81927734 51.04941406 -9.37292969 50.54023438 -9.94335938 50.015625 C-12.43455467 47.76912699 -15.03948811 45.68885061 -17.65625 43.58984375 C-26.32452579 36.61611811 -26.32452579 36.61611811 -27.125 33.37890625 C-26.99643306 24.21851195 -21.86644659 19.56884563 -15.9140625 13.06640625 C-13.22752426 10.12659168 -10.61220814 7.13019853 -8.00390625 4.12109375 C-5.27709607 1.0392695 -4.12772996 0.17386256 0 0 Z M0.0234375 15.77734375 C-4.37922222 20.19974634 -8.53998459 24.78357572 -12.59375 29.52734375 C-9.48718328 33.79502822 -6.03469906 36.73117274 -1.84375 39.83984375 C-1.24175781 40.29423828 -0.63976562 40.74863281 -0.01953125 41.21679688 C1.45151738 42.32592084 2.92830412 43.42742738 4.40625 44.52734375 C8.27404381 41.64195583 11.21323215 38.54545568 14.21875 34.77734375 C15.40404297 33.30007812 15.40404297 33.30007812 16.61328125 31.79296875 C17.20496094 31.0453125 17.79664063 30.29765625 18.40625 29.52734375 C13.95101058 23.53581487 8.34694529 19.01276804 2.40625 14.52734375 C1.21921447 14.41557975 1.21921447 14.41557975 0.0234375 15.77734375 Z " fill="#464646" transform="translate(262.59375,107.47265625)"/>
<path d="M0 0 C1.8871875 0.061875 1.8871875 0.061875 3.8125 0.125 C4.3075 1.61 4.3075 1.61 4.8125 3.125 C6.13705538 3.80894098 7.47293281 4.47094958 8.8125 5.125 C10.93864648 6.82085493 13.00850517 8.53386279 15.0625 10.3125 C15.63589111 10.80572754 16.20928223 11.29895508 16.80004883 11.80712891 C17.94491687 12.79267875 19.0885806 13.77962955 20.23095703 14.76806641 C21.59632586 15.93952673 22.98193056 17.0873253 24.37109375 18.23046875 C28.850504 21.95372167 31.13983157 24.48353533 32.21875 30.32421875 C31.58117454 34.71981109 28.76512854 37.1313774 25.8125 40.3125 C24.61690618 41.64050327 23.42289611 42.96993407 22.23046875 44.30078125 C21.64571777 44.94869629 21.0609668 45.59661133 20.45849609 46.26416016 C17.58502473 49.51269156 14.94769306 52.93243684 12.30078125 56.3671875 C10.06041912 59.0132845 7.9214244 59.52041502 4.5625 59.9375 C-3.24102972 59.89245798 -8.13834377 53.74650195 -13.46240234 48.71142578 C-16.8273828 45.61693908 -20.47711539 42.87512289 -24.078125 40.0625 C-27.54189696 36.88096131 -28.0796481 35.01137947 -28.65234375 30.3046875 C-28.51233366 25.30366602 -26.09064397 22.74155705 -22.75 19.25 C-22.20738525 18.6528418 -21.66477051 18.05568359 -21.10571289 17.44042969 C-20.00456513 16.23128817 -18.89546884 15.02933473 -17.77832031 13.83496094 C-16.32150137 12.26903707 -14.8999706 10.68027156 -13.4921875 9.0703125 C-5.37141472 -0.17611196 -5.37141472 -0.17611196 0 0 Z M-1.5703125 16.375 C-5.97297222 20.79740259 -10.13373459 25.38123197 -14.1875 30.125 C-10.59907029 33.81995081 -6.85578129 37.17258217 -2.875 40.4375 C-2.32521484 40.89189453 -1.77542969 41.34628906 -1.20898438 41.81445312 C0.12962216 42.92025852 1.47079231 44.02295939 2.8125 45.125 C6.68029381 42.23961208 9.61948215 39.14311193 12.625 35.375 C13.81029297 33.89773437 13.81029297 33.89773437 15.01953125 32.390625 C15.61121094 31.64296875 16.20289063 30.8953125 16.8125 30.125 C12.35726058 24.13347112 6.75319529 19.61042429 0.8125 15.125 C-0.37453553 15.013236 -0.37453553 15.013236 -1.5703125 16.375 Z " fill="#464646" transform="translate(176.1875,32.875)"/>
<path d="M0 0 C6.25134647 0.13585002 9.44609878 2.8577595 13.90625 6.96484375 C14.63384521 7.60647461 15.36144043 8.24810547 16.11108398 8.90917969 C17.55720086 10.18740498 18.99554205 11.47449071 20.42529297 12.77099609 C22.14605475 14.29665055 23.89325819 15.71816971 25.72265625 17.109375 C29.77296584 20.30698783 33.00113494 22.92549219 33.78125 28.21484375 C33.02215896 35.49985183 26.82323299 40.80321153 22.00146484 45.84960938 C19.69868001 48.27151592 17.4971949 50.77582031 15.28125 53.27734375 C9.65785108 59.49810006 9.65785108 59.49810006 5.67578125 59.9609375 C1.00840169 59.83359749 -1.631191 57.73342417 -4.90625 54.58984375 C-6.0250898 53.57837317 -7.14489867 52.56797362 -8.265625 51.55859375 C-8.81927734 51.04941406 -9.37292969 50.54023438 -9.94335938 50.015625 C-12.43455467 47.76912699 -15.03948811 45.68885061 -17.65625 43.58984375 C-26.24598909 36.67930178 -26.24598909 36.67930178 -27.59375 32.21484375 C-27.59375 23.02347639 -19.46189597 16.81915003 -13.59375 10.52734375 C-11.70407515 8.39239117 -9.83378386 6.24238291 -7.96875 4.0859375 C-5.2594421 1.01487542 -4.1050875 0.17290884 0 0 Z M0.40625 14.52734375 C-1.0153947 16.06442114 -2.43082762 17.60724476 -3.84375 19.15234375 C-4.63265625 20.01085937 -5.4215625 20.869375 -6.234375 21.75390625 C-8.63464934 24.57542079 -10.6018873 27.41163192 -12.59375 30.52734375 C-6.82543342 35.89928414 -1.16740823 41.14490493 5.40625 45.52734375 C6.8278947 43.99026636 8.24332762 42.44744274 9.65625 40.90234375 C10.44515625 40.04382813 11.2340625 39.1853125 12.046875 38.30078125 C14.44714934 35.47926671 16.4143873 32.64305558 18.40625 29.52734375 C16.53596875 27.77206362 14.6603338 26.0231592 12.78125 24.27734375 C12.25917969 23.78621094 11.73710938 23.29507813 11.19921875 22.7890625 C7.79270667 19.63488465 4.3342564 17.0044649 0.40625 14.52734375 Z " fill="#464646" transform="translate(105.59375,115.47265625)"/>
<path d="M0 0 C6.25226047 0.13586988 9.44474562 2.85856469 13.90625 6.96484375 C14.63457031 7.60429932 15.36289062 8.24375488 16.11328125 8.90258789 C17.56087576 10.17775024 18.99997621 11.46263124 20.4296875 12.7578125 C22.14760911 14.2957937 23.89323433 15.76770988 25.6875 17.21484375 C29.51147 20.37950857 32.00315627 22.46464209 33.78125 27.15234375 C32.88750691 35.19603153 27.24921323 40.11746651 21.9453125 45.8046875 C19.18284921 48.76689814 16.52353868 51.80409988 13.87890625 54.87109375 C13.39292969 55.41765625 12.90695312 55.96421875 12.40625 56.52734375 C12.01308594 57.09453125 11.61992187 57.66171875 11.21484375 58.24609375 C8.73690697 60.00152196 6.45492218 60.05745678 3.47509766 59.93701172 C-0.07623511 59.23378581 -2.3797307 57.0149349 -4.90625 54.58984375 C-6.0250898 53.57837317 -7.14489867 52.56797362 -8.265625 51.55859375 C-8.81927734 51.04941406 -9.37292969 50.54023438 -9.94335938 50.015625 C-12.43455467 47.76912699 -15.03948811 45.68885061 -17.65625 43.58984375 C-26.32452579 36.61611811 -26.32452579 36.61611811 -27.125 33.37890625 C-26.99643306 24.21851195 -21.86644659 19.56884563 -15.9140625 13.06640625 C-13.22752426 10.12659168 -10.61220814 7.13019853 -8.00390625 4.12109375 C-5.27709607 1.0392695 -4.12772996 0.17386256 0 0 Z M0.40625 14.52734375 C-1.06472325 16.03710534 -2.49513464 17.58649069 -3.90625 19.15234375 C-4.68613281 20.01085937 -5.46601563 20.869375 -6.26953125 21.75390625 C-8.63699746 24.57894996 -10.60808172 27.42842895 -12.59375 30.52734375 C-10.72346875 32.28262388 -8.8478338 34.0315283 -6.96875 35.77734375 C-6.44667969 36.26847656 -5.92460937 36.75960937 -5.38671875 37.265625 C-1.98020667 40.41980285 1.4782436 43.0502226 5.40625 45.52734375 C7.01481218 43.63509518 8.61811966 41.7387835 10.21875 39.83984375 C10.67056641 39.30939453 11.12238281 38.77894531 11.58789062 38.23242188 C14.18526874 35.14211069 16.43773764 32.05235426 18.40625 28.52734375 C10.10891435 19.76987254 10.10891435 19.76987254 0.40625 14.52734375 Z " fill="#474747" transform="translate(306.59375,144.47265625)"/>
<path d="M0 0 C2.70346471 1.43588553 4.75040793 3.31352471 6.9375 5.4375 C7.53087158 5.98011475 8.12424316 6.52272949 8.7355957 7.08178711 C9.93562128 8.18185099 11.12744623 9.29093339 12.31054688 10.40917969 C13.85690475 11.86525886 15.42558872 13.28726832 17.015625 14.6953125 C27.69243139 24.15458834 27.69243139 24.15458834 28.4375 28.625 C27.78578592 33.65250861 25.24640974 36.20768236 22 40 C21.5064502 40.58088379 21.01290039 41.16176758 20.50439453 41.76025391 C13.81576733 49.61983441 13.81576733 49.61983441 10.41699219 53.39257812 C8.87629226 55.09715383 8.87629226 55.09715383 7.1640625 57.453125 C4.20893436 59.56545486 1.97834801 59.70958122 -1.60986328 59.53857422 C-6.11816365 58.52271001 -9.08884094 55.6054659 -12.4375 52.5625 C-13.17033203 51.92666992 -13.90316406 51.29083984 -14.65820312 50.63574219 C-16.79075905 48.77704935 -18.89635435 46.89127074 -21 45 C-22.09333269 44.04360376 -23.18818705 43.08894178 -24.28515625 42.13671875 C-31.85580553 35.4810832 -31.85580553 35.4810832 -32.2734375 31.19140625 C-31.94676917 27.37872021 -30.96470508 25.92917824 -28.625 22.9375 C-27.89925781 21.99648438 -27.17351562 21.05546875 -26.42578125 20.0859375 C-25.22501953 18.55839844 -25.22501953 18.55839844 -24 17 C-23.13629803 15.84861707 -22.275688 14.69490913 -21.41796875 13.5390625 C-20.55001816 12.37980458 -19.68153762 11.22094324 -18.8125 10.0625 C-18.40918457 9.51907959 -18.00586914 8.97565918 -17.59033203 8.41577148 C-12.57669658 1.84113275 -8.47341044 -1.78397218 0 0 Z M-5.3828125 15.25 C-9.78547222 19.67240259 -13.94623459 24.25623197 -18 29 C-13.58212227 34.94128384 -8.07029182 39.77146855 -2 44 C0.94866082 44.33265234 0.94866082 44.33265234 2.44213867 42.71484375 C2.9291626 42.12832031 3.41618652 41.54179687 3.91796875 40.9375 C4.71557617 39.99003906 4.71557617 39.99003906 5.52929688 39.0234375 C6.07650391 38.35570312 6.62371094 37.68796875 7.1875 37 C7.74630859 36.33226562 8.30511719 35.66453125 8.88085938 34.9765625 C10.26174149 33.32422493 11.63189731 31.66293412 13 30 C9.45497977 25.72460258 5.85107708 21.75854339 1.6875 18.0625 C0.82511719 17.29035156 -0.03726562 16.51820313 -0.92578125 15.72265625 C-3.25144166 13.52233274 -3.25144166 13.52233274 -5.3828125 15.25 Z " fill="#464646" transform="translate(364,260)"/>
</svg>
