<?xml version="1.0" encoding="UTF-8"?>
<svg version="1.1" xmlns="http://www.w3.org/2000/svg" width="512" height="512">
<path d="M0 0 C2.97639113 0.0046211 5.95237264 -0.00226212 8.92871094 -0.02050781 C61.58651154 -0.34021227 110.87440676 11.32864594 152.35546875 45.31567383 C152.87915039 45.7378418 153.40283203 46.16000977 153.94238281 46.5949707 C177.41657289 65.55105619 196.00939673 88.8080589 210.35546875 115.31567383 C210.73268066 116.01257324 211.10989258 116.70947266 211.49853516 117.42749023 C221.35244513 136.02904113 228.16533099 156.77067102 232.35546875 177.37817383 C232.53883789 178.27810059 232.72220703 179.17802734 232.91113281 180.10522461 C236.23593513 198.11617205 236.66958652 216.32965248 236.65625 234.58911133 C236.66015145 236.85486935 236.66448901 239.12062665 236.66923523 241.38638306 C236.67662653 246.09412021 236.6764561 250.80178224 236.67114258 255.50952148 C236.66532427 261.50380346 236.68237066 267.49777882 236.70548725 273.49201012 C236.72029534 278.15578976 236.72108725 282.81949645 236.71797752 287.48329544 C236.71848609 289.69260902 236.72363498 291.9019272 236.73378944 294.1112175 C236.84066086 320.57988018 232.14233842 343.97776878 213.03515625 363.63208008 C212.15085937 364.51766602 211.2665625 365.40325195 210.35546875 366.31567383 C209.69804687 366.98469727 209.040625 367.6537207 208.36328125 368.34301758 C195.32962817 380.67744034 176.45727284 387.78754251 158.73046875 388.56567383 C153.67944854 388.94378692 150.94303936 390.49377683 147.20703125 393.84301758 C140.9728915 398.80139455 132.87578525 397.97100428 125.35546875 397.31567383 C122.29042221 396.4160989 119.93923429 395.17134584 117.35546875 393.31567383 C116.46859375 392.73817383 115.58171875 392.16067383 114.66796875 391.56567383 C110.33825809 387.35298238 106.54299927 381.88211489 106.21845436 375.70994473 C106.21288206 374.65641843 106.20730976 373.60289213 106.2015686 372.5174408 C106.19296814 371.30771606 106.18436768 370.09799133 106.17550659 368.85160828 C106.17107142 367.50882001 106.16677306 366.16603129 106.16259766 364.82324219 C106.15469467 363.41046956 106.14642559 361.99769893 106.13781738 360.58493042 C106.11161093 355.94181237 106.09628698 351.2986854 106.08203125 346.65551758 C106.07667022 345.05502377 106.07129271 343.45453003 106.0658989 341.85403633 C106.0442685 335.19284693 106.02553467 328.53165993 106.0142765 321.8704443 C105.99805722 312.33750807 105.96493081 302.80498073 105.90787566 293.27219862 C105.86909575 286.56290788 105.84963408 279.8537261 105.84435594 273.14432627 C105.84071227 269.14092731 105.82879754 265.13796457 105.7962532 261.13468742 C105.76603167 257.36295107 105.75991012 253.59191162 105.77163696 249.8200798 C105.77196061 247.7894663 105.74758687 245.7588949 105.72225952 243.72843933 C105.78094867 235.05423985 107.08528188 227.98042542 113.09659767 221.41366482 C119.41121344 215.47927027 126.82151839 213.31567383 135.35546875 213.31567383 C141.34653965 214.0052935 147.66879418 216.37435316 151.80566406 220.90332031 C153.71717598 222.64530148 154.78815125 222.77227542 157.33984375 222.97583008 C158.11070312 223.04737305 158.8815625 223.11891602 159.67578125 223.19262695 C160.47757812 223.25385742 161.279375 223.31508789 162.10546875 223.37817383 C167.78034208 223.84797892 172.92322425 224.56544532 178.35546875 226.31567383 C174.49254064 184.04475318 162.8297026 144.93608976 133.35546875 113.31567383 C132.8140625 112.73043945 132.27265625 112.14520508 131.71484375 111.54223633 C105.15940481 83.12543485 67.75472376 64.35838377 28.53979492 63.01269531 C22.0745267 62.86790123 15.61064951 62.84650741 9.14404297 62.86962891 C6.45850396 62.87880066 3.77383603 62.87192006 1.08837891 62.84912109 C-44.62502638 62.48871104 -84.18663472 75.26900668 -117.64453125 107.31567383 C-118.76021484 108.35401367 -118.76021484 108.35401367 -119.8984375 109.41333008 C-150.90469828 139.1254165 -166.5239769 183.07077495 -167.64453125 225.31567383 C-167.061875 225.18290039 -166.47921875 225.05012695 -165.87890625 224.91333008 C-161.03734303 223.87041473 -156.47374152 223.23585662 -151.51953125 223.06567383 C-145.29667034 222.64229561 -142.23101264 220.28411872 -137.64453125 216.31567383 C-132.02789075 213.21174092 -124.68445713 212.63410938 -118.45703125 214.00317383 C-110.89261312 216.32718181 -104.80210236 220.50302018 -100.64453125 227.31567383 C-97.4826604 235.10834806 -97.21525156 242.54869737 -97.25634766 250.8684082 C-97.25227339 252.20339892 -97.24692675 253.53838625 -97.24041748 254.87336731 C-97.22683942 258.47052478 -97.23200273 262.06742168 -97.24155474 265.66458321 C-97.24920106 269.44619525 -97.24209202 273.22778641 -97.23739624 277.00939941 C-97.23195307 283.35746221 -97.23909236 289.70541998 -97.25341797 296.0534668 C-97.26974176 303.37101774 -97.26445223 310.68831784 -97.24793875 318.00586271 C-97.23428271 324.31192262 -97.23242427 330.61790744 -97.24025476 336.92397738 C-97.24490873 340.68008816 -97.24561936 344.43608142 -97.23564529 348.19218445 C-97.2269176 351.72508554 -97.23310205 355.25766624 -97.25032806 358.79053307 C-97.25612445 360.68980353 -97.24732713 362.5891014 -97.23794556 364.48835754 C-97.31653454 375.190821 -98.77990962 383.5819284 -106.4296875 391.39770508 C-113.33490483 397.37735536 -120.1170257 397.95833665 -129.109375 397.70629883 C-134.84201052 397.07285844 -138.64682589 395.27245785 -142.7421875 391.26098633 C-146.83419306 388.51829619 -150.6314653 388.4066294 -155.45703125 387.94067383 C-177.48503053 385.29334387 -195.57386719 375.05199374 -210.2578125 358.36254883 C-223.393423 341.59368435 -230.2727093 320.35760065 -228.1652832 299.08666992 C-227.56187919 292.0942784 -227.44856331 285.12090974 -227.38417053 278.10835075 C-227.36269247 275.77916694 -227.33571276 273.45009833 -227.30749512 271.12098694 C-227.24841658 266.16509662 -227.19607299 261.20914744 -227.14453125 256.25317383 C-226.59806711 203.99482126 -226.59806711 203.99482126 -223.89453125 187.31567383 C-223.72042725 186.21827881 -223.54632324 185.12088379 -223.36694336 183.99023438 C-221.75320516 174.23887847 -219.50320971 164.77198657 -216.64453125 155.31567383 C-216.4527832 154.66630859 -216.26103516 154.01694336 -216.06347656 153.34790039 C-207.95955132 126.21858093 -193.90946989 99.93406822 -175.64453125 78.31567383 C-175.19319824 77.77555664 -174.74186523 77.23543945 -174.27685547 76.67895508 C-164.88180516 65.44581013 -155.17265056 55.41196023 -143.64453125 46.31567383 C-142.66871094 45.52290039 -141.69289063 44.73012695 -140.6875 43.91333008 C-116.16738978 24.38977062 -87.4068065 11.31703916 -56.89453125 4.50317383 C-56.02119141 4.30804199 -55.14785156 4.11291016 -54.24804688 3.91186523 C-51.38827985 3.31493892 -48.52552924 2.80008741 -45.64453125 2.31567383 C-44.54834473 2.12803467 -43.4521582 1.94039551 -42.32275391 1.74707031 C-28.29858507 -0.27165534 -14.13694541 -0.02374137 0 0 Z M-61.26953125 23.00317383 C-62.21135254 23.25736084 -63.15317383 23.51154785 -64.12353516 23.7734375 C-94.76045923 32.35619478 -121.54298588 48.62315889 -144.64453125 70.31567383 C-145.17062988 70.80777344 -145.69672852 71.29987305 -146.23876953 71.80688477 C-160.449012 85.20874786 -171.87159245 100.43253228 -181.64453125 117.31567383 C-182.03092773 117.98002441 -182.41732422 118.644375 -182.81542969 119.32885742 C-206.54959806 160.67962772 -210.18809321 205.65715117 -209.64453125 252.31567383 C-205.3796037 248.67921478 -201.16303601 245.00524769 -197.02734375 241.22192383 C-194.64453125 239.31567383 -194.64453125 239.31567383 -192.44555664 238.33007812 C-189.60856575 236.91314038 -187.76260151 235.69509846 -185.64453125 233.31567383 C-184.34766904 228.69274939 -184.0786545 224.20052296 -183.91290283 219.41744995 C-183.77674476 215.56314897 -183.49842223 211.71820397 -183.2421875 207.87036133 C-183.19608337 207.1183696 -183.14997925 206.36637787 -183.10247803 205.59159851 C-182.54955656 196.92651042 -180.87067147 188.69203236 -178.64453125 180.31567383 C-178.47759766 179.63972168 -178.31066406 178.96376953 -178.13867188 178.26733398 C-173.49145862 159.51378086 -165.40662429 141.35160305 -154.64453125 125.31567383 C-154.24766113 124.71964355 -153.85079102 124.12361328 -153.44189453 123.50952148 C-148.44627046 116.08048752 -143.0826611 109.29149808 -136.94140625 102.76879883 C-134.94134211 100.63267591 -133.07056963 98.44466786 -131.20703125 96.19067383 C-126.89998157 91.24964254 -121.80525735 87.32500287 -116.64453125 83.31567383 C-115.70480469 82.57188477 -114.76507813 81.8280957 -113.796875 81.06176758 C-84.46657657 58.36335359 -49.18265618 46.24110119 -12.125 46.11254883 C-10.83120926 46.10684875 -9.53741852 46.10114868 -8.204422 46.09527588 C-5.47034318 46.08482542 -2.73629318 46.07894587 -0.00219727 46.07543945 C2.75835573 46.07108018 5.51859172 46.05727696 8.27905273 46.03442383 C59.23975528 45.62112853 101.43999515 59.88654564 139.35546875 94.31567383 C140.51175781 95.36174805 140.51175781 95.36174805 141.69140625 96.42895508 C173.60030025 126.84008467 191.236811 172.03425506 194.35546875 215.31567383 C194.37174768 217.12550816 194.36615376 218.93570603 194.3359375 220.74536133 C193.9219454 229.5482023 193.9219454 229.5482023 197.6953125 237.10083008 C200.7022788 239.36885692 200.7022788 239.36885692 203.9921875 241.24926758 C207.75997361 243.56420236 210.5177557 246.1941649 213.54296875 249.37817383 C215.13360985 251.03708279 216.73338137 252.68749982 218.35546875 254.31567383 C218.68546875 254.31567383 219.01546875 254.31567383 219.35546875 254.31567383 C219.96403556 207.7556313 217.15351573 164.11583681 194.35546875 122.31567383 C194.03610352 121.71851563 193.71673828 121.12135742 193.38769531 120.50610352 C174.17014894 84.70488769 144.36603415 55.91779266 108.35546875 37.31567383 C107.34299072 36.78997803 107.34299072 36.78997803 106.31005859 36.25366211 C80.46108086 23.01483503 51.85340557 17.20700681 22.93359375 17.11254883 C22.25310722 17.10972145 21.5726207 17.10689407 20.87151337 17.10398102 C17.26052988 17.08907542 13.64958536 17.07979512 10.03857422 17.07543945 C7.1045266 17.07108136 4.17077744 17.0572818 1.23681641 17.03442383 C-19.90943095 16.87312546 -40.72951525 17.33593722 -61.26953125 23.00317383 Z M-130.64453125 232.31567383 C-134.08563944 235.90068736 -135.14499492 238.13456331 -135.15246582 243.08435059 C-135.16374512 244.23673721 -135.17502441 245.38912384 -135.18664551 246.57643127 C-135.17854858 247.83165085 -135.17045166 249.08687042 -135.16210938 250.38012695 C-135.16753268 251.72249612 -135.17465651 253.06485933 -135.18334961 254.4072113 C-135.20156162 258.04571353 -135.19452455 261.68376133 -135.18183327 265.32227135 C-135.17169445 269.13295069 -135.18110139 272.94359156 -135.18737793 276.75427246 C-135.19465179 283.15322849 -135.1850736 289.55199976 -135.16601562 295.95092773 C-135.14424723 303.34522385 -135.15129879 310.73907878 -135.17332125 318.1333642 C-135.1914828 324.48597056 -135.19402993 330.83844423 -135.18356657 337.19106817 C-135.17733573 340.98345514 -135.17648455 344.77563484 -135.18971252 348.56800842 C-135.20128159 352.13375018 -135.19322691 355.69892406 -135.1701355 359.26460457 C-135.16233772 361.1947006 -135.17419538 363.12484475 -135.18664551 365.05491638 C-135.16972656 366.78349632 -135.16972656 366.78349632 -135.15246582 368.54699707 C-135.15095772 369.54617912 -135.14944962 370.54536118 -135.14789581 371.57482147 C-134.50545038 375.07297808 -133.07026462 376.76397105 -130.64453125 379.31567383 C-127.42523552 380.9253217 -124.12565413 380.92253625 -120.64453125 380.31567383 C-117.4249848 377.78113726 -115.9402069 376.20270078 -114.64453125 372.31567383 C-114.54781386 370.52781482 -114.50957881 368.73655543 -114.50408936 366.9460907 C-114.49837921 365.83155518 -114.49266907 364.71701965 -114.48678589 363.56871033 C-114.48566803 362.3452742 -114.48455017 361.12183807 -114.48339844 359.86132812 C-114.47843353 358.57330292 -114.47346863 357.28527771 -114.46835327 355.95822144 C-114.45523646 352.42298551 -114.44878567 348.88776858 -114.44434261 345.35251212 C-114.44141059 343.14316093 -114.43730552 340.93381491 -114.43283844 338.72446632 C-114.41916509 331.80999357 -114.40949777 324.89553267 -114.40563655 317.98104733 C-114.40115673 310.00292132 -114.38361183 302.02496672 -114.35463595 294.04689282 C-114.33300897 287.87778393 -114.32293172 281.70872322 -114.32159543 275.53957683 C-114.32054808 271.85612289 -114.31465538 268.17283011 -114.29677582 264.48941612 C-114.27721123 260.37890625 -114.28158813 256.26875442 -114.28808594 252.15820312 C-114.27887115 250.94083969 -114.26965637 249.72347626 -114.26016235 248.46922302 C-114.23203321 240.4443441 -114.23203321 240.4443441 -117.64453125 233.31567383 C-122.7732709 230.17562914 -125.27298982 229.62990311 -130.64453125 232.31567383 Z M127.35546875 232.31567383 C123.91436056 235.90068736 122.85500508 238.13456331 122.84753418 243.08435059 C122.83625488 244.23673721 122.82497559 245.38912384 122.81335449 246.57643127 C122.82145142 247.83165085 122.82954834 249.08687042 122.83789062 250.38012695 C122.83246732 251.72249612 122.82534349 253.06485933 122.81665039 254.4072113 C122.79843838 258.04571353 122.80547545 261.68376133 122.81816673 265.32227135 C122.82830555 269.13295069 122.81889861 272.94359156 122.81262207 276.75427246 C122.80534821 283.15322849 122.8149264 289.55199976 122.83398438 295.95092773 C122.85575277 303.34522385 122.84870121 310.73907878 122.82667875 318.1333642 C122.8085172 324.48597056 122.80597007 330.83844423 122.81643343 337.19106817 C122.82266427 340.98345514 122.82351545 344.77563484 122.81028748 348.56800842 C122.79871841 352.13375018 122.80677309 355.69892406 122.8298645 359.26460457 C122.83766228 361.1947006 122.82580462 363.12484475 122.81335449 365.05491638 C122.83027344 366.78349632 122.83027344 366.78349632 122.84753418 368.54699707 C122.84904228 369.54617912 122.85055038 370.54536118 122.85210419 371.57482147 C123.49454962 375.07297808 124.92973538 376.76397105 127.35546875 379.31567383 C130.57476448 380.9253217 133.87434587 380.92253625 137.35546875 380.31567383 C140.5750152 377.78113726 142.0597931 376.20270078 143.35546875 372.31567383 C143.45218614 370.52781482 143.49042119 368.73655543 143.49591064 366.9460907 C143.50162079 365.83155518 143.50733093 364.71701965 143.51321411 363.56871033 C143.51433197 362.3452742 143.51544983 361.12183807 143.51660156 359.86132812 C143.52156647 358.57330292 143.52653137 357.28527771 143.53164673 355.95822144 C143.54476354 352.42298551 143.55121433 348.88776858 143.55565739 345.35251212 C143.55858941 343.14316093 143.56269448 340.93381491 143.56716156 338.72446632 C143.58083491 331.80999357 143.59050223 324.89553267 143.59436345 317.98104733 C143.59884327 310.00292132 143.61638817 302.02496672 143.64536405 294.04689282 C143.66699103 287.87778393 143.67706828 281.70872322 143.67840457 275.53957683 C143.67945192 271.85612289 143.68534462 268.17283011 143.70322418 264.48941612 C143.72278877 260.37890625 143.71841187 256.26875442 143.71191406 252.15820312 C143.72112885 250.94083969 143.73034363 249.72347626 143.73983765 248.46922302 C143.76796679 240.4443441 143.76796679 240.4443441 140.35546875 233.31567383 C135.2267291 230.17562914 132.72701018 229.62990311 127.35546875 232.31567383 Z M160.35546875 240.31567383 C160.35546875 283.54567383 160.35546875 326.77567383 160.35546875 371.31567383 C180.46306324 367.00690358 197.07355312 359.77890988 208.7265625 342.06958008 C218.24961235 325.96945982 222.13839927 308.56395772 217.73046875 290.19067383 C212.94390998 272.04299524 201.83694236 257.66035485 185.73046875 248.06567383 C178.16828987 243.74532022 169.14542598 240.31567383 160.35546875 240.31567383 Z M-193.64453125 260.31567383 C-206.09803531 274.66244708 -212.70089228 292.48946501 -211.4296875 311.53442383 C-209.02630497 330.39525436 -200.35102496 346.36102185 -185.64453125 358.31567383 C-175.35374133 365.74644882 -164.19744225 369.74655995 -151.64453125 371.31567383 C-151.64453125 328.08567383 -151.64453125 284.85567383 -151.64453125 240.31567383 C-167.66172004 240.31567383 -182.57448172 249.34216543 -193.64453125 260.31567383 Z " fill="#464646" transform="translate(251.64453125,56.684326171875)"/>
<path d="M0 0 C0.73089844 0.59554687 1.46179688 1.19109375 2.21484375 1.8046875 C2.79105469 2.25585938 3.36726563 2.70703125 3.9609375 3.171875 C6.52450717 5.39411953 7.27455638 7.0136817 8.21484375 10.3046875 C8.21484375 14.19905064 7.61108792 15.78719484 5.21484375 18.8046875 C1.74406625 20.54007625 -1.1028521 20.81321666 -4.78515625 19.8046875 C-7.30682467 17.95352051 -9.61295977 15.9579075 -11.93896484 13.86962891 C-26.04878354 1.44194941 -43.11938826 -1.33767204 -61.31152344 -0.40234375 C-74.60483494 0.71024292 -86.68982804 7.06260246 -96.59765625 15.7421875 C-102.07145002 20.41805215 -102.07145002 20.41805215 -106.22265625 20.6171875 C-109.78515625 19.8046875 -109.78515625 19.8046875 -112.28515625 18.3046875 C-113.98385035 15.47353067 -114.26416765 13.18684591 -114.31640625 9.90234375 C-112.31133429 1.98525814 -102.50238329 -3.32233045 -95.93798828 -7.3203125 C-65.06566289 -25.10226387 -27.96011884 -21.61127982 0 0 Z " fill="#464646" transform="translate(309.78515625,202.1953125)"/>
<path d="M0 0 C3.46527745 3.38827129 3.73571371 3.79784999 4.125 8.625 C4.06590627 11.57968653 3.87814964 12.64058393 2.3125 15.25 C-1.22452276 17.37221366 -4.24690482 17.71899881 -8.1875 16.75 C-10.38015962 15.41769825 -12.28197265 13.91117689 -14.26171875 12.28125 C-19.78333876 7.89083409 -26.28544354 6.60512925 -33.1875 6.75 C-39.19980441 7.62893719 -43.5308806 9.82456374 -48.375 13.4375 C-51.54666 15.77896059 -53.04743569 16.72244636 -57 17.5 C-61.14990223 16.52355242 -62.71126578 15.20172043 -65.1875 11.75 C-65.7645847 7.71040707 -65.25691625 5.20801477 -63.1875 1.75 C-45.58877902 -14.77462064 -18.41868686 -15.21219482 0 0 Z " fill="#464646" transform="translate(287.1875,233.25)"/>
<path d="M0 0 C3.47520779 2.24636179 5.03178704 4.33966956 6.25 8.375 C6.5289539 13.23054139 5.91535787 17.04476595 2.8125 20.875 C-1.1635053 24.75402956 -3.82362729 24.71070554 -9.203125 24.6640625 C-12.87655571 24.24713938 -15.00299675 22.77862785 -17.75 20.375 C-20.72617913 15.9107313 -20.49006072 11.60775258 -19.75 6.375 C-18.13950652 3.11551519 -15.80100466 1.14573675 -12.875 -1 C-8.24678083 -2.36124093 -4.28583834 -2.17463256 0 0 Z " fill="#464646" transform="translate(263.75,262.625)"/>
</svg>
