<?xml version="1.0" encoding="UTF-8"?>
<svg version="1.1" xmlns="http://www.w3.org/2000/svg" width="512" height="512">
<path d="M0 0 C4.04910932 0.84356444 5.39935838 2.45171835 8 5.625 C8.61231995 8.67805481 8.61231995 8.67805481 8.59594727 12.12426758 C8.6026796 13.41943802 8.60941193 14.71460846 8.61634827 16.04902649 C8.60817644 16.73642725 8.60000462 17.42382801 8.59158516 18.1320591 C8.56606412 20.29857485 8.57099455 22.46319707 8.58348083 24.62980652 C8.60419508 29.2325807 8.58458641 33.83476486 8.5625 38.4375 C8.54133232 43.76409642 8.5369663 49.09007804 8.56300163 54.41666222 C8.56633953 56.53959969 8.54521863 58.66133768 8.52259827 60.78413391 C8.54433564 68.70531047 8.68304089 75.1302021 14.44752502 81.13215637 C18.46837427 84.67481768 22.01410435 86.83449975 27.37890625 86.96875 C28.62909546 87.01068481 28.62909546 87.01068481 29.90454102 87.0534668 C30.78166748 87.07707275 31.65879395 87.10067871 32.5625 87.125 C46.83924164 87.71353419 59.0734606 88.9592953 69.4375 99.9375 C75.73001347 107.57104092 78.14315749 115.34149509 78.203125 125.1015625 C78.20882507 125.8268515 78.21452515 126.5521405 78.22039795 127.29940796 C78.22982809 128.83419344 78.23637403 130.36899899 78.24023438 131.90380859 C78.24988097 134.22140207 78.28089707 136.53808538 78.3125 138.85546875 C78.41274895 152.50257007 76.37923217 162.23268004 67 172.625 C58.177772 180.18690971 49.37405355 182.02657753 38.0625 182.125 C28.86907325 182.20529194 21.14031898 183.11779476 13 187.625 C11.84077872 189.35642854 11.84077872 189.35642854 11 191.625 C10.49984375 192.65367187 9.9996875 193.68234375 9.484375 194.7421875 C7.72900847 198.83058894 7.45361684 202.65562273 7.3125 207.0625 C7.27833984 207.79404297 7.24417969 208.52558594 7.20898438 209.27929688 C7.12748247 211.06069562 7.06204477 212.84281749 7 214.625 C7.68964844 214.59019531 8.37929688 214.55539063 9.08984375 214.51953125 C17.05541181 214.29007044 23.48521019 214.93282057 29.9375 219.875 C34.45264017 225.89518689 34.26790459 232.33482579 34.125 239.5625 C34.11597656 240.43712891 34.10695313 241.31175781 34.09765625 242.21289062 C34.0742957 244.35038064 34.03843247 246.48772786 34 248.625 C34.96608688 248.61833817 35.93217377 248.61167633 36.92753601 248.60481262 C46.03523557 248.54397828 55.14289386 248.49901621 64.25075054 248.46956348 C68.93312236 248.45391246 73.61533006 248.43268444 78.29760742 248.39868164 C82.81689376 248.36606814 87.33602231 248.34814275 91.85541725 248.34036827 C93.57899268 248.33482834 95.30255954 248.32401016 97.02606773 248.30780983 C99.4416401 248.28600887 101.85656176 248.28303415 104.2722168 248.28442383 C104.98359802 248.273638 105.69497925 248.26285217 106.42791748 248.2517395 C110.78576774 248.27883896 113.53098969 248.95415097 117 251.625 C117.8828125 253.4921875 117.8828125 253.4921875 118.125 255.5 C118.28355469 256.48613281 118.28355469 256.48613281 118.4453125 257.4921875 C117.89904522 260.10852027 116.86172729 261.70778368 114.93011749 263.54597461 C110.34498188 266.10927854 104.47564777 265.28906665 99.37953186 265.23731995 C97.96055459 265.24076698 96.54158126 265.24641946 95.12262052 265.25408787 C91.22312497 265.26884517 87.32428031 265.25252187 83.42483771 265.23123491 C79.21957265 265.21375785 75.01437696 265.22516779 70.80909729 265.23324585 C63.52177451 265.24345582 56.23464571 265.2358389 48.94734383 265.21658516 C38.40459176 265.18910594 27.86202769 265.192924 17.31925528 265.20517098 C0.20606263 265.22457075 -16.90706814 265.22461861 -34.02026367 265.2097168 C-35.04463378 265.20883066 -36.06900389 265.20794453 -37.12441552 265.20703154 C-41.27508759 265.2033975 -45.42575957 265.19968011 -49.57643148 265.19586498 C-61.00074149 265.18540332 -72.42505229 265.17715751 -83.84936523 265.1706543 C-84.87218568 265.17006606 -85.89500612 265.16947783 -86.94882112 265.16887177 C-103.99638997 265.15959587 -121.04392181 265.16606058 -138.09148413 265.18296474 C-148.6090965 265.19256214 -159.12651029 265.18737675 -169.64410032 265.16319703 C-176.84908003 265.14746108 -184.05397502 265.14561026 -191.2589659 265.15473027 C-195.41771938 265.15946385 -199.57620001 265.15751049 -203.73491669 265.13809395 C-207.54150237 265.12041297 -211.34762759 265.12105236 -215.15421981 265.13627302 C-217.184593 265.13955389 -219.21496828 265.12302568 -221.24527115 265.10581213 C-229.95250671 265.09784452 -229.95250671 265.09784452 -237 269.625 C-239.57392626 273.48588939 -239.28721976 276.66836902 -239.27415466 281.14558411 C-239.27939134 282.0259613 -239.28462802 282.90633849 -239.29002339 283.81339377 C-239.30507279 286.77513674 -239.30572962 289.73670769 -239.30639648 292.69848633 C-239.31401468 294.81724847 -239.32244158 296.93600783 -239.33161926 299.05476379 C-239.35360537 304.81927327 -239.36236875 310.5837297 -239.36744571 316.34827638 C-239.37108458 319.94796205 -239.3773222 323.54763372 -239.3844471 327.14731407 C-239.40895637 339.70051054 -239.42199658 352.2536656 -239.42553711 364.80688477 C-239.429173 376.51589348 -239.45906856 388.22464017 -239.50094169 399.93356878 C-239.53561071 409.97950893 -239.55108497 420.02536212 -239.55178314 430.07136172 C-239.55257715 436.07434932 -239.56137242 442.0770702 -239.58978081 448.07999611 C-239.615903 453.72632358 -239.61819911 459.3721621 -239.60212517 465.01852226 C-239.600306 467.09137663 -239.6070434 469.16425874 -239.62294388 471.23705292 C-239.64332553 474.066439 -239.63289915 476.89410168 -239.61473083 479.72346497 C-239.6279308 480.54438639 -239.64113077 481.36530781 -239.65473074 482.21110564 C-239.59496789 486.28396439 -239.2168664 488.87101375 -236.64907932 492.11884594 C-232.501336 496.04280687 -228.83702217 495.76950102 -223.42959785 495.75642776 C-222.64760566 495.7584804 -221.86561347 495.76053303 -221.05992454 495.76264787 C-218.41779261 495.76833967 -215.77571245 495.76685794 -213.13357544 495.76544189 C-211.22889135 495.76802427 -209.32420781 495.77103708 -207.41952503 495.7744453 C-202.16842634 495.78253335 -196.9173413 495.78430587 -191.66623712 495.78504276 C-186.00969591 495.78689016 -180.35316185 495.79443584 -174.69662476 495.80117798 C-162.32082928 495.81477409 -149.94503703 495.82078785 -137.56923532 495.82518864 C-129.84681409 495.82794859 -122.12439411 495.83218546 -114.40197372 495.83669281 C-93.03488533 495.84888657 -71.66779848 495.85922145 -50.30070686 495.8625679 C-48.91871371 495.86278954 -47.53672055 495.86301132 -46.15472739 495.86323325 C-44.76936944 495.86345389 -43.38401148 495.86367438 -41.99865353 495.8638947 C-39.2193172 495.86433726 -36.43998086 495.86478437 -33.66064453 495.86523438 C-32.97152966 495.86534377 -32.28241479 495.86545316 -31.57241765 495.86556586 C-9.2195648 495.86919783 13.13325565 495.88512317 35.48609609 495.90842474 C59.11018196 495.93300657 82.73424275 495.94673322 106.35834324 495.94793582 C119.23975657 495.94885393 132.12112747 495.95464037 145.00252914 495.97275543 C155.96886046 495.98812267 166.93513622 495.99329687 177.90147625 495.98501733 C183.49999505 495.98109898 189.09840188 495.98209803 194.69690704 495.99607468 C199.81785177 496.00874261 204.93859957 496.00767904 210.05954374 495.99548396 C211.91619479 495.99351458 213.77285945 495.99666211 215.62949131 496.00532833 C218.14587477 496.01633427 220.66155253 496.00899487 223.17791557 495.9969368 C223.90513056 496.00453199 224.63234554 496.01212718 225.38159734 496.01995254 C230.76071416 495.96399407 233.87936831 494.57813777 237.78827 490.97797298 C239.62106942 487.41898912 239.4161601 483.88870744 239.38768005 479.97743225 C239.39306559 479.09549507 239.39845113 478.21355789 239.40399987 477.30489534 C239.41832996 474.34382882 239.41116326 471.38320616 239.40405273 468.42211914 C239.40975366 466.3015863 239.41671683 464.18105652 239.42485046 462.06053162 C239.44282764 456.29610972 239.44160491 450.53183966 239.43590808 444.76739812 C239.43282282 439.95854733 239.43890128 435.14972599 239.44494683 430.34087938 C239.45900541 418.99814283 239.45741965 407.65548158 239.44604492 396.31274414 C239.43456194 384.60315428 239.4486395 372.89379341 239.4754414 361.18423373 C239.49757815 351.13743253 239.50424035 341.09070331 239.49836498 331.04387945 C239.49498942 325.0404334 239.49745031 319.03713416 239.51461601 313.03370857 C239.53005075 307.38904676 239.52616805 301.74472489 239.50731087 296.10007668 C239.50361538 294.02681291 239.50676125 291.95352415 239.51719666 289.88028336 C239.53034251 287.05297755 239.51891592 284.22680778 239.50120544 281.39955139 C239.51081045 280.57639925 239.52041546 279.7532471 239.53031152 278.90515095 C239.46539169 273.87853107 238.74899007 271.29337184 235 267.625 C231.35950037 264.90907272 227.1626402 265.34642388 222.80664062 265.36962891 C221.98342819 265.36600845 221.16021576 265.362388 220.3120575 265.35865784 C218.52727872 265.35177217 216.74247893 265.34925685 214.95768738 265.35060501 C212.1333084 265.35157034 209.30930988 265.33862817 206.48498535 265.32162476 C198.45600305 265.27534761 190.4270603 265.25073624 182.39794922 265.24414062 C177.4848635 265.23913152 172.57217631 265.21491483 167.65922546 265.17881393 C165.7869455 265.16900429 163.9146108 265.16669032 162.04231262 265.17198563 C159.42556003 265.17904073 156.80999927 265.16180777 154.19335938 265.13916016 C153.41921188 265.14733261 152.64506439 265.15550507 151.84745789 265.16392517 C148.36739845 265.1102704 146.36453245 264.89245285 143.52307129 262.80770874 C141.25900408 259.56308104 141.39039764 257.48581493 142 253.625 C144.74907912 249.96823276 146.22995292 248.75256242 150.79214478 247.99681091 C152.2903945 247.97028005 153.78928627 247.97111273 155.28759766 247.99389648 C156.52039963 247.98316353 156.52039963 247.98316353 157.77810669 247.97221375 C160.49066075 247.95533063 163.20156002 247.9747365 165.9140625 247.99609375 C167.80870703 247.99526454 169.70335149 247.99280317 171.59799194 247.98878479 C175.57091915 247.98592642 179.5432828 248.00062327 183.51611328 248.02807617 C188.5832629 248.06201929 193.64939575 248.05618767 198.71659279 248.0374136 C202.63227644 248.02678555 206.54772818 248.03583617 210.46339035 248.05079842 C212.32990198 248.05594766 214.19643817 248.05553841 216.06294632 248.04925346 C239.08893022 248.00085671 239.08893022 248.00085671 248.4375 256.3125 C253.9097795 261.83205621 256.43324151 268.89253837 256.53497362 276.55520439 C256.52605073 277.38664026 256.51712785 278.21807613 256.50793457 279.07470703 C256.51417453 279.98259539 256.5204145 280.89048374 256.52684355 281.82588387 C256.54270209 284.84513023 256.53019727 287.86356123 256.51757812 290.8828125 C256.52300241 293.05670642 256.53012678 295.23059667 256.53881836 297.40447998 C256.55701804 303.29288537 256.54999788 309.1810097 256.53730202 315.06941986 C256.52715705 321.23915856 256.53657186 327.40887361 256.54284668 333.57861328 C256.5501187 343.9385204 256.54054698 354.29831335 256.52148438 364.65820312 C256.4997166 376.62628134 256.50676827 388.59408697 256.52879 400.56215858 C256.5469566 410.84776959 256.54949612 421.13329865 256.53903532 431.41892052 C256.53280737 437.55766644 256.53194568 443.69628434 256.54518127 449.83502197 C256.55675737 455.60699439 256.54868149 461.3786162 256.52560425 467.15055084 C256.52032662 469.26567249 256.52181468 471.38082377 256.53065491 473.49593353 C256.54163122 476.38944828 256.52782136 479.28184868 256.50793457 482.17529297 C256.51685746 483.00672884 256.52578034 483.83816471 256.53497362 484.69479561 C256.43005513 492.59746596 253.65243751 499.97256249 248 505.625 C241.0282533 510.75656463 234.68814494 512.93115232 225.98071671 512.88226891 C225.18663072 512.88577498 224.39254473 512.88928105 223.57439554 512.89289337 C220.90908537 512.90220958 218.24399359 512.89728348 215.57867432 512.89242554 C213.65021453 512.89616169 211.72175626 512.90076306 209.79330039 512.90615618 C204.49020875 512.918406 199.18718011 512.91812338 193.88407755 512.91576743 C188.16613699 512.91535977 182.44821676 512.92639363 176.73028564 512.93588257 C165.52620476 512.95250449 154.32214493 512.95799266 143.11805275 512.95910732 C134.01167964 512.96005725 124.90531348 512.96416476 115.79894257 512.97050858 C94.18811637 512.98525728 72.57729668 512.99755795 50.966465 512.99651146 C50.27533468 512.9964803 49.58420435 512.99644914 48.87213069 512.99641704 C45.36921021 512.99625083 41.86628973 512.99605275 38.36336926 512.99584763 C37.6676795 512.99580774 36.97198975 512.99576785 36.25521849 512.99572675 C34.84836395 512.99564587 33.44150941 512.99556228 32.03465487 512.99547596 C10.14840219 512.99425057 -11.7377885 513.00926139 -33.62402344 513.03662109 C-58.21459489 513.06734881 -82.80512168 513.08452783 -107.39571404 513.08269465 C-120.41530437 513.08203035 -133.43482479 513.08753997 -146.45439911 513.10905075 C-157.53947301 513.12724781 -168.62444534 513.13162198 -179.7095277 513.1180319 C-185.36542359 513.11149482 -191.02112452 513.11141196 -196.67700195 513.1287384 C-201.8561223 513.14444116 -207.03489265 513.14163388 -212.21400431 513.12417014 C-214.08613202 513.1210941 -215.95828567 513.12475532 -217.83038279 513.13589029 C-228.72252355 513.19637682 -237.38723505 512.88655963 -246.8125 506.8125 C-253.18161794 500.44338206 -256.19907495 494.17239975 -256.2814731 485.08670163 C-256.27905802 484.24720936 -256.27664293 483.40771708 -256.27415466 482.54278564 C-256.27939134 481.63816613 -256.28462802 480.73354661 -256.29002339 479.80151439 C-256.30500436 476.77550891 -256.30572813 473.74967281 -256.30639648 470.72363281 C-256.31401926 468.55180578 -256.32244696 466.37998144 -256.33161926 464.2081604 C-256.35355986 458.31133289 -256.36236264 452.41455724 -256.36744571 446.51769352 C-256.37108989 442.83202818 -256.3773303 439.14637641 -256.3844471 435.46071625 C-256.40894039 422.59815372 -256.42199317 409.73563152 -256.42553711 396.87304688 C-256.42917193 384.89080987 -256.45906385 372.9089076 -256.50094169 360.92673612 C-256.53565303 350.63354149 -256.5510857 340.34043174 -256.55178314 330.04717898 C-256.55257568 323.90214676 -256.56130417 317.75737553 -256.58978081 311.61240387 C-256.61597542 305.83059996 -256.61815844 300.0492732 -256.60212517 294.26743698 C-256.6003118 292.14949629 -256.60699116 290.03152808 -256.62294388 287.9136467 C-256.70794914 275.89216073 -256.77144565 266.69186137 -248.859375 257.00390625 C-248.16328125 256.40449219 -247.4671875 255.80507812 -246.75 255.1875 C-245.72132813 254.26130859 -245.72132813 254.26130859 -244.671875 253.31640625 C-238.3417424 249.30917319 -231.74106609 248.17805046 -224.36289978 248.26423645 C-223.54258304 248.26167318 -222.72226629 248.2591099 -221.87709147 248.25646895 C-219.1547526 248.25156538 -216.4329803 248.26796673 -213.71069336 248.28442383 C-211.74879977 248.28527084 -209.78690524 248.2847935 -207.82501221 248.28309631 C-202.51777917 248.28223785 -197.21075078 248.29983965 -191.90356517 248.32081819 C-186.35023593 248.3396097 -180.79690166 248.34133738 -175.24354553 248.34489441 C-164.73588266 248.3542076 -154.22831376 248.37881159 -143.72069222 248.40894288 C-131.75458173 248.44250947 -119.78846669 248.45897858 -107.82232082 248.47402918 C-83.21482851 248.50536175 -58.60741953 248.55810816 -34 248.625 C-34.02094727 248.03074219 -34.04189453 247.43648437 -34.06347656 246.82421875 C-34.14741854 244.09132295 -34.19890281 241.35869943 -34.25 238.625 C-34.28351563 237.69042969 -34.31703125 236.75585938 -34.3515625 235.79296875 C-34.43868692 229.56357276 -33.68669331 224.77208842 -30 219.625 C-23.57214724 214.17529874 -17.00248475 214.4649503 -9 214.625 C-9.04640625 213.54863281 -9.0928125 212.47226563 -9.140625 211.36328125 C-9.51938374 198.83976017 -8.50149036 187.47702937 0.015625 177.55859375 C11.4483686 166.41842036 24.58645025 165.51083164 39.75390625 165.1953125 C46.2975932 164.95627371 50.5617462 163.66632876 55.6875 159.375 C61.91713993 151.96677954 61.48905264 144.58571504 61.4375 135.25 C61.45748047 133.97382813 61.47746094 132.69765625 61.49804688 131.3828125 C61.49427173 124.07412255 61.17012268 117.82318616 57 111.625 C54.94452945 109.42336886 54.94452945 109.42336886 52.5625 108.125 C51.82128906 107.6609375 51.08007812 107.196875 50.31640625 106.71875 C46.34894505 104.8454125 42.43126277 104.5081686 38.0859375 104.44921875 C24.52026525 104.14182513 12.21694981 103.68476596 2 93.625 C-6.9766334 82.96134269 -8.62448923 71.34524479 -8.56640625 57.8515625 C-8.57165321 56.35468157 -8.57793357 54.85780394 -8.58518982 53.3609314 C-8.59552508 50.24615749 -8.59112622 47.13184254 -8.57641602 44.01708984 C-8.55913222 40.03220391 -8.58287483 36.04874713 -8.61790562 32.06402016 C-8.63987626 28.98239658 -8.63844093 25.90111635 -8.6301403 22.81943893 C-8.62932261 21.34986159 -8.63615123 19.8802586 -8.65091133 18.41075516 C-8.66837851 16.35969054 -8.65380995 14.31121525 -8.63110352 12.26025391 C-8.63014175 11.09652252 -8.62917999 9.93279114 -8.62818909 8.73379517 C-7.63201996 3.80393273 -4.91805654 1.02459511 0 0 Z M-18 231.625 C-18 237.235 -18 242.845 -18 248.625 C-6.12 248.625 5.76 248.625 18 248.625 C18 243.015 18 237.405 18 231.625 C16.2670702 229.8920702 14.03785664 230.49679954 11.72851562 230.48605347 C10.99310547 230.4880777 10.25769531 230.49010193 9.5 230.4921875 C8.74912109 230.49123077 7.99824219 230.49027405 7.22460938 230.48928833 C5.63411373 230.48860662 4.04361533 230.49046028 2.453125 230.49462891 C0.01035345 230.49997733 -2.43223421 230.49468366 -4.875 230.48828125 C-6.41666707 230.48894203 -7.95833403 230.4902232 -9.5 230.4921875 C-10.23541016 230.49016327 -10.97082031 230.48813904 -11.72851562 230.48605347 C-15.15246342 230.19443487 -15.15246342 230.19443487 -18 231.625 Z " fill="#474747" transform="translate(256,-0.625)"/>
<path d="M0 0 C2.10347689 -0.01190601 4.20402627 -0.06109972 6.30688477 -0.11157227 C7.64736528 -0.12103632 8.98786376 -0.12827145 10.32836914 -0.13305664 C12.15356079 -0.15323853 12.15356079 -0.15323853 14.015625 -0.17382812 C17.17602539 0.42553711 17.17602539 0.42553711 19.60791016 2.73388672 C21.17602539 5.42553711 21.17602539 5.42553711 21.11352539 9.05053711 C19.85856507 13.56839425 19.85856507 13.56839425 17.17602539 15.42553711 C14.41037157 16.34742172 12.79318837 16.54338933 9.94555664 16.52319336 C9.22215088 16.5206958 8.49874512 16.51819824 7.75341797 16.515625 C6.84100342 16.506521 5.92858887 16.49741699 4.98852539 16.48803711 C2.08040039 16.46741211 -0.82772461 16.44678711 -3.82397461 16.42553711 C-3.82397461 24.01553711 -3.82397461 31.60553711 -3.82397461 39.42553711 C86.59602539 39.42553711 177.01602539 39.42553711 270.17602539 39.42553711 C270.17602539 31.83553711 270.17602539 24.24553711 270.17602539 16.42553711 C267.45822845 16.43219894 264.74043152 16.43886078 261.9402771 16.44572449 C236.36549616 16.50698307 210.79072488 16.55165336 185.21588707 16.58097363 C172.06666545 16.59644891 158.91749763 16.61755115 145.76831055 16.65185547 C134.30878687 16.68173747 122.84930215 16.7011073 111.38974059 16.70780259 C105.32081698 16.71171686 99.25200483 16.72092985 93.18311691 16.74272728 C87.47209842 16.76307338 81.76123745 16.76937465 76.05018616 16.76486015 C73.95314809 16.76568619 71.85610481 16.77166291 69.75909805 16.78315353 C66.89709658 16.79806811 64.03569065 16.79449433 61.17367554 16.78630066 C60.34292586 16.79503918 59.51217618 16.80377771 58.65625226 16.81278104 C53.77139126 16.77495272 50.4081193 16.13806917 46.17602539 13.42553711 C44.63015663 10.33379959 44.88243018 7.83124159 45.17602539 4.42553711 C46.62186527 2.23072052 46.62186527 2.23072052 49.17602539 0.42553711 C52.23340412 -0.16822167 55.24872904 -0.11389998 58.35508728 -0.08239746 C59.29419419 -0.08863742 60.23330111 -0.09487739 61.20086581 -0.10130644 C64.35551822 -0.11729297 67.50940401 -0.1046098 70.6640625 -0.09204102 C72.92252555 -0.09745964 75.18098507 -0.10458083 77.43943787 -0.11328125 C83.57992456 -0.13154928 89.72014306 -0.1244323 95.86063457 -0.11176491 C102.28051536 -0.10165408 108.70037284 -0.11102537 115.12025452 -0.11730957 C126.59464949 -0.12505888 138.06889565 -0.11260886 149.54326547 -0.09227222 C159.94622195 -0.07440521 170.34899987 -0.07750138 180.75195312 -0.09594727 C192.83156661 -0.11735606 204.9110452 -0.12531967 216.99068457 -0.11349821 C223.38535796 -0.10725673 229.77990837 -0.10644562 236.1745739 -0.11964417 C242.18695016 -0.13118619 248.19898878 -0.12320667 254.21132851 -0.10006714 C256.42004205 -0.09477105 258.62878394 -0.09630912 260.83748627 -0.1051178 C263.84870307 -0.11602114 266.85883265 -0.10237206 269.86997986 -0.08239746 C270.74760528 -0.09132035 271.6252307 -0.10024323 272.52945083 -0.10943651 C276.61971899 -0.05667633 278.65443686 0.09092677 282.17693424 2.35068512 C286.55921303 6.89904194 286.49516316 10.99514665 286.51196289 17.13647461 C286.51861969 17.98223053 286.52527649 18.82798645 286.53213501 19.69937134 C286.54224662 21.48632639 286.54695249 23.2733191 286.54663086 25.06030273 C286.55099927 27.78424814 286.58731978 30.50656624 286.62524414 33.23022461 C286.63111372 34.96980243 286.63508217 36.70938791 286.63696289 38.44897461 C286.65133392 39.25853607 286.66570496 40.06809753 286.68051147 40.90219116 C286.63814034 46.18679406 285.76144629 49.28681538 282.17602539 53.42553711 C279.10911643 55.34720953 276.76109049 55.67703424 273.17155647 55.68280602 C271.6498834 55.69247935 271.6498834 55.69247935 270.09746945 55.70234811 C268.98483853 55.69925091 267.87220761 55.69615371 266.7258606 55.69296265 C264.95073886 55.69975932 264.95073886 55.69975932 263.13975608 55.70669329 C259.85384832 55.71717569 256.56815917 55.71866108 253.28225017 55.71630454 C249.73887099 55.71589676 246.19552459 55.72693182 242.65216064 55.73641968 C235.7097166 55.75303877 228.76730652 55.75852963 221.82484426 55.75964443 C216.18234644 55.76059445 210.53985984 55.7647024 204.89736557 55.77104568 C188.90350321 55.78866032 172.90966771 55.79788417 156.91579558 55.79638474 C155.62220943 55.79626487 155.62220943 55.79626487 154.30249023 55.79614258 C153.43904782 55.79606082 152.5756054 55.79597906 151.68599807 55.79589482 C137.69022975 55.79508178 123.69456901 55.81422329 109.69883181 55.84241931 C95.33169086 55.87113543 80.9646024 55.88496032 66.59743202 55.88323176 C58.52989591 55.88256743 50.46247259 55.88807839 42.39496231 55.90958786 C35.52650525 55.92778293 28.65821211 55.93216084 21.78974141 55.91856901 C18.28514438 55.91203088 14.78086197 55.91195213 11.27629471 55.92927551 C7.47729886 55.94464406 3.6791346 55.9354741 -0.11984253 55.92001343 C-1.78209675 55.93544412 -1.78209675 55.93544412 -3.47793186 55.95118654 C-9.57229936 55.89621403 -13.18930063 55.51380003 -17.82397461 51.42553711 C-20.71114604 47.78872146 -20.14776188 43.15625111 -20.15991211 38.71459961 C-20.16656891 37.86884369 -20.17322571 37.02308777 -20.18008423 36.15170288 C-20.19019584 34.36474782 -20.19490171 32.57775512 -20.19458008 30.79077148 C-20.19894849 28.06682608 -20.235269 25.34450798 -20.27319336 22.62084961 C-20.27906293 20.88127179 -20.28303139 19.14168631 -20.28491211 17.40209961 C-20.30646866 16.18775742 -20.30646866 16.18775742 -20.32846069 14.94888306 C-20.28595493 9.64748868 -19.35499157 6.61946837 -15.82397461 2.42553711 C-11.04740058 -0.75884557 -5.58684606 0.01499912 0 0 Z " fill="#474747" transform="translate(122.823974609375,427.574462890625)"/>
<path d="M0 0 C0.69495575 -0.00686325 1.3899115 -0.0137265 2.10592651 -0.02079773 C4.39244281 -0.03902955 6.67827069 -0.03523416 8.96484375 -0.02954102 C10.55997947 -0.03410416 12.15511323 -0.03941013 13.75024414 -0.04542542 C17.08911134 -0.05434906 20.42773924 -0.05194153 23.76660156 -0.04199219 C28.04066058 -0.03049567 32.31389424 -0.05072751 36.58784485 -0.07990932 C39.88046494 -0.09827286 43.1728872 -0.09797875 46.46554565 -0.0922718 C48.04118 -0.09211865 49.61682781 -0.09815837 51.19241333 -0.11056328 C53.39702883 -0.12547761 55.60011905 -0.11479583 57.8046875 -0.09765625 C59.05757568 -0.09749008 60.31046387 -0.09732391 61.60131836 -0.09715271 C65.49512998 0.4940574 67.12625171 1.66619298 69.90234375 4.40405273 C72.35476187 8.62532197 72.20879691 13.01622547 72.203125 17.77514648 C72.20741013 18.57509537 72.21169525 19.37504425 72.21611023 20.19923401 C72.22183654 21.88606828 72.22236635 23.57292724 72.21801758 25.25976562 C72.21485823 27.82977736 72.23833479 30.39863629 72.26367188 32.96850586 C72.26594523 34.61238462 72.26664819 36.25626647 72.265625 37.90014648 C72.27483475 38.66282333 72.28404449 39.42550018 72.29353333 40.21128845 C72.25255146 44.97595253 71.64226474 48.33808624 68.90234375 52.40405273 C64.89290843 55.42682492 61.87562996 55.79005973 56.91235352 55.82397461 C55.88695969 55.83667892 55.88695969 55.83667892 54.84085083 55.84963989 C52.59162554 55.87294956 50.3430867 55.8740336 48.09375 55.87280273 C46.52342966 55.87990779 44.9531119 55.88760729 43.38279724 55.89587402 C40.09521259 55.90930477 36.80786804 55.91089392 33.52026367 55.9050293 C29.31565733 55.89913309 25.11220565 55.92972654 20.90782261 55.97014618 C17.66576475 55.99604623 14.42398413 55.99889859 11.18183708 55.99525452 C9.63213129 55.9969435 8.08241239 56.00656478 6.5328083 56.0243988 C4.36167104 56.04663799 2.19286057 56.03686596 0.02172852 56.01928711 C-1.21117416 56.02134155 -2.44407684 56.023396 -3.71434021 56.0255127 C-8.63403882 55.12184432 -11.4216809 52.6227967 -14.45385742 48.60864258 C-15.46322739 45.15221071 -15.40266377 41.70053312 -15.3984375 38.13061523 C-15.40272263 37.3292514 -15.40700775 36.52788757 -15.41142273 35.70223999 C-15.41715678 34.00942935 -15.4176731 32.31659408 -15.41333008 30.6237793 C-15.41017563 28.04489674 -15.43362052 25.46716811 -15.45898438 22.88842773 C-15.46125815 21.23999167 -15.4619605 19.59155255 -15.4609375 17.94311523 C-15.47014725 17.17730133 -15.47935699 16.41148743 -15.48884583 15.62246704 C-15.44796577 10.8484563 -14.84481252 7.47738361 -12.09765625 3.40405273 C-8.05845051 0.34779363 -5.00410673 0.02157983 0 0 Z M0.90234375 15.40405273 C0.90234375 23.32405273 0.90234375 31.24405273 0.90234375 39.40405273 C19.05234375 39.40405273 37.20234375 39.40405273 55.90234375 39.40405273 C55.90234375 31.48405273 55.90234375 23.56405273 55.90234375 15.40405273 C37.75234375 15.40405273 19.60234375 15.40405273 0.90234375 15.40405273 Z " fill="#464646" transform="translate(408.09765625,355.595947265625)"/>
<path d="M0 0 C0.69480972 -0.00525696 1.38961945 -0.01051392 2.10548401 -0.01593018 C4.39745711 -0.02911097 6.68873297 -0.02039845 8.98071289 -0.01025391 C10.57727695 -0.01227544 12.1738401 -0.01518753 13.770401 -0.01895142 C17.11525266 -0.02337234 20.45986382 -0.01695217 23.8046875 -0.00292969 C28.08650619 0.01414839 32.36776016 0.00432859 36.64955807 -0.01364708 C39.94645926 -0.02450311 43.24322725 -0.02103003 46.54013252 -0.0132637 C48.11854685 -0.011266 49.69697337 -0.01370587 51.27537346 -0.02070236 C53.48468786 -0.02834548 55.69309657 -0.0166732 57.90234375 0 C59.78620033 0.00358017 59.78620033 0.00358017 61.70811462 0.00723267 C65.29629416 0.42047988 67.15654433 1.22174412 70.01586914 3.38818359 C73.22408401 8.16475183 73.47093378 12.30175461 73.44946289 17.85693359 C73.45470474 18.65546753 73.45994659 19.45400146 73.46534729 20.2767334 C73.47174341 21.95758913 73.47046183 23.63848977 73.46191406 25.31933594 C73.4533935 27.88086029 73.48221305 30.44015976 73.51391602 33.00146484 C73.5155281 34.6407871 73.51495035 36.28011327 73.51196289 37.91943359 C73.52319687 38.67897339 73.53443085 39.43851318 73.54600525 40.22106934 C73.47890108 45.37818475 72.42227119 48.30754705 69.01586914 52.38818359 C65.54570671 55.72416518 62.85122531 55.76724769 58.12353516 55.77636719 C57.09595093 55.78425262 57.09595093 55.78425262 56.04760742 55.79229736 C53.78809657 55.80547678 51.52929314 55.79676616 49.26977539 55.78662109 C47.69563156 55.78864267 46.12148865 55.7915548 44.54734802 55.7953186 C41.24957353 55.79973934 37.95204299 55.79331999 34.65429688 55.77929688 C30.43300954 55.76221899 26.21229503 55.77203856 21.99102879 55.79001427 C18.74045013 55.80087098 15.49000655 55.79739691 12.23942375 55.78963089 C10.68333811 55.78763336 9.12724009 55.79007243 7.5711689 55.79706955 C5.392983 55.80471381 3.21571541 55.7930389 1.03759766 55.77636719 C-0.81961159 55.77278702 -0.81961159 55.77278702 -2.71434021 55.76913452 C-6.27962855 55.35375628 -8.13920444 54.537886 -10.98413086 52.38818359 C-14.20130413 47.60416522 -14.42704101 43.48183344 -14.38256836 37.91943359 C-14.38687363 36.72163269 -14.38687363 36.72163269 -14.39126587 35.49963379 C-14.39329869 33.81875902 -14.38782375 32.13786017 -14.37524414 30.45703125 C-14.35917851 27.89577949 -14.37511863 25.33610549 -14.39428711 22.77490234 C-14.39230454 21.13557597 -14.38846057 19.49625058 -14.38256836 17.85693359 C-14.38864105 17.0973938 -14.39471375 16.337854 -14.40097046 15.55529785 C-14.3288671 10.05824208 -13.40244579 5.76390848 -9.31282043 1.74630737 C-6.11039031 -0.12139391 -3.69738898 0.00703115 0 0 Z M2.01586914 15.38818359 C2.01586914 23.30818359 2.01586914 31.22818359 2.01586914 39.38818359 C20.16586914 39.38818359 38.31586914 39.38818359 57.01586914 39.38818359 C57.01586914 31.46818359 57.01586914 23.54818359 57.01586914 15.38818359 C38.86586914 15.38818359 20.71586914 15.38818359 2.01586914 15.38818359 Z " fill="#464646" transform="translate(45.984130859375,355.61181640625)"/>
<path d="M0 0 C0.84137512 -0.01283524 1.68275024 -0.02567047 2.54962158 -0.03889465 C3.46104919 -0.04628159 4.37247681 -0.05366852 5.31152344 -0.0612793 C6.24889343 -0.06935104 7.18626343 -0.07742279 8.15203857 -0.08573914 C10.13926338 -0.09958491 12.12651203 -0.11030485 14.11376953 -0.11816406 C17.14499389 -0.13535117 20.17512033 -0.17922969 23.20605469 -0.22338867 C25.13703625 -0.23351788 27.06802709 -0.24203327 28.99902344 -0.2487793 C29.90235413 -0.26628738 30.80568481 -0.28379547 31.73638916 -0.30183411 C37.25378968 -0.28293266 40.66972344 0.29749401 44.92089844 4.17700195 C47.45164942 8.33235383 47.22732454 12.81187966 47.22167969 17.5480957 C47.22596481 18.34804459 47.23024994 19.14799347 47.23466492 19.97218323 C47.24039122 21.6590175 47.24092103 23.34587646 47.23657227 25.03271484 C47.23341291 27.60272658 47.25688947 30.17158551 47.28222656 32.74145508 C47.28449992 34.38533384 47.28520288 36.02921568 47.28417969 37.6730957 C47.29338943 38.43577255 47.30259918 39.1984494 47.31208801 39.98423767 C47.27110614 44.74890175 46.66081942 48.11103545 43.92089844 52.17700195 C39.59453043 55.99990503 34.90019947 55.61337133 29.42089844 55.57543945 C28.50759766 55.57830963 27.59429687 55.58117981 26.65332031 55.58413696 C24.72688169 55.58617385 22.80042222 55.58067031 20.87402344 55.56811523 C17.93084319 55.55205622 14.98903614 55.56797666 12.04589844 55.5871582 C10.17089542 55.5851757 8.29589325 55.58133189 6.42089844 55.57543945 C5.10508789 55.58454849 5.10508789 55.58454849 3.76269531 55.59384155 C-2.13267778 55.52621358 -5.4078086 54.59740404 -9.86230469 50.5612793 C-11.76969724 46.82380022 -11.54687916 43.16775669 -11.54785156 39.02856445 C-11.55546509 38.13841644 -11.56307861 37.24826843 -11.57092285 36.33114624 C-11.5817164 34.4500407 -11.58457998 32.56887526 -11.58007812 30.68774414 C-11.57910716 27.81855536 -11.62070662 24.95205375 -11.66503906 22.08325195 C-11.67024744 20.25252834 -11.67293423 18.42179547 -11.67285156 16.59106445 C-11.68924683 15.73775543 -11.70564209 14.88444641 -11.72253418 14.00527954 C-11.67361172 9.75998542 -11.3877982 7.01540343 -8.66699219 3.65112305 C-5.51844134 0.64098962 -4.19825446 0.05574746 0 0 Z M4.92089844 16.17700195 C4.92089844 23.76700195 4.92089844 31.35700195 4.92089844 39.17700195 C13.50089844 39.17700195 22.08089844 39.17700195 30.92089844 39.17700195 C30.92089844 31.58700195 30.92089844 23.99700195 30.92089844 16.17700195 C22.34089844 16.17700195 13.76089844 16.17700195 4.92089844 16.17700195 Z " fill="#464646" transform="translate(433.0791015625,427.822998046875)"/>
<path d="M0 0 C1.39968773 -0.01142029 1.39968773 -0.01142029 2.82765198 -0.02307129 C4.79693939 -0.03385452 6.76628392 -0.03673263 8.7355957 -0.03222656 C11.74072042 -0.03125427 14.74329056 -0.07289497 17.74804688 -0.1171875 C19.66535928 -0.12239495 21.58268052 -0.12508269 23.5 -0.125 C24.39391953 -0.14139526 25.28783905 -0.15779053 26.20884705 -0.17468262 C30.5443837 -0.12689871 33.42597839 0.09851925 36.86743164 2.88085938 C42.30470351 8.6265559 40.61932187 17.28223192 40.66650391 24.80712891 C40.68304527 26.74117074 40.71031131 28.6751519 40.74853516 30.60888672 C40.80343298 33.40103793 40.82519857 36.19175604 40.83984375 38.984375 C40.86251312 39.84395813 40.8851825 40.70354126 40.90853882 41.58917236 C40.89373532 45.81690524 40.64821828 48.61964249 37.97119141 51.99902344 C34.70270217 55.03967426 32.50122029 55.58933691 28.19970703 55.62988281 C27.3752005 55.63949036 26.55069397 55.6490979 25.70120239 55.65899658 C24.36990799 55.6653714 24.36990799 55.6653714 23.01171875 55.671875 C22.09558807 55.67757507 21.1794574 55.68327515 20.23556519 55.68914795 C18.29719191 55.69859327 16.35880261 55.70513007 14.42041016 55.70898438 C11.45967523 55.71869011 8.49963452 55.74971786 5.5390625 55.78125 C3.65495203 55.7877803 1.77083661 55.79303066 -0.11328125 55.796875 C-0.99676239 55.8092218 -1.88024353 55.8215686 -2.79049683 55.83428955 C-7.52336059 55.81719325 -10.98298641 55.75337414 -14.68359375 52.46875 C-17.90076702 47.68473162 -18.1265039 43.56239985 -18.08203125 38 C-18.08633652 36.8021991 -18.08633652 36.8021991 -18.09072876 35.5802002 C-18.09276158 33.89932543 -18.08728664 32.21842658 -18.07470703 30.53759766 C-18.0586414 27.97634589 -18.07458153 25.4166719 -18.09375 22.85546875 C-18.09176743 21.21614238 -18.08792346 19.57681698 -18.08203125 17.9375 C-18.08810394 17.17796021 -18.09417664 16.41842041 -18.10043335 15.63586426 C-18.03814857 10.88736297 -17.40908007 7.52161739 -14.68359375 3.46875 C-10.33995741 -0.38139547 -5.51202712 0.00123915 0 0 Z M-1.68359375 16.46875 C-1.68359375 24.05875 -1.68359375 31.64875 -1.68359375 39.46875 C6.89640625 39.46875 15.47640625 39.46875 24.31640625 39.46875 C24.31640625 31.87875 24.31640625 24.28875 24.31640625 16.46875 C15.73640625 16.46875 7.15640625 16.46875 -1.68359375 16.46875 Z " fill="#474747" transform="translate(49.68359375,427.53125)"/>
<path d="M0 0 C1.39968773 -0.01142029 1.39968773 -0.01142029 2.82765198 -0.02307129 C4.79693939 -0.03385452 6.76628392 -0.03673263 8.7355957 -0.03222656 C11.74072042 -0.03125427 14.74329056 -0.07289497 17.74804688 -0.1171875 C19.66535928 -0.12239495 21.58268052 -0.12508269 23.5 -0.125 C24.39391953 -0.14139526 25.28783905 -0.15779053 26.20884705 -0.17468262 C30.37115974 -0.12880789 33.41484794 0.07302033 36.80493164 2.63085938 C42.67110031 9.25945319 41.65655437 17.27756155 41.63208008 25.63598633 C41.6289199 27.89648674 41.65241464 30.15567656 41.67773438 32.41601562 C41.68000788 33.86979003 41.68071062 35.32356792 41.6796875 36.77734375 C41.68266846 38.08501709 41.68564941 39.39269043 41.6887207 40.73999023 C41.15815782 46.05362101 39.74334104 49.82264713 36.23413086 53.87084961 C32.03448488 56.17079798 28.35225063 56.06128266 23.6328125 56.03515625 C22.69968735 56.04135483 21.76656219 56.04755341 20.80516052 56.05393982 C18.83585654 56.06102924 16.86649251 56.05787933 14.8972168 56.04516602 C11.89193831 56.03131008 8.88978085 56.06537155 5.88476562 56.10351562 C3.96744716 56.10446699 2.05012481 56.10260707 0.1328125 56.09765625 C-1.20806679 56.11754356 -1.20806679 56.11754356 -2.57603455 56.13783264 C-6.81498666 56.07490807 -9.77473023 55.85763717 -13.17211914 53.17944336 C-17.71815726 48.27279796 -17.9921728 44.78207989 -17.984375 38.1953125 C-17.98866013 37.39394867 -17.99294525 36.59258484 -17.99736023 35.76693726 C-18.00309428 34.07412662 -18.0036106 32.38129134 -17.99926758 30.68847656 C-17.99611313 28.109594 -18.01955802 25.53186537 -18.04492188 22.953125 C-18.04719565 21.30468894 -18.047898 19.65624981 -18.046875 18.0078125 C-18.05608475 17.2419986 -18.06529449 16.47618469 -18.07478333 15.68716431 C-18.03390327 10.91315357 -17.43075002 7.54208088 -14.68359375 3.46875 C-10.33995741 -0.38139547 -5.51202712 0.00123915 0 0 Z M-1.68359375 15.46875 C-1.68359375 23.38875 -1.68359375 31.30875 -1.68359375 39.46875 C7.22640625 39.46875 16.13640625 39.46875 25.31640625 39.46875 C25.31640625 31.54875 25.31640625 23.62875 25.31640625 15.46875 C16.40640625 15.46875 7.49640625 15.46875 -1.68359375 15.46875 Z " fill="#464646" transform="translate(277.68359375,355.53125)"/>
<path d="M0 0 C0.93549683 -0.00145523 1.87099365 -0.00291046 2.83483887 -0.00440979 C4.80838136 -0.0027533 6.78193711 0.00877988 8.75537109 0.02954102 C11.7710677 0.05849599 14.78500537 0.05014445 17.80078125 0.03710938 C19.72136269 0.04334724 21.64193858 0.05173855 23.5625 0.0625 C24.46158081 0.05956436 25.36066162 0.05662872 26.2869873 0.05360413 C31.03321782 0.12490174 34.57478776 0.20334578 38.28125 3.49609375 C41.48946487 8.27266198 41.73631464 12.40966477 41.71484375 17.96484375 C41.7200856 18.76337769 41.72532745 19.56191162 41.73072815 20.38464355 C41.73712427 22.06549929 41.73584269 23.74639993 41.72729492 25.42724609 C41.71877436 27.98877045 41.7475939 30.54806991 41.77929688 33.109375 C41.78090896 34.74869725 41.78033121 36.38802343 41.77734375 38.02734375 C41.79419472 39.16665344 41.79419472 39.16665344 41.81138611 40.32897949 C41.73188748 46.43863872 39.72175971 49.76757358 35.63037109 54.34179688 C31.79442337 56.2266816 27.91186027 55.96390126 23.6953125 55.96484375 C22.7607724 55.97245728 21.8262323 55.9800708 20.8633728 55.98791504 C18.88810901 55.99871074 16.91278816 56.00157129 14.9375 55.99707031 C11.92350393 55.99609931 8.9120652 56.03769871 5.8984375 56.08203125 C3.97656779 56.08723951 2.05468926 56.08992642 0.1328125 56.08984375 C-1.21277237 56.11443665 -1.21277237 56.11443665 -2.58554077 56.13952637 C-6.75577486 56.09373937 -9.81246075 55.89709917 -13.20947266 53.33398438 C-19.07220856 46.7034685 -18.0588974 38.68703702 -18.03442383 30.32885742 C-18.03126365 28.06835701 -18.05475839 25.80916719 -18.08007812 23.54882812 C-18.08235163 22.09505372 -18.08305437 20.64127583 -18.08203125 19.1875 C-18.08501221 17.87982666 -18.08799316 16.57215332 -18.09106445 15.22485352 C-17.56040443 9.9102499 -16.14220579 6.14292518 -12.63867188 2.08959961 C-8.42171037 -0.21174719 -4.73266427 -0.05913445 0 0 Z M-1.71875 15.49609375 C-1.71875 23.41609375 -1.71875 31.33609375 -1.71875 39.49609375 C7.19125 39.49609375 16.10125 39.49609375 25.28125 39.49609375 C25.28125 31.57609375 25.28125 23.65609375 25.28125 15.49609375 C16.37125 15.49609375 7.46125 15.49609375 -1.71875 15.49609375 Z " fill="#464646" transform="translate(210.71875,355.50390625)"/>
<path d="M0 0 C1.43866173 -0.00786278 1.43866173 -0.00786278 2.90638733 -0.0158844 C4.93294304 -0.02230215 6.95953602 -0.02097081 8.98608398 -0.01245117 C12.08319614 -0.00394596 15.17846088 -0.03269858 18.27539062 -0.06445312 C20.2460932 -0.06606539 22.21679903 -0.06548712 24.1875 -0.0625 C25.11159164 -0.07373398 26.03568329 -0.08496796 26.98777771 -0.09654236 C31.13100438 -0.05174487 33.53777633 0.06389572 37.15844727 2.21459961 C41.4214565 6.94035774 41.4790303 10.90679687 41.49609375 17.14453125 C41.50275055 17.99028717 41.50940735 18.83604309 41.51626587 19.70742798 C41.52637748 21.49438303 41.53108335 23.28137574 41.53076172 25.06835938 C41.53513013 27.79230478 41.57145064 30.51462288 41.609375 33.23828125 C41.61524458 34.97785907 41.61921303 36.71744455 41.62109375 38.45703125 C41.63546478 39.26659271 41.64983582 40.07615417 41.66464233 40.9102478 C41.6222712 46.1948507 40.74557715 49.29487202 37.16015625 53.43359375 C34.34504973 55.14792555 32.22286015 55.6893813 28.94580078 55.72412109 C28.12459747 55.7368808 27.30339417 55.7496405 26.45730591 55.76278687 C25.57807465 55.76501251 24.69884338 55.76723816 23.79296875 55.76953125 C22.42445267 55.77951645 22.42445267 55.77951645 21.02828979 55.78970337 C19.10009779 55.79981825 17.17187085 55.80452075 15.24365234 55.80419922 C12.30246917 55.80856803 9.36279236 55.84488742 6.421875 55.8828125 C4.54557803 55.88868188 2.66927396 55.89265046 0.79296875 55.89453125 C-0.08221405 55.90890228 -0.95739685 55.92327332 -1.85910034 55.93807983 C-7.3165268 55.89749899 -10.58199388 55.18218269 -14.83984375 51.43359375 C-17.74151245 47.78913965 -17.14559277 43.13931133 -17.140625 38.6875 C-17.14491013 37.83937241 -17.14919525 36.99124481 -17.15361023 36.11741638 C-17.1593451 34.32625215 -17.15986 32.53506463 -17.15551758 30.74389648 C-17.15235888 28.00919709 -17.1758222 25.27558124 -17.20117188 22.54101562 C-17.20344515 20.79817844 -17.20414824 19.05533836 -17.203125 17.3125 C-17.21233475 16.49777725 -17.22154449 15.6830545 -17.23103333 14.84364319 C-17.18470319 9.13477401 -16.1017022 6.00166871 -12.26733398 1.64819336 C-8.32664978 -0.32353589 -4.34467723 -0.01377193 0 0 Z M-0.83984375 15.43359375 C-0.83984375 23.35359375 -0.83984375 31.27359375 -0.83984375 39.43359375 C7.74015625 39.43359375 16.32015625 39.43359375 25.16015625 39.43359375 C25.16015625 31.51359375 25.16015625 23.59359375 25.16015625 15.43359375 C16.58015625 15.43359375 8.00015625 15.43359375 -0.83984375 15.43359375 Z " fill="#464646" transform="translate(308.83984375,283.56640625)"/>
<path d="M0 0 C0.86454803 -0.0127597 1.72909607 -0.02551941 2.61984253 -0.03866577 C4.01675827 -0.04200424 4.01675827 -0.04200424 5.44189453 -0.04541016 C6.4024173 -0.05206696 7.36294006 -0.05872375 8.35256958 -0.06558228 C10.385092 -0.07570951 12.41764768 -0.08039927 14.45019531 -0.08007812 C17.5560608 -0.08444643 20.66049974 -0.12075197 23.76611328 -0.15869141 C25.74136884 -0.16456054 27.71663115 -0.16852929 29.69189453 -0.17041016 C31.08273758 -0.19196671 31.08273758 -0.19196671 32.50167847 -0.21395874 C36.65652741 -0.18460145 39.06740567 -0.08432601 42.70019531 2.06933594 C46.95796218 6.79914826 47.01857894 10.76294973 47.03564453 17.00146484 C47.04230133 17.84722076 47.04895813 18.69297668 47.05581665 19.56436157 C47.06592827 21.35131663 47.07063413 23.13830933 47.0703125 24.92529297 C47.07468091 27.64923837 47.11100142 30.37155647 47.14892578 33.09521484 C47.15479536 34.83479266 47.15876381 36.57437814 47.16064453 38.31396484 C47.17501556 39.12352631 47.1893866 39.93308777 47.20419312 40.7671814 C47.16182198 46.05178429 46.28512793 49.15180561 42.69970703 53.29052734 C39.88460051 55.00485914 37.76241094 55.54631489 34.48535156 55.58105469 C33.66414825 55.59381439 32.84294495 55.6065741 31.99685669 55.61972046 C31.11762543 55.62194611 30.23839417 55.62417175 29.33251953 55.62646484 C27.96400345 55.63645004 27.96400345 55.63645004 26.56784058 55.64663696 C24.63964857 55.65675184 22.71142164 55.66145434 20.78320312 55.66113281 C17.84201995 55.66550163 14.90234314 55.70182102 11.96142578 55.73974609 C10.08512881 55.74561547 8.20882474 55.74958405 6.33251953 55.75146484 C5.45733673 55.76583588 4.58215393 55.78020691 3.68045044 55.79501343 C-1.77697602 55.75443258 -5.04244309 55.03911629 -9.30029297 51.29052734 C-12.1874644 47.6537117 -11.62408024 43.02124135 -11.63623047 38.57958984 C-11.64288727 37.73383392 -11.64954407 36.888078 -11.65640259 36.01669312 C-11.6665142 34.22973806 -11.67122007 32.44274535 -11.67089844 30.65576172 C-11.67526685 27.93181632 -11.71158736 25.20949822 -11.74951172 22.48583984 C-11.75538129 20.74626203 -11.75934975 19.00667655 -11.76123047 17.26708984 C-11.78278702 16.05274765 -11.78278702 16.05274765 -11.80477905 14.81387329 C-11.76227329 9.51247892 -10.83130993 6.4844586 -7.30029297 2.29052734 C-4.20656953 0.22804505 -3.50828801 0.03519586 0 0 Z M4.69970703 15.29052734 C4.69970703 23.21052734 4.69970703 31.13052734 4.69970703 39.29052734 C13.27970703 39.29052734 21.85970703 39.29052734 30.69970703 39.29052734 C30.69970703 31.37052734 30.69970703 23.45052734 30.69970703 15.29052734 C22.11970703 15.29052734 13.53970703 15.29052734 4.69970703 15.29052734 Z " fill="#474747" transform="translate(238.30029296875,283.70947265625)"/>
<path d="M0 0 C0.86132034 -0.0159874 1.72264069 -0.03197479 2.61006165 -0.04844666 C3.53820175 -0.05380936 4.46634186 -0.05917206 5.42260742 -0.06469727 C6.38075851 -0.07372574 7.33890961 -0.08275421 8.32609558 -0.09205627 C10.35440951 -0.10656773 12.38277034 -0.11544773 14.41113281 -0.11914062 C17.50626136 -0.13101979 20.59938513 -0.18018204 23.6940918 -0.23071289 C25.66608729 -0.24017924 27.63809501 -0.24741326 29.61010742 -0.25219727 C30.53217484 -0.27172958 31.45424225 -0.2912619 32.4042511 -0.31138611 C36.76626368 -0.28094073 39.78989563 -0.11327801 43.28466797 2.65380859 C47.30310828 7.03869903 46.90283371 11.26418482 46.95385742 16.91967773 C46.96192917 17.7668486 46.97000092 18.61401947 46.97831726 19.48686218 C46.99214307 21.27979494 47.00287195 23.07275386 47.01074219 24.86572266 C47.0279472 27.59841155 47.07184466 30.32988775 47.1159668 33.06225586 C47.12609504 34.80638761 47.13461073 36.55052962 47.14135742 38.29467773 C47.15886551 39.10737625 47.1763736 39.92007477 47.19441223 40.75740051 C47.17428916 46.05835742 46.31766796 49.1561001 42.71557617 53.30639648 C39.89147106 55.02827948 37.77381026 55.56007433 34.48535156 55.58105469 C33.66092056 55.5905867 32.83648956 55.60011871 31.98707581 55.60993958 C31.10470749 55.60902817 30.22233917 55.60811676 29.31323242 55.60717773 C28.39851669 55.61146286 27.48380096 55.61574799 26.54136658 55.62016296 C24.60896634 55.62589972 22.6765445 55.62641135 20.74414062 55.62207031 C17.792186 55.61891158 14.84123498 55.64237327 11.8894043 55.66772461 C10.00984827 55.66999783 8.13028955 55.67070099 6.25073242 55.66967773 C5.37038834 55.67888748 4.49004425 55.68809723 3.58302307 55.69758606 C-1.16076395 55.66188203 -4.52566662 55.52286072 -8.28442383 52.30639648 C-11.87964891 48.00323702 -11.73745004 43.84932827 -11.71801758 38.49780273 C-11.72325943 37.65346176 -11.72850128 36.80912079 -11.73390198 35.93919373 C-11.74030882 34.15820411 -11.73900252 32.3771721 -11.73046875 30.59619141 C-11.7219617 27.88098284 -11.75073213 25.16788166 -11.7824707 22.45288086 C-11.78408306 20.71785544 -11.78350453 18.98282633 -11.78051758 17.24780273 C-11.79175156 16.44137833 -11.80298553 15.63495392 -11.81455994 14.80409241 C-11.74969009 9.51948058 -10.79879241 6.48838768 -7.28442383 2.30639648 C-4.2003429 0.25034253 -3.49632071 0.04914829 0 0 Z M4.71557617 15.30639648 C4.71557617 23.22639648 4.71557617 31.14639648 4.71557617 39.30639648 C13.29557617 39.30639648 21.87557617 39.30639648 30.71557617 39.30639648 C30.71557617 31.38639648 30.71557617 23.46639648 30.71557617 15.30639648 C22.13557617 15.30639648 13.55557617 15.30639648 4.71557617 15.30639648 Z " fill="#464646" transform="translate(173.284423828125,283.693603515625)"/>
<path d="M0 0 C1.43510422 -0.01142029 1.43510422 -0.01142029 2.89920044 -0.02307129 C4.92154331 -0.033868 6.94394191 -0.03672714 8.96630859 -0.03222656 C12.05271006 -0.03125554 15.1366145 -0.0728549 18.22265625 -0.1171875 C20.190099 -0.12239571 22.15755036 -0.12508267 24.125 -0.125 C25.50339554 -0.1495929 25.50339554 -0.1495929 26.90963745 -0.17468262 C31.30131419 -0.12757705 34.27258096 0.05993907 37.76220703 2.88085938 C41.81750765 7.1941432 41.38544534 10.78100035 41.43359375 16.45703125 C41.4416655 17.35238083 41.44973724 18.24773041 41.45805359 19.17021179 C41.4718968 21.06747499 41.48261789 22.96476313 41.49047852 24.86206055 C41.50768296 27.75943394 41.55156527 30.65566379 41.59570312 33.55273438 C41.60583082 35.39582494 41.61434668 37.23892521 41.62109375 39.08203125 C41.63860184 39.94677567 41.65610992 40.81152008 41.67414856 41.70246887 C41.65970909 45.72014625 41.52437268 47.92019579 39.41870117 51.43041992 C36.09917827 54.47365005 33.47035404 55.71466462 28.96508789 55.7434082 C28.14065689 55.75294022 27.31622589 55.76247223 26.46681213 55.77229309 C25.58444382 55.77138168 24.7020755 55.77047028 23.79296875 55.76953125 C22.87825302 55.77381638 21.96353729 55.7781015 21.02110291 55.78251648 C19.08870267 55.78825323 17.15628083 55.78876486 15.22387695 55.78442383 C12.27192232 55.7812651 9.32097131 55.80472679 6.36914062 55.83007812 C4.4895846 55.83235135 2.61002588 55.83305451 0.73046875 55.83203125 C-0.14987534 55.841241 -1.03021942 55.85045074 -1.9372406 55.85993958 C-6.65779654 55.82441039 -10.11235498 55.7387076 -13.8046875 52.46875 C-17.02186077 47.68473162 -17.24759765 43.56239985 -17.203125 38 C-17.20743027 36.8021991 -17.20743027 36.8021991 -17.21182251 35.5802002 C-17.21385533 33.89932543 -17.20838039 32.21842658 -17.19580078 30.53759766 C-17.17973515 27.97634589 -17.19567528 25.4166719 -17.21484375 22.85546875 C-17.21286118 21.21614238 -17.20901721 19.57681698 -17.203125 17.9375 C-17.20919769 17.17796021 -17.21527039 16.41842041 -17.2215271 15.63586426 C-17.14760381 10.00005941 -15.98223349 6.02103647 -12.22998047 1.62304688 C-8.28521253 -0.25443076 -4.3135608 0.00094132 0 0 Z M-0.8046875 15.46875 C-0.8046875 23.38875 -0.8046875 31.30875 -0.8046875 39.46875 C7.7753125 39.46875 16.3553125 39.46875 25.1953125 39.46875 C25.1953125 31.54875 25.1953125 23.62875 25.1953125 15.46875 C16.6153125 15.46875 8.0353125 15.46875 -0.8046875 15.46875 Z " fill="#474747" transform="translate(343.8046875,355.53125)"/>
<path d="M0 0 C1.29693535 -0.01925285 1.29693535 -0.01925285 2.62007141 -0.03889465 C3.55650986 -0.04628159 4.4929483 -0.05366852 5.45776367 -0.0612793 C6.41970139 -0.06935104 7.3816391 -0.07742279 8.37272644 -0.08573914 C10.41122635 -0.09958415 12.44974948 -0.11030443 14.48828125 -0.11816406 C17.60290579 -0.13537193 20.7164676 -0.17925381 23.83081055 -0.22338867 C25.81062044 -0.23351596 27.79043937 -0.24203195 29.77026367 -0.2487793 C30.70062943 -0.26628738 31.63099518 -0.28379547 32.58955383 -0.30183411 C36.71422041 -0.28802874 39.17979783 -0.18460015 42.81591797 1.89111328 C47.03179608 6.71610616 47.12140421 11.34718606 47.11401367 17.5480957 C47.1182988 18.34804459 47.12258392 19.14799347 47.1269989 19.97218323 C47.13272521 21.6590175 47.13325502 23.34587646 47.12890625 25.03271484 C47.1257469 27.60272658 47.14922346 30.17158551 47.17456055 32.74145508 C47.17683391 34.38533384 47.17753687 36.02921568 47.17651367 37.6730957 C47.18572342 38.43577255 47.19493317 39.1984494 47.204422 39.98423767 C47.16344013 44.74890175 46.55315341 48.11103545 43.81323242 52.17700195 C39.49587829 55.9834147 34.8155195 55.62895753 29.34838867 55.6105957 C27.98199501 55.61845848 27.98199501 55.61845848 26.58799744 55.6264801 C24.66577166 55.63288961 22.7435066 55.63157719 20.82128906 55.62304688 C17.88885259 55.61454001 14.9583671 55.64330766 12.02612305 55.67504883 C10.15437884 55.67666115 8.28263119 55.67608272 6.41088867 55.6730957 C5.53884293 55.68432968 4.66679718 55.69556366 3.76832581 55.70713806 C-1.69355699 55.64497756 -4.88015231 54.85488387 -9.18676758 51.17700195 C-11.19597914 48.1631846 -11.44203946 47.54879778 -11.49316406 44.16796875 C-11.50915146 43.36671066 -11.52513885 42.56545258 -11.54161072 41.73991394 C-11.54697342 40.87739517 -11.55233612 40.0148764 -11.55786133 39.1262207 C-11.5668898 38.23465775 -11.57591827 37.34309479 -11.58522034 36.42451477 C-11.59972877 34.53743855 -11.60861105 32.65031197 -11.61230469 30.76318359 C-11.62418183 27.88527851 -11.67334346 25.00953132 -11.72387695 22.13208008 C-11.7333437 20.29680406 -11.74057753 18.4615149 -11.74536133 16.6262207 C-11.76489365 15.76977463 -11.78442596 14.91332855 -11.80455017 14.03092957 C-11.77264025 9.77443227 -11.50591909 7.0232766 -8.77685547 3.64892578 C-5.58765332 0.60522027 -4.25233471 0.05492593 0 0 Z M4.81323242 15.17700195 C4.81323242 23.09700195 4.81323242 31.01700195 4.81323242 39.17700195 C13.39323242 39.17700195 21.97323242 39.17700195 30.81323242 39.17700195 C30.81323242 31.25700195 30.81323242 23.33700195 30.81323242 15.17700195 C22.23323242 15.17700195 13.65323242 15.17700195 4.81323242 15.17700195 Z " fill="#464646" transform="translate(433.186767578125,283.822998046875)"/>
<path d="M0 0 C1.29693535 -0.01925285 1.29693535 -0.01925285 2.62007141 -0.03889465 C3.55650986 -0.04628159 4.4929483 -0.05366852 5.45776367 -0.0612793 C6.41970139 -0.06935104 7.3816391 -0.07742279 8.37272644 -0.08573914 C10.41122635 -0.09958415 12.44974948 -0.11030443 14.48828125 -0.11816406 C17.60290579 -0.13537193 20.7164676 -0.17925381 23.83081055 -0.22338867 C25.81062044 -0.23351596 27.79043937 -0.24203195 29.77026367 -0.2487793 C30.70062943 -0.26628738 31.63099518 -0.28379547 32.58955383 -0.30183411 C36.75592595 -0.28788916 39.17103873 -0.20296744 42.81591797 1.95361328 C47.02471814 6.63880374 47.12112329 10.49309192 47.11401367 16.66918945 C47.1182988 17.49274933 47.12258392 18.3163092 47.1269989 19.16482544 C47.13273367 20.90471479 47.13324875 22.64462811 47.12890625 24.38452148 C47.12575167 27.03582056 47.14919648 29.68599743 47.17456055 32.3371582 C47.17683429 34.03116722 47.17753669 35.72517922 47.17651367 37.41918945 C47.18572342 38.20687714 47.19493317 38.99456482 47.204422 39.80612183 C47.16417834 44.63516568 46.60374383 48.06070262 43.81323242 52.17700195 C39.49587829 55.9834147 34.8155195 55.62895753 29.34838867 55.6105957 C27.98199501 55.61845848 27.98199501 55.61845848 26.58799744 55.6264801 C24.66577166 55.63288961 22.7435066 55.63157719 20.82128906 55.62304688 C17.88885259 55.61454001 14.9583671 55.64330766 12.02612305 55.67504883 C10.15437884 55.67666115 8.28263119 55.67608272 6.41088867 55.6730957 C5.53884293 55.68432968 4.66679718 55.69556366 3.76832581 55.70713806 C-1.67355081 55.64520525 -4.93963525 54.90920593 -9.18676758 51.17700195 C-12.09890019 47.53223421 -11.52923512 42.70714388 -11.55786133 38.24731445 C-11.5668898 37.37936249 -11.57591827 36.51141052 -11.58522034 35.61715698 C-11.59970969 33.78313641 -11.60860631 31.94906431 -11.61230469 30.11499023 C-11.624198 27.31836279 -11.67339138 24.523945 -11.72387695 21.7277832 C-11.73334225 19.94263768 -11.74057678 18.15747866 -11.74536133 16.37231445 C-11.76489365 15.54087921 -11.78442596 14.70944397 -11.80455017 13.85281372 C-11.77214855 9.65466965 -11.46608069 6.98945539 -8.77685547 3.66479492 C-5.58964085 0.60345861 -4.26096118 0.05503736 0 0 Z M4.81323242 15.17700195 C4.81323242 23.09700195 4.81323242 31.01700195 4.81323242 39.17700195 C13.39323242 39.17700195 21.97323242 39.17700195 30.81323242 39.17700195 C30.81323242 31.25700195 30.81323242 23.33700195 30.81323242 15.17700195 C22.23323242 15.17700195 13.65323242 15.17700195 4.81323242 15.17700195 Z " fill="#464646" transform="translate(368.186767578125,283.822998046875)"/>
<path d="M0 0 C1.43510422 -0.01142029 1.43510422 -0.01142029 2.89920044 -0.02307129 C4.92154331 -0.033868 6.94394191 -0.03672714 8.96630859 -0.03222656 C12.05271006 -0.03125554 15.1366145 -0.0728549 18.22265625 -0.1171875 C20.190099 -0.12239571 22.15755036 -0.12508267 24.125 -0.125 C25.50339554 -0.1495929 25.50339554 -0.1495929 26.90963745 -0.17468262 C31.30131419 -0.12757705 34.27258096 0.05993907 37.76220703 2.88085938 C41.81750765 7.1941432 41.38544534 10.78100035 41.43359375 16.45703125 C41.4416655 17.35238083 41.44973724 18.24773041 41.45805359 19.17021179 C41.4718968 21.06747499 41.48261789 22.96476313 41.49047852 24.86206055 C41.50768296 27.75943394 41.55156527 30.65566379 41.59570312 33.55273438 C41.60583082 35.39582494 41.61434668 37.23892521 41.62109375 39.08203125 C41.63860184 39.94677567 41.65610992 40.81152008 41.67414856 41.70246887 C41.65970909 45.72014625 41.52437268 47.92019579 39.41870117 51.43041992 C36.09917827 54.47365005 33.47035404 55.71466462 28.96508789 55.7434082 C28.14065689 55.75294022 27.31622589 55.76247223 26.46681213 55.77229309 C25.58444382 55.77138168 24.7020755 55.77047028 23.79296875 55.76953125 C22.87825302 55.77381638 21.96353729 55.7781015 21.02110291 55.78251648 C19.08870267 55.78825323 17.15628083 55.78876486 15.22387695 55.78442383 C12.27192232 55.7812651 9.32097131 55.80472679 6.36914062 55.83007812 C4.4895846 55.83235135 2.61002588 55.83305451 0.73046875 55.83203125 C-0.14987534 55.841241 -1.03021942 55.85045074 -1.9372406 55.85993958 C-6.65779654 55.82441039 -10.11235498 55.7387076 -13.8046875 52.46875 C-17.02186077 47.68473162 -17.24759765 43.56239985 -17.203125 38 C-17.20743027 36.8021991 -17.20743027 36.8021991 -17.21182251 35.5802002 C-17.21385533 33.89932543 -17.20838039 32.21842658 -17.19580078 30.53759766 C-17.17973515 27.97634589 -17.19567528 25.4166719 -17.21484375 22.85546875 C-17.21286118 21.21614238 -17.20901721 19.57681698 -17.203125 17.9375 C-17.20919769 17.17796021 -17.21527039 16.41842041 -17.2215271 15.63586426 C-17.14760381 10.00005941 -15.98223349 6.02103647 -12.22998047 1.62304688 C-8.28521253 -0.25443076 -4.3135608 0.00094132 0 0 Z M-0.8046875 15.46875 C-0.8046875 23.38875 -0.8046875 31.30875 -0.8046875 39.46875 C7.7753125 39.46875 16.3553125 39.46875 25.1953125 39.46875 C25.1953125 31.54875 25.1953125 23.62875 25.1953125 15.46875 C16.6153125 15.46875 8.0353125 15.46875 -0.8046875 15.46875 Z " fill="#474747" transform="translate(48.8046875,283.53125)"/>
<path d="M0 0 C0.84137512 -0.01283524 1.68275024 -0.02567047 2.54962158 -0.03889465 C3.46104919 -0.04628159 4.37247681 -0.05366852 5.31152344 -0.0612793 C6.24889343 -0.06935104 7.18626343 -0.07742279 8.15203857 -0.08573914 C10.13926338 -0.09958491 12.12651203 -0.11030485 14.11376953 -0.11816406 C17.14499389 -0.13535117 20.17512033 -0.17922969 23.20605469 -0.22338867 C25.13703625 -0.23351788 27.06802709 -0.24203327 28.99902344 -0.2487793 C29.90235413 -0.26628738 30.80568481 -0.28379547 31.73638916 -0.30183411 C37.25378968 -0.28293266 40.66972344 0.29749401 44.92089844 4.17700195 C47.45164942 8.33235383 47.22732454 12.81187966 47.22167969 17.5480957 C47.22596481 18.34804459 47.23024994 19.14799347 47.23466492 19.97218323 C47.24039122 21.6590175 47.24092103 23.34587646 47.23657227 25.03271484 C47.23341291 27.60272658 47.25688947 30.17158551 47.28222656 32.74145508 C47.28449992 34.38533384 47.28520288 36.02921568 47.28417969 37.6730957 C47.29338943 38.43577255 47.30259918 39.1984494 47.31208801 39.98423767 C47.27110614 44.74890175 46.66081942 48.11103545 43.92089844 52.17700195 C39.60354431 55.9834147 34.92318552 55.62895753 29.45605469 55.6105957 C28.08966103 55.61845848 28.08966103 55.61845848 26.69566345 55.6264801 C24.77343767 55.63288961 22.85117262 55.63157719 20.92895508 55.62304688 C17.99651861 55.61454001 15.06603312 55.64330766 12.13378906 55.67504883 C10.26204485 55.67666115 8.39029721 55.67608272 6.51855469 55.6730957 C5.64650894 55.68432968 4.7744632 55.69556366 3.87599182 55.70713806 C-1.58589097 55.64497756 -4.77248629 54.85488387 -9.07910156 51.17700195 C-11.08831313 48.1631846 -11.33437344 47.54879778 -11.38549805 44.16796875 C-11.40148544 43.36671066 -11.41747284 42.56545258 -11.4339447 41.73991394 C-11.4393074 40.87739517 -11.4446701 40.0148764 -11.45019531 39.1262207 C-11.45922379 38.23465775 -11.46825226 37.34309479 -11.47755432 36.42451477 C-11.49206276 34.53743855 -11.50094503 32.65031197 -11.50463867 30.76318359 C-11.51651582 27.88527851 -11.56567744 25.00953132 -11.61621094 22.13208008 C-11.62567768 20.29680406 -11.63291151 18.4615149 -11.63769531 16.6262207 C-11.65722763 15.76977463 -11.67675995 14.91332855 -11.69688416 14.03092957 C-11.66497424 9.77443227 -11.39825308 7.0232766 -8.66918945 3.64892578 C-5.51875232 0.64221677 -4.19756272 0.05573828 0 0 Z M4.92089844 15.17700195 C4.92089844 23.09700195 4.92089844 31.01700195 4.92089844 39.17700195 C13.50089844 39.17700195 22.08089844 39.17700195 30.92089844 39.17700195 C30.92089844 31.25700195 30.92089844 23.33700195 30.92089844 15.17700195 C22.34089844 15.17700195 13.76089844 15.17700195 4.92089844 15.17700195 Z " fill="#464646" transform="translate(138.0791015625,355.822998046875)"/>
<path d="M0 0 C0.86132034 -0.0159874 1.72264069 -0.03197479 2.61006165 -0.04844666 C3.53820175 -0.05380936 4.46634186 -0.05917206 5.42260742 -0.06469727 C6.38075851 -0.07372574 7.33890961 -0.08275421 8.32609558 -0.09205627 C10.35440951 -0.10656773 12.38277034 -0.11544773 14.41113281 -0.11914062 C17.50626136 -0.13101979 20.59938513 -0.18018204 23.6940918 -0.23071289 C25.66608729 -0.24017924 27.63809501 -0.24741326 29.61010742 -0.25219727 C30.53217484 -0.27172958 31.45424225 -0.2912619 32.4042511 -0.31138611 C36.80635205 -0.28066093 39.78544392 -0.11248789 43.28466797 2.71630859 C47.28429066 6.97783286 46.90490242 10.43540726 46.95385742 16.04077148 C46.96192917 16.91155334 46.97000092 17.78233521 46.97831726 18.67950439 C46.99216124 20.52549243 47.00288199 22.37150609 47.01074219 24.2175293 C47.02792418 27.03150483 47.07180285 29.844296 47.1159668 32.65795898 C47.12609657 34.45222118 47.13461178 36.24649337 47.14135742 38.04077148 C47.15886551 38.87848083 47.1763736 39.71619019 47.19441223 40.57928467 C47.1746272 45.94841813 46.38161881 49.10858242 42.71557617 53.30639648 C39.8908096 55.02718821 37.77399186 55.56007317 34.48535156 55.58105469 C33.66092056 55.5905867 32.83648956 55.60011871 31.98707581 55.60993958 C31.10470749 55.60902817 30.22233917 55.60811676 29.31323242 55.60717773 C28.39851669 55.61146286 27.48380096 55.61574799 26.54136658 55.62016296 C24.60896634 55.62589972 22.6765445 55.62641135 20.74414062 55.62207031 C17.792186 55.61891158 14.84123498 55.64237327 11.8894043 55.66772461 C10.00984827 55.66999783 8.13028955 55.67070099 6.25073242 55.66967773 C5.37038834 55.67888748 4.49004425 55.68809723 3.58302307 55.69758606 C-1.13753287 55.66205688 -4.59209131 55.57635409 -8.28442383 52.30639648 C-11.5440502 47.47824485 -11.73914033 43.24138902 -11.71801758 37.61889648 C-11.72325943 36.7981665 -11.72850128 35.97743652 -11.73390198 35.13183594 C-11.74029938 33.40390144 -11.73901485 31.67592326 -11.73046875 29.94799805 C-11.72194864 27.31406765 -11.75076582 24.6823011 -11.7824707 22.04858398 C-11.78408278 20.3636888 -11.78350505 18.67878979 -11.78051758 16.99389648 C-11.79175156 16.21248291 -11.80298553 15.43106934 -11.81455994 14.62597656 C-11.74856461 9.41323111 -10.7338161 6.43645112 -7.28442383 2.30639648 C-4.2003429 0.25034253 -3.49632071 0.04914829 0 0 Z M4.71557617 15.30639648 C4.71557617 23.22639648 4.71557617 31.14639648 4.71557617 39.30639648 C13.29557617 39.30639648 21.87557617 39.30639648 30.71557617 39.30639648 C30.71557617 31.38639648 30.71557617 23.46639648 30.71557617 15.30639648 C22.13557617 15.30639648 13.55557617 15.30639648 4.71557617 15.30639648 Z " fill="#474747" transform="translate(108.284423828125,283.693603515625)"/>
</svg>
