<?xml version="1.0" encoding="UTF-8"?>
<svg version="1.1" xmlns="http://www.w3.org/2000/svg" width="512" height="512">
<path d="M0 0 C1.58209959 -0.0045853 3.16419721 -0.0098976 4.74629211 -0.0158844 C8.03626678 -0.0247283 11.32599764 -0.02249569 14.6159668 -0.01245117 C17.93881459 -0.00327809 21.26095864 -0.01015486 24.58374023 -0.03295898 C61.52581881 -0.28508454 94.92216948 4.7716816 125.92578125 26.43359375 C126.90417969 27.11421875 127.88257813 27.79484375 128.890625 28.49609375 C161.66212422 52.47721556 183.2031604 88.0747086 189.5123167 128.16016865 C191.05683207 140.16815768 191.21620094 152.0327416 191.20043945 164.12768555 C191.20479679 166.36048044 191.2099833 168.59327383 191.21592712 170.82606506 C191.22921987 176.84288967 191.22990661 182.85965109 191.22736382 188.87648749 C191.22628727 193.92297353 191.23119496 198.96944713 191.23596925 204.01593047 C191.24766165 216.61460612 191.24685872 229.21324349 191.24041244 241.81191853 C191.23524934 252.69857472 191.24649022 263.58514126 191.26551066 274.47177973 C191.28498639 285.70701414 191.2928381 296.94220756 191.2893874 308.17746288 C191.28758613 314.46236704 191.29009385 320.74718913 191.30410194 327.0320797 C191.31679938 332.94940651 191.31462508 338.86655573 191.30169106 344.78388023 C191.29935126 346.93709375 191.3019648 349.09032023 191.31031418 351.24351883 C191.47463261 396.96968945 178.03203017 437.12579174 145.80078125 470.05859375 C137.8801605 477.95091709 129.37012009 484.47618168 119.92578125 490.43359375 C119.31105957 490.82369629 118.69633789 491.21379883 118.06298828 491.61572266 C94.63965736 506.25770114 67.2494718 512.93862559 39.81640625 512.8671875 C38.23191104 512.87177235 36.64741778 512.87708452 35.06292725 512.8830719 C31.76875651 512.89191508 28.4748293 512.88968341 25.18066406 512.87963867 C21.85098105 512.87045905 18.5219999 512.87735767 15.19238281 512.90014648 C-20.81877972 513.1452814 -20.81877972 513.1452814 -38.07421875 508.43359375 C-39.12641602 508.15652588 -40.17861328 507.87945801 -41.26269531 507.59399414 C-43.66185282 506.89790118 -45.98481985 506.11972709 -48.32421875 505.24609375 C-49.1352002 504.95130127 -49.94618164 504.65650879 -50.78173828 504.3527832 C-70.13597842 497.06521531 -86.2743972 485.69169416 -101.07421875 471.43359375 C-101.77933594 470.79164063 -102.48445313 470.1496875 -103.2109375 469.48828125 C-126.6896967 447.48587404 -139.94761707 413.76434332 -144.07421875 382.43359375 C-144.16335195 381.76045167 -144.25248514 381.08730959 -144.34431934 380.39376926 C-145.47480418 370.087298 -145.22224977 359.71024381 -145.21948242 349.35717773 C-145.222478 347.11877893 -145.22588145 344.88038065 -145.22966003 342.64198303 C-145.23846487 336.58376502 -145.2408367 330.52556116 -145.24147582 324.46733737 C-145.24218847 320.67454874 -145.24432687 316.88176365 -145.24697304 313.08897591 C-145.25573953 300.51751408 -145.26039419 287.94606024 -145.25964256 275.37459599 C-145.25960261 274.69853547 -145.25956265 274.02247494 -145.25952148 273.32592773 C-145.2594806 272.64902844 -145.25943972 271.97212915 -145.2593976 271.27471776 C-145.2589917 260.32033358 -145.26854987 249.36598386 -145.28265985 238.41160964 C-145.29707903 227.12686894 -145.30374451 215.84214445 -145.30306607 204.55739266 C-145.30281223 198.23677243 -145.30560003 191.91619123 -145.31624413 185.59557915 C-145.32599382 179.64390739 -145.32595761 173.6923114 -145.31872749 167.74063683 C-145.31769005 165.56962217 -145.31999389 163.39860263 -145.32608795 161.22759628 C-145.36892108 144.89634559 -144.83918011 128.72859041 -140.82421875 112.80859375 C-140.60660889 111.93090332 -140.38899902 111.05321289 -140.16479492 110.14892578 C-133.38415215 83.70465949 -119.92873575 61.00446778 -101.07421875 41.43359375 C-100.43226563 40.72847656 -99.7903125 40.02335937 -99.12890625 39.296875 C-74.14268229 12.63408623 -35.72642811 -0.09322501 0 0 Z M-85.07421875 55.43359375 C-85.82445312 56.119375 -86.5746875 56.80515625 -87.34765625 57.51171875 C-109.2873363 78.2966788 -122.90603766 110.59498678 -124.16904688 140.69341719 C-124.20804617 143.20515198 -124.21712848 145.71521114 -124.21466064 148.22724915 C-124.21763177 149.18439715 -124.22060289 150.14154516 -124.22366405 151.12769765 C-124.23230282 154.31992266 -124.23385522 157.51210995 -124.23535156 160.7043457 C-124.23998331 162.99979227 -124.24500845 165.29523807 -124.25039673 167.59068298 C-124.26349205 173.81855881 -124.26996058 180.04642387 -124.27440739 186.2743113 C-124.27734393 190.17212012 -124.28144993 194.06992603 -124.28591156 197.96773338 C-124.29801688 208.78447136 -124.30839903 219.60120612 -124.31178665 230.41795063 C-124.31200622 231.10924624 -124.31222578 231.80054184 -124.312452 232.5127858 C-124.31267028 233.205635 -124.31288856 233.8984842 -124.31311345 234.61232883 C-124.3135569 236.016048 -124.31400346 237.41976716 -124.31445312 238.82348633 C-124.31467455 239.5197635 -124.31489598 240.21604068 -124.31512412 240.93341716 C-124.31906401 252.19125848 -124.33649486 263.44903475 -124.35981265 274.70685098 C-124.38362399 286.29773687 -124.39573592 297.88858705 -124.39715457 309.47949761 C-124.39819823 315.97403894 -124.40401156 322.46848852 -124.42197418 328.96300697 C-124.43856919 335.08210436 -124.44055536 341.20104218 -124.43183517 347.32015419 C-124.43107077 349.55202668 -124.43532762 351.78390815 -124.44529343 354.01575851 C-124.60793018 392.7456607 -114.2924659 427.00457049 -87.07421875 455.43359375 C-86.39101562 456.17996094 -85.7078125 456.92632812 -85.00390625 457.6953125 C-72.36988328 471.05194564 -56.1287702 480.24683971 -38.88671875 486.24609375 C-38.11126709 486.52412842 -37.33581543 486.80216309 -36.53686523 487.08862305 C-19.3585168 492.72776311 -1.41255368 492.89228815 16.48144531 492.76977539 C20.18446479 492.74603809 23.88676653 492.74925896 27.58984375 492.75585938 C63.6122969 492.71394896 95.93938456 485.01324353 123.92578125 461.43359375 C124.43592773 461.00852539 124.94607422 460.58345703 125.47167969 460.14550781 C145.12071985 443.58648792 158.72352465 420.92089577 165.73828125 396.30859375 C165.93325195 395.62949951 166.12822266 394.95040527 166.32910156 394.25073242 C170.18071442 379.81737367 170.2192489 365.46776708 170.20043945 350.64941406 C170.20479392 348.37116327 170.20997951 346.09291394 170.21592712 343.81466675 C170.22925014 337.6615742 170.22990322 331.50854333 170.22736382 325.35543919 C170.22628942 320.20185761 170.2311895 315.04828828 170.23596925 309.89470935 C170.24767317 297.03256244 170.24685267 284.17045463 170.24041244 271.30830607 C170.2352476 260.17949622 170.24649278 249.05077401 170.26551066 237.92198148 C170.28495922 226.45181413 170.29284241 214.98169847 170.2893874 203.51151347 C170.28758246 197.08920017 170.29013139 190.66696712 170.30410194 184.24466705 C170.31676008 178.20017332 170.31466121 172.1558538 170.30169106 166.11136246 C170.29934292 163.90648207 170.30199581 161.70158912 170.31031418 159.49672318 C170.45147675 119.13648025 158.03860467 84.87385069 129.43359375 55.91015625 C102.61842842 30.85336242 69.06701023 20.43359375 32.92578125 20.43359375 C32.92578125 33.63359375 32.92578125 46.83359375 32.92578125 60.43359375 C35.89578125 62.08359375 38.86578125 63.73359375 41.92578125 65.43359375 C44.23046875 67.42578125 44.23046875 67.42578125 45.80078125 69.30859375 C46.33445312 69.92476562 46.868125 70.5409375 47.41796875 71.17578125 C51.15428881 76.77058176 52.30213098 81.35829675 52.32983398 88.06201172 C52.33669724 88.78984863 52.34356049 89.51768555 52.35063171 90.26757812 C52.36880887 92.653849 52.36507494 95.03945655 52.359375 97.42578125 C52.36394168 99.09815685 52.3692487 100.77053058 52.3752594 102.44290161 C52.38417305 105.94134157 52.38178798 109.43955304 52.37182617 112.93798828 C52.36034782 117.40215363 52.38053907 121.86552661 52.40974331 126.32958794 C52.4281679 129.78192077 52.4278003 133.23406599 52.42210579 136.6864357 C52.42195329 138.33133174 52.42793817 139.97624108 52.44039726 141.62108994 C52.50870251 152.11760177 51.64665836 159.74284053 45.80078125 168.68359375 C43.09330102 171.27335745 41.06838282 172.50086236 37.74609375 174.10546875 C36.84391113 174.5447168 35.94172852 174.98396484 35.01220703 175.43652344 C34.32368652 175.76555664 33.63516602 176.09458984 32.92578125 176.43359375 C32.92213562 177.11375549 32.91848999 177.79391724 32.91473389 178.49468994 C32.87295567 185.56760956 32.80364254 192.63987743 32.71826172 199.71240234 C32.69001872 202.35263555 32.66882087 204.99295383 32.65478516 207.63330078 C32.63340269 211.42655095 32.58677334 215.21877454 32.53515625 219.01171875 C32.53392761 220.19413147 32.53269897 221.37654419 32.53143311 222.5947876 C32.51171448 223.69562683 32.49199585 224.79646606 32.47167969 225.93066406 C32.46279724 226.89885071 32.45391479 227.86703735 32.44476318 228.86456299 C31.78061995 232.15216182 30.48166824 233.33282281 27.92578125 235.43359375 C25.10576798 236.84360039 23.0557087 236.67907826 19.92578125 236.43359375 C15.29342831 234.16888787 15.29342831 234.16888787 13.92578125 231.43359375 C13.80647077 229.67768498 13.74858257 227.91744768 13.72045898 226.15771484 C13.70051376 225.05672455 13.68056854 223.95573425 13.66001892 222.82138062 C13.63495018 221.03227768 13.63495018 221.03227768 13.609375 219.20703125 C13.5885939 217.98907867 13.56781281 216.7711261 13.54640198 215.51626587 C13.48085541 211.61376755 13.4219977 207.71120025 13.36328125 203.80859375 C13.3201009 201.16796153 13.27648677 198.52733636 13.23242188 195.88671875 C13.12516881 189.40241732 13.02341196 182.91804681 12.92578125 176.43359375 C11.88538696 175.9312748 11.88538696 175.9312748 10.82397461 175.41880798 C9.91784424 174.97501297 9.01171387 174.53121796 8.078125 174.07397461 C7.17827881 173.63597031 6.27843262 173.197966 5.35131836 172.74668884 C2.51627075 171.21190008 0.79512838 169.6178531 -1.07421875 166.99609375 C-1.61046875 166.27550781 -2.14671875 165.55492187 -2.69921875 164.8125 C-5.70548908 159.61131071 -6.33215812 154.88546202 -6.38061523 148.93457031 C-6.38893875 148.20848572 -6.39726227 147.48240112 -6.40583801 146.73431396 C-6.429819 144.34756004 -6.43869615 141.96108016 -6.4453125 139.57421875 C-6.45428912 137.90281091 -6.46341114 136.23140385 -6.47267151 134.55999756 C-6.48913263 131.05983535 -6.49685614 127.55976845 -6.49975586 124.05957031 C-6.50513133 119.59650637 -6.54278856 115.13435105 -6.58850002 110.67154312 C-6.6183935 107.21918551 -6.62548209 103.76704329 -6.62648201 100.31456757 C-6.63066133 98.67046709 -6.64300271 97.02636459 -6.66399956 95.38239288 C-6.78471136 85.11249155 -6.51476289 76.17059137 0.94508362 68.30426025 C4.76550297 64.70298675 8.09579552 62.84858662 12.92578125 60.43359375 C12.92578125 47.23359375 12.92578125 34.03359375 12.92578125 20.43359375 C-25.14286988 19.6619319 -56.94927696 28.86605916 -85.07421875 55.43359375 Z M14.92578125 82.43359375 C12.66665096 85.77367401 12.66753622 88.71848216 12.65112305 92.68334961 C12.64159103 93.94823715 12.63205902 95.21312469 12.62223816 96.51634216 C12.6224996 97.89370756 12.6234367 99.27107297 12.625 100.6484375 C12.6211112 102.0656395 12.61677614 103.48284034 12.61201477 104.90003967 C12.60455984 107.86821269 12.60483851 110.83626675 12.61010742 113.80444336 C12.61590116 117.60198311 12.59897039 121.39903499 12.57576275 125.1964941 C12.56100752 128.12279593 12.56015611 131.04898074 12.56327248 133.97531319 C12.56276016 135.3751071 12.55753922 136.77490772 12.54746056 138.17466545 C12.53508025 140.13455334 12.54383947 142.09454001 12.5534668 144.05444336 C12.55283737 145.16822861 12.55220795 146.28201385 12.55155945 147.42955017 C12.97714774 150.84593523 13.87482714 152.68995582 15.92578125 155.43359375 C19.61471241 157.89288119 22.64219546 158.12664954 26.92578125 157.43359375 C30.36890839 155.30911105 31.64195672 154.28506734 32.92578125 150.43359375 C33.0297386 148.42604442 33.07437268 146.41522933 33.08691406 144.4050293 C33.09652161 143.16331467 33.10612915 141.92160004 33.11602783 140.64225769 C33.12087631 139.2849445 33.12515502 137.92762917 33.12890625 136.5703125 C33.13466088 135.1764984 33.14041858 133.78268431 33.1461792 132.38887024 C33.15668087 129.46603019 33.16252877 126.54321758 33.16601562 123.62036133 C33.17149421 119.88457603 33.19551171 116.14915634 33.22398758 112.41348553 C33.24266111 109.53348246 33.24782208 106.65356656 33.2493515 103.77350807 C33.25236868 102.3968589 33.26036557 101.02021092 33.27353668 99.64362144 C33.29069153 97.71260226 33.28685854 95.78143163 33.28222656 93.8503418 C33.28587219 92.75352585 33.28951782 91.6567099 33.29327393 90.5266571 C32.86509843 86.92284666 31.80263714 84.52497364 29.92578125 81.43359375 C24.40973423 78.32197748 20.17800246 79.23658954 14.92578125 82.43359375 Z " fill="#464646" transform="translate(233.07421875,-0.43359375)"/>
</svg>
