<?xml version="1.0" encoding="UTF-8"?>
<svg version="1.1" xmlns="http://www.w3.org/2000/svg" width="512" height="512">
<path d="M0 0 C8.87807576 1.30988003 14.61748622 7.61347081 19.8125 14.5625 C25.69359273 23.51673668 28.24314792 34.75322907 29.36230469 45.31420898 C29.49073761 46.51266701 29.49073761 46.51266701 29.62176514 47.7353363 C29.71617889 48.63978233 29.71617889 48.63978233 29.8125 49.5625 C31.0431015 49.56614563 32.273703 49.56979126 33.54159546 49.57354736 C45.16439204 49.61056084 56.78692523 49.66840316 68.4095211 49.74640274 C74.38419027 49.78583588 80.35871296 49.81804495 86.33349609 49.83349609 C92.1043672 49.84868983 97.87483551 49.88318429 103.64552689 49.93080902 C105.8421846 49.94559469 108.03889983 49.95353939 110.23560715 49.95438385 C113.3233562 49.95676367 116.41000121 49.98392588 119.49755859 50.01660156 C120.84624023 50.00905602 120.84624023 50.00905602 122.22216797 50.00135803 C132.06347459 50.16146832 140.62054617 53.84802029 147.8125 60.5625 C156.83671031 70.16657924 158.26251882 79.13470385 158.20018005 92.02964783 C158.2043586 93.3832274 158.20983896 94.73680347 158.21649987 96.0903731 C158.23090496 99.79051955 158.22672533 103.49044232 158.21933305 107.19060075 C158.21459143 111.18864725 158.22711997 115.18664605 158.23735046 119.18467712 C158.25452405 127.00945371 158.25538151 134.83414995 158.25013756 142.65894049 C158.24609213 149.02020467 158.24754385 155.38144515 158.25288582 161.74270821 C158.25363424 162.64892005 158.25438266 163.5551319 158.25515376 164.48880472 C158.25668528 166.3299096 158.25822363 168.17101448 158.25976873 170.01211936 C158.27348843 187.26742027 158.26805969 204.52267581 158.25658352 221.77797569 C158.24665057 237.55548405 158.25959383 253.33287516 158.28351771 269.11036544 C158.30791399 285.32186876 158.31751535 301.53331747 158.31086498 317.74483877 C158.30737409 326.84193524 158.30959636 335.93894153 158.32711601 345.03602409 C158.34184454 352.77966714 158.34246487 360.52315647 158.3250451 368.26679652 C158.31653828 372.21543877 158.31437762 376.16380652 158.32969666 380.11243439 C158.34356336 383.73158847 158.33875574 387.35023338 158.31945742 390.96935815 C158.31393324 392.88920132 158.3279524 394.80907053 158.34281152 396.72886413 C158.25013703 407.6533846 155.3450478 416.49430436 147.8125 424.5625 C136.84872694 434.8643094 125.73404195 435.00151524 111.48597717 434.95018005 C109.6044244 434.95435523 107.72287415 434.95983375 105.84132856 434.96649987 C100.68180087 434.98094893 95.52243299 434.97671139 90.36289656 434.96933305 C84.79428905 434.96460241 79.22571616 434.9771103 73.65711975 434.98735046 C62.75222554 435.0045455 51.84738893 435.00537704 40.94248468 435.00013756 C32.07931548 434.99609612 23.21616331 434.99753911 14.35299492 435.00288582 C13.09153683 435.00363424 11.83007874 435.00438266 10.53039465 435.00515376 C7.96775377 435.00668524 5.40511289 435.00822359 2.84247201 435.00976873 C-14.36289181 435.01959713 -31.56824745 435.02376159 -48.77361202 435.01614285 C-49.44614997 435.01584567 -50.11868792 435.0155485 -50.81160581 435.01524232 C-56.27283085 435.01279347 -61.7340558 435.01018184 -67.19528076 435.00755819 C-88.49797427 434.99745546 -109.80058896 435.00581277 -131.10327148 435.02905273 C-155.04673263 435.05513148 -178.99013998 435.06792219 -202.93362051 435.06086498 C-215.60775389 435.05737074 -228.28182254 435.0596185 -240.95594597 435.07711601 C-251.74451141 435.09182567 -262.53296655 435.09248948 -273.3215298 435.0750451 C-278.82554954 435.06652283 -284.32937211 435.0644157 -289.83338165 435.07969666 C-294.87361033 435.09351677 -299.91347242 435.08881485 -304.95367975 435.06945742 C-306.77524443 435.06568893 -308.59683829 435.06864379 -310.41837703 435.07906907 C-323.54183682 435.14882754 -334.21564169 433.87232622 -344.1875 424.5625 C-353.21171031 414.95842076 -354.63751882 405.99029615 -354.57518005 393.09535217 C-354.5793586 391.7417726 -354.58483896 390.38819653 -354.59149987 389.0346269 C-354.60590496 385.33448045 -354.60172533 381.63455768 -354.59433305 377.93439925 C-354.58959143 373.93635275 -354.60211997 369.93835395 -354.61235046 365.94032288 C-354.62952405 358.11554629 -354.63038151 350.29085005 -354.62513756 342.46605951 C-354.62109213 336.10479533 -354.62254385 329.74355485 -354.62788582 323.38229179 C-354.62863424 322.47607995 -354.62938266 321.5698681 -354.63015376 320.63619528 C-354.63168528 318.7950904 -354.63322363 316.95398552 -354.63476873 315.11288064 C-354.64848843 297.85757973 -354.64305969 280.60232419 -354.63158352 263.34702431 C-354.62165057 247.56951595 -354.63459383 231.79212484 -354.65851771 216.01463456 C-354.68291399 199.80313124 -354.69251535 183.59168253 -354.68586498 167.38016123 C-354.68237409 158.28306476 -354.68459636 149.18605847 -354.70211601 140.08897591 C-354.71684454 132.34533286 -354.71746487 124.60184353 -354.7000451 116.85820348 C-354.69153828 112.90956123 -354.68937762 108.96119348 -354.70469666 105.01256561 C-354.71856336 101.39341153 -354.71375574 97.77476662 -354.69445742 94.15564185 C-354.68893324 92.23579868 -354.7029524 90.31592947 -354.71781152 88.39613587 C-354.62513703 77.4716154 -351.7200478 68.63069564 -344.1875 60.5625 C-334.39785724 51.36393001 -325.29373228 50.11348969 -312.15953064 50.20173645 C-310.74520445 50.20042655 -309.33087898 50.19779673 -307.91655737 50.19396895 C-304.04886052 50.18728828 -300.18141479 50.19922307 -296.31374991 50.21430314 C-292.1359553 50.22729433 -287.95817412 50.22287186 -283.78036499 50.22059631 C-276.54824931 50.21902552 -269.31621501 50.22841438 -262.0841198 50.24530983 C-251.62781952 50.26972166 -241.17155848 50.27750733 -230.7152328 50.2812738 C-213.74934189 50.28783486 -196.78349433 50.30778665 -179.81762695 50.33618164 C-163.33976457 50.36373115 -146.86191397 50.38496037 -130.3840332 50.39770508 C-128.85973173 50.39888733 -128.85973173 50.39888733 -127.30463629 50.40009347 C-122.20650378 50.40400867 -117.10837118 50.40779977 -112.01023853 50.41152918 C-69.73596233 50.44261433 -27.46173341 50.49544072 14.8125 50.5625 C14.20110942 47.51387759 13.57813078 44.46773278 12.953125 41.421875 C12.69523193 40.13482666 12.69523193 40.13482666 12.43212891 38.82177734 C10.00113794 27.05125829 5.68356174 19.80063616 -4.40625 13.0859375 C-6.1875 11.5625 -6.1875 11.5625 -6.625 8.125 C-5.99197982 2.97040713 -5.30330563 0.93587746 0 0 Z M-333.59375 72.015625 C-340.99878146 80.54002168 -340.33537992 89.32053398 -340.32121277 100.11251831 C-340.32347833 101.37805042 -340.32574388 102.64358254 -340.32807809 103.94746411 C-340.33417932 107.4487676 -340.33406448 110.95004715 -340.33288372 114.45135474 C-340.33267929 118.23194733 -340.33820245 122.01253231 -340.34294128 125.79312134 C-340.35123892 133.19536805 -340.35399571 140.5976068 -340.35455366 147.99985777 C-340.35502919 154.01744504 -340.35708578 160.03502968 -340.36025429 166.05261612 C-340.36905802 183.12030325 -340.37367404 200.1879841 -340.37292381 217.25567351 C-340.37288386 218.17531981 -340.3728439 219.0949661 -340.37280273 220.04248047 C-340.37276185 220.96325174 -340.37272097 221.88402302 -340.37267885 222.83269645 C-340.37227234 237.75739177 -340.38184394 252.68206186 -340.3959411 267.60674988 C-340.41030774 282.93789498 -340.41721114 298.26902778 -340.41634732 313.60017979 C-340.41601548 322.20484745 -340.41875711 330.80948865 -340.42952538 339.41415024 C-340.4386341 346.73951699 -340.44080252 354.0648453 -340.43401595 361.39021526 C-340.43075279 365.12599736 -340.43068673 368.86170571 -340.4393692 372.59748077 C-340.44869361 376.65121437 -340.44245297 380.70477746 -340.43473816 384.7585144 C-340.43988172 385.93371796 -340.44502529 387.10892153 -340.45032471 388.31973732 C-340.41252908 397.30640006 -340.07516773 405.36646166 -334.1875 412.5625 C-326.69399504 419.814279 -319.71907489 420.72191013 -309.51089668 420.69113445 C-308.76600847 420.69288749 -308.02112025 420.69464053 -307.25365967 420.69644669 C-304.7617899 420.70109245 -302.26997885 420.69864486 -299.77810669 420.69621277 C-297.97181649 420.69808145 -296.1655267 420.70038238 -294.35923755 420.70307809 C-289.39853458 420.7091953 -284.43784846 420.70906259 -279.47714257 420.70788372 C-274.12598425 420.70767969 -268.77483134 420.71319859 -263.42367554 420.71794128 C-252.94130529 420.72624772 -242.45894067 420.72899611 -231.9765674 420.72955366 C-223.45707312 420.73002878 -214.9375807 420.73208331 -206.41808701 420.73525429 C-182.26719663 420.74406047 -158.1163107 420.74867366 -133.96541871 420.74792381 C-132.66343698 420.74788386 -131.36145525 420.7478439 -130.02001953 420.74780273 C-128.71644957 420.74776185 -127.4128796 420.74772097 -126.06980751 420.74767885 C-104.93724999 420.74727229 -83.80471027 420.75684464 -62.6721579 420.7709411 C-40.97678348 420.78529891 -19.28141776 420.79221163 2.41396153 420.79134732 C14.59567271 420.79101517 26.77736521 420.79377031 38.95907211 420.80452538 C49.32937255 420.81362248 59.69964584 420.81581208 70.06994854 420.80901595 C75.36112738 420.8057469 80.65225412 420.805708 85.94342804 420.8143692 C90.78805882 420.82221794 95.63259603 420.8208194 100.47722448 420.81208507 C102.22884657 420.81054651 103.98047558 420.81237962 105.7320895 420.81794515 C121.73671578 421.26314662 121.73671578 421.26314662 135.8125 414.5625 C144.41963015 405.66846551 143.96165911 396.77890869 143.94621277 385.01248169 C143.94847833 383.74694958 143.95074388 382.48141746 143.95307809 381.17753589 C143.95917932 377.6762324 143.95906448 374.17495285 143.95788372 370.67364526 C143.95767929 366.89305267 143.96320245 363.11246769 143.96794128 359.33187866 C143.97623892 351.92963195 143.97899571 344.5273932 143.97955366 337.12514223 C143.98002919 331.10755496 143.98208578 325.08997032 143.98525429 319.07238388 C143.99405802 302.00469675 143.99867404 284.9370159 143.99792381 267.86932649 C143.99788386 266.94968019 143.9978439 266.0300339 143.99780273 265.08251953 C143.99776185 264.16174826 143.99772097 263.24097698 143.99767885 262.29230355 C143.99727234 247.36760823 144.00684394 232.44293814 144.0209411 217.51825012 C144.03530774 202.18710502 144.04221114 186.85597222 144.04134732 171.52482021 C144.04101548 162.92015255 144.04375711 154.31551135 144.05452538 145.71084976 C144.0636341 138.38548301 144.06580252 131.0601547 144.05901595 123.73478474 C144.05575279 119.99900264 144.05568673 116.26329429 144.0643692 112.52751923 C144.07369361 108.47378563 144.06745297 104.42022254 144.05973816 100.3664856 C144.0674535 98.60368025 144.0674535 98.60368025 144.07532471 96.80526268 C144.03752908 87.81859994 143.70016773 79.75853834 137.8125 72.5625 C129.92003312 64.92462882 122.21681688 64.4030295 111.66430664 64.44897461 C110.33141098 64.44875557 110.33141098 64.44875557 108.97158813 64.4485321 C106.05525206 64.44922482 103.13898107 64.45698703 100.22265625 64.46484375 C98.19241877 64.46671021 96.16218084 64.46813304 94.13194275 64.46913147 C88.80385074 64.47293869 83.47578626 64.48275358 78.14770508 64.49383545 C72.70459363 64.50408823 67.26147771 64.50863736 61.81835938 64.51367188 C51.14972753 64.52437752 40.48111606 64.5414323 29.8125 64.5625 C29.4825 67.5325 29.1525 70.5025 28.8125 73.5625 C29.96105469 73.58828125 31.10960937 73.6140625 32.29296875 73.640625 C48.82037385 74.1727878 63.24711943 77.33221576 75.125 89.75 C82.90707019 99.09807199 86.90842319 109.95248024 87.4375 122 C87.47617187 122.73154297 87.51484375 123.46308594 87.5546875 124.21679688 C87.64783984 125.99833532 87.73120286 127.78038122 87.8125 129.5625 C88.39257812 129.58828125 88.97265625 129.6140625 89.5703125 129.640625 C96.34158002 130.13226819 100.38168997 131.75583737 104.94726562 137.02734375 C107.51941502 141.90230752 107.38773036 146.00494126 107.34375 151.4375 C107.3475769 152.48019043 107.35140381 153.52288086 107.35534668 154.59716797 C107.35806178 156.79590829 107.35072885 158.99468114 107.33398438 161.19335938 C107.31257004 164.55151647 107.33380079 167.90753415 107.359375 171.265625 C107.35673165 173.4062547 107.35160654 175.54688308 107.34375 177.6875 C107.35184692 178.68765137 107.35994385 179.68780273 107.36828613 180.71826172 C107.29071501 186.50858699 106.75538444 190.00996554 102.8125 194.5625 C98.02249808 198.68412956 93.8737986 199.2218381 87.8125 199.5625 C88.37083556 205.87357382 89.50448005 211.61017611 91.25 217.6875 C98.13676797 242.97758459 98.77553634 270.76013854 86.25 294.52734375 C75.72418096 311.89981823 59.79841453 323.78450278 40.21484375 329.19921875 C33.75255451 330.75036832 27.56377685 331.06300427 20.9375 331 C19.79490723 330.99097656 18.65231445 330.98195313 17.47509766 330.97265625 C8.93200789 330.79743834 1.73137425 329.97001559 -6.1875 326.5625 C-6.8283252 326.28873535 -7.46915039 326.0149707 -8.12939453 325.73291016 C-27.0068548 317.48547606 -40.87432442 304.65385616 -48.875 285.5 C-52.37368417 275.81654511 -54.40730142 266.06396959 -54.0859375 255.76171875 C-54.05653076 254.77486084 -54.02712402 253.78800293 -53.99682617 252.77124023 C-53.91699874 250.83250557 -53.79870906 248.89488732 -53.63793945 246.96118164 C-53.5125794 244.28400496 -53.47472516 242.14922471 -54.1875 239.5625 C-56.09052924 237.72721614 -57.88467835 236.65203887 -60.25927734 235.50341797 C-62.70130092 234.31177972 -63.85755493 232.90946189 -65.1875 230.5625 C-66.12942029 227.73673913 -66.3288837 225.9341133 -66.36450195 223.00268555 C-66.37733719 222.08130295 -66.39017242 221.15992035 -66.40339661 220.21061707 C-66.41447701 218.7199749 -66.41447701 218.7199749 -66.42578125 217.19921875 C-66.433853 216.17447952 -66.44192474 215.1497403 -66.45024109 214.09394836 C-66.46407442 211.92438445 -66.47479993 209.75479884 -66.48266602 207.58520508 C-66.49987953 204.27317941 -66.54377324 200.96215181 -66.58789062 197.65039062 C-66.59801775 195.541674 -66.60653379 193.4329489 -66.61328125 191.32421875 C-66.63078934 190.33653 -66.64829742 189.34884125 -66.66633606 188.33122253 C-66.64772299 182.40902948 -66.10993577 179.08378784 -62.1875 174.5625 C-60.87191297 173.53926564 -59.54372245 172.53123032 -58.1875 171.5625 C-58.1875 170.9025 -58.1875 170.2425 -58.1875 169.5625 C-59.66476336 168.37426643 -61.14629382 167.18907744 -62.6796875 166.07421875 C-67.26166278 161.48037307 -66.50980258 155.02871891 -66.5234375 149.00390625 C-66.5300943 147.98199692 -66.5367511 146.96008759 -66.54360962 145.9072113 C-66.55371832 143.7496012 -66.55842719 141.59195994 -66.55810547 139.43432617 C-66.56248016 136.13993717 -66.59882382 132.84688667 -66.63671875 129.55273438 C-66.64258701 127.45312957 -66.64655634 125.35351842 -66.6484375 123.25390625 C-66.66999405 121.78178429 -66.66999405 121.78178429 -66.69198608 120.27992249 C-66.6536599 114.52230788 -66.10543441 111.09180341 -62.1875 106.5625 C-57.59701261 102.65542787 -54.62012279 102.232511 -48.6875 102.4375 C-43.43858307 102.38256515 -43.43858307 102.38256515 -39.16015625 99.56640625 C-38.20532694 97.8286698 -37.31168522 96.05614424 -36.4765625 94.2578125 C-32.1875091 85.28979174 -22.97196378 80.3595229 -14.1875 76.5625 C-8.00410616 74.65150315 -2.19702163 74.193081 4.25 74 C6.04050802 73.9403587 7.83089075 73.87677923 9.62109375 73.80859375 C10.40282959 73.78466553 11.18456543 73.7607373 11.98999023 73.73608398 C13.83138354 73.75590865 13.83138354 73.75590865 14.8125 72.5625 C14.88398199 71.21006083 14.89649454 69.85415633 14.875 68.5 C14.8440625 66.5509375 14.8440625 66.5509375 14.8125 64.5625 C-27.32913623 64.51672002 -69.4707696 64.4814795 -111.61242577 64.46036934 C-116.58789001 64.45786793 -121.5633542 64.45527929 -126.53881836 64.45263672 C-127.52934167 64.4521121 -128.51986498 64.45158748 -129.54040415 64.45104696 C-145.57778381 64.44234489 -161.61514913 64.42657599 -177.65252029 64.40819441 C-194.10893344 64.38948987 -210.56533908 64.3783821 -227.02176243 64.37432301 C-237.17583868 64.37157911 -247.32987439 64.36291332 -257.48393817 64.34666707 C-264.44741604 64.33609336 -271.41087297 64.33290026 -278.37435829 64.33549725 C-282.39160465 64.33677793 -286.40878018 64.33481768 -290.42601395 64.32408905 C-294.10701364 64.31433034 -297.78789511 64.31388205 -301.46890033 64.32070221 C-303.42470547 64.32194246 -305.3805093 64.3133402 -307.33629411 64.30433738 C-317.1718112 64.33768697 -326.34662703 64.52693127 -333.59375 72.015625 Z M-22.1875 98.5625 C-30.34748678 109.10771369 -32.34951653 119.1408979 -32.31347656 132.23144531 C-32.3153447 133.05880188 -32.31721283 133.88615845 -32.31913757 134.73858643 C-32.32311876 136.52381329 -32.3252143 138.30904517 -32.32559967 140.09427643 C-32.32905689 143.92252761 -32.35048086 147.75061523 -32.37083054 151.57880783 C-32.40856911 158.68439632 -32.44013286 165.78980727 -32.43798828 172.89550781 C-32.43719143 177.85874254 -32.46097417 182.821371 -32.4998703 187.78444672 C-32.51018643 189.65466317 -32.51196322 191.52495088 -32.50421906 193.39517975 C-32.46020986 205.21132997 -33.75035341 215.74578699 -36.98309326 227.12957764 C-42.77169424 247.55847264 -41.04564829 269.428571 -31.2109375 288.2265625 C-28.1285343 293.30836237 -24.43348848 297.43147511 -20.1875 301.5625 C-19.65898437 302.12324219 -19.13046875 302.68398438 -18.5859375 303.26171875 C-11.24195688 310.4362229 0.72842947 315.27907284 10.8125 316.5625 C11.62460937 316.69398438 12.43671875 316.82546875 13.2734375 316.9609375 C28.93773736 319.02807385 44.85864159 315.00260399 57.47265625 305.49609375 C72.12919928 293.38425936 79.43137992 278.42069746 81.55859375 259.6015625 C82.6841343 244.84286676 80.40919463 229.50296495 75.79429626 215.46531677 C74.59244716 211.24702147 74.51990092 207.22747471 74.52539062 202.86425781 C74.51855759 202.02259064 74.51172455 201.18092346 74.50468445 200.31375122 C74.4911558 198.49631645 74.48206455 196.67884426 74.47697449 194.86136627 C74.46863556 191.97602859 74.44808271 189.09099991 74.42443848 186.20574951 C74.37634822 180.07471268 74.34335381 173.94364461 74.3125 167.8125 C74.27670236 160.71676722 74.23455667 153.6211856 74.17655945 146.52559662 C74.15666173 143.69911091 74.14820524 140.87274434 74.14025879 138.04620361 C74.04841624 122.4012201 73.26662432 109.58745467 62.13671875 97.67578125 C52.33783367 88.76620675 40.60208567 87.13618048 27.8125 87.5625 C26.45500922 97.59580114 26.45500922 97.59580114 29.453125 106.62890625 C31.52771218 107.79298017 33.61125377 108.66850728 35.8125 109.5625 C40.26244223 114.24664971 42.06041585 118.61720457 42.07128906 125.05541992 C42.07759338 126.12970749 42.08389771 127.20399506 42.09039307 128.31083679 C42.0863446 129.45994034 42.08229614 130.60904388 42.078125 131.79296875 C42.08003845 132.97973709 42.0819519 134.16650543 42.08392334 135.38923645 C42.08528261 137.89320081 42.08160423 140.39717228 42.07324219 142.90112305 C42.06251091 146.74609049 42.07316112 150.59059369 42.0859375 154.43554688 C42.08461642 156.86718854 42.08205509 159.29882991 42.078125 161.73046875 C42.08217346 162.88564499 42.08622192 164.04082123 42.09039307 165.23100281 C42.08408875 166.29583389 42.07778442 167.36066498 42.07128906 168.45776367 C42.06969788 169.39754562 42.06810669 170.33732758 42.06646729 171.30558777 C41.8125 173.5625 41.8125 173.5625 39.8125 175.5625 C36.9921875 175.9765625 36.9921875 175.9765625 33.6875 176.1875 C32.04394531 176.29964844 32.04394531 176.29964844 30.3671875 176.4140625 C29.52414062 176.46304688 28.68109375 176.51203125 27.8125 176.5625 C27.80441315 177.66052948 27.79632629 178.75855896 27.78799438 179.88986206 C27.71062744 190.22007755 27.6229124 200.5501598 27.52497292 210.88020134 C27.4749521 216.19142909 27.42862273 221.50263639 27.390625 226.81396484 C27.3538451 231.93632371 27.30750538 237.0585138 27.25443649 242.18072891 C27.23585363 244.13838882 27.22076019 246.09608496 27.20915604 248.05379868 C27.19235993 250.78848436 27.1633416 253.52278017 27.13134766 256.25732422 C27.12918747 257.07299866 27.12702728 257.8886731 27.12480164 258.72906494 C27.04060432 264.33439568 27.04060432 264.33439568 24.8125 266.5625 C22.9375 266.828125 22.9375 266.828125 20.8125 266.8125 C20.11125 266.81765625 19.41 266.8228125 18.6875 266.828125 C16.8125 266.5625 16.8125 266.5625 14.8125 264.5625 C14.59481982 261.76300163 14.50107348 259.05950273 14.49365234 256.25732422 C14.48360672 255.39871796 14.4735611 254.54011169 14.46321106 253.65548706 C14.43224974 250.8093942 14.41530811 247.96339594 14.3984375 245.1171875 C14.37973625 243.14705585 14.36016364 241.1769323 14.3397522 239.20681763 C14.28831471 234.01516482 14.2487513 228.82348601 14.21160889 223.63171387 C14.17164189 218.33644111 14.12051632 213.0412776 14.0703125 207.74609375 C13.97341575 197.35163911 13.88905513 186.95712295 13.8125 176.5625 C12.43964844 176.48902344 12.43964844 176.48902344 11.0390625 176.4140625 C9.85054688 176.33929688 8.66203125 176.26453125 7.4375 176.1875 C6.25414062 176.11789063 5.07078125 176.04828125 3.8515625 175.9765625 C0.8125 175.5625 0.8125 175.5625 -1.1875 173.5625 C-1.45492554 171.32577515 -1.45492554 171.32577515 -1.47802734 168.50537109 C-1.49078705 167.45022308 -1.50354675 166.39507507 -1.51669312 165.30795288 C-1.51891876 164.16218781 -1.52114441 163.01642273 -1.5234375 161.8359375 C-1.5300943 160.65915436 -1.5367511 159.48237122 -1.54360962 158.26992798 C-1.55375384 155.77322964 -1.5584261 153.27650409 -1.55810547 150.77978516 C-1.56245846 146.97382217 -1.59870562 143.16903733 -1.63671875 139.36328125 C-1.64259065 136.93750396 -1.64655754 134.51172117 -1.6484375 132.0859375 C-1.66280853 130.95231781 -1.67717957 129.81869812 -1.69198608 128.65072632 C-1.65048276 121.40625601 -0.85975247 115.50777649 4.22451782 110.04550171 C7.29989939 107.30776181 9.91984179 106.11956328 13.8125 104.5625 C13.8125 98.9525 13.8125 93.3425 13.8125 87.5625 C0.7811031 87.18477835 -12.51084053 88.88584053 -22.1875 98.5625 Z M-51.91259766 116.57446289 C-53.88748349 119.65402921 -53.61510917 122.8280909 -53.5859375 126.37109375 C-53.58880768 127.13422379 -53.59167786 127.89735382 -53.59463501 128.68360901 C-53.59667523 130.29664858 -53.59114824 131.90971292 -53.57861328 133.52270508 C-53.56257996 135.98770744 -53.57845076 138.45106477 -53.59765625 140.91601562 C-53.59567338 142.48437861 -53.59182879 144.05274058 -53.5859375 145.62109375 C-53.59201019 146.35661972 -53.59808289 147.09214569 -53.6043396 147.84996033 C-53.56163716 150.9691256 -53.34135418 153.26124397 -51.91259766 156.05883789 C-50.06635282 158.00054558 -50.06635282 158.00054558 -46.1875 157.5625 C-46.1875 143.7025 -46.1875 129.8425 -46.1875 115.5625 C-49.94580428 115.22518034 -49.94580428 115.22518034 -51.91259766 116.57446289 Z M14.4375 120.3125 C11.23024045 124.75332092 11.67918264 129.52996287 11.71484375 134.828125 C11.7162587 135.62152283 11.71767365 136.41492065 11.71913147 137.23236084 C11.72471585 139.75911272 11.73726546 142.28577504 11.75 144.8125 C11.75501702 146.52864455 11.75957957 148.24479049 11.76367188 149.9609375 C11.77382802 154.16152035 11.79340641 158.36191027 11.8125 162.5625 C17.4225 162.5625 23.0325 162.5625 28.8125 162.5625 C28.85848749 157.52686964 28.89828988 152.49197208 28.92236328 147.45629883 C28.93240208 145.74435961 28.94603595 144.03243745 28.96337891 142.32055664 C28.98772073 139.85558858 28.99900438 137.39084785 29.0078125 134.92578125 C29.01813507 134.16413162 29.02845764 133.40248199 29.03909302 132.61775208 C29.04014715 127.59089319 28.38017534 123.95526762 25.625 119.75 C21.84442499 117.27307154 17.96830937 117.71085099 14.4375 120.3125 Z M87.8125 143.5625 C87.8125 157.4225 87.8125 171.2825 87.8125 185.5625 C90.2875 185.0675 90.2875 185.0675 92.8125 184.5625 C94.02988411 180.91034768 93.99379522 177.52333992 94.015625 173.71875 C94.02132507 172.95324829 94.02702515 172.18774658 94.03289795 171.39904785 C94.04233534 169.78183368 94.04887692 168.16460039 94.05273438 166.54736328 C94.06246423 164.07160147 94.09350798 161.59666164 94.125 159.12109375 C94.13152802 157.54948409 94.13677928 155.97786851 94.140625 154.40625 C94.1529718 153.66556274 94.1653186 152.92487549 94.17803955 152.16174316 C94.16413104 148.13666984 94.16413104 148.13666984 92.47949219 144.57226562 C90.70966909 143.30344909 90.70966909 143.30344909 87.8125 143.5625 Z M-51.91479492 184.57006836 C-53.89602735 187.67170615 -53.59489903 190.8782384 -53.55078125 194.44140625 C-53.55127975 195.20927963 -53.55177826 195.97715302 -53.55229187 196.76829529 C-53.54995333 198.389746 -53.54023769 200.01120048 -53.52368164 201.63256836 C-53.5000541 204.11930643 -53.50312623 206.60497483 -53.50976562 209.09179688 C-53.50418994 210.66667308 -53.49708075 212.24154476 -53.48828125 213.81640625 C-53.48919266 214.56225479 -53.49010406 215.30810333 -53.49104309 216.07655334 C-53.56975933 220.27761979 -53.56975933 220.27761979 -51.1875 223.5625 C-46.50888483 210.02793469 -45.53440412 197.83415205 -46.1875 183.5625 C-49.94492535 183.22659104 -49.94492535 183.22659104 -51.91479492 184.57006836 Z " fill="#464646" transform="translate(354.1875,38.4375)"/>
<path d="M0 0 C8.97324547 2.15665985 15.84138031 7.38733062 20.875 15.0625 C24.0931767 20.38486917 25.29090386 25.48940856 25.3125 31.6875 C25.32925781 32.80511719 25.34601563 33.92273438 25.36328125 35.07421875 C25 38 25 38 23.73046875 39.87109375 C21.65779227 41.22324612 20.46166024 41.40297341 18 41.375 C16.9790625 41.38660156 16.9790625 41.38660156 15.9375 41.3984375 C13.34845359 40.86601263 12.55473203 40.13492357 11 38 C10.19140625 35.29296875 10.19140625 35.29296875 9.5625 32.1875 C8.03232968 25.68231439 6.41110417 21.70195589 0.8125 17.75 C-2.65453124 15.93037021 -6.1342217 15.18890606 -9.984375 14.58984375 C-12.45924511 13.86560851 -13.46548541 13.06349322 -15 11 C-15.3984375 9.0625 -15.3984375 9.0625 -15.375 7 C-15.38273437 6.319375 -15.39046875 5.63875 -15.3984375 4.9375 C-13.90479123 -2.32572108 -5.6789212 -0.61018934 0 0 Z " fill="#464646" transform="translate(457,111)"/>
<path d="M0 0 C2.17930965 1.50376993 2.86521336 2.34456693 3.3984375 4.9375 C3.39070313 5.618125 3.38296875 6.29875 3.375 7 C3.38660156 8.0209375 3.38660156 8.0209375 3.3984375 9.0625 C2.86596492 11.65177842 2.13735385 12.44803606 0 14 C-2.70703125 14.7734375 -2.70703125 14.7734375 -5.8125 15.375 C-12.53041672 16.94089122 -15.90992282 18.79023861 -19.75 24.6875 C-21.13256101 28.35128667 -21.80508269 31.86571697 -22.375 35.73046875 C-23.10187577 38.36993641 -23.7912896 39.39970751 -26 41 C-27.9375 41.3984375 -27.9375 41.3984375 -30 41.375 C-31.0209375 41.38660156 -31.0209375 41.38660156 -32.0625 41.3984375 C-34.66651799 40.8629338 -35.49282435 40.19393153 -37 38 C-38.23164115 29.98878458 -37.20789381 22.89517802 -33 16 C-32.57589844 15.30132812 -32.15179688 14.60265625 -31.71484375 13.8828125 C-24.34861202 3.00787429 -12.94865615 -1.73769844 0 0 Z " fill="#464646" transform="translate(67,111)"/>
<path d="M0 0 C1.0209375 -0.01160156 1.0209375 -0.01160156 2.0625 -0.0234375 C4.64607054 0.50786128 5.48835926 1.21617362 7 3.375 C8.52114063 12.37850803 6.44152648 20.41095489 1.3046875 27.8203125 C-4.01018871 34.34018089 -10.10005514 37.74168505 -18 40.375 C-19.99653512 40.5191942 -21.99848106 40.5955659 -24 40.625 C-25.5778125 40.66367187 -25.5778125 40.66367187 -27.1875 40.703125 C-30 40.375 -30 40.375 -31.8515625 39.109375 C-33.22617619 37.03342779 -33.40313171 35.85059069 -33.375 33.375 C-33.38273437 32.694375 -33.39046875 32.01375 -33.3984375 31.3125 C-32.86596492 28.72322158 -32.13735385 27.92696394 -30 26.375 C-27.29296875 25.6015625 -27.29296875 25.6015625 -24.1875 25 C-17.45588454 23.43091572 -14.04187194 21.58365591 -10.25 15.625 C-8.9457503 12.23395079 -8.21773017 9.00068511 -7.625 5.42578125 C-6.37491939 1.32395424 -4.19100742 -0.04762508 0 0 Z " fill="#464646" transform="translate(475,410.625)"/>
<path d="M0 0 C1.0209375 -0.01160156 1.0209375 -0.01160156 2.0625 -0.0234375 C4.65177842 0.50903508 5.44803606 1.23764615 7 3.375 C7.7734375 6.08203125 7.7734375 6.08203125 8.375 9.1875 C9.94408428 15.91911546 11.79134409 19.33312806 17.75 23.125 C21.14104921 24.4292497 24.37431489 25.15726983 27.94921875 25.75 C30.42920151 26.50580427 31.45752297 27.29914306 33 29.375 C33.3984375 31.3125 33.3984375 31.3125 33.375 33.375 C33.38660156 34.3959375 33.38660156 34.3959375 33.3984375 35.4375 C32.86713872 38.02107054 32.15882638 38.86335926 30 40.375 C20.99649197 41.89614063 12.96404511 39.81652648 5.5546875 34.6796875 C-0.96518089 29.36481129 -4.36668505 23.27494486 -7 15.375 C-7.1441942 13.37846488 -7.2205659 11.37651894 -7.25 9.375 C-7.27578125 8.323125 -7.3015625 7.27125 -7.328125 6.1875 C-7 3.375 -7 3.375 -5.734375 1.5234375 C-3.65842779 0.14882381 -2.47559069 -0.02813171 0 0 Z " fill="#474747" transform="translate(37,410.625)"/>
</svg>
